<svg width="624" height="432" viewBox="0 0 624 432" fill="none" xmlns="http://www.w3.org/2000/svg">
<g id="&#209;&#131;&#208;&#187;. &#208;&#145;&#208;&#190;&#208;&#179;&#208;&#176;&#209;&#130;&#208;&#186;&#208;&#190;&#208;&#178;&#208;&#176;_1 1" clip-path="url(#clip0)">
<g id="&#208;&#161;&#208;&#187;&#208;&#190;&#208;&#185; 2">
<g id="&#208;&#161;&#208;&#187;&#208;&#190;&#208;&#185; 1">
<path id="Vector" d="M221 429H449.67V247H575.67L620.33 202.33V156.33H573V117H447.67V35.1299" stroke="#111111" stroke-width="6" stroke-miterlimit="10"/>
<path id="Vector_2" d="M180.33 428.33H40.33L3 391V3H135V117H277L276.85 35.13" stroke="#111111" stroke-width="6" stroke-miterlimit="10"/>
<path id="Vector_3" d="M198.33 391V253H276.33V347.67" stroke="#111111" stroke-width="6" stroke-miterlimit="10"/>
<path id="Vector_4" d="M277 384.33V429.67" stroke="#111111" stroke-width="6" stroke-miterlimit="10"/>
<path id="Vector_5" d="M46.9102 10.1001H16.6602C15.0033 10.1001 13.6602 11.4432 13.6602 13.1001V47.1001C13.6602 48.757 15.0033 50.1001 16.6602 50.1001H46.9102C48.567 50.1001 49.9102 48.757 49.9102 47.1001V13.1001C49.9102 11.4432 48.567 10.1001 46.9102 10.1001Z" stroke="#B6B6B6" stroke-miterlimit="10"/>
<path id="1-" d="M51.29 18.72H12.29C10.6332 18.72 9.29004 20.0631 9.29004 21.72V38.47C9.29004 40.1268 10.6332 41.47 12.29 41.47H51.29C52.9469 41.47 54.29 40.1268 54.29 38.47V21.72C54.29 20.0631 52.9469 18.72 51.29 18.72Z" fill="#308410"/>
<path id="6" d="M35.0234 23.4585V24.6084H34.7744C33.7197 24.6279 32.8799 24.9404 32.2549 25.5459C31.6299 26.1514 31.2686 27.0034 31.1709 28.1021C31.7324 27.4575 32.499 27.1353 33.4707 27.1353C34.3984 27.1353 35.1382 27.4624 35.6899 28.1167C36.2466 28.771 36.5249 29.6157 36.5249 30.6509C36.5249 31.7495 36.2246 32.6284 35.624 33.2876C35.0283 33.9468 34.2275 34.2764 33.2217 34.2764C32.2012 34.2764 31.3735 33.8857 30.7388 33.1045C30.104 32.3184 29.7866 31.3076 29.7866 30.0723V29.5522C29.7866 27.5894 30.2041 26.0903 31.0391 25.0552C31.8789 24.0151 33.1265 23.4829 34.7817 23.4585H35.0234ZM33.2437 28.2632C32.7798 28.2632 32.3525 28.4023 31.9619 28.6807C31.5713 28.959 31.3003 29.3081 31.1489 29.728V30.2261C31.1489 31.105 31.3467 31.813 31.7422 32.3501C32.1377 32.8872 32.6309 33.1558 33.2217 33.1558C33.832 33.1558 34.3105 32.9312 34.6572 32.4819C35.0088 32.0327 35.1846 31.4443 35.1846 30.7168C35.1846 29.9844 35.0063 29.3936 34.6499 28.9443C34.2983 28.4902 33.8296 28.2632 33.2437 28.2632Z" fill="white"/>
<path id="Vector_6" d="M46.9102 62.98H16.6602C15.0033 62.98 13.6602 64.3231 13.6602 65.98V99.98C13.6602 101.637 15.0033 102.98 16.6602 102.98H46.9102C48.567 102.98 49.9102 101.637 49.9102 99.98V65.98C49.9102 64.3231 48.567 62.98 46.9102 62.98Z" stroke="#B6B6B6" stroke-miterlimit="10"/>
<path id="9" d="M51.29 71.6101H12.29C10.6332 71.6101 9.29004 72.9533 9.29004 74.6101V91.3601C9.29004 93.017 10.6332 94.3601 12.29 94.3601H51.29C52.9469 94.3601 54.29 93.017 54.29 91.3601V74.6101C54.29 72.9533 52.9469 71.6101 51.29 71.6101Z" fill="#FF2400"/>
<path id="6_2" d="M35.0234 76.3386V77.4885H34.7744C33.7197 77.5081 32.8799 77.8206 32.2549 78.426C31.6299 79.0315 31.2686 79.8835 31.1709 80.9822C31.7324 80.3376 32.499 80.0154 33.4707 80.0154C34.3984 80.0154 35.1382 80.3425 35.6899 80.9968C36.2466 81.6511 36.5249 82.4958 36.5249 83.531C36.5249 84.6296 36.2246 85.5085 35.624 86.1677C35.0283 86.8269 34.2275 87.1565 33.2217 87.1565C32.2012 87.1565 31.3735 86.7659 30.7388 85.9846C30.104 85.1985 29.7866 84.1877 29.7866 82.9524V82.4324C29.7866 80.4695 30.2041 78.9705 31.0391 77.9353C31.8789 76.8953 33.1265 76.363 34.7817 76.3386H35.0234ZM33.2437 81.1433C32.7798 81.1433 32.3525 81.2825 31.9619 81.5608C31.5713 81.8391 31.3003 82.1882 31.1489 82.6082V83.1062C31.1489 83.9851 31.3467 84.6931 31.7422 85.2302C32.1377 85.7673 32.6309 86.0359 33.2217 86.0359C33.832 86.0359 34.3105 85.8113 34.6572 85.3621C35.0088 84.9128 35.1846 84.3245 35.1846 83.5969C35.1846 82.8645 35.0063 82.2737 34.6499 81.8245C34.2983 81.3704 33.8296 81.1433 33.2437 81.1433Z" fill="white"/>
<path id="Vector_7" d="M46.9102 182.12H16.6602C15.0033 182.12 13.6602 183.463 13.6602 185.12V219.12C13.6602 220.777 15.0033 222.12 16.6602 222.12H46.9102C48.567 222.12 49.9102 220.777 49.9102 219.12V185.12C49.9102 183.463 48.567 182.12 46.9102 182.12Z" stroke="#B6B6B6" stroke-miterlimit="10"/>
<path id="7" d="M51.29 190.75H12.29C10.6332 190.75 9.29004 192.093 9.29004 193.75V210.5C9.29004 212.157 10.6332 213.5 12.29 213.5H51.29C52.9469 213.5 54.29 212.157 54.29 210.5V193.75C54.29 192.093 52.9469 190.75 51.29 190.75Z" fill="#308410"/>
<path id="6_3" d="M35.0234 195.479V196.628H34.7744C33.7197 196.648 32.8799 196.96 32.2549 197.566C31.6299 198.171 31.2686 199.023 31.1709 200.122C31.7324 199.478 32.499 199.155 33.4707 199.155C34.3984 199.155 35.1382 199.482 35.6899 200.137C36.2466 200.791 36.5249 201.636 36.5249 202.671C36.5249 203.77 36.2246 204.648 35.624 205.308C35.0283 205.967 34.2275 206.296 33.2217 206.296C32.2012 206.296 31.3735 205.906 30.7388 205.125C30.104 204.338 29.7866 203.328 29.7866 202.092V201.572C29.7866 199.609 30.2041 198.11 31.0391 197.075C31.8789 196.035 33.1265 195.503 34.7817 195.479H35.0234ZM33.2437 200.283C32.7798 200.283 32.3525 200.422 31.9619 200.701C31.5713 200.979 31.3003 201.328 31.1489 201.748V202.246C31.1489 203.125 31.3467 203.833 31.7422 204.37C32.1377 204.907 32.6309 205.176 33.2217 205.176C33.832 205.176 34.3105 204.951 34.6572 204.502C35.0088 204.053 35.1846 203.464 35.1846 202.737C35.1846 202.004 35.0063 201.414 34.6499 200.964C34.2983 200.51 33.8296 200.283 33.2437 200.283Z" fill="white"/>
<path id="Vector_8" d="M46.9102 229.24H16.6602C15.0033 229.24 13.6602 230.583 13.6602 232.24V266.24C13.6602 267.897 15.0033 269.24 16.6602 269.24H46.9102C48.567 269.24 49.9102 267.897 49.9102 266.24V232.24C49.9102 230.583 48.567 229.24 46.9102 229.24Z" stroke="#B6B6B6" stroke-miterlimit="10"/>
<path id="6_4" d="M51.29 237.86H12.29C10.6332 237.86 9.29004 239.203 9.29004 240.86V257.61C9.29004 259.267 10.6332 260.61 12.29 260.61H51.29C52.9469 260.61 54.29 259.267 54.29 257.61V240.86C54.29 239.203 52.9469 237.86 51.29 237.86Z" fill="#308410"/>
<path id="6_5" d="M35.0234 242.599V243.749H34.7744C33.7197 243.768 32.8799 244.081 32.2549 244.686C31.6299 245.292 31.2686 246.144 31.1709 247.242C31.7324 246.598 32.499 246.275 33.4707 246.275C34.3984 246.275 35.1382 246.603 35.6899 247.257C36.2466 247.911 36.5249 248.756 36.5249 249.791C36.5249 250.89 36.2246 251.769 35.624 252.428C35.0283 253.087 34.2275 253.417 33.2217 253.417C32.2012 253.417 31.3735 253.026 30.7388 252.245C30.104 251.458 29.7866 250.448 29.7866 249.212V248.692C29.7866 246.729 30.2041 245.23 31.0391 244.195C31.8789 243.155 33.1265 242.623 34.7817 242.599H35.0234ZM33.2437 247.403C32.7798 247.403 32.3525 247.542 31.9619 247.821C31.5713 248.099 31.3003 248.448 31.1489 248.868V249.366C31.1489 250.245 31.3467 250.953 31.7422 251.49C32.1377 252.027 32.6309 252.296 33.2217 252.296C33.832 252.296 34.3105 252.071 34.6572 251.622C35.0088 251.173 35.1846 250.584 35.1846 249.857C35.1846 249.125 35.0063 248.534 34.6499 248.084C34.2983 247.63 33.8296 247.403 33.2437 247.403Z" fill="white"/>
<path id="Vector_9" d="M46.9102 114.04H16.6602C15.0033 114.04 13.6602 115.383 13.6602 117.04V164.74C13.6602 166.397 15.0033 167.74 16.6602 167.74H46.9102C48.567 167.74 49.9102 166.397 49.9102 164.74V117.04C49.9102 115.383 48.567 114.04 46.9102 114.04Z" stroke="#B6B6B6" stroke-miterlimit="10"/>
<path id="8" d="M28.0601 121.67L28.0601 160.67C28.0601 162.327 29.4032 163.67 31.0601 163.67H47.8101C49.4669 163.67 50.8101 162.327 50.8101 160.67V121.67C50.8101 120.013 49.4669 118.67 47.8101 118.67H31.0601C29.4032 118.67 28.0601 120.013 28.0601 121.67Z" fill="#308410"/>
<path id="8_2" d="M44.0234 137.429C44.0234 137.961 43.8818 138.435 43.5986 138.85C43.3203 139.265 42.9419 139.59 42.4634 139.824C43.02 140.063 43.4595 140.413 43.7817 140.872C44.1089 141.331 44.2725 141.851 44.2725 142.432C44.2725 143.354 43.96 144.089 43.335 144.636C42.7148 145.183 41.897 145.457 40.8813 145.457C39.856 145.457 39.0332 145.183 38.4131 144.636C37.7979 144.084 37.4902 143.35 37.4902 142.432C37.4902 141.855 37.6465 141.335 37.959 140.872C38.2764 140.408 38.7134 140.056 39.27 139.817C38.7964 139.583 38.4229 139.258 38.1494 138.843C37.876 138.428 37.7393 137.957 37.7393 137.429C37.7393 136.531 38.0273 135.818 38.6035 135.291C39.1797 134.763 39.939 134.5 40.8813 134.5C41.8188 134.5 42.5757 134.763 43.1519 135.291C43.7329 135.818 44.0234 136.531 44.0234 137.429ZM42.9175 142.402C42.9175 141.807 42.7271 141.321 42.3462 140.945C41.9702 140.569 41.4771 140.381 40.8667 140.381C40.2563 140.381 39.7656 140.566 39.3945 140.938C39.0283 141.309 38.8452 141.797 38.8452 142.402C38.8452 143.008 39.0234 143.484 39.3799 143.831C39.7412 144.177 40.2417 144.351 40.8813 144.351C41.5161 144.351 42.0142 144.177 42.3755 143.831C42.7368 143.479 42.9175 143.003 42.9175 142.402ZM40.8813 135.613C40.3491 135.613 39.917 135.779 39.585 136.111C39.2578 136.438 39.0942 136.885 39.0942 137.451C39.0942 137.993 39.2554 138.433 39.5776 138.77C39.9048 139.102 40.3394 139.268 40.8813 139.268C41.4233 139.268 41.8555 139.102 42.1777 138.77C42.5049 138.433 42.6685 137.993 42.6685 137.451C42.6685 136.909 42.5 136.467 42.1631 136.125C41.8262 135.784 41.3989 135.613 40.8813 135.613Z" fill="white"/>
<path id="Vector_10" d="M105.53 416.31V386.06C105.53 384.403 104.187 383.06 102.53 383.06H68.5298C66.8729 383.06 65.5298 384.403 65.5298 386.06V416.31C65.5298 417.967 66.8729 419.31 68.5298 419.31H102.53C104.187 419.31 105.53 417.967 105.53 416.31Z" stroke="#B6B6B6" stroke-miterlimit="10"/>
<path id="2" d="M96.8999 420.68V381.68C96.8999 380.023 95.5568 378.68 93.8999 378.68H77.1499C75.493 378.68 74.1499 380.023 74.1499 381.68V420.68C74.1499 422.337 75.493 423.68 77.1499 423.68H93.8999C95.5568 423.68 96.8999 422.337 96.8999 420.68Z" fill="#308410"/>
<path id="6_6" d="M88.7637 394.539V395.688H88.5146C87.46 395.708 86.6201 396.021 85.9951 396.626C85.3701 397.231 85.0088 398.083 84.9111 399.182C85.4727 398.538 86.2393 398.215 87.2109 398.215C88.1387 398.215 88.8784 398.542 89.4302 399.197C89.9868 399.851 90.2651 400.696 90.2651 401.731C90.2651 402.83 89.9648 403.708 89.3643 404.368C88.7686 405.027 87.9678 405.356 86.9619 405.356C85.9414 405.356 85.1138 404.966 84.479 404.185C83.8442 403.398 83.5269 402.388 83.5269 401.152V400.632C83.5269 398.669 83.9443 397.17 84.7793 396.135C85.6191 395.095 86.8667 394.563 88.522 394.539H88.7637ZM86.9839 399.343C86.52 399.343 86.0928 399.482 85.7021 399.761C85.3115 400.039 85.0405 400.388 84.8892 400.808V401.306C84.8892 402.185 85.0869 402.893 85.4824 403.43C85.8779 403.967 86.3711 404.236 86.9619 404.236C87.5723 404.236 88.0508 404.011 88.3975 403.562C88.749 403.113 88.9248 402.524 88.9248 401.797C88.9248 401.064 88.7466 400.474 88.3901 400.024C88.0386 399.57 87.5698 399.343 86.9839 399.343Z" fill="white"/>
<path id="Vector_11" d="M154.97 416.3V386.05C154.97 384.393 153.627 383.05 151.97 383.05H117.97C116.313 383.05 114.97 384.393 114.97 386.05V416.3C114.97 417.957 116.313 419.3 117.97 419.3H151.97C153.627 419.3 154.97 417.957 154.97 416.3Z" stroke="#B6B6B6" stroke-miterlimit="10"/>
<path id="1" d="M146.34 420.68V381.68C146.34 380.023 144.997 378.68 143.34 378.68H126.59C124.933 378.68 123.59 380.023 123.59 381.68V420.68C123.59 422.337 124.933 423.68 126.59 423.68H143.34C144.997 423.68 146.34 422.337 146.34 420.68Z" fill="#308410"/>
<path id="6_7" d="M138.204 394.539V395.688H137.955C136.9 395.708 136.06 396.021 135.435 396.626C134.81 397.231 134.449 398.083 134.351 399.182C134.913 398.538 135.679 398.215 136.651 398.215C137.579 398.215 138.318 398.542 138.87 399.197C139.427 399.851 139.705 400.696 139.705 401.731C139.705 402.83 139.405 403.708 138.804 404.368C138.208 405.027 137.408 405.356 136.402 405.356C135.381 405.356 134.554 404.966 133.919 404.185C133.284 403.398 132.967 402.388 132.967 401.152V400.632C132.967 398.669 133.384 397.17 134.219 396.135C135.059 395.095 136.307 394.563 137.962 394.539H138.204ZM136.424 399.343C135.96 399.343 135.533 399.482 135.142 399.761C134.751 400.039 134.48 400.388 134.329 400.808V401.306C134.329 402.185 134.527 402.893 134.922 403.43C135.318 403.967 135.811 404.236 136.402 404.236C137.012 404.236 137.491 404.011 137.837 403.562C138.189 403.113 138.365 402.524 138.365 401.797C138.365 401.064 138.187 400.474 137.83 400.024C137.479 399.57 137.01 399.343 136.424 399.343Z" fill="white"/>
<path id="Vector_12" d="M324.53 413.91V383.66C324.53 382.003 323.187 380.66 321.53 380.66H287.53C285.873 380.66 284.53 382.003 284.53 383.66V413.91C284.53 415.567 285.873 416.91 287.53 416.91H321.53C323.187 416.91 324.53 415.567 324.53 413.91Z" stroke="#B6B6B6" stroke-miterlimit="10"/>
<path id="27" d="M315.9 418.28V379.28C315.9 377.623 314.557 376.28 312.9 376.28H296.15C294.493 376.28 293.15 377.623 293.15 379.28V418.28C293.15 419.937 294.493 421.28 296.15 421.28H312.9C314.557 421.28 315.9 419.937 315.9 418.28Z" fill="#308410"/>
<path id="6_8" d="M307.764 392.139V393.289H307.515C306.46 393.308 305.62 393.621 304.995 394.226C304.37 394.832 304.009 395.684 303.911 396.782C304.473 396.138 305.239 395.815 306.211 395.815C307.139 395.815 307.878 396.143 308.43 396.797C308.987 397.451 309.265 398.296 309.265 399.331C309.265 400.43 308.965 401.309 308.364 401.968C307.769 402.627 306.968 402.957 305.962 402.957C304.941 402.957 304.114 402.566 303.479 401.785C302.844 400.999 302.527 399.988 302.527 398.752V398.232C302.527 396.27 302.944 394.771 303.779 393.735C304.619 392.695 305.867 392.163 307.522 392.139H307.764ZM305.984 396.943C305.52 396.943 305.093 397.083 304.702 397.361C304.312 397.639 304.041 397.988 303.889 398.408V398.906C303.889 399.785 304.087 400.493 304.482 401.03C304.878 401.567 305.371 401.836 305.962 401.836C306.572 401.836 307.051 401.611 307.397 401.162C307.749 400.713 307.925 400.125 307.925 399.397C307.925 398.665 307.747 398.074 307.39 397.625C307.039 397.17 306.57 396.943 305.984 396.943Z" fill="white"/>
<path id="Vector_13" d="M324.53 288.77V258.52C324.53 256.863 323.187 255.52 321.53 255.52H287.53C285.873 255.52 284.53 256.863 284.53 258.52V288.77C284.53 290.427 285.873 291.77 287.53 291.77H321.53C323.187 291.77 324.53 290.427 324.53 288.77Z" stroke="#B6B6B6" stroke-miterlimit="10"/>
<path id="26" d="M315.9 293.14V254.14C315.9 252.483 314.557 251.14 312.9 251.14H296.15C294.493 251.14 293.15 252.483 293.15 254.14V293.14C293.15 294.797 294.493 296.14 296.15 296.14H312.9C314.557 296.14 315.9 294.797 315.9 293.14Z" fill="#FF2400"/>
<path id="10" d="M302.899 277.67H301.537V268.639L298.805 269.643V268.412L302.687 266.955H302.899V277.67ZM313.556 273.122C313.556 274.708 313.285 275.888 312.743 276.659C312.201 277.431 311.354 277.816 310.202 277.816C309.064 277.816 308.222 277.44 307.675 276.688C307.128 275.932 306.845 274.804 306.825 273.305V271.496C306.825 269.928 307.096 268.764 307.638 268.002C308.18 267.24 309.03 266.859 310.187 266.859C311.334 266.859 312.179 267.228 312.721 267.965C313.263 268.698 313.542 269.831 313.556 271.364V273.122ZM312.201 271.269C312.201 270.121 312.04 269.286 311.718 268.764C311.396 268.236 310.885 267.973 310.187 267.973C309.494 267.973 308.988 268.234 308.671 268.756C308.354 269.279 308.19 270.082 308.18 271.166V273.334C308.18 274.486 308.346 275.338 308.678 275.89C309.015 276.437 309.523 276.71 310.202 276.71C310.871 276.71 311.366 276.452 311.688 275.934C312.016 275.417 312.187 274.601 312.201 273.488V271.269Z" fill="white"/>
<path id="Vector_14" d="M435.53 413.91V383.66C435.53 382.003 434.187 380.66 432.53 380.66H398.53C396.873 380.66 395.53 382.003 395.53 383.66V413.91C395.53 415.567 396.873 416.91 398.53 416.91H432.53C434.187 416.91 435.53 415.567 435.53 413.91Z" stroke="#B6B6B6" stroke-miterlimit="10"/>
<path id="29" d="M426.9 418.28V379.28C426.9 377.623 425.557 376.28 423.9 376.28H407.15C405.493 376.28 404.15 377.623 404.15 379.28V418.28C404.15 419.937 405.493 421.28 407.15 421.28H423.9C425.557 421.28 426.9 419.937 426.9 418.28Z" fill="#308410"/>
<path id="6_9" d="M418.764 392.139V393.289H418.515C417.46 393.308 416.62 393.621 415.995 394.226C415.37 394.832 415.009 395.684 414.911 396.782C415.473 396.138 416.239 395.815 417.211 395.815C418.139 395.815 418.878 396.143 419.43 396.797C419.987 397.451 420.265 398.296 420.265 399.331C420.265 400.43 419.965 401.309 419.364 401.968C418.769 402.627 417.968 402.957 416.962 402.957C415.941 402.957 415.114 402.566 414.479 401.785C413.844 400.999 413.527 399.988 413.527 398.752V398.232C413.527 396.27 413.944 394.771 414.779 393.735C415.619 392.695 416.867 392.163 418.522 392.139H418.764ZM416.984 396.943C416.52 396.943 416.093 397.083 415.702 397.361C415.312 397.639 415.041 397.988 414.889 398.408V398.906C414.889 399.785 415.087 400.493 415.482 401.03C415.878 401.567 416.371 401.836 416.962 401.836C417.572 401.836 418.051 401.611 418.397 401.162C418.749 400.713 418.925 400.125 418.925 399.397C418.925 398.665 418.747 398.074 418.39 397.625C418.039 397.17 417.57 396.943 416.984 396.943Z" fill="white"/>
<path id="Vector_15" d="M435.54 356.15V325.9C435.54 324.243 434.197 322.9 432.54 322.9H398.54C396.883 322.9 395.54 324.243 395.54 325.9V356.15C395.54 357.807 396.883 359.15 398.54 359.15H432.54C434.197 359.15 435.54 357.807 435.54 356.15Z" stroke="#B6B6B6" stroke-miterlimit="10"/>
<path id="30" d="M426.91 360.52V321.52C426.91 319.863 425.567 318.52 423.91 318.52H407.16C405.503 318.52 404.16 319.863 404.16 321.52V360.52C404.16 362.177 405.503 363.52 407.16 363.52H423.91C425.567 363.52 426.91 362.177 426.91 360.52Z" fill="#308410"/>
<path id="6_10" d="M418.764 334.389V335.539H418.515C417.46 335.558 416.62 335.871 415.995 336.476C415.37 337.082 415.009 337.934 414.911 339.032C415.473 338.388 416.239 338.065 417.211 338.065C418.139 338.065 418.878 338.393 419.43 339.047C419.987 339.701 420.265 340.546 420.265 341.581C420.265 342.68 419.965 343.559 419.364 344.218C418.769 344.877 417.968 345.207 416.962 345.207C415.941 345.207 415.114 344.816 414.479 344.035C413.844 343.249 413.527 342.238 413.527 341.002V340.482C413.527 338.52 413.944 337.021 414.779 335.985C415.619 334.945 416.867 334.413 418.522 334.389H418.764ZM416.984 339.193C416.52 339.193 416.093 339.333 415.702 339.611C415.312 339.889 415.041 340.238 414.889 340.658V341.156C414.889 342.035 415.087 342.743 415.482 343.28C415.878 343.817 416.371 344.086 416.962 344.086C417.572 344.086 418.051 343.861 418.397 343.412C418.749 342.963 418.925 342.375 418.925 341.647C418.925 340.915 418.747 340.324 418.39 339.875C418.039 339.42 417.57 339.193 416.984 339.193Z" fill="white"/>
<path id="Vector_16" d="M379.83 413.91V383.66C379.83 382.003 378.487 380.66 376.83 380.66H342.83C341.173 380.66 339.83 382.003 339.83 383.66V413.91C339.83 415.567 341.173 416.91 342.83 416.91H376.83C378.487 416.91 379.83 415.567 379.83 413.91Z" stroke="#B6B6B6" stroke-miterlimit="10"/>
<path id="28" d="M371.2 418.29V379.29C371.2 377.633 369.857 376.29 368.2 376.29H351.45C349.793 376.29 348.45 377.633 348.45 379.29V418.29C348.45 419.947 349.793 421.29 351.45 421.29H368.2C369.857 421.29 371.2 419.947 371.2 418.29Z" fill="#308410"/>
<path id="6_11" d="M363.063 392.139V393.289H362.814C361.76 393.308 360.92 393.621 360.295 394.226C359.67 394.832 359.309 395.684 359.211 396.782C359.772 396.138 360.539 395.815 361.511 395.815C362.438 395.815 363.178 396.143 363.73 396.797C364.287 397.451 364.565 398.296 364.565 399.331C364.565 400.43 364.265 401.309 363.664 401.968C363.068 402.627 362.268 402.957 361.262 402.957C360.241 402.957 359.414 402.566 358.779 401.785C358.144 400.999 357.827 399.988 357.827 398.752V398.232C357.827 396.27 358.244 394.771 359.079 393.735C359.919 392.695 361.167 392.163 362.822 392.139H363.063ZM361.284 396.943C360.82 396.943 360.393 397.083 360.002 397.361C359.611 397.639 359.34 397.988 359.189 398.408V398.906C359.189 399.785 359.387 400.493 359.782 401.03C360.178 401.567 360.671 401.836 361.262 401.836C361.872 401.836 362.351 401.611 362.697 401.162C363.049 400.713 363.225 400.125 363.225 399.397C363.225 398.665 363.046 398.074 362.69 397.625C362.338 397.17 361.87 396.943 361.284 396.943Z" fill="white"/>
<path id="Vector_17" d="M234.08 238.49V208.24C234.08 206.583 232.737 205.24 231.08 205.24H197.08C195.423 205.24 194.08 206.583 194.08 208.24V238.49C194.08 240.147 195.423 241.49 197.08 241.49H231.08C232.737 241.49 234.08 240.147 234.08 238.49Z" stroke="#B6B6B6" stroke-miterlimit="10"/>
<path id="24" d="M225.45 242.86V203.86C225.45 202.203 224.107 200.86 222.45 200.86H205.7C204.043 200.86 202.7 202.203 202.7 203.86V242.86C202.7 244.517 204.043 245.86 205.7 245.86H222.45C224.107 245.86 225.45 244.517 225.45 242.86Z" fill="#308410"/>
<path id="6_12" d="M217.313 216.729V217.878H217.064C216.01 217.898 215.17 218.21 214.545 218.816C213.92 219.421 213.559 220.273 213.461 221.372C214.022 220.728 214.789 220.405 215.761 220.405C216.688 220.405 217.428 220.732 217.98 221.387C218.537 222.041 218.815 222.886 218.815 223.921C218.815 225.02 218.515 225.898 217.914 226.558C217.318 227.217 216.518 227.546 215.512 227.546C214.491 227.546 213.664 227.156 213.029 226.375C212.394 225.588 212.077 224.578 212.077 223.342V222.822C212.077 220.859 212.494 219.36 213.329 218.325C214.169 217.285 215.417 216.753 217.072 216.729H217.313ZM215.534 221.533C215.07 221.533 214.643 221.672 214.252 221.951C213.861 222.229 213.59 222.578 213.439 222.998V223.496C213.439 224.375 213.637 225.083 214.032 225.62C214.428 226.157 214.921 226.426 215.512 226.426C216.122 226.426 216.601 226.201 216.947 225.752C217.299 225.303 217.475 224.714 217.475 223.987C217.475 223.254 217.296 222.664 216.94 222.214C216.588 221.76 216.12 221.533 215.534 221.533Z" fill="white"/>
<path id="Vector_18" d="M282.96 238.49V208.24C282.96 206.583 281.617 205.24 279.96 205.24H245.96C244.303 205.24 242.96 206.583 242.96 208.24V238.49C242.96 240.147 244.303 241.49 245.96 241.49H279.96C281.617 241.49 282.96 240.147 282.96 238.49Z" stroke="#B6B6B6" stroke-miterlimit="10"/>
<path id="25" d="M274.33 242.86V203.86C274.33 202.203 272.987 200.86 271.33 200.86H254.58C252.923 200.86 251.58 202.203 251.58 203.86V242.86C251.58 244.517 252.923 245.86 254.58 245.86H271.33C272.987 245.86 274.33 244.517 274.33 242.86Z" fill="#308410"/>
<path id="6_13" d="M266.184 216.729V217.878H265.935C264.88 217.898 264.04 218.21 263.415 218.816C262.79 219.421 262.429 220.273 262.331 221.372C262.893 220.728 263.659 220.405 264.631 220.405C265.559 220.405 266.298 220.732 266.85 221.387C267.407 222.041 267.685 222.886 267.685 223.921C267.685 225.02 267.385 225.898 266.784 226.558C266.188 227.217 265.388 227.546 264.382 227.546C263.361 227.546 262.534 227.156 261.899 226.375C261.264 225.588 260.947 224.578 260.947 223.342V222.822C260.947 220.859 261.364 219.36 262.199 218.325C263.039 217.285 264.287 216.753 265.942 216.729H266.184ZM264.404 221.533C263.94 221.533 263.513 221.672 263.122 221.951C262.731 222.229 262.46 222.578 262.309 222.998V223.496C262.309 224.375 262.507 225.083 262.902 225.62C263.298 226.157 263.791 226.426 264.382 226.426C264.992 226.426 265.471 226.201 265.817 225.752C266.169 225.303 266.345 224.714 266.345 223.987C266.345 223.254 266.167 222.664 265.81 222.214C265.458 221.76 264.99 221.533 264.404 221.533Z" fill="white"/>
<path id="Vector_19" d="M435.53 297.91V267.66C435.53 266.003 434.187 264.66 432.53 264.66H398.53C396.873 264.66 395.53 266.003 395.53 267.66V297.91C395.53 299.567 396.873 300.91 398.53 300.91H432.53C434.187 300.91 435.53 299.567 435.53 297.91Z" stroke="#B6B6B6" stroke-miterlimit="10"/>
<path id="31" d="M426.9 302.28V263.28C426.9 261.623 425.557 260.28 423.9 260.28H407.15C405.493 260.28 404.15 261.623 404.15 263.28V302.28C404.15 303.937 405.493 305.28 407.15 305.28H423.9C425.557 305.28 426.9 303.937 426.9 302.28Z" fill="#7F7F7F"/>
<path id="6_14" d="M418.764 276.139V277.289H418.515C417.46 277.308 416.62 277.621 415.995 278.226C415.37 278.832 415.009 279.684 414.911 280.782C415.473 280.138 416.239 279.815 417.211 279.815C418.139 279.815 418.878 280.143 419.43 280.797C419.987 281.451 420.265 282.296 420.265 283.331C420.265 284.43 419.965 285.309 419.364 285.968C418.769 286.627 417.968 286.957 416.962 286.957C415.941 286.957 415.114 286.566 414.479 285.785C413.844 284.999 413.527 283.988 413.527 282.752V282.232C413.527 280.27 413.944 278.771 414.779 277.735C415.619 276.695 416.867 276.163 418.522 276.139H418.764ZM416.984 280.943C416.52 280.943 416.093 281.083 415.702 281.361C415.312 281.639 415.041 281.988 414.889 282.408V282.906C414.889 283.785 415.087 284.493 415.482 285.03C415.878 285.567 416.371 285.836 416.962 285.836C417.572 285.836 418.051 285.611 418.397 285.162C418.749 284.713 418.925 284.125 418.925 283.397C418.925 282.665 418.747 282.074 418.39 281.625C418.039 281.17 417.57 280.943 416.984 280.943Z" fill="white"/>
<path id="Vector_20" d="M98.09 192.12H79.29C77.6332 192.12 76.29 193.463 76.29 195.12V219.44C76.29 221.097 77.6332 222.44 79.29 222.44H98.09C99.7469 222.44 101.09 221.097 101.09 219.44V195.12C101.09 193.463 99.7469 192.12 98.09 192.12Z" stroke="#B6B6B6" stroke-miterlimit="10"/>
<path id="13" d="M101.08 198.66H76.29C74.6332 198.66 73.29 200.003 73.29 201.66V212.9C73.29 214.557 74.6332 215.9 76.29 215.9H101.08C102.737 215.9 104.08 214.557 104.08 212.9V201.66C104.08 200.003 102.737 198.66 101.08 198.66Z" fill="#308410"/>
<path id="4" d="M92.6665 207.729H94.146V208.834H92.6665V211.31H91.3042V208.834H86.4482V208.036L91.2236 200.646H92.6665V207.729ZM87.9863 207.729H91.3042V202.499L91.1431 202.792L87.9863 207.729Z" fill="white"/>
<path id="Vector_21" d="M129.21 42.7399V23.9399C129.21 22.2831 127.867 20.9399 126.21 20.9399H101.89C100.233 20.9399 98.89 22.2831 98.89 23.9399V42.7399C98.89 44.3968 100.233 45.7399 101.89 45.7399H126.21C127.867 45.7399 129.21 44.3968 129.21 42.7399Z" stroke="#B6B6B6" stroke-miterlimit="10"/>
<path id="11" d="M122.67 45.7399V20.95C122.67 19.2931 121.327 17.95 119.67 17.95H108.43C106.773 17.95 105.43 19.2931 105.43 20.95V45.7399C105.43 47.3968 106.773 48.7399 108.43 48.7399H119.67C121.327 48.7399 122.67 47.3968 122.67 45.7399Z" fill="#308410"/>
<path id="4_2" d="M118.026 33.7886H119.506V34.8945H118.026V37.3701H116.664V34.8945H111.808V34.0962L116.583 26.7061H118.026V33.7886ZM113.346 33.7886H116.664V28.5591L116.503 28.8521L113.346 33.7886Z" fill="white"/>
<path id="Vector_22" d="M129.21 86.9599V68.1599C129.21 66.5031 127.867 65.1599 126.21 65.1599H101.89C100.233 65.1599 98.89 66.5031 98.89 68.1599V86.9599C98.89 88.6168 100.233 89.9599 101.89 89.9599H126.21C127.867 89.9599 129.21 88.6168 129.21 86.9599Z" stroke="#B6B6B6" stroke-miterlimit="10"/>
<path id="12" d="M122.67 89.9599V65.1699C122.67 63.5131 121.327 62.1699 119.67 62.1699H108.43C106.773 62.1699 105.43 63.5131 105.43 65.1699V89.9599C105.43 91.6168 106.773 92.9599 108.43 92.9599H119.67C121.327 92.9599 122.67 91.6168 122.67 89.9599Z" fill="#308410"/>
<path id="4_3" d="M118.026 78.0085H119.506V79.1145H118.026V81.5901H116.664V79.1145H111.808V78.3162L116.583 70.926H118.026V78.0085ZM113.346 78.0085H116.664V72.7791L116.503 73.072L113.346 78.0085Z" fill="white"/>
<path id="Vector_23" d="M158.59 146.88V128.08C158.59 126.423 157.247 125.08 155.59 125.08H131.27C129.613 125.08 128.27 126.423 128.27 128.08V146.88C128.27 148.537 129.613 149.88 131.27 149.88H155.59C157.247 149.88 158.59 148.537 158.59 146.88Z" stroke="#B6B6B6" stroke-miterlimit="10"/>
<path id="43" d="M152.05 149.88V125.09C152.05 123.433 150.707 122.09 149.05 122.09H137.81C136.153 122.09 134.81 123.433 134.81 125.09V149.88C134.81 151.537 136.153 152.88 137.81 152.88H149.05C150.707 152.88 152.05 151.537 152.05 149.88Z" fill="#FF2400"/>
<path id="4_4" d="M147.406 137.938H148.886V139.044H147.406V141.52H146.044V139.044H141.188V138.246L145.963 130.856H147.406V137.938ZM142.726 137.938H146.044V132.709L145.883 133.002L142.726 137.938Z" fill="white"/>
<path id="Vector_24" d="M200.19 146.88V128.08C200.19 126.423 198.847 125.08 197.19 125.08H172.87C171.213 125.08 169.87 126.423 169.87 128.08V146.88C169.87 148.537 171.213 149.88 172.87 149.88H197.19C198.847 149.88 200.19 148.537 200.19 146.88Z" stroke="#B6B6B6" stroke-miterlimit="10"/>
<path id="42" d="M193.65 149.88V125.09C193.65 123.433 192.307 122.09 190.65 122.09H179.41C177.753 122.09 176.41 123.433 176.41 125.09V149.88C176.41 151.537 177.753 152.88 179.41 152.88H190.65C192.307 152.88 193.65 151.537 193.65 149.88Z" fill="#308410"/>
<path id="4_5" d="M189.006 137.938H190.486V139.044H189.006V141.52H187.644V139.044H182.788V138.246L187.563 130.856H189.006V137.938ZM184.326 137.938H187.644V132.709L187.483 133.002L184.326 137.938Z" fill="white"/>
<path id="Vector_25" d="M241.79 146.88V128.08C241.79 126.423 240.447 125.08 238.79 125.08H214.47C212.813 125.08 211.47 126.423 211.47 128.08V146.88C211.47 148.537 212.813 149.88 214.47 149.88H238.79C240.447 149.88 241.79 148.537 241.79 146.88Z" stroke="#B6B6B6" stroke-miterlimit="10"/>
<path id="41" d="M235.25 149.88V125.09C235.25 123.433 233.907 122.09 232.25 122.09H221.01C219.353 122.09 218.01 123.433 218.01 125.09V149.88C218.01 151.537 219.353 152.88 221.01 152.88H232.25C233.907 152.88 235.25 151.537 235.25 149.88Z" fill="#308410"/>
<path id="4_6" d="M230.606 137.938H232.086V139.044H230.606V141.52H229.244V139.044H224.388V138.246L229.164 130.856H230.606V137.938ZM225.926 137.938H229.244V132.709L229.083 133.002L225.926 137.938Z" fill="white"/>
<path id="Vector_26" d="M283.39 146.88V128.08C283.39 126.423 282.047 125.08 280.39 125.08H256.07C254.413 125.08 253.07 126.423 253.07 128.08V146.88C253.07 148.537 254.413 149.88 256.07 149.88H280.39C282.047 149.88 283.39 148.537 283.39 146.88Z" stroke="#B6B6B6" stroke-miterlimit="10"/>
<path id="40" d="M276.85 149.88V125.09C276.85 123.433 275.507 122.09 273.85 122.09H262.61C260.953 122.09 259.61 123.433 259.61 125.09V149.88C259.61 151.537 260.953 152.88 262.61 152.88H273.85C275.507 152.88 276.85 151.537 276.85 149.88Z" fill="#308410"/>
<path id="4_7" d="M272.207 137.938H273.686V139.044H272.207V141.52H270.844V139.044H265.988V138.246L270.764 130.856H272.207V137.938ZM267.526 137.938H270.844V132.709L270.683 133.002L267.526 137.938Z" fill="white"/>
<path id="Vector_27" d="M432.21 225.97V207.17C432.21 205.513 430.867 204.17 429.21 204.17H404.89C403.233 204.17 401.89 205.513 401.89 207.17V225.97C401.89 227.627 403.233 228.97 404.89 228.97H429.21C430.867 228.97 432.21 227.627 432.21 225.97Z" stroke="#B6B6B6" stroke-miterlimit="10"/>
<path id="32" d="M425.67 228.97V204.18C425.67 202.523 424.327 201.18 422.67 201.18H411.43C409.773 201.18 408.43 202.523 408.43 204.18V228.97C408.43 230.627 409.773 231.97 411.43 231.97H422.67C424.327 231.97 425.67 230.627 425.67 228.97Z" fill="#308410"/>
<path id="4_8" d="M421.026 217.029H422.506V218.135H421.026V220.61H419.664V218.135H414.808V217.336L419.583 209.946H421.026V217.029ZM416.346 217.029H419.664V211.799L419.503 212.092L416.346 217.029Z" fill="white"/>
<path id="Vector_28" d="M473.81 225.97V207.17C473.81 205.513 472.467 204.17 470.81 204.17H446.49C444.833 204.17 443.49 205.513 443.49 207.17V225.97C443.49 227.627 444.833 228.97 446.49 228.97H470.81C472.467 228.97 473.81 227.627 473.81 225.97Z" stroke="#B6B6B6" stroke-miterlimit="10"/>
<path id="33" d="M467.27 228.97V204.18C467.27 202.523 465.927 201.18 464.27 201.18H453.03C451.373 201.18 450.03 202.523 450.03 204.18V228.97C450.03 230.627 451.373 231.97 453.03 231.97H464.27C465.927 231.97 467.27 230.627 467.27 228.97Z" fill="#308410"/>
<path id="4_9" d="M462.626 217.029H464.106V218.135H462.626V220.61H461.264V218.135H456.408V217.336L461.184 209.946H462.626V217.029ZM457.946 217.029H461.264V211.799L461.103 212.092L457.946 217.029Z" fill="white"/>
<path id="Vector_29" d="M515.41 225.97V207.17C515.41 205.513 514.067 204.17 512.41 204.17H488.09C486.433 204.17 485.09 205.513 485.09 207.17V225.97C485.09 227.627 486.433 228.97 488.09 228.97H512.41C514.067 228.97 515.41 227.627 515.41 225.97Z" stroke="#B6B6B6" stroke-miterlimit="10"/>
<path id="34" d="M508.87 228.97V204.18C508.87 202.523 507.527 201.18 505.87 201.18H494.63C492.973 201.18 491.63 202.523 491.63 204.18V228.97C491.63 230.627 492.973 231.97 494.63 231.97H505.87C507.527 231.97 508.87 230.627 508.87 228.97Z" fill="#308410"/>
<path id="4_10" d="M504.227 217.029H505.706V218.135H504.227V220.61H502.864V218.135H498.008V217.336L502.784 209.946H504.227V217.029ZM499.546 217.029H502.864V211.799L502.703 212.092L499.546 217.029Z" fill="white"/>
<path id="Vector_30" d="M557.01 225.97V207.17C557.01 205.513 555.667 204.17 554.01 204.17H529.69C528.033 204.17 526.69 205.513 526.69 207.17V225.97C526.69 227.627 528.033 228.97 529.69 228.97H554.01C555.667 228.97 557.01 227.627 557.01 225.97Z" stroke="#B6B6B6" stroke-miterlimit="10"/>
<path id="35" d="M550.47 228.97V204.18C550.47 202.523 549.127 201.18 547.47 201.18H536.23C534.573 201.18 533.23 202.523 533.23 204.18V228.97C533.23 230.627 534.573 231.97 536.23 231.97H547.47C549.127 231.97 550.47 230.627 550.47 228.97Z" fill="#308410"/>
<path id="4_11" d="M545.826 217.029H547.306V218.135H545.826V220.61H544.464V218.135H539.608V217.336L544.383 209.946H545.826V217.029ZM541.146 217.029H544.464V211.799L544.303 212.092L541.146 217.029Z" fill="white"/>
<path id="Vector_31" d="M98.09 232.91H79.29C77.6332 232.91 76.29 234.253 76.29 235.91V260.23C76.29 261.887 77.6332 263.23 79.29 263.23H98.09C99.7469 263.23 101.09 261.887 101.09 260.23V235.91C101.09 234.253 99.7469 232.91 98.09 232.91Z" stroke="#B6B6B6" stroke-miterlimit="10"/>
<path id="14" d="M101.08 239.44H76.29C74.6332 239.44 73.29 240.783 73.29 242.44V253.68C73.29 255.337 74.6332 256.68 76.29 256.68H101.08C102.737 256.68 104.08 255.337 104.08 253.68V242.44C104.08 240.783 102.737 239.44 101.08 239.44Z" fill="#308410"/>
<path id="4_12" d="M92.6665 248.519H94.146V249.625H92.6665V252.1H91.3042V249.625H86.4482V248.826L91.2236 241.436H92.6665V248.519ZM87.9863 248.519H91.3042V243.289L91.1431 243.582L87.9863 248.519Z" fill="white"/>
<path id="Vector_32" d="M98.09 273.64H79.29C77.6332 273.64 76.29 274.983 76.29 276.64V300.96C76.29 302.617 77.6332 303.96 79.29 303.96H98.09C99.7469 303.96 101.09 302.617 101.09 300.96V276.64C101.09 274.983 99.7469 273.64 98.09 273.64Z" stroke="#B6B6B6" stroke-miterlimit="10"/>
<path id="16" d="M101.08 280.18H76.29C74.6332 280.18 73.29 281.523 73.29 283.18V294.42C73.29 296.077 74.6332 297.42 76.29 297.42H101.08C102.737 297.42 104.08 296.077 104.08 294.42V283.18C104.08 281.523 102.737 280.18 101.08 280.18Z" fill="#308410"/>
<path id="4_13" d="M92.6665 289.249H94.146V290.354H92.6665V292.83H91.3042V290.354H86.4482V289.556L91.2236 282.166H92.6665V289.249ZM87.9863 289.249H91.3042V284.019L91.1431 284.312L87.9863 289.249Z" fill="white"/>
<path id="Vector_33" d="M98.09 316.26H79.29C77.6332 316.26 76.29 317.603 76.29 319.26V343.58C76.29 345.237 77.6332 346.58 79.29 346.58H98.09C99.7469 346.58 101.09 345.237 101.09 343.58V319.26C101.09 317.603 99.7469 316.26 98.09 316.26Z" stroke="#B6B6B6" stroke-miterlimit="10"/>
<path id="18" d="M101.08 322.8H76.29C74.6332 322.8 73.29 324.143 73.29 325.8V337.04C73.29 338.697 74.6332 340.04 76.29 340.04H101.08C102.737 340.04 104.08 338.697 104.08 337.04V325.8C104.08 324.143 102.737 322.8 101.08 322.8Z" fill="#308410"/>
<path id="4_14" d="M92.6665 331.868H94.146V332.974H92.6665V335.45H91.3042V332.974H86.4482V332.176L91.2236 324.786H92.6665V331.868ZM87.9863 331.868H91.3042V326.639L91.1431 326.932L87.9863 331.868Z" fill="white"/>
<path id="Vector_34" d="M139.76 232.91H120.96C119.303 232.91 117.96 234.253 117.96 235.91V260.23C117.96 261.887 119.303 263.23 120.96 263.23H139.76C141.417 263.23 142.76 261.887 142.76 260.23V235.91C142.76 234.253 141.417 232.91 139.76 232.91Z" stroke="#B6B6B6" stroke-miterlimit="10"/>
<path id="15" d="M142.76 239.44H117.97C116.313 239.44 114.97 240.783 114.97 242.44V253.68C114.97 255.337 116.313 256.68 117.97 256.68H142.76C144.417 256.68 145.76 255.337 145.76 253.68V242.44C145.76 240.783 144.417 239.44 142.76 239.44Z" fill="#308410"/>
<path id="4_15" d="M134.336 248.519H135.816V249.625H134.336V252.1H132.974V249.625H128.118V248.826L132.894 241.436H134.336V248.519ZM129.656 248.519H132.974V243.289L132.813 243.582L129.656 248.519Z" fill="white"/>
<path id="Vector_35" d="M316.91 140.43H298.11C296.453 140.43 295.11 141.773 295.11 143.43V167.75C295.11 169.407 296.453 170.75 298.11 170.75H316.91C318.567 170.75 319.91 169.407 319.91 167.75V143.43C319.91 141.773 318.567 140.43 316.91 140.43Z" stroke="#B6B6B6" stroke-miterlimit="10"/>
<path id="39" d="M319.91 146.97H295.12C293.463 146.97 292.12 148.313 292.12 149.97V161.21C292.12 162.867 293.463 164.21 295.12 164.21H319.91C321.567 164.21 322.91 162.867 322.91 161.21V149.97C322.91 148.313 321.567 146.97 319.91 146.97Z" fill="#308410"/>
<path id="4_16" d="M311.486 156.039H312.966V157.145H311.486V159.62H310.124V157.145H305.268V156.346L310.043 148.956H311.486V156.039ZM306.806 156.039H310.124V150.809L309.963 151.102L306.806 156.039Z" fill="white"/>
<path id="Vector_36" d="M358.95 140.43H340.15C338.493 140.43 337.15 141.773 337.15 143.43V167.75C337.15 169.407 338.493 170.75 340.15 170.75H358.95C360.607 170.75 361.95 169.407 361.95 167.75V143.43C361.95 141.773 360.607 140.43 358.95 140.43Z" stroke="#B6B6B6" stroke-miterlimit="10"/>
<path id="38" d="M361.94 146.97H337.15C335.493 146.97 334.15 148.313 334.15 149.97V161.21C334.15 162.867 335.493 164.21 337.15 164.21H361.94C363.597 164.21 364.94 162.867 364.94 161.21V149.97C364.94 148.313 363.597 146.97 361.94 146.97Z" fill="#308410"/>
<path id="4_17" d="M353.526 156.039H355.006V157.145H353.526V159.62H352.164V157.145H347.308V156.346L352.083 148.956H353.526V156.039ZM348.846 156.039H352.164V150.809L352.003 151.102L348.846 156.039Z" fill="white"/>
<path id="Vector_37" d="M400.98 140.43H382.18C380.523 140.43 379.18 141.773 379.18 143.43V167.75C379.18 169.407 380.523 170.75 382.18 170.75H400.98C402.637 170.75 403.98 169.407 403.98 167.75V143.43C403.98 141.773 402.637 140.43 400.98 140.43Z" stroke="#B6B6B6" stroke-miterlimit="10"/>
<path id="37" d="M403.98 146.97H379.19C377.533 146.97 376.19 148.313 376.19 149.97V161.21C376.19 162.867 377.533 164.21 379.19 164.21H403.98C405.637 164.21 406.98 162.867 406.98 161.21V149.97C406.98 148.313 405.637 146.97 403.98 146.97Z" fill="#308410"/>
<path id="4_18" d="M395.566 156.039H397.046V157.145H395.566V159.62H394.204V157.145H389.348V156.346L394.124 148.956H395.566V156.039ZM390.886 156.039H394.204V150.809L394.043 151.102L390.886 156.039Z" fill="white"/>
<path id="Vector_38" d="M443.02 140.43H424.22C422.563 140.43 421.22 141.773 421.22 143.43V167.75C421.22 169.407 422.563 170.75 424.22 170.75H443.02C444.677 170.75 446.02 169.407 446.02 167.75V143.43C446.02 141.773 444.677 140.43 443.02 140.43Z" stroke="#B6B6B6" stroke-miterlimit="10"/>
<path id="36" d="M446.02 146.97H421.23C419.573 146.97 418.23 148.313 418.23 149.97V161.21C418.23 162.867 419.573 164.21 421.23 164.21H446.02C447.677 164.21 449.02 162.867 449.02 161.21V149.97C449.02 148.313 447.677 146.97 446.02 146.97Z" fill="#308410"/>
<path id="4_19" d="M437.597 156.039H439.076V157.145H437.597V159.62H436.234V157.145H431.378V156.346L436.154 148.956H437.597V156.039ZM432.917 156.039H436.234V150.809L436.073 151.102L432.917 156.039Z" fill="white"/>
<path id="Vector_39" d="M187.98 248.06H169.18C167.523 248.06 166.18 249.403 166.18 251.06V275.38C166.18 277.037 167.523 278.38 169.18 278.38H187.98C189.637 278.38 190.98 277.037 190.98 275.38V251.06C190.98 249.403 189.637 248.06 187.98 248.06Z" stroke="#B6B6B6" stroke-miterlimit="10"/>
<path id="23" d="M190.98 254.6H166.19C164.533 254.6 163.19 255.943 163.19 257.6V268.84C163.19 270.497 164.533 271.84 166.19 271.84H190.98C192.637 271.84 193.98 270.497 193.98 268.84V257.6C193.98 255.943 192.637 254.6 190.98 254.6Z" fill="#308410"/>
<path id="4_20" d="M182.557 263.678H184.036V264.784H182.557V267.26H181.194V264.784H176.338V263.986L181.114 256.596H182.557V263.678ZM177.876 263.678H181.194V258.449L181.033 258.742L177.876 263.678Z" fill="white"/>
<path id="Vector_40" d="M187.98 290.54H169.18C167.523 290.54 166.18 291.883 166.18 293.54V317.86C166.18 319.517 167.523 320.86 169.18 320.86H187.98C189.637 320.86 190.98 319.517 190.98 317.86V293.54C190.98 291.883 189.637 290.54 187.98 290.54Z" stroke="#B6B6B6" stroke-miterlimit="10"/>
<path id="22" d="M190.98 297.08H166.19C164.533 297.08 163.19 298.423 163.19 300.08V311.32C163.19 312.977 164.533 314.32 166.19 314.32H190.98C192.637 314.32 193.98 312.977 193.98 311.32V300.08C193.98 298.423 192.637 297.08 190.98 297.08Z" fill="#308410"/>
<path id="4_21" d="M182.557 306.158H184.036V307.264H182.557V309.74H181.194V307.264H176.338V306.466L181.114 299.076H182.557V306.158ZM177.876 306.158H181.194V300.929L181.033 301.222L177.876 306.158Z" fill="white"/>
<path id="Vector_41" d="M187.98 324.88H169.18C167.523 324.88 166.18 326.223 166.18 327.88V352.2C166.18 353.857 167.523 355.2 169.18 355.2H187.98C189.637 355.2 190.98 353.857 190.98 352.2V327.88C190.98 326.223 189.637 324.88 187.98 324.88Z" stroke="#B6B6B6" stroke-miterlimit="10"/>
<path id="21" d="M190.98 331.42H166.19C164.533 331.42 163.19 332.763 163.19 334.42V345.66C163.19 347.317 164.533 348.66 166.19 348.66H190.98C192.637 348.66 193.98 347.317 193.98 345.66V334.42C193.98 332.763 192.637 331.42 190.98 331.42Z" fill="#308410"/>
<path id="4_22" d="M182.557 340.489H184.036V341.594H182.557V344.07H181.194V341.594H176.338V340.796L181.114 333.406H182.557V340.489ZM177.876 340.489H181.194V335.259L181.033 335.552L177.876 340.489Z" fill="white"/>
<path id="Vector_42" d="M187.98 360H169.18C167.523 360 166.18 361.343 166.18 363V387.32C166.18 388.977 167.523 390.32 169.18 390.32H187.98C189.637 390.32 190.98 388.977 190.98 387.32V363C190.98 361.343 189.637 360 187.98 360Z" stroke="#B6B6B6" stroke-miterlimit="10"/>
<path id="20" d="M190.98 366.54H166.19C164.533 366.54 163.19 367.883 163.19 369.54V380.78C163.19 382.437 164.533 383.78 166.19 383.78H190.98C192.637 383.78 193.98 382.437 193.98 380.78V369.54C193.98 367.883 192.637 366.54 190.98 366.54Z" fill="#308410"/>
<path id="4_23" d="M182.557 375.608H184.036V376.714H182.557V379.19H181.194V376.714H176.338V375.916L181.114 368.526H182.557V375.608ZM177.876 375.608H181.194V370.379L181.033 370.672L177.876 375.608Z" fill="white"/>
<path id="Vector_43" d="M139.76 273.64H120.96C119.303 273.64 117.96 274.983 117.96 276.64V300.96C117.96 302.617 119.303 303.96 120.96 303.96H139.76C141.417 303.96 142.76 302.617 142.76 300.96V276.64C142.76 274.983 141.417 273.64 139.76 273.64Z" stroke="#B6B6B6" stroke-miterlimit="10"/>
<path id="17" d="M142.76 280.18H117.97C116.313 280.18 114.97 281.523 114.97 283.18V294.42C114.97 296.077 116.313 297.42 117.97 297.42H142.76C144.417 297.42 145.76 296.077 145.76 294.42V283.18C145.76 281.523 144.417 280.18 142.76 280.18Z" fill="#308410"/>
<path id="4_24" d="M134.336 289.249H135.816V290.354H134.336V292.83H132.974V290.354H128.118V289.556L132.894 282.166H134.336V289.249ZM129.656 289.249H132.974V284.019L132.813 284.312L129.656 289.249Z" fill="white"/>
<path id="Vector_44" d="M139.76 316.26H120.96C119.303 316.26 117.96 317.603 117.96 319.26V343.58C117.96 345.237 119.303 346.58 120.96 346.58H139.76C141.417 346.58 142.76 345.237 142.76 343.58V319.26C142.76 317.603 141.417 316.26 139.76 316.26Z" stroke="#B6B6B6" stroke-miterlimit="10"/>
<path id="19" d="M142.76 322.8H117.97C116.313 322.8 114.97 324.143 114.97 325.8V337.04C114.97 338.697 116.313 340.04 117.97 340.04H142.76C144.417 340.04 145.76 338.697 145.76 337.04V325.8C145.76 324.143 144.417 322.8 142.76 322.8Z" fill="#308410"/>
<path id="4_25" d="M134.336 331.868H135.816V332.974H134.336V335.45H132.974V332.974H128.118V332.176L132.894 324.786H134.336V331.868ZM129.656 331.868H132.974V326.639L132.813 326.932L129.656 331.868Z" fill="white"/>
<path id="Vector_45" d="M19.1602 382.01V398.62C19.1602 400.277 20.5033 401.62 22.1602 401.62H46.4802C48.137 401.62 49.4802 400.277 49.4802 398.62V382.01C49.4802 380.353 48.137 379.01 46.4802 379.01H22.1602C20.5033 379.01 19.1602 380.353 19.1602 382.01Z" stroke="#B6B6B6" stroke-miterlimit="10"/>
<path id="3" d="M25.6899 379.28V401.35C25.6899 403.007 27.0331 404.35 28.6899 404.35H39.9299C41.5868 404.35 42.9299 403.007 42.9299 401.35V379.28C42.9299 377.623 41.5868 376.28 39.9299 376.28H28.6899C27.0331 376.28 25.6899 377.623 25.6899 379.28Z" fill="#308410"/>
<path id="2_2" d="M39.6636 393.28H32.6763V392.306L36.3677 388.204C36.9146 387.584 37.2905 387.081 37.4956 386.696C37.7056 386.305 37.8105 385.902 37.8105 385.487C37.8105 384.93 37.6421 384.474 37.3052 384.117C36.9683 383.761 36.519 383.583 35.9575 383.583C35.2837 383.583 34.7588 383.776 34.3828 384.161C34.0117 384.542 33.8262 385.074 33.8262 385.758H32.4712C32.4712 384.777 32.7861 383.983 33.416 383.378C34.0508 382.772 34.8979 382.469 35.9575 382.469C36.9487 382.469 37.7324 382.731 38.3086 383.253C38.8848 383.771 39.1729 384.462 39.1729 385.326C39.1729 386.376 38.5039 387.626 37.166 389.076L34.3096 392.174H39.6636V393.28Z" fill="white"/>
<path id="Vector_46" d="M46.9102 282.85H16.6602C15.0033 282.85 13.6602 284.193 13.6602 285.85V319.85C13.6602 321.507 15.0033 322.85 16.6602 322.85H46.9102C48.567 322.85 49.9102 321.507 49.9102 319.85V285.85C49.9102 284.193 48.567 282.85 46.9102 282.85Z" stroke="#B6B6B6" stroke-miterlimit="10"/>
<path id="5" d="M51.29 291.48H12.29C10.6332 291.48 9.29004 292.823 9.29004 294.48V311.23C9.29004 312.887 10.6332 314.23 12.29 314.23H51.29C52.9469 314.23 54.29 312.887 54.29 311.23V294.48C54.29 292.823 52.9469 291.48 51.29 291.48Z" fill="#FF2400"/>
<path id="6_15" d="M35.0234 296.208V297.358H34.7744C33.7197 297.378 32.8799 297.69 32.2549 298.296C31.6299 298.901 31.2686 299.753 31.1709 300.852C31.7324 300.208 32.499 299.885 33.4707 299.885C34.3984 299.885 35.1382 300.212 35.6899 300.867C36.2466 301.521 36.5249 302.366 36.5249 303.401C36.5249 304.5 36.2246 305.378 35.624 306.038C35.0283 306.697 34.2275 307.026 33.2217 307.026C32.2012 307.026 31.3735 306.636 30.7388 305.854C30.104 305.068 29.7866 304.058 29.7866 302.822V302.302C29.7866 300.339 30.2041 298.84 31.0391 297.805C31.8789 296.765 33.1265 296.233 34.7817 296.208H35.0234ZM33.2437 301.013C32.7798 301.013 32.3525 301.152 31.9619 301.431C31.5713 301.709 31.3003 302.058 31.1489 302.478V302.976C31.1489 303.855 31.3467 304.563 31.7422 305.1C32.1377 305.637 32.6309 305.906 33.2217 305.906C33.832 305.906 34.3105 305.681 34.6572 305.232C35.0088 304.783 35.1846 304.194 35.1846 303.467C35.1846 302.734 35.0063 302.144 34.6499 301.694C34.2983 301.24 33.8296 301.013 33.2437 301.013Z" fill="white"/>
<path id="Vector_47" d="M46.9102 329.61H16.6602C15.0033 329.61 13.6602 330.953 13.6602 332.61V366.61C13.6602 368.267 15.0033 369.61 16.6602 369.61H46.9102C48.567 369.61 49.9102 368.267 49.9102 366.61V332.61C49.9102 330.953 48.567 329.61 46.9102 329.61Z" stroke="#B6B6B6" stroke-miterlimit="10"/>
<path id="4_26" d="M51.29 338.24H12.29C10.6332 338.24 9.29004 339.583 9.29004 341.24V357.99C9.29004 359.647 10.6332 360.99 12.29 360.99H51.29C52.9469 360.99 54.29 359.647 54.29 357.99V341.24C54.29 339.583 52.9469 338.24 51.29 338.24Z" fill="#FF2400"/>
<path id="6_16" d="M35.0234 342.979V344.128H34.7744C33.7197 344.148 32.8799 344.46 32.2549 345.066C31.6299 345.671 31.2686 346.523 31.1709 347.622C31.7324 346.978 32.499 346.655 33.4707 346.655C34.3984 346.655 35.1382 346.982 35.6899 347.637C36.2466 348.291 36.5249 349.136 36.5249 350.171C36.5249 351.27 36.2246 352.148 35.624 352.808C35.0283 353.467 34.2275 353.796 33.2217 353.796C32.2012 353.796 31.3735 353.406 30.7388 352.625C30.104 351.838 29.7866 350.828 29.7866 349.592V349.072C29.7866 347.109 30.2041 345.61 31.0391 344.575C31.8789 343.535 33.1265 343.003 34.7817 342.979H35.0234ZM33.2437 347.783C32.7798 347.783 32.3525 347.922 31.9619 348.201C31.5713 348.479 31.3003 348.828 31.1489 349.248V349.746C31.1489 350.625 31.3467 351.333 31.7422 351.87C32.1377 352.407 32.6309 352.676 33.2217 352.676C33.832 352.676 34.3105 352.451 34.6572 352.002C35.0088 351.553 35.1846 350.964 35.1846 350.237C35.1846 349.504 35.0063 348.914 34.6499 348.464C34.2983 348.01 33.8296 347.783 33.2437 347.783Z" fill="white"/>
</g>
</g>
</g>
<defs>
<clipPath id="clip0">
<rect width="623.33" height="432" fill="white"/>
</clipPath>
</defs>
</svg>
