<svg width="1052" height="441" viewBox="0 0 1052 441" fill="none" xmlns="http://www.w3.org/2000/svg">
<g id="&#208;&#163;&#208;&#155;. &#208;&#148;&#208;&#163;&#208;&#161;&#208;&#152; &#208;&#154;&#208;&#158;&#208;&#146;&#208;&#144;&#208;&#155;&#208;&#172;&#208;&#167;&#208;&#163;&#208;&#154; 179.2 1" clip-path="url(#clip0)">
<g id="&#208;&#161;&#208;&#187;&#208;&#190;&#208;&#185; 2">
<g id="&#208;&#161;&#208;&#187;&#208;&#190;&#208;&#185; 1">
<path id="Vector" d="M132.6 0V195.96V181.51H3V250.5H132.6V227.45V389.65H180.38V336.43H419.94H411.44V370.92H419.94" stroke="#111111" stroke-width="6" stroke-miterlimit="10"/>
<path id="Vector_2" d="M459.22 336.43H467.73V370.92H459.22" stroke="#111111" stroke-width="6" stroke-miterlimit="10"/>
<path id="Vector_3" d="M467.73 336.43H783.87H772.09V370.92H783.87" stroke="#111111" stroke-width="6" stroke-miterlimit="10"/>
<path id="Vector_4" d="M467.73 370.92V437.43H772.09V370.92" stroke="#111111" stroke-width="6" stroke-miterlimit="10"/>
<path id="Vector_5" d="M1048.96 3.46997V336.43H824.46H832.96V370.92H824.46" stroke="#111111" stroke-width="6" stroke-miterlimit="10"/>
<path id="Vector_6" d="M834.93 228.63V262.17H1048.96" stroke="#111111" stroke-width="6" stroke-miterlimit="10"/>
<path id="Vector_7" d="M895.14 3.46997V98.36L946.53 149.75H1048.96" stroke="#111111" stroke-width="6" stroke-miterlimit="10"/>
<path id="Vector_8" d="M887.95 195.96V149.71H946.53" stroke="#111111" stroke-width="6" stroke-miterlimit="10"/>
<path id="Vector_9" d="M132.6 45.67H179.07V95.11H257.62V45.67H296.24V0" stroke="#111111" stroke-width="6" stroke-miterlimit="10"/>
<path id="Vector_10" d="M179.07 45.67V0V116.87" stroke="#111111" stroke-width="6" stroke-miterlimit="10"/>
<path id="Vector_11" d="M257.62 45.67V0" stroke="#111111" stroke-width="6" stroke-miterlimit="10"/>
<path id="Vector_12" d="M296.24 12.73H467.73V90.31H615.65V109" stroke="#111111" stroke-width="6" stroke-miterlimit="10"/>
<path id="Vector_13" d="M646.42 109V90.3101H859.14V153.36" stroke="#111111" stroke-width="6" stroke-miterlimit="10"/>
<path id="Vector_14" d="M467.73 228.63H613.04" stroke="#111111" stroke-width="6" stroke-miterlimit="10"/>
<path id="Vector_15" d="M649.69 228.63H747.22" stroke="#111111" stroke-width="6" stroke-miterlimit="10"/>
<path id="Vector_16" d="M174.34 383.69H138.85V229.5H182.49L215.07 288.37V330.45H174.06L174.34 383.69Z" stroke="#B6B6B6" stroke-miterlimit="10"/>
<path id="Vector_17" d="M660.46 134.98V128.56H642.71V151.54H850.42V134.98H660.46Z" stroke="#B6B6B6" stroke-miterlimit="10"/>
<path id="&#208;&#177;&#208;&#176;&#209;&#128;" d="M734.47 111.119C735.964 111.119 737.159 111.621 738.053 112.625C738.954 113.621 739.405 114.937 739.405 116.571V116.758C739.405 117.879 739.188 118.883 738.756 119.769C738.324 120.648 737.701 121.334 736.888 121.824C736.082 122.308 735.151 122.55 734.096 122.55C732.498 122.55 731.212 122.019 730.238 120.956C729.263 119.886 728.776 118.454 728.776 116.659V115.669C728.776 113.171 729.238 111.185 730.161 109.712C731.092 108.239 732.462 107.342 734.272 107.019C735.298 106.836 735.99 106.613 736.349 106.349C736.708 106.085 736.888 105.722 736.888 105.261H738.558C738.558 106.177 738.349 106.891 737.932 107.404C737.521 107.917 736.862 108.28 735.953 108.492L734.437 108.833C733.228 109.119 732.319 109.602 731.711 110.284C731.11 110.958 730.718 111.859 730.535 112.988C731.612 111.742 732.923 111.119 734.47 111.119ZM734.074 112.79C733.077 112.79 732.286 113.127 731.7 113.801C731.114 114.468 730.82 115.395 730.82 116.582V116.758C730.82 118.033 731.114 119.044 731.7 119.791C732.293 120.531 733.092 120.901 734.096 120.901C735.107 120.901 735.906 120.528 736.492 119.78C737.078 119.033 737.371 117.941 737.371 116.505C737.371 115.384 737.074 114.486 736.481 113.812C735.895 113.13 735.092 112.79 734.074 112.79ZM749.033 122.33C748.916 122.096 748.82 121.678 748.747 121.077C747.802 122.059 746.673 122.55 745.362 122.55C744.189 122.55 743.226 122.22 742.471 121.561C741.724 120.894 741.35 120.051 741.35 119.033C741.35 117.794 741.819 116.834 742.757 116.153C743.702 115.464 745.028 115.12 746.736 115.12H748.714V114.186C748.714 113.475 748.502 112.911 748.077 112.493C747.652 112.068 747.025 111.855 746.197 111.855C745.472 111.855 744.864 112.039 744.373 112.405C743.882 112.771 743.636 113.215 743.636 113.735H741.592C741.592 113.141 741.801 112.57 742.218 112.02C742.643 111.463 743.215 111.024 743.933 110.701C744.658 110.379 745.453 110.218 746.318 110.218C747.688 110.218 748.762 110.562 749.539 111.251C750.315 111.932 750.718 112.874 750.748 114.076V119.549C750.748 120.641 750.887 121.509 751.165 122.154V122.33H749.033ZM745.659 120.78C746.296 120.78 746.901 120.615 747.472 120.286C748.044 119.956 748.458 119.527 748.714 119V116.56H747.12C744.629 116.56 743.383 117.289 743.383 118.747C743.383 119.384 743.596 119.883 744.021 120.242C744.446 120.601 744.992 120.78 745.659 120.78ZM763.981 116.516C763.981 118.326 763.567 119.784 762.739 120.89C761.911 121.997 760.79 122.55 759.376 122.55C757.932 122.55 756.796 122.092 755.968 121.176V126.902H753.935V110.438H755.793L755.891 111.757C756.719 110.731 757.87 110.218 759.343 110.218C760.772 110.218 761.9 110.756 762.728 111.833C763.563 112.911 763.981 114.409 763.981 116.329V116.516ZM761.948 116.285C761.948 114.944 761.662 113.885 761.09 113.108C760.519 112.332 759.735 111.943 758.738 111.943C757.507 111.943 756.584 112.489 755.968 113.581V119.264C756.577 120.348 757.507 120.89 758.76 120.89C759.735 120.89 760.508 120.506 761.079 119.736C761.658 118.959 761.948 117.809 761.948 116.285Z" fill="#0C0C0C"/>
<path id="&#208;&#187;&#208;&#181;&#209;&#130;&#208;&#189;&#209;&#143;&#209;&#143; &#208;&#178;&#208;&#181;&#209;&#128;&#208;&#176;&#208;&#189;&#208;&#180;&#208;&#176;" d="M570.558 383.547V395.44H568.514V385.229H564.469L564.227 389.681C564.095 391.725 563.751 393.187 563.194 394.066C562.644 394.945 561.769 395.403 560.567 395.44H559.754V393.648L560.336 393.604C560.996 393.531 561.468 393.15 561.754 392.461C562.04 391.773 562.223 390.498 562.304 388.636L562.523 383.547H570.558ZM578.757 395.66C577.145 395.66 575.834 395.132 574.823 394.077C573.811 393.015 573.306 391.597 573.306 389.823V389.45C573.306 388.27 573.529 387.219 573.976 386.295C574.431 385.365 575.061 384.639 575.867 384.119C576.68 383.591 577.559 383.328 578.505 383.328C580.051 383.328 581.252 383.837 582.11 384.855C582.967 385.874 583.396 387.332 583.396 389.23V390.076H575.339C575.368 391.249 575.709 392.198 576.361 392.923C577.021 393.641 577.856 394 578.867 394C579.585 394 580.194 393.854 580.692 393.56C581.19 393.267 581.626 392.879 582 392.395L583.242 393.363C582.245 394.894 580.751 395.66 578.757 395.66ZM578.505 384.998C577.684 384.998 576.995 385.299 576.438 385.9C575.881 386.493 575.537 387.328 575.405 388.406H581.362V388.252C581.304 387.219 581.025 386.42 580.527 385.856C580.029 385.284 579.355 384.998 578.505 384.998ZM594.464 385.196H590.474V395.44H588.441V385.196H584.528V383.547H594.464V385.196ZM606.159 395.44H604.125V390.362H598.663V395.44H596.618V383.547H598.663V388.702H604.125V383.547H606.159V395.44ZM618.524 383.547V395.44H616.479V390.813H613.413L610.61 395.44H608.412L611.401 390.505C610.639 390.226 610.053 389.798 609.643 389.219C609.24 388.633 609.038 387.951 609.038 387.175C609.038 386.09 609.445 385.218 610.258 384.559C611.072 383.892 612.16 383.555 613.523 383.547H618.524ZM611.083 387.197C611.083 387.775 611.28 388.244 611.676 388.603C612.072 388.955 612.596 389.135 613.248 389.142H616.479V385.196H613.556C612.801 385.196 612.2 385.383 611.753 385.757C611.306 386.123 611.083 386.603 611.083 387.197ZM630.878 383.547V395.44H628.833V390.813H625.767L622.964 395.44H620.766L623.755 390.505C622.993 390.226 622.407 389.798 621.997 389.219C621.594 388.633 621.392 387.951 621.392 387.175C621.392 386.09 621.799 385.218 622.612 384.559C623.426 383.892 624.514 383.555 625.877 383.547H630.878ZM623.437 387.197C623.437 387.775 623.635 388.244 624.03 388.603C624.426 388.955 624.95 389.135 625.602 389.142H628.833V385.196H625.91C625.155 385.196 624.554 385.383 624.107 385.757C623.66 386.123 623.437 386.603 623.437 387.197ZM639.913 395.44V383.547H644.551C646.134 383.547 647.346 383.826 648.189 384.383C649.039 384.932 649.464 385.742 649.464 386.812C649.464 387.361 649.299 387.86 648.969 388.307C648.64 388.746 648.152 389.083 647.507 389.318C648.226 389.486 648.801 389.816 649.233 390.307C649.673 390.798 649.893 391.384 649.893 392.066C649.893 393.157 649.49 393.993 648.684 394.572C647.885 395.151 646.753 395.44 645.287 395.44H639.913ZM641.946 390.219V393.802H645.309C646.159 393.802 646.793 393.645 647.211 393.33C647.636 393.015 647.848 392.571 647.848 392C647.848 390.813 646.976 390.219 645.232 390.219H641.946ZM641.946 388.592H644.573C646.478 388.592 647.431 388.036 647.431 386.922C647.431 385.808 646.529 385.233 644.727 385.196H641.946V388.592ZM657.52 395.66C655.908 395.66 654.597 395.132 653.586 394.077C652.574 393.015 652.069 391.597 652.069 389.823V389.45C652.069 388.27 652.292 387.219 652.739 386.295C653.194 385.365 653.824 384.639 654.63 384.119C655.443 383.591 656.322 383.328 657.268 383.328C658.814 383.328 660.015 383.837 660.873 384.855C661.73 385.874 662.159 387.332 662.159 389.23V390.076H654.102C654.131 391.249 654.472 392.198 655.124 392.923C655.784 393.641 656.619 394 657.63 394C658.348 394 658.957 393.854 659.455 393.56C659.953 393.267 660.389 392.879 660.763 392.395L662.005 393.363C661.008 394.894 659.514 395.66 657.52 395.66ZM657.268 384.998C656.447 384.998 655.758 385.299 655.201 385.9C654.644 386.493 654.3 387.328 654.168 388.406H660.125V388.252C660.067 387.219 659.788 386.42 659.29 385.856C658.792 385.284 658.118 384.998 657.268 384.998ZM674.568 389.626C674.568 391.435 674.154 392.894 673.326 394C672.498 395.107 671.377 395.66 669.963 395.66C668.519 395.66 667.383 395.202 666.555 394.286V400.012H664.522V383.547H666.379L666.478 384.866C667.306 383.841 668.457 383.328 669.93 383.328C671.358 383.328 672.487 383.866 673.315 384.943C674.15 386.02 674.568 387.519 674.568 389.439V389.626ZM672.534 389.395C672.534 388.054 672.249 386.995 671.677 386.218C671.106 385.442 670.322 385.053 669.325 385.053C668.094 385.053 667.171 385.599 666.555 386.691V392.373C667.163 393.458 668.094 394 669.347 394C670.322 394 671.095 393.615 671.666 392.846C672.245 392.069 672.534 390.919 672.534 389.395ZM684.504 395.44C684.387 395.205 684.291 394.788 684.218 394.187C683.273 395.169 682.144 395.66 680.833 395.66C679.66 395.66 678.697 395.33 677.942 394.671C677.195 394.004 676.821 393.161 676.821 392.143C676.821 390.904 677.29 389.944 678.228 389.263C679.173 388.574 680.499 388.23 682.207 388.23H684.185V387.295C684.185 386.585 683.973 386.02 683.548 385.603C683.123 385.178 682.496 384.965 681.668 384.965C680.943 384.965 680.335 385.149 679.844 385.515C679.353 385.881 679.107 386.325 679.107 386.845H677.063C677.063 386.251 677.272 385.68 677.689 385.13C678.114 384.573 678.686 384.134 679.404 383.811C680.129 383.489 680.924 383.328 681.789 383.328C683.159 383.328 684.233 383.672 685.009 384.361C685.786 385.042 686.189 385.984 686.219 387.186V392.659C686.219 393.751 686.358 394.619 686.636 395.264V395.44H684.504ZM681.13 393.89C681.767 393.89 682.372 393.725 682.943 393.396C683.515 393.066 683.929 392.637 684.185 392.11V389.67H682.591C680.1 389.67 678.854 390.399 678.854 391.857C678.854 392.494 679.067 392.993 679.492 393.352C679.917 393.711 680.463 393.89 681.13 393.89ZM699.122 395.44H697.089V390.362H691.626V395.44H689.582V383.547H691.626V388.702H697.089V383.547H699.122V395.44ZM702.299 393.78L703.002 392.912C703.793 391.886 704.244 390.347 704.354 388.296L704.541 383.547H712.202V393.78H713.73V398.935H711.696V395.44H703.398V398.935H701.364L701.375 393.78H702.299ZM704.706 393.78H710.168V385.427H706.508L706.387 388.263C706.263 390.629 705.702 392.469 704.706 393.78ZM723.325 395.44C723.208 395.205 723.112 394.788 723.039 394.187C722.094 395.169 720.965 395.66 719.654 395.66C718.481 395.66 717.518 395.33 716.763 394.671C716.016 394.004 715.642 393.161 715.642 392.143C715.642 390.904 716.111 389.944 717.049 389.263C717.994 388.574 719.32 388.23 721.028 388.23H723.006V387.295C723.006 386.585 722.794 386.02 722.369 385.603C721.944 385.178 721.317 384.965 720.489 384.965C719.764 384.965 719.156 385.149 718.665 385.515C718.174 385.881 717.928 386.325 717.928 386.845H715.884C715.884 386.251 716.093 385.68 716.51 385.13C716.935 384.573 717.507 384.134 718.225 383.811C718.95 383.489 719.745 383.328 720.61 383.328C721.98 383.328 723.054 383.672 723.83 384.361C724.607 385.042 725.01 385.984 725.039 387.186V392.659C725.039 393.751 725.179 394.619 725.457 395.264V395.44H723.325ZM719.951 393.89C720.588 393.89 721.193 393.725 721.764 393.396C722.336 393.066 722.75 392.637 723.006 392.11V389.67H721.412C718.921 389.67 717.675 390.399 717.675 391.857C717.675 392.494 717.888 392.993 718.313 393.352C718.738 393.711 719.284 393.89 719.951 393.89Z" fill="#0C0C0C"/>
<path id="&#208;&#179;&#208;&#176;&#209;&#128;&#208;&#180;&#208;&#181;&#209;&#128;&#208;&#190;&#208;&#177;" d="M912.352 298.279H906.867V308.49H904.823V296.597H912.352V298.279ZM921.463 308.49C921.346 308.256 921.251 307.838 921.177 307.237C920.232 308.219 919.104 308.71 917.792 308.71C916.62 308.71 915.656 308.38 914.901 307.721C914.154 307.054 913.78 306.211 913.78 305.193C913.78 303.954 914.249 302.994 915.187 302.313C916.132 301.624 917.459 301.28 919.166 301.28H921.144V300.346C921.144 299.635 920.932 299.071 920.507 298.653C920.082 298.228 919.455 298.015 918.627 298.015C917.902 298.015 917.294 298.199 916.803 298.565C916.312 298.931 916.067 299.375 916.067 299.895H914.022C914.022 299.301 914.231 298.73 914.649 298.18C915.074 297.623 915.645 297.184 916.363 296.861C917.089 296.539 917.884 296.378 918.748 296.378C920.119 296.378 921.192 296.722 921.969 297.411C922.746 298.092 923.149 299.034 923.178 300.236V305.709C923.178 306.801 923.317 307.669 923.596 308.314V308.49H921.463ZM918.089 306.94C918.726 306.94 919.331 306.775 919.902 306.446C920.474 306.116 920.888 305.687 921.144 305.16V302.72H919.551C917.059 302.72 915.814 303.449 915.814 304.907C915.814 305.544 916.026 306.043 916.451 306.402C916.876 306.761 917.422 306.94 918.089 306.94ZM936.411 302.676C936.411 304.486 935.997 305.944 935.169 307.05C934.341 308.157 933.22 308.71 931.806 308.71C930.362 308.71 929.227 308.252 928.399 307.336V313.062H926.365V296.597H928.223L928.322 297.916C929.15 296.891 930.3 296.378 931.773 296.378C933.202 296.378 934.33 296.916 935.158 297.993C935.994 299.071 936.411 300.569 936.411 302.489V302.676ZM934.378 302.445C934.378 301.104 934.092 300.045 933.521 299.268C932.949 298.492 932.165 298.103 931.168 298.103C929.937 298.103 929.014 298.649 928.399 299.741V305.423C929.007 306.508 929.937 307.05 931.19 307.05C932.165 307.05 932.938 306.665 933.51 305.896C934.088 305.119 934.378 303.969 934.378 302.445ZM938.708 306.83L939.412 305.962C940.203 304.936 940.654 303.397 940.764 301.346L940.951 296.597H948.612V306.83H950.139V311.985H948.106V308.49H939.808V311.985H937.774L937.785 306.83H938.708ZM941.116 306.83H946.578V298.477H942.918L942.797 301.313C942.673 303.68 942.112 305.519 941.116 306.83ZM957.328 308.71C955.716 308.71 954.404 308.182 953.393 307.127C952.381 306.065 951.876 304.647 951.876 302.873V302.5C951.876 301.32 952.099 300.269 952.546 299.345C953.001 298.415 953.631 297.689 954.437 297.169C955.25 296.641 956.13 296.378 957.075 296.378C958.621 296.378 959.823 296.887 960.68 297.905C961.537 298.924 961.966 300.382 961.966 302.28V303.126H953.909C953.939 304.299 954.279 305.248 954.931 305.973C955.591 306.691 956.426 307.05 957.437 307.05C958.156 307.05 958.764 306.904 959.262 306.61C959.76 306.317 960.196 305.929 960.57 305.445L961.812 306.413C960.815 307.944 959.321 308.71 957.328 308.71ZM957.075 298.048C956.254 298.048 955.565 298.349 955.008 298.95C954.452 299.543 954.107 300.378 953.975 301.456H959.932V301.302C959.874 300.269 959.595 299.47 959.097 298.906C958.599 298.334 957.925 298.048 957.075 298.048ZM974.375 302.676C974.375 304.486 973.961 305.944 973.133 307.05C972.305 308.157 971.184 308.71 969.77 308.71C968.326 308.71 967.19 308.252 966.362 307.336V313.062H964.329V296.597H966.186L966.285 297.916C967.113 296.891 968.264 296.378 969.737 296.378C971.165 296.378 972.294 296.916 973.122 297.993C973.957 299.071 974.375 300.569 974.375 302.489V302.676ZM972.342 302.445C972.342 301.104 972.056 300.045 971.484 299.268C970.913 298.492 970.129 298.103 969.132 298.103C967.901 298.103 966.978 298.649 966.362 299.741V305.423C966.971 306.508 967.901 307.05 969.154 307.05C970.129 307.05 970.902 306.665 971.473 305.896C972.052 305.119 972.342 303.969 972.342 302.445ZM976.43 302.434C976.43 301.269 976.657 300.221 977.112 299.29C977.573 298.36 978.211 297.642 979.024 297.136C979.845 296.63 980.779 296.378 981.827 296.378C983.446 296.378 984.754 296.938 985.751 298.059C986.755 299.18 987.257 300.672 987.257 302.533V302.676C987.257 303.833 987.033 304.874 986.586 305.797C986.146 306.713 985.513 307.428 984.685 307.94C983.864 308.453 982.919 308.71 981.849 308.71C980.237 308.71 978.929 308.149 977.925 307.028C976.929 305.907 976.43 304.423 976.43 302.577V302.434ZM978.475 302.676C978.475 303.995 978.779 305.053 979.387 305.852C980.002 306.651 980.823 307.05 981.849 307.05C982.882 307.05 983.703 306.647 984.311 305.841C984.919 305.028 985.223 303.892 985.223 302.434C985.223 301.13 984.912 300.074 984.289 299.268C983.673 298.455 982.853 298.048 981.827 298.048C980.823 298.048 980.013 298.448 979.398 299.246C978.782 300.045 978.475 301.188 978.475 302.676ZM995.027 297.279C996.522 297.279 997.717 297.781 998.611 298.785C999.512 299.781 999.962 301.097 999.962 302.731V302.917C999.962 304.039 999.746 305.042 999.314 305.929C998.882 306.808 998.259 307.493 997.445 307.984C996.639 308.468 995.709 308.71 994.654 308.71C993.056 308.71 991.77 308.179 990.796 307.116C989.821 306.046 989.334 304.614 989.334 302.819V301.829C989.334 299.331 989.796 297.345 990.719 295.872C991.649 294.399 993.02 293.502 994.83 293.179C995.855 292.996 996.548 292.773 996.907 292.509C997.266 292.245 997.445 291.882 997.445 291.421H999.116C999.116 292.337 998.907 293.051 998.49 293.564C998.079 294.077 997.42 294.44 996.511 294.652L994.994 294.993C993.785 295.279 992.877 295.762 992.269 296.444C991.668 297.118 991.276 298.019 991.093 299.147C992.17 297.902 993.481 297.279 995.027 297.279ZM994.632 298.95C993.635 298.95 992.844 299.287 992.258 299.961C991.671 300.628 991.378 301.555 991.378 302.742V302.917C991.378 304.192 991.671 305.204 992.258 305.951C992.851 306.691 993.65 307.061 994.654 307.061C995.665 307.061 996.464 306.687 997.05 305.94C997.636 305.193 997.929 304.101 997.929 302.665C997.929 301.544 997.632 300.646 997.039 299.972C996.453 299.29 995.65 298.95 994.632 298.95Z" fill="#0C0C0C"/>
<path id="&#208;&#178;&#209;&#133;&#208;&#190;&#208;&#180;" d="M785.596 362.71V350.817H790.234C791.817 350.817 793.029 351.096 793.872 351.653C794.722 352.202 795.147 353.012 795.147 354.082C795.147 354.631 794.982 355.13 794.652 355.577C794.323 356.016 793.835 356.353 793.191 356.588C793.909 356.756 794.484 357.086 794.916 357.577C795.356 358.068 795.576 358.654 795.576 359.336C795.576 360.427 795.173 361.263 794.367 361.842C793.568 362.421 792.436 362.71 790.97 362.71H785.596ZM787.629 357.489V361.072H790.992C791.842 361.072 792.476 360.915 792.894 360.6C793.319 360.285 793.531 359.841 793.531 359.27C793.531 358.083 792.659 357.489 790.915 357.489H787.629ZM787.629 355.862H790.256C792.161 355.862 793.114 355.306 793.114 354.192C793.114 353.078 792.212 352.503 790.41 352.466H787.629V355.862ZM802.258 355.159L804.896 350.817H807.27L803.38 356.698L807.391 362.71H805.039L802.291 358.259L799.544 362.71H797.18L801.192 356.698L797.301 350.817H799.653L802.258 355.159ZM808.677 356.654C808.677 355.489 808.904 354.441 809.359 353.51C809.82 352.58 810.458 351.862 811.271 351.356C812.092 350.85 813.026 350.598 814.074 350.598C815.693 350.598 817.001 351.158 817.998 352.279C819.002 353.4 819.504 354.892 819.504 356.753V356.896C819.504 358.053 819.28 359.094 818.833 360.017C818.394 360.933 817.76 361.647 816.932 362.16C816.111 362.673 815.166 362.93 814.096 362.93C812.484 362.93 811.176 362.369 810.172 361.248C809.176 360.127 808.677 358.643 808.677 356.797V356.654ZM810.722 356.896C810.722 358.215 811.026 359.273 811.634 360.072C812.249 360.871 813.07 361.27 814.096 361.27C815.129 361.27 815.95 360.867 816.558 360.061C817.166 359.248 817.47 358.112 817.47 356.654C817.47 355.35 817.159 354.294 816.536 353.488C815.92 352.675 815.1 352.268 814.074 352.268C813.07 352.268 812.26 352.668 811.645 353.466C811.029 354.265 810.722 355.408 810.722 356.896ZM821.163 361.05L821.867 360.182C822.658 359.156 823.109 357.617 823.219 355.566L823.406 350.817H831.066V361.05H832.594V366.205H830.561V362.71H822.262V366.205H820.229L820.24 361.05H821.163ZM823.57 361.05H829.033V352.697H825.373L825.252 355.533C825.127 357.899 824.567 359.739 823.57 361.05Z" fill="#0C0C0C"/>
<path id="&#209;&#130;&#208;&#176;&#208;&#189;&#209;&#134;&#208;&#191;&#208;&#190;&#208;&#187;" d="M209.086 234.796H205.096V245.04H203.062V234.796H199.15V233.148H209.086V234.796ZM218.23 245.04C218.113 244.806 218.018 244.388 217.945 243.787C216.999 244.769 215.871 245.26 214.559 245.26C213.387 245.26 212.423 244.93 211.669 244.271C210.921 243.604 210.547 242.761 210.547 241.743C210.547 240.504 211.016 239.544 211.954 238.863C212.9 238.174 214.226 237.83 215.933 237.83H217.912V236.896C217.912 236.185 217.699 235.621 217.274 235.203C216.849 234.778 216.223 234.565 215.395 234.565C214.669 234.565 214.061 234.749 213.57 235.115C213.079 235.481 212.834 235.925 212.834 236.445H210.789C210.789 235.851 210.998 235.28 211.416 234.73C211.841 234.173 212.412 233.734 213.13 233.411C213.856 233.089 214.651 232.928 215.516 232.928C216.886 232.928 217.959 233.272 218.736 233.961C219.513 234.642 219.916 235.584 219.945 236.786V242.259C219.945 243.351 220.084 244.219 220.363 244.864V245.04H218.23ZM214.856 243.49C215.494 243.49 216.098 243.325 216.67 242.996C217.241 242.666 217.655 242.237 217.912 241.71V239.27H216.318C213.827 239.27 212.581 239.999 212.581 241.457C212.581 242.094 212.793 242.593 213.218 242.952C213.643 243.311 214.189 243.49 214.856 243.49ZM232.849 245.04H230.815V239.962H225.353V245.04H223.308V233.148H225.353V238.302H230.815V233.148H232.849V245.04ZM236.3 233.148H238.344V243.38H243.818V233.148H245.851V243.38H247.269L247.071 248.568H245.247V245.04H236.3V233.148ZM259.195 245.04H257.161V234.829H251.688V245.04H249.643V233.148H259.195V245.04ZM261.92 238.984C261.92 237.819 262.148 236.771 262.602 235.84C263.064 234.91 263.701 234.192 264.514 233.686C265.335 233.181 266.269 232.928 267.317 232.928C268.936 232.928 270.244 233.488 271.241 234.609C272.245 235.73 272.747 237.222 272.747 239.083V239.226C272.747 240.383 272.523 241.424 272.076 242.347C271.637 243.263 271.003 243.978 270.175 244.49C269.354 245.003 268.409 245.26 267.339 245.26C265.727 245.26 264.419 244.699 263.415 243.578C262.419 242.457 261.92 240.973 261.92 239.127V238.984ZM263.965 239.226C263.965 240.545 264.269 241.603 264.877 242.402C265.493 243.201 266.313 243.6 267.339 243.6C268.372 243.6 269.193 243.197 269.801 242.391C270.409 241.578 270.713 240.442 270.713 238.984C270.713 237.68 270.402 236.624 269.779 235.818C269.164 235.005 268.343 234.598 267.317 234.598C266.313 234.598 265.504 234.998 264.888 235.796C264.273 236.595 263.965 237.738 263.965 239.226ZM284.87 233.148V245.04H282.826V234.829H278.781L278.539 239.281C278.407 241.325 278.063 242.787 277.506 243.666C276.956 244.545 276.081 245.003 274.879 245.04H274.066V243.248L274.648 243.205C275.308 243.131 275.78 242.75 276.066 242.061C276.352 241.373 276.535 240.098 276.616 238.236L276.835 233.148H284.87Z" fill="#0C0C0C"/>
<path id="&#209;&#129;&#209;&#134;&#208;&#181;&#208;&#189;&#208;&#176;" d="M157.459 307.05C158.184 307.05 158.818 306.83 159.36 306.391C159.903 305.951 160.203 305.401 160.262 304.742H162.185C162.148 305.423 161.914 306.072 161.482 306.687C161.049 307.303 160.47 307.794 159.745 308.16C159.027 308.527 158.265 308.71 157.459 308.71C155.839 308.71 154.55 308.171 153.59 307.094C152.637 306.01 152.161 304.529 152.161 302.654V302.313C152.161 301.155 152.374 300.126 152.799 299.224C153.224 298.323 153.832 297.623 154.623 297.125C155.422 296.627 156.363 296.378 157.448 296.378C158.781 296.378 159.888 296.777 160.767 297.576C161.654 298.374 162.126 299.411 162.185 300.686H160.262C160.203 299.917 159.91 299.287 159.382 298.796C158.862 298.297 158.217 298.048 157.448 298.048C156.415 298.048 155.612 298.422 155.041 299.169C154.477 299.91 154.194 300.983 154.194 302.39V302.775C154.194 304.145 154.477 305.2 155.041 305.94C155.605 306.68 156.411 307.05 157.459 307.05ZM164.647 296.597H166.691V306.83H172.165V296.597H174.198V306.83H175.616L175.418 312.018H173.594V308.49H164.647V296.597ZM182.75 308.71C181.138 308.71 179.826 308.182 178.815 307.127C177.804 306.065 177.298 304.647 177.298 302.873V302.5C177.298 301.32 177.521 300.269 177.968 299.345C178.423 298.415 179.053 297.689 179.859 297.169C180.672 296.641 181.552 296.378 182.497 296.378C184.043 296.378 185.245 296.887 186.102 297.905C186.959 298.924 187.388 300.382 187.388 302.28V303.126H179.331C179.361 304.299 179.701 305.248 180.354 305.973C181.013 306.691 181.848 307.05 182.86 307.05C183.578 307.05 184.186 306.904 184.684 306.61C185.182 306.317 185.618 305.929 185.992 305.445L187.234 306.413C186.238 307.944 184.743 308.71 182.75 308.71ZM182.497 298.048C181.676 298.048 180.987 298.349 180.43 298.95C179.874 299.543 179.529 300.378 179.397 301.456H185.355V301.302C185.296 300.269 185.017 299.47 184.519 298.906C184.021 298.334 183.347 298.048 182.497 298.048ZM199.467 308.49H197.434V303.412H191.971V308.49H189.927V296.597H191.971V301.752H197.434V296.597H199.467V308.49ZM210.085 308.49C209.968 308.256 209.872 307.838 209.799 307.237C208.854 308.219 207.725 308.71 206.414 308.71C205.241 308.71 204.278 308.38 203.523 307.721C202.776 307.054 202.402 306.211 202.402 305.193C202.402 303.954 202.871 302.994 203.809 302.313C204.754 301.624 206.08 301.28 207.788 301.28H209.766V300.346C209.766 299.635 209.554 299.071 209.129 298.653C208.704 298.228 208.077 298.015 207.249 298.015C206.524 298.015 205.915 298.199 205.425 298.565C204.934 298.931 204.688 299.375 204.688 299.895H202.644C202.644 299.301 202.853 298.73 203.27 298.18C203.695 297.623 204.267 297.184 204.985 296.861C205.71 296.539 206.505 296.378 207.37 296.378C208.74 296.378 209.814 296.722 210.59 297.411C211.367 298.092 211.77 299.034 211.799 300.236V305.709C211.799 306.801 211.939 307.669 212.217 308.314V308.49H210.085ZM206.71 306.94C207.348 306.94 207.952 306.775 208.524 306.446C209.096 306.116 209.51 305.687 209.766 305.16V302.72H208.172C205.681 302.72 204.435 303.449 204.435 304.907C204.435 305.544 204.648 306.043 205.073 306.402C205.498 306.761 206.044 306.94 206.71 306.94Z" fill="#0C0C0C"/>
<path id="Vector_18" d="M947.69 194.69V168.33C947.69 166.673 946.347 165.33 944.69 165.33H914.98C913.323 165.33 911.98 166.673 911.98 168.33V194.69C911.98 196.347 913.323 197.69 914.98 197.69H944.69C946.347 197.69 947.69 196.347 947.69 194.69Z" stroke="#B6B6B6" stroke-miterlimit="10"/>
<path id="7" d="M939.99 198.59V164.42C939.99 162.763 938.647 161.42 936.99 161.42H922.68C921.023 161.42 919.68 162.763 919.68 164.42V198.59C919.68 200.247 921.023 201.59 922.68 201.59H936.99C938.647 201.59 939.99 200.247 939.99 198.59Z" fill="#308410"/>
<path id="6" d="M932.718 176.084V177.111H932.496C931.554 177.128 930.804 177.407 930.247 177.947C929.689 178.488 929.366 179.249 929.279 180.229C929.78 179.654 930.464 179.366 931.332 179.366C932.16 179.366 932.82 179.658 933.313 180.242C933.81 180.826 934.058 181.58 934.058 182.505C934.058 183.485 933.79 184.27 933.254 184.858C932.722 185.447 932.007 185.741 931.11 185.741C930.199 185.741 929.46 185.392 928.893 184.695C928.327 183.993 928.043 183.091 928.043 181.988V181.524C928.043 179.772 928.416 178.433 929.161 177.509C929.911 176.581 931.025 176.106 932.502 176.084H932.718ZM931.129 180.373C930.715 180.373 930.334 180.497 929.985 180.746C929.636 180.994 929.394 181.306 929.259 181.681V182.125C929.259 182.91 929.436 183.542 929.789 184.021C930.142 184.501 930.582 184.741 931.11 184.741C931.654 184.741 932.082 184.54 932.391 184.139C932.705 183.738 932.862 183.213 932.862 182.563C932.862 181.91 932.703 181.382 932.384 180.981C932.071 180.576 931.652 180.373 931.129 180.373Z" fill="white"/>
<path id="Vector_19" d="M994 194.68V168.32C994 166.663 992.657 165.32 991 165.32H961.29C959.633 165.32 958.29 166.663 958.29 168.32V194.68C958.29 196.337 959.633 197.68 961.29 197.68H991C992.657 197.68 994 196.337 994 194.68Z" stroke="#B6B6B6" stroke-miterlimit="10"/>
<path id="6_2" d="M986.3 198.59V164.42C986.3 162.763 984.957 161.42 983.3 161.42H968.99C967.333 161.42 965.99 162.763 965.99 164.42V198.59C965.99 200.247 967.333 201.59 968.99 201.59H983.3C984.957 201.59 986.3 200.247 986.3 198.59Z" fill="#308410"/>
<path id="6_3" d="M979.028 176.084V177.111H978.806C977.864 177.128 977.115 177.407 976.557 177.947C975.999 178.488 975.676 179.249 975.589 180.229C976.09 179.654 976.775 179.366 977.642 179.366C978.47 179.366 979.13 179.658 979.623 180.242C980.12 180.826 980.368 181.58 980.368 182.505C980.368 183.485 980.1 184.27 979.564 184.858C979.032 185.447 978.318 185.741 977.42 185.741C976.509 185.741 975.77 185.392 975.203 184.695C974.637 183.993 974.353 183.091 974.353 181.988V181.524C974.353 179.772 974.726 178.433 975.471 177.509C976.221 176.581 977.335 176.106 978.812 176.084H979.028ZM977.439 180.373C977.025 180.373 976.644 180.497 976.295 180.746C975.946 180.994 975.704 181.306 975.569 181.681V182.125C975.569 182.91 975.746 183.542 976.099 184.021C976.452 184.501 976.892 184.741 977.42 184.741C977.964 184.741 978.392 184.54 978.701 184.139C979.015 183.738 979.172 183.213 979.172 182.563C979.172 181.91 979.013 181.382 978.695 180.981C978.381 180.576 977.962 180.373 977.439 180.373Z" fill="white"/>
<path id="Vector_20" d="M1040.31 194.68V168.32C1040.31 166.663 1038.97 165.32 1037.31 165.32H1007.6C1005.94 165.32 1004.6 166.663 1004.6 168.32V194.68C1004.6 196.337 1005.94 197.68 1007.6 197.68H1037.31C1038.97 197.68 1040.31 196.337 1040.31 194.68Z" stroke="#B6B6B6" stroke-miterlimit="10"/>
<path id="5" d="M1032.61 198.59V164.42C1032.61 162.763 1031.27 161.42 1029.61 161.42H1015.3C1013.64 161.42 1012.3 162.763 1012.3 164.42V198.59C1012.3 200.247 1013.64 201.59 1015.3 201.59H1029.61C1031.27 201.59 1032.61 200.247 1032.61 198.59Z" fill="#308410"/>
<path id="6_4" d="M1025.34 176.084V177.111H1025.12C1024.17 177.128 1023.42 177.407 1022.87 177.947C1022.31 178.488 1021.99 179.249 1021.9 180.229C1022.4 179.654 1023.08 179.366 1023.95 179.366C1024.78 179.366 1025.44 179.658 1025.93 180.242C1026.43 180.826 1026.68 181.58 1026.68 182.505C1026.68 183.485 1026.41 184.27 1025.87 184.858C1025.34 185.447 1024.63 185.741 1023.73 185.741C1022.82 185.741 1022.08 185.392 1021.51 184.695C1020.95 183.993 1020.66 183.091 1020.66 181.988V181.524C1020.66 179.772 1021.04 178.433 1021.78 177.509C1022.53 176.581 1023.64 176.106 1025.12 176.084H1025.34ZM1023.75 180.373C1023.33 180.373 1022.95 180.497 1022.6 180.746C1022.26 180.994 1022.01 181.306 1021.88 181.681V182.125C1021.88 182.91 1022.06 183.542 1022.41 184.021C1022.76 184.501 1023.2 184.741 1023.73 184.741C1024.27 184.741 1024.7 184.54 1025.01 184.139C1025.32 183.738 1025.48 183.213 1025.48 182.563C1025.48 181.91 1025.32 181.382 1025 180.981C1024.69 180.576 1024.27 180.373 1023.75 180.373Z" fill="white"/>
<path id="Vector_21" d="M947.69 248.27V221.91C947.69 220.253 946.347 218.91 944.69 218.91H914.98C913.323 218.91 911.98 220.253 911.98 221.91V248.27C911.98 249.927 913.323 251.27 914.98 251.27H944.69C946.347 251.27 947.69 249.927 947.69 248.27Z" stroke="#B6B6B6" stroke-miterlimit="10"/>
<path id="3" d="M939.99 252.17V218C939.99 216.343 938.647 215 936.99 215H922.68C921.023 215 919.68 216.343 919.68 218V252.17C919.68 253.827 921.023 255.17 922.68 255.17H936.99C938.647 255.17 939.99 253.827 939.99 252.17Z" fill="#308410"/>
<path id="3_2" d="M929.73 233.842H930.639C931.21 233.833 931.659 233.683 931.986 233.391C932.313 233.099 932.476 232.704 932.476 232.207C932.476 231.091 931.92 230.534 930.809 230.534C930.286 230.534 929.867 230.684 929.554 230.985C929.244 231.281 929.089 231.676 929.089 232.168H927.88C927.88 231.414 928.154 230.789 928.704 230.292C929.257 229.79 929.959 229.54 930.809 229.54C931.707 229.54 932.411 229.777 932.921 230.252C933.431 230.727 933.686 231.388 933.686 232.233C933.686 232.647 933.55 233.048 933.28 233.436C933.014 233.824 932.65 234.114 932.188 234.306C932.711 234.472 933.115 234.746 933.398 235.13C933.686 235.513 933.829 235.982 933.829 236.535C933.829 237.39 933.55 238.068 932.993 238.569C932.435 239.07 931.709 239.321 930.815 239.321C929.922 239.321 929.194 239.079 928.632 238.595C928.074 238.111 927.795 237.473 927.795 236.679H929.011C929.011 237.181 929.174 237.582 929.501 237.882C929.828 238.183 930.266 238.333 930.815 238.333C931.399 238.333 931.846 238.181 932.156 237.876C932.465 237.571 932.62 237.133 932.62 236.562C932.62 236.008 932.45 235.583 932.11 235.287C931.77 234.99 931.28 234.838 930.639 234.829H929.73V233.842Z" fill="white"/>
<path id="Vector_22" d="M994 248.26V221.9C994 220.243 992.657 218.9 991 218.9H961.29C959.633 218.9 958.29 220.243 958.29 221.9V248.26C958.29 249.917 959.633 251.26 961.29 251.26H991C992.657 251.26 994 249.917 994 248.26Z" stroke="#B6B6B6" stroke-miterlimit="10"/>
<path id="2" d="M986.3 252.17V218C986.3 216.343 984.957 215 983.3 215H968.99C967.333 215 965.99 216.343 965.99 218V252.17C965.99 253.827 967.333 255.17 968.99 255.17H983.3C984.957 255.17 986.3 253.827 986.3 252.17Z" fill="#FF2400"/>
<path id="6_5" d="M979.028 229.664V230.69H978.806C977.864 230.708 977.115 230.987 976.557 231.527C975.999 232.068 975.676 232.828 975.589 233.809C976.09 233.234 976.775 232.946 977.642 232.946C978.47 232.946 979.13 233.238 979.623 233.822C980.12 234.406 980.368 235.16 980.368 236.084C980.368 237.065 980.1 237.85 979.564 238.438C979.032 239.026 978.318 239.321 977.42 239.321C976.509 239.321 975.77 238.972 975.203 238.275C974.637 237.573 974.353 236.671 974.353 235.568V235.104C974.353 233.351 974.726 232.013 975.471 231.089C976.221 230.161 977.335 229.686 978.812 229.664H979.028ZM977.439 233.953C977.025 233.953 976.644 234.077 976.295 234.326C975.946 234.574 975.704 234.886 975.569 235.261V235.705C975.569 236.49 975.746 237.122 976.099 237.601C976.452 238.081 976.892 238.32 977.42 238.32C977.964 238.32 978.392 238.12 978.701 237.719C979.015 237.318 979.172 236.793 979.172 236.143C979.172 235.489 979.013 234.962 978.695 234.561C978.381 234.156 977.962 233.953 977.439 233.953Z" fill="white"/>
<path id="Vector_23" d="M1040.31 248.26V221.9C1040.31 220.243 1038.97 218.9 1037.31 218.9H1007.6C1005.94 218.9 1004.6 220.243 1004.6 221.9V248.26C1004.6 249.917 1005.94 251.26 1007.6 251.26H1037.31C1038.97 251.26 1040.31 249.917 1040.31 248.26Z" stroke="#B6B6B6" stroke-miterlimit="10"/>
<path id="1" d="M1032.61 252.17V218C1032.61 216.343 1031.27 215 1029.61 215H1015.3C1013.64 215 1012.3 216.343 1012.3 218V252.17C1012.3 253.827 1013.64 255.17 1015.3 255.17H1029.61C1031.27 255.17 1032.61 253.827 1032.61 252.17Z" fill="#308410"/>
<path id="6_6" d="M1025.34 229.664V230.69H1025.12C1024.17 230.708 1023.42 230.987 1022.87 231.527C1022.31 232.068 1021.99 232.828 1021.9 233.809C1022.4 233.234 1023.08 232.946 1023.95 232.946C1024.78 232.946 1025.44 233.238 1025.93 233.822C1026.43 234.406 1026.68 235.16 1026.68 236.084C1026.68 237.065 1026.41 237.85 1025.87 238.438C1025.34 239.026 1024.63 239.321 1023.73 239.321C1022.82 239.321 1022.08 238.972 1021.51 238.275C1020.95 237.573 1020.66 236.671 1020.66 235.568V235.104C1020.66 233.351 1021.04 232.013 1021.78 231.089C1022.53 230.161 1023.64 229.686 1025.12 229.664H1025.34ZM1023.75 233.953C1023.33 233.953 1022.95 234.077 1022.6 234.326C1022.26 234.574 1022.01 234.886 1021.88 235.261V235.705C1021.88 236.49 1022.06 237.122 1022.41 237.601C1022.76 238.081 1023.2 238.32 1023.73 238.32C1024.27 238.32 1024.7 238.12 1025.01 237.719C1025.32 237.318 1025.48 236.793 1025.48 236.143C1025.48 235.489 1025.32 234.962 1025 234.561C1024.69 234.156 1024.27 233.953 1023.75 233.953Z" fill="white"/>
<path id="Vector_24" d="M901.26 248.27V221.91C901.26 220.253 899.917 218.91 898.26 218.91H868.55C866.893 218.91 865.55 220.253 865.55 221.91V248.27C865.55 249.927 866.893 251.27 868.55 251.27H898.26C899.917 251.27 901.26 249.927 901.26 248.27Z" stroke="#B6B6B6" stroke-miterlimit="10"/>
<path id="4" d="M893.56 252.17V218C893.56 216.343 892.217 215 890.56 215H876.25C874.593 215 873.25 216.343 873.25 218V252.17C873.25 253.827 874.593 255.17 876.25 255.17H890.56C892.217 255.17 893.56 253.827 893.56 252.17Z" fill="#308410"/>
<path id="6_7" d="M886.288 229.664V230.69H886.065C885.124 230.708 884.374 230.987 883.816 231.527C883.258 232.068 882.936 232.828 882.849 233.809C883.35 233.234 884.034 232.946 884.902 232.946C885.73 232.946 886.39 233.238 886.883 233.822C887.38 234.406 887.628 235.16 887.628 236.084C887.628 237.065 887.36 237.85 886.824 238.438C886.292 239.026 885.577 239.321 884.679 239.321C883.768 239.321 883.03 238.972 882.463 238.275C881.896 237.573 881.613 236.671 881.613 235.568V235.104C881.613 233.351 881.986 232.013 882.731 231.089C883.481 230.161 884.594 229.686 886.072 229.664H886.288ZM884.699 233.953C884.285 233.953 883.904 234.077 883.555 234.326C883.206 234.574 882.964 234.886 882.829 235.261V235.705C882.829 236.49 883.006 237.122 883.359 237.601C883.712 238.081 884.152 238.32 884.679 238.32C885.224 238.32 885.651 238.12 885.961 237.719C886.275 237.318 886.432 236.793 886.432 236.143C886.432 235.489 886.273 234.962 885.954 234.561C885.64 234.156 885.222 233.953 884.699 233.953Z" fill="white"/>
<path id="Vector_25" d="M511.27 128.85V102.49C511.27 100.833 509.927 99.49 508.27 99.49H478.56C476.903 99.49 475.56 100.833 475.56 102.49V128.85C475.56 130.507 476.903 131.85 478.56 131.85H508.27C509.927 131.85 511.27 130.507 511.27 128.85Z" stroke="#B6B6B6" stroke-miterlimit="10"/>
<path id="37" d="M503.57 132.75V98.5801C503.57 96.9232 502.227 95.5801 500.57 95.5801H486.26C484.603 95.5801 483.26 96.9232 483.26 98.5801V132.75C483.26 134.407 484.603 135.75 486.26 135.75H500.57C502.227 135.75 503.57 134.407 503.57 132.75Z" fill="#308410"/>
<path id="6_8" d="M496.308 110.244V111.271H496.085C495.144 111.288 494.394 111.567 493.836 112.107C493.278 112.648 492.956 113.408 492.869 114.389C493.37 113.814 494.054 113.526 494.922 113.526C495.75 113.526 496.41 113.818 496.903 114.402C497.4 114.986 497.648 115.74 497.648 116.664C497.648 117.645 497.38 118.43 496.844 119.018C496.312 119.607 495.597 119.901 494.699 119.901C493.788 119.901 493.05 119.552 492.483 118.855C491.916 118.153 491.633 117.251 491.633 116.148V115.684C491.633 113.932 492.006 112.593 492.751 111.669C493.501 110.741 494.614 110.266 496.092 110.244H496.308ZM494.719 114.533C494.305 114.533 493.924 114.657 493.575 114.906C493.226 115.154 492.984 115.466 492.849 115.841V116.285C492.849 117.07 493.026 117.702 493.379 118.181C493.732 118.661 494.172 118.9 494.699 118.9C495.244 118.9 495.671 118.7 495.981 118.299C496.295 117.898 496.452 117.373 496.452 116.723C496.452 116.069 496.293 115.542 495.974 115.141C495.661 114.736 495.242 114.533 494.719 114.533Z" fill="white"/>
<path id="Vector_26" d="M267.13 322.36V296C267.13 294.343 265.787 293 264.13 293H234.42C232.763 293 231.42 294.343 231.42 296V322.36C231.42 324.017 232.763 325.36 234.42 325.36H264.13C265.787 325.36 267.13 324.017 267.13 322.36Z" stroke="#B6B6B6" stroke-miterlimit="10"/>
<path id="19" d="M259.43 326.27V292.1C259.43 290.443 258.087 289.1 256.43 289.1H242.12C240.463 289.1 239.12 290.443 239.12 292.1V326.27C239.12 327.927 240.463 329.27 242.12 329.27H256.43C258.087 329.27 259.43 327.927 259.43 326.27Z" fill="#308410"/>
<path id="6_9" d="M252.158 303.764V304.791H251.936C250.994 304.808 250.244 305.087 249.686 305.627C249.129 306.168 248.806 306.928 248.719 307.909C249.22 307.334 249.904 307.046 250.772 307.046C251.6 307.046 252.26 307.338 252.753 307.922C253.25 308.506 253.498 309.26 253.498 310.184C253.498 311.165 253.23 311.95 252.694 312.538C252.162 313.127 251.447 313.421 250.55 313.421C249.639 313.421 248.9 313.072 248.333 312.375C247.766 311.673 247.483 310.771 247.483 309.668V309.204C247.483 307.452 247.856 306.113 248.601 305.189C249.351 304.261 250.465 303.786 251.942 303.764H252.158ZM250.569 308.053C250.155 308.053 249.774 308.177 249.425 308.426C249.076 308.674 248.834 308.986 248.699 309.361V309.805C248.699 310.59 248.876 311.222 249.229 311.701C249.582 312.181 250.022 312.42 250.55 312.42C251.094 312.42 251.522 312.22 251.831 311.819C252.145 311.418 252.302 310.893 252.302 310.243C252.302 309.589 252.143 309.062 251.824 308.661C251.511 308.256 251.092 308.053 250.569 308.053Z" fill="white"/>
<path id="Vector_27" d="M318.45 322.36V296C318.45 294.343 317.107 293 315.45 293H285.74C284.083 293 282.74 294.343 282.74 296V322.36C282.74 324.017 284.083 325.36 285.74 325.36H315.45C317.107 325.36 318.45 324.017 318.45 322.36Z" stroke="#B6B6B6" stroke-miterlimit="10"/>
<path id="18" d="M310.75 326.26V292.09C310.75 290.433 309.407 289.09 307.75 289.09H293.44C291.783 289.09 290.44 290.433 290.44 292.09V326.26C290.44 327.917 291.783 329.26 293.44 329.26H307.75C309.407 329.26 310.75 327.917 310.75 326.26Z" fill="#FF2400"/>
<path id="6_10" d="M303.488 303.764V304.791H303.266C302.324 304.808 301.574 305.087 301.017 305.627C300.459 306.168 300.136 306.928 300.049 307.909C300.55 307.334 301.234 307.046 302.102 307.046C302.93 307.046 303.59 307.338 304.083 307.922C304.58 308.506 304.828 309.26 304.828 310.184C304.828 311.165 304.56 311.95 304.024 312.538C303.492 313.127 302.777 313.421 301.88 313.421C300.969 313.421 300.23 313.072 299.663 312.375C299.097 311.673 298.813 310.771 298.813 309.668V309.204C298.813 307.452 299.186 306.113 299.931 305.189C300.681 304.261 301.795 303.786 303.272 303.764H303.488ZM301.899 308.053C301.485 308.053 301.104 308.177 300.755 308.426C300.406 308.674 300.164 308.986 300.029 309.361V309.805C300.029 310.59 300.206 311.222 300.559 311.701C300.912 312.181 301.352 312.42 301.88 312.42C302.424 312.42 302.852 312.22 303.161 311.819C303.475 311.418 303.632 310.893 303.632 310.243C303.632 309.589 303.473 309.062 303.155 308.661C302.841 308.256 302.422 308.053 301.899 308.053Z" fill="white"/>
<path id="Vector_28" d="M369.78 322.37V296.01C369.78 294.353 368.437 293.01 366.78 293.01H337.07C335.413 293.01 334.07 294.353 334.07 296.01V322.37C334.07 324.027 335.413 325.37 337.07 325.37H366.78C368.437 325.37 369.78 324.027 369.78 322.37Z" stroke="#B6B6B6" stroke-miterlimit="10"/>
<path id="17" d="M362.08 326.27V292.1C362.08 290.443 360.737 289.1 359.08 289.1H344.77C343.113 289.1 341.77 290.443 341.77 292.1V326.27C341.77 327.927 343.113 329.27 344.77 329.27H359.08C360.737 329.27 362.08 327.927 362.08 326.27Z" fill="#308410"/>
<path id="6_11" d="M354.818 303.764V304.791H354.595C353.654 304.808 352.904 305.087 352.346 305.627C351.788 306.168 351.466 306.928 351.379 307.909C351.88 307.334 352.564 307.046 353.431 307.046C354.26 307.046 354.92 307.338 355.413 307.922C355.909 308.506 356.158 309.26 356.158 310.184C356.158 311.165 355.89 311.95 355.354 312.538C354.822 313.127 354.107 313.421 353.209 313.421C352.298 313.421 351.559 313.072 350.993 312.375C350.426 311.673 350.143 310.771 350.143 309.668V309.204C350.143 307.452 350.515 306.113 351.261 305.189C352.011 304.261 353.124 303.786 354.602 303.764H354.818ZM353.229 308.053C352.815 308.053 352.433 308.177 352.085 308.426C351.736 308.674 351.494 308.986 351.359 309.361V309.805C351.359 310.59 351.535 311.222 351.888 311.701C352.242 312.181 352.682 312.42 353.209 312.42C353.754 312.42 354.181 312.22 354.491 311.819C354.804 311.418 354.961 310.893 354.961 310.243C354.961 309.589 354.802 309.062 354.484 308.661C354.17 308.256 353.752 308.053 353.229 308.053Z" fill="white"/>
<path id="Vector_29" d="M421.11 322.36V296C421.11 294.343 419.767 293 418.11 293H388.4C386.743 293 385.4 294.343 385.4 296V322.36C385.4 324.017 386.743 325.36 388.4 325.36H418.11C419.767 325.36 421.11 324.017 421.11 322.36Z" stroke="#B6B6B6" stroke-miterlimit="10"/>
<path id="16" d="M413.41 326.27V292.1C413.41 290.443 412.067 289.1 410.41 289.1H396.1C394.443 289.1 393.1 290.443 393.1 292.1V326.27C393.1 327.927 394.443 329.27 396.1 329.27H410.41C412.067 329.27 413.41 327.927 413.41 326.27Z" fill="#308410"/>
<path id="6_12" d="M406.138 303.764V304.791H405.916C404.974 304.808 404.224 305.087 403.666 305.627C403.109 306.168 402.786 306.928 402.699 307.909C403.2 307.334 403.884 307.046 404.752 307.046C405.58 307.046 406.24 307.338 406.733 307.922C407.23 308.506 407.478 309.26 407.478 310.184C407.478 311.165 407.21 311.95 406.674 312.538C406.142 313.127 405.427 313.421 404.529 313.421C403.619 313.421 402.88 313.072 402.313 312.375C401.746 311.673 401.463 310.771 401.463 309.668V309.204C401.463 307.452 401.836 306.113 402.581 305.189C403.331 304.261 404.444 303.786 405.922 303.764H406.138ZM404.549 308.053C404.135 308.053 403.754 308.177 403.405 308.426C403.056 308.674 402.814 308.986 402.679 309.361V309.805C402.679 310.59 402.856 311.222 403.209 311.701C403.562 312.181 404.002 312.42 404.529 312.42C405.074 312.42 405.501 312.22 405.811 311.819C406.125 311.418 406.282 310.893 406.282 310.243C406.282 309.589 406.123 309.062 405.804 308.661C405.491 308.256 405.072 308.053 404.549 308.053Z" fill="white"/>
<path id="Vector_30" d="M557.58 128.85V102.49C557.58 100.833 556.237 99.49 554.58 99.49H524.87C523.213 99.49 521.87 100.833 521.87 102.49V128.85C521.87 130.507 523.213 131.85 524.87 131.85H554.58C556.237 131.85 557.58 130.507 557.58 128.85Z" stroke="#B6B6B6" stroke-miterlimit="10"/>
<path id="37_2" d="M549.88 132.75V98.5801C549.88 96.9232 548.537 95.5801 546.88 95.5801H532.57C530.913 95.5801 529.57 96.9232 529.57 98.5801V132.75C529.57 134.407 530.913 135.75 532.57 135.75H546.88C548.537 135.75 549.88 134.407 549.88 132.75Z" fill="#308410"/>
<path id="6_13" d="M542.618 110.244V111.271H542.396C541.454 111.288 540.704 111.567 540.146 112.107C539.589 112.648 539.266 113.408 539.179 114.389C539.68 113.814 540.364 113.526 541.232 113.526C542.06 113.526 542.72 113.818 543.213 114.402C543.71 114.986 543.958 115.74 543.958 116.664C543.958 117.645 543.69 118.43 543.154 119.018C542.622 119.607 541.907 119.901 541.009 119.901C540.098 119.901 539.36 119.552 538.793 118.855C538.226 118.153 537.943 117.251 537.943 116.148V115.684C537.943 113.932 538.316 112.593 539.061 111.669C539.811 110.741 540.924 110.266 542.402 110.244H542.618ZM541.029 114.533C540.615 114.533 540.234 114.657 539.885 114.906C539.536 115.154 539.294 115.466 539.159 115.841V116.285C539.159 117.07 539.336 117.702 539.689 118.181C540.042 118.661 540.482 118.9 541.009 118.9C541.554 118.9 541.981 118.7 542.291 118.299C542.605 117.898 542.762 117.373 542.762 116.723C542.762 116.069 542.603 115.542 542.284 115.141C541.971 114.736 541.552 114.533 541.029 114.533Z" fill="white"/>
<path id="Vector_31" d="M603.89 128.85V102.49C603.89 100.833 602.547 99.49 600.89 99.49H571.18C569.523 99.49 568.18 100.833 568.18 102.49V128.85C568.18 130.507 569.523 131.85 571.18 131.85H600.89C602.547 131.85 603.89 130.507 603.89 128.85Z" stroke="#B6B6B6" stroke-miterlimit="10"/>
<path id="35" d="M596.19 132.75V98.5801C596.19 96.9232 594.847 95.5801 593.19 95.5801H578.88C577.223 95.5801 575.88 96.9232 575.88 98.5801V132.75C575.88 134.407 577.223 135.75 578.88 135.75H593.19C594.847 135.75 596.19 134.407 596.19 132.75Z" fill="#308410"/>
<path id="6_14" d="M588.918 110.244V111.271H588.695C587.754 111.288 587.004 111.567 586.446 112.107C585.888 112.648 585.566 113.408 585.479 114.389C585.98 113.814 586.664 113.526 587.532 113.526C588.36 113.526 589.02 113.818 589.513 114.402C590.01 114.986 590.258 115.74 590.258 116.664C590.258 117.645 589.99 118.43 589.454 119.018C588.922 119.607 588.207 119.901 587.309 119.901C586.398 119.901 585.659 119.552 585.093 118.855C584.526 118.153 584.243 117.251 584.243 116.148V115.684C584.243 113.932 584.616 112.593 585.361 111.669C586.111 110.741 587.224 110.266 588.702 110.244H588.918ZM587.329 114.533C586.915 114.533 586.533 114.657 586.185 114.906C585.836 115.154 585.594 115.466 585.459 115.841V116.285C585.459 117.07 585.636 117.702 585.989 118.181C586.342 118.661 586.782 118.9 587.309 118.9C587.854 118.9 588.281 118.7 588.591 118.299C588.905 117.898 589.061 117.373 589.061 116.723C589.061 116.069 588.902 115.542 588.584 115.141C588.27 114.736 587.852 114.533 587.329 114.533Z" fill="white"/>
<path id="Vector_32" d="M511.28 213.77V187.41C511.28 185.753 509.937 184.41 508.28 184.41H478.57C476.913 184.41 475.57 185.753 475.57 187.41V213.77C475.57 215.427 476.913 216.77 478.57 216.77H508.28C509.937 216.77 511.28 215.427 511.28 213.77Z" stroke="#B6B6B6" stroke-miterlimit="10"/>
<path id="34" d="M503.58 217.67V183.5C503.58 181.843 502.237 180.5 500.58 180.5H486.27C484.613 180.5 483.27 181.843 483.27 183.5V217.67C483.27 219.327 484.613 220.67 486.27 220.67H500.58C502.237 220.67 503.58 219.327 503.58 217.67Z" fill="#FF2400"/>
<path id="6_15" d="M496.308 195.164V196.19H496.085C495.144 196.208 494.394 196.487 493.836 197.027C493.278 197.568 492.956 198.328 492.869 199.309C493.37 198.734 494.054 198.446 494.922 198.446C495.75 198.446 496.41 198.738 496.903 199.322C497.4 199.906 497.648 200.66 497.648 201.584C497.648 202.565 497.38 203.35 496.844 203.938C496.312 204.526 495.597 204.821 494.699 204.821C493.788 204.821 493.05 204.472 492.483 203.775C491.916 203.073 491.633 202.171 491.633 201.068V200.604C491.633 198.851 492.006 197.513 492.751 196.589C493.501 195.661 494.614 195.186 496.092 195.164H496.308ZM494.719 199.453C494.305 199.453 493.924 199.577 493.575 199.826C493.226 200.074 492.984 200.386 492.849 200.761V201.205C492.849 201.99 493.026 202.622 493.379 203.101C493.732 203.581 494.172 203.82 494.699 203.82C495.244 203.82 495.671 203.62 495.981 203.219C496.295 202.818 496.452 202.293 496.452 201.643C496.452 200.989 496.293 200.462 495.974 200.061C495.661 199.656 495.242 199.453 494.719 199.453Z" fill="white"/>
<path id="Vector_33" d="M557.58 213.77V187.41C557.58 185.753 556.237 184.41 554.58 184.41H524.87C523.213 184.41 521.87 185.753 521.87 187.41V213.77C521.87 215.427 523.213 216.77 524.87 216.77H554.58C556.237 216.77 557.58 215.427 557.58 213.77Z" stroke="#B6B6B6" stroke-miterlimit="10"/>
<path id="33" d="M549.88 217.67V183.5C549.88 181.843 548.537 180.5 546.88 180.5H532.57C530.913 180.5 529.57 181.843 529.57 183.5V217.67C529.57 219.327 530.913 220.67 532.57 220.67H546.88C548.537 220.67 549.88 219.327 549.88 217.67Z" fill="#308410"/>
<path id="6_16" d="M542.618 195.164V196.19H542.396C541.454 196.208 540.704 196.487 540.146 197.027C539.589 197.568 539.266 198.328 539.179 199.309C539.68 198.734 540.364 198.446 541.232 198.446C542.06 198.446 542.72 198.738 543.213 199.322C543.71 199.906 543.958 200.66 543.958 201.584C543.958 202.565 543.69 203.35 543.154 203.938C542.622 204.526 541.907 204.821 541.009 204.821C540.098 204.821 539.36 204.472 538.793 203.775C538.226 203.073 537.943 202.171 537.943 201.068V200.604C537.943 198.851 538.316 197.513 539.061 196.589C539.811 195.661 540.924 195.186 542.402 195.164H542.618ZM541.029 199.453C540.615 199.453 540.234 199.577 539.885 199.826C539.536 200.074 539.294 200.386 539.159 200.761V201.205C539.159 201.99 539.336 202.622 539.689 203.101C540.042 203.581 540.482 203.82 541.009 203.82C541.554 203.82 541.981 203.62 542.291 203.219C542.605 202.818 542.762 202.293 542.762 201.643C542.762 200.989 542.603 200.462 542.284 200.061C541.971 199.656 541.552 199.453 541.029 199.453Z" fill="white"/>
<path id="Vector_34" d="M603.89 213.77V187.41C603.89 185.753 602.547 184.41 600.89 184.41H571.18C569.523 184.41 568.18 185.753 568.18 187.41V213.77C568.18 215.427 569.523 216.77 571.18 216.77H600.89C602.547 216.77 603.89 215.427 603.89 213.77Z" stroke="#B6B6B6" stroke-miterlimit="10"/>
<path id="32" d="M596.19 217.67V183.5C596.19 181.843 594.847 180.5 593.19 180.5H578.88C577.223 180.5 575.88 181.843 575.88 183.5V217.67C575.88 219.327 577.223 220.67 578.88 220.67H593.19C594.847 220.67 596.19 219.327 596.19 217.67Z" fill="#308410"/>
<path id="6_17" d="M588.918 195.164V196.19H588.695C587.754 196.208 587.004 196.487 586.446 197.027C585.888 197.568 585.566 198.328 585.479 199.309C585.98 198.734 586.664 198.446 587.532 198.446C588.36 198.446 589.02 198.738 589.513 199.322C590.01 199.906 590.258 200.66 590.258 201.584C590.258 202.565 589.99 203.35 589.454 203.938C588.922 204.526 588.207 204.821 587.309 204.821C586.398 204.821 585.659 204.472 585.093 203.775C584.526 203.073 584.243 202.171 584.243 201.068V200.604C584.243 198.851 584.616 197.513 585.361 196.589C586.111 195.661 587.224 195.186 588.702 195.164H588.918ZM587.329 199.453C586.915 199.453 586.533 199.577 586.185 199.826C585.836 200.074 585.594 200.386 585.459 200.761V201.205C585.459 201.99 585.636 202.622 585.989 203.101C586.342 203.581 586.782 203.82 587.309 203.82C587.854 203.82 588.281 203.62 588.591 203.219C588.905 202.818 589.061 202.293 589.061 201.643C589.061 200.989 588.902 200.462 588.584 200.061C588.27 199.656 587.852 199.453 587.329 199.453Z" fill="white"/>
<path id="Vector_35" d="M511.27 323.18V296.82C511.27 295.163 509.927 293.82 508.27 293.82H478.56C476.903 293.82 475.56 295.163 475.56 296.82V323.18C475.56 324.837 476.903 326.18 478.56 326.18H508.27C509.927 326.18 511.27 324.837 511.27 323.18Z" stroke="#B6B6B6" stroke-miterlimit="10"/>
<path id="15" d="M503.57 327.08V292.91C503.57 291.253 502.227 289.91 500.57 289.91H486.26C484.603 289.91 483.26 291.253 483.26 292.91V327.08C483.26 328.737 484.603 330.08 486.26 330.08H500.57C502.227 330.08 503.57 328.737 503.57 327.08Z" fill="#308410"/>
<path id="6_18" d="M496.308 304.574V305.601H496.085C495.144 305.618 494.394 305.897 493.836 306.437C493.278 306.978 492.956 307.739 492.869 308.719C493.37 308.144 494.054 307.856 494.922 307.856C495.75 307.856 496.41 308.148 496.903 308.732C497.4 309.316 497.648 310.07 497.648 310.995C497.648 311.975 497.38 312.76 496.844 313.348C496.312 313.937 495.597 314.231 494.699 314.231C493.788 314.231 493.05 313.882 492.483 313.185C491.916 312.483 491.633 311.581 491.633 310.478V310.014C491.633 308.262 492.006 306.923 492.751 305.999C493.501 305.071 494.614 304.596 496.092 304.574H496.308ZM494.719 308.863C494.305 308.863 493.924 308.987 493.575 309.236C493.226 309.484 492.984 309.796 492.849 310.171V310.615C492.849 311.4 493.026 312.032 493.379 312.511C493.732 312.991 494.172 313.231 494.699 313.231C495.244 313.231 495.671 313.03 495.981 312.629C496.295 312.228 496.452 311.703 496.452 311.053C496.452 310.4 496.293 309.872 495.974 309.471C495.661 309.066 495.242 308.863 494.719 308.863Z" fill="white"/>
<path id="Vector_36" d="M565.4 323.18V296.82C565.4 295.163 564.057 293.82 562.4 293.82H532.69C531.033 293.82 529.69 295.163 529.69 296.82V323.18C529.69 324.837 531.033 326.18 532.69 326.18H562.4C564.057 326.18 565.4 324.837 565.4 323.18Z" stroke="#B6B6B6" stroke-miterlimit="10"/>
<path id="14" d="M557.7 327.08V292.91C557.7 291.253 556.357 289.91 554.7 289.91H540.39C538.733 289.91 537.39 291.253 537.39 292.91V327.08C537.39 328.737 538.733 330.08 540.39 330.08H554.7C556.357 330.08 557.7 328.737 557.7 327.08Z" fill="#308410"/>
<path id="6_19" d="M550.438 304.574V305.601H550.215C549.274 305.618 548.524 305.897 547.966 306.437C547.408 306.978 547.086 307.739 546.999 308.719C547.5 308.144 548.184 307.856 549.052 307.856C549.88 307.856 550.54 308.148 551.033 308.732C551.53 309.316 551.778 310.07 551.778 310.995C551.778 311.975 551.51 312.76 550.974 313.348C550.442 313.937 549.727 314.231 548.829 314.231C547.918 314.231 547.18 313.882 546.613 313.185C546.046 312.483 545.763 311.581 545.763 310.478V310.014C545.763 308.262 546.136 306.923 546.881 305.999C547.631 305.071 548.744 304.596 550.222 304.574H550.438ZM548.849 308.863C548.435 308.863 548.053 308.987 547.705 309.236C547.356 309.484 547.114 309.796 546.979 310.171V310.615C546.979 311.4 547.156 312.032 547.509 312.511C547.862 312.991 548.302 313.231 548.829 313.231C549.374 313.231 549.801 313.03 550.111 312.629C550.425 312.228 550.581 311.703 550.581 311.053C550.581 310.4 550.422 309.872 550.104 309.471C549.79 309.066 549.372 308.863 548.849 308.863Z" fill="white"/>
<path id="Vector_37" d="M619.53 323.18V296.82C619.53 295.163 618.187 293.82 616.53 293.82H586.82C585.163 293.82 583.82 295.163 583.82 296.82V323.18C583.82 324.837 585.163 326.18 586.82 326.18H616.53C618.187 326.18 619.53 324.837 619.53 323.18Z" stroke="#B6B6B6" stroke-miterlimit="10"/>
<path id="13" d="M611.83 327.08V292.91C611.83 291.253 610.487 289.91 608.83 289.91H594.52C592.863 289.91 591.52 291.253 591.52 292.91V327.08C591.52 328.737 592.863 330.08 594.52 330.08H608.83C610.487 330.08 611.83 328.737 611.83 327.08Z" fill="#308410"/>
<path id="6_20" d="M604.568 304.574V305.601H604.346C603.404 305.618 602.655 305.897 602.097 306.437C601.539 306.978 601.216 307.739 601.129 308.719C601.63 308.144 602.315 307.856 603.182 307.856C604.01 307.856 604.67 308.148 605.163 308.732C605.66 309.316 605.908 310.07 605.908 310.995C605.908 311.975 605.64 312.76 605.104 313.348C604.572 313.937 603.858 314.231 602.96 314.231C602.049 314.231 601.31 313.882 600.743 313.185C600.177 312.483 599.893 311.581 599.893 310.478V310.014C599.893 308.262 600.266 306.923 601.011 305.999C601.761 305.071 602.875 304.596 604.352 304.574H604.568ZM602.979 308.863C602.565 308.863 602.184 308.987 601.835 309.236C601.486 309.484 601.245 309.796 601.109 310.171V310.615C601.109 311.4 601.286 312.032 601.639 312.511C601.992 312.991 602.432 313.231 602.96 313.231C603.505 313.231 603.932 313.03 604.241 312.629C604.555 312.228 604.712 311.703 604.712 311.053C604.712 310.4 604.553 309.872 604.235 309.471C603.921 309.066 603.502 308.863 602.979 308.863Z" fill="white"/>
<path id="Vector_38" d="M673.66 323.18V296.82C673.66 295.163 672.317 293.82 670.66 293.82H640.95C639.293 293.82 637.95 295.163 637.95 296.82V323.18C637.95 324.837 639.293 326.18 640.95 326.18H670.66C672.317 326.18 673.66 324.837 673.66 323.18Z" stroke="#B6B6B6" stroke-miterlimit="10"/>
<path id="12" d="M665.96 327.08V292.91C665.96 291.253 664.617 289.91 662.96 289.91H648.65C646.993 289.91 645.65 291.253 645.65 292.91V327.08C645.65 328.737 646.993 330.08 648.65 330.08H662.96C664.617 330.08 665.96 328.737 665.96 327.08Z" fill="#308410"/>
<path id="6_21" d="M658.698 304.574V305.601H658.476C657.534 305.618 656.784 305.897 656.227 306.437C655.669 306.978 655.346 307.739 655.259 308.719C655.76 308.144 656.444 307.856 657.312 307.856C658.14 307.856 658.8 308.148 659.293 308.732C659.79 309.316 660.038 310.07 660.038 310.995C660.038 311.975 659.77 312.76 659.234 313.348C658.702 313.937 657.987 314.231 657.09 314.231C656.179 314.231 655.44 313.882 654.873 313.185C654.307 312.483 654.023 311.581 654.023 310.478V310.014C654.023 308.262 654.396 306.923 655.141 305.999C655.891 305.071 657.005 304.596 658.482 304.574H658.698ZM657.109 308.863C656.695 308.863 656.314 308.987 655.965 309.236C655.616 309.484 655.374 309.796 655.239 310.171V310.615C655.239 311.4 655.416 312.032 655.769 312.511C656.122 312.991 656.562 313.231 657.09 313.231C657.634 313.231 658.062 313.03 658.371 312.629C658.685 312.228 658.842 311.703 658.842 311.053C658.842 310.4 658.683 309.872 658.364 309.471C658.051 309.066 657.632 308.863 657.109 308.863Z" fill="white"/>
<path id="Vector_39" d="M727.79 323.18V296.82C727.79 295.163 726.447 293.82 724.79 293.82H695.08C693.423 293.82 692.08 295.163 692.08 296.82V323.18C692.08 324.837 693.423 326.18 695.08 326.18H724.79C726.447 326.18 727.79 324.837 727.79 323.18Z" stroke="#B6B6B6" stroke-miterlimit="10"/>
<path id="11" d="M720.09 327.09V292.92C720.09 291.263 718.747 289.92 717.09 289.92H702.78C701.123 289.92 699.78 291.263 699.78 292.92V327.09C699.78 328.747 701.123 330.09 702.78 330.09H717.09C718.747 330.09 720.09 328.747 720.09 327.09Z" fill="#7F7F7F"/>
<path id="6_22" d="M712.828 304.574V305.601H712.606C711.664 305.618 710.914 305.897 710.356 306.437C709.798 306.978 709.476 307.739 709.389 308.719C709.89 308.144 710.574 307.856 711.442 307.856C712.27 307.856 712.93 308.148 713.423 308.732C713.92 309.316 714.168 310.07 714.168 310.995C714.168 311.975 713.9 312.76 713.364 313.348C712.832 313.937 712.117 314.231 711.219 314.231C710.308 314.231 709.57 313.882 709.003 313.185C708.436 312.483 708.153 311.581 708.153 310.478V310.014C708.153 308.262 708.526 306.923 709.271 305.999C710.021 305.071 711.134 304.596 712.612 304.574H712.828ZM711.239 308.863C710.825 308.863 710.444 308.987 710.095 309.236C709.746 309.484 709.504 309.796 709.369 310.171V310.615C709.369 311.4 709.546 312.032 709.899 312.511C710.252 312.991 710.692 313.231 711.219 313.231C711.764 313.231 712.191 313.03 712.501 312.629C712.815 312.228 712.972 311.703 712.972 311.053C712.972 310.4 712.813 309.872 712.494 309.471C712.181 309.066 711.762 308.863 711.239 308.863Z" fill="white"/>
<path id="Vector_40" d="M781.92 323.18V296.82C781.92 295.163 780.577 293.82 778.92 293.82H749.21C747.553 293.82 746.21 295.163 746.21 296.82V323.18C746.21 324.837 747.553 326.18 749.21 326.18H778.92C780.577 326.18 781.92 324.837 781.92 323.18Z" stroke="#B6B6B6" stroke-miterlimit="10"/>
<path id="10" d="M774.22 327.09V292.92C774.22 291.263 772.877 289.92 771.22 289.92H756.91C755.253 289.92 753.91 291.263 753.91 292.92V327.09C753.91 328.747 755.253 330.09 756.91 330.09H771.22C772.877 330.09 774.22 328.747 774.22 327.09Z" fill="#308410"/>
<path id="6_23" d="M766.958 304.574V305.601H766.735C765.794 305.618 765.044 305.897 764.486 306.437C763.928 306.978 763.606 307.739 763.519 308.719C764.02 308.144 764.704 307.856 765.572 307.856C766.4 307.856 767.06 308.148 767.553 308.732C768.05 309.316 768.298 310.07 768.298 310.995C768.298 311.975 768.03 312.76 767.494 313.348C766.962 313.937 766.247 314.231 765.349 314.231C764.438 314.231 763.7 313.882 763.133 313.185C762.566 312.483 762.283 311.581 762.283 310.478V310.014C762.283 308.262 762.656 306.923 763.401 305.999C764.151 305.071 765.264 304.596 766.742 304.574H766.958ZM765.369 308.863C764.955 308.863 764.573 308.987 764.225 309.236C763.876 309.484 763.634 309.796 763.499 310.171V310.615C763.499 311.4 763.676 312.032 764.029 312.511C764.382 312.991 764.822 313.231 765.349 313.231C765.894 313.231 766.321 313.03 766.631 312.629C766.945 312.228 767.102 311.703 767.102 311.053C767.102 310.4 766.942 309.872 766.624 309.471C766.31 309.066 765.892 308.863 765.369 308.863Z" fill="white"/>
<path id="Vector_41" d="M372.22 98.0701H398.58C400.237 98.0701 401.58 96.7269 401.58 95.0701V65.3601C401.58 63.7032 400.237 62.3601 398.58 62.3601L372.22 62.3601C370.563 62.3601 369.22 63.7032 369.22 65.3601V95.0701C369.22 96.7269 370.563 98.0701 372.22 98.0701Z" stroke="#B6B6B6" stroke-miterlimit="10"/>
<path id="Vector_42" d="M368.32 90.3701H402.49C404.147 90.3701 405.49 89.027 405.49 87.3701V73.0601C405.49 71.4033 404.147 70.0601 402.49 70.0601H368.32C366.663 70.0601 365.32 71.4033 365.32 73.0601V87.3701C365.32 89.027 366.663 90.3701 368.32 90.3701Z" fill="#308410"/>
<path id="6_24" d="M388.288 74.7941V75.8206H388.065C387.124 75.838 386.374 76.1169 385.816 76.6574C385.258 77.1979 384.936 77.9585 384.849 78.9392C385.35 78.3639 386.034 78.0762 386.902 78.0762C387.73 78.0762 388.39 78.3682 388.883 78.9523C389.38 79.5364 389.628 80.2904 389.628 81.2145C389.628 82.1952 389.36 82.9798 388.824 83.5682C388.292 84.1566 387.577 84.4508 386.679 84.4508C385.768 84.4508 385.03 84.1021 384.463 83.4047C383.896 82.703 383.613 81.8007 383.613 80.698V80.2338C383.613 78.4816 383.986 77.1434 384.731 76.2194C385.481 75.291 386.594 74.8159 388.072 74.7941H388.288ZM386.699 79.0831C386.285 79.0831 385.904 79.2073 385.555 79.4557C385.206 79.7042 384.964 80.0158 384.829 80.3907V80.8353C384.829 81.6198 385.006 82.2519 385.359 82.7313C385.712 83.2108 386.152 83.4505 386.679 83.4505C387.224 83.4505 387.651 83.25 387.961 82.849C388.275 82.448 388.432 81.9228 388.432 81.2733C388.432 80.6195 388.273 80.0921 387.954 79.6911C387.64 79.2857 387.222 79.0831 386.699 79.0831Z" fill="white"/>
<path id="Vector_43" d="M372.22 99.0701H398.58C400.237 99.0701 401.58 97.7269 401.58 96.0701V66.3601C401.58 64.7032 400.237 63.3601 398.58 63.3601L372.22 63.3601C370.563 63.3601 369.22 64.7032 369.22 66.3601V96.0701C369.22 97.7269 370.563 99.0701 372.22 99.0701Z" stroke="#B6B6B6" stroke-miterlimit="10"/>
<path id="43" d="M368.32 91.3701H402.49C404.147 91.3701 405.49 90.027 405.49 88.3701V74.0601C405.49 72.4033 404.147 71.0601 402.49 71.0601H368.32C366.663 71.0601 365.32 72.4033 365.32 74.0601V88.3701C365.32 90.027 366.663 91.3701 368.32 91.3701Z" fill="#308410"/>
<path id="6_25" d="M388.288 75.7941V76.8206H388.065C387.124 76.838 386.374 77.1169 385.816 77.6574C385.258 78.1979 384.936 78.9585 384.849 79.9392C385.35 79.3639 386.034 79.0762 386.902 79.0762C387.73 79.0762 388.39 79.3682 388.883 79.9523C389.38 80.5364 389.628 81.2904 389.628 82.2145C389.628 83.1952 389.36 83.9798 388.824 84.5682C388.292 85.1566 387.577 85.4508 386.679 85.4508C385.768 85.4508 385.03 85.1021 384.463 84.4047C383.896 83.703 383.613 82.8007 383.613 81.698V81.2338C383.613 79.4816 383.986 78.1434 384.731 77.2194C385.481 76.291 386.594 75.8159 388.072 75.7941H388.288ZM386.699 80.0831C386.285 80.0831 385.904 80.2073 385.555 80.4557C385.206 80.7042 384.964 81.0158 384.829 81.3907V81.8353C384.829 82.6198 385.006 83.2519 385.359 83.7313C385.712 84.2108 386.152 84.4505 386.679 84.4505C387.224 84.4505 387.651 84.25 387.961 83.849C388.275 83.448 388.432 82.9228 388.432 82.2733C388.432 81.6195 388.273 81.0921 387.954 80.6911C387.64 80.2857 387.222 80.0831 386.699 80.0831Z" fill="white"/>
<path id="Vector_44" d="M372.22 155.43H398.58C400.237 155.43 401.58 154.087 401.58 152.43V122.72C401.58 121.063 400.237 119.72 398.58 119.72H372.22C370.563 119.72 369.22 121.063 369.22 122.72V152.43C369.22 154.087 370.563 155.43 372.22 155.43Z" stroke="#B6B6B6" stroke-miterlimit="10"/>
<path id="42" d="M368.32 147.73H402.49C404.147 147.73 405.49 146.387 405.49 144.73V130.42C405.49 128.763 404.147 127.42 402.49 127.42H368.32C366.663 127.42 365.32 128.763 365.32 130.42V144.73C365.32 146.387 366.663 147.73 368.32 147.73Z" fill="#308410"/>
<path id="6_26" d="M388.288 132.154V133.18H388.065C387.124 133.198 386.374 133.477 385.816 134.017C385.258 134.558 384.936 135.318 384.849 136.299C385.35 135.724 386.034 135.436 386.902 135.436C387.73 135.436 388.39 135.728 388.883 136.312C389.38 136.896 389.628 137.65 389.628 138.574C389.628 139.555 389.36 140.34 388.824 140.928C388.292 141.516 387.577 141.811 386.679 141.811C385.768 141.811 385.03 141.462 384.463 140.765C383.896 140.063 383.613 139.161 383.613 138.058V137.594C383.613 135.841 383.986 134.503 384.731 133.579C385.481 132.651 386.594 132.176 388.072 132.154H388.288ZM386.699 136.443C386.285 136.443 385.904 136.567 385.555 136.816C385.206 137.064 384.964 137.376 384.829 137.751V138.195C384.829 138.98 385.006 139.612 385.359 140.091C385.712 140.571 386.152 140.81 386.679 140.81C387.224 140.81 387.651 140.61 387.961 140.209C388.275 139.808 388.432 139.283 388.432 138.633C388.432 137.979 388.273 137.452 387.954 137.051C387.64 136.646 387.222 136.443 386.699 136.443Z" fill="white"/>
<path id="Vector_45" d="M372.22 211.78H398.58C400.237 211.78 401.58 210.437 401.58 208.78V179.07C401.58 177.413 400.237 176.07 398.58 176.07H372.22C370.563 176.07 369.22 177.413 369.22 179.07V208.78C369.22 210.437 370.563 211.78 372.22 211.78Z" stroke="#B6B6B6" stroke-miterlimit="10"/>
<path id="41" d="M368.32 204.08H402.49C404.147 204.08 405.49 202.737 405.49 201.08V186.77C405.49 185.113 404.147 183.77 402.49 183.77H368.32C366.663 183.77 365.32 185.113 365.32 186.77V201.08C365.32 202.737 366.663 204.08 368.32 204.08Z" fill="#308410"/>
<path id="6_27" d="M388.288 188.504V189.531H388.065C387.124 189.548 386.374 189.827 385.816 190.367C385.258 190.908 384.936 191.668 384.849 192.649C385.35 192.074 386.034 191.786 386.902 191.786C387.73 191.786 388.39 192.078 388.883 192.662C389.38 193.246 389.628 194 389.628 194.924C389.628 195.905 389.36 196.69 388.824 197.278C388.292 197.867 387.577 198.161 386.679 198.161C385.768 198.161 385.03 197.812 384.463 197.115C383.896 196.413 383.613 195.511 383.613 194.408V193.944C383.613 192.192 383.986 190.853 384.731 189.929C385.481 189.001 386.594 188.526 388.072 188.504H388.288ZM386.699 192.793C386.285 192.793 385.904 192.917 385.555 193.166C385.206 193.414 384.964 193.726 384.829 194.101V194.545C384.829 195.33 385.006 195.962 385.359 196.441C385.712 196.921 386.152 197.16 386.679 197.16C387.224 197.16 387.651 196.96 387.961 196.559C388.275 196.158 388.432 195.633 388.432 194.983C388.432 194.329 388.273 193.802 387.954 193.401C387.64 192.996 387.222 192.793 386.699 192.793Z" fill="white"/>
<path id="Vector_46" d="M372.22 268.14H398.58C400.237 268.14 401.58 266.797 401.58 265.14V235.43C401.58 233.773 400.237 232.43 398.58 232.43H372.22C370.563 232.43 369.22 233.773 369.22 235.43V265.14C369.22 266.797 370.563 268.14 372.22 268.14Z" stroke="#B6B6B6" stroke-miterlimit="10"/>
<path id="40" d="M368.32 260.44H402.49C404.147 260.44 405.49 259.097 405.49 257.44V243.13C405.49 241.473 404.147 240.13 402.49 240.13H368.32C366.663 240.13 365.32 241.473 365.32 243.13V257.44C365.32 259.097 366.663 260.44 368.32 260.44Z" fill="#308410"/>
<path id="6_28" d="M388.288 244.854V245.88H388.065C387.124 245.898 386.374 246.177 385.816 246.717C385.258 247.258 384.936 248.018 384.849 248.999C385.35 248.424 386.034 248.136 386.902 248.136C387.73 248.136 388.39 248.428 388.883 249.012C389.38 249.596 389.628 250.35 389.628 251.274C389.628 252.255 389.36 253.04 388.824 253.628C388.292 254.216 387.577 254.511 386.679 254.511C385.768 254.511 385.03 254.162 384.463 253.465C383.896 252.763 383.613 251.861 383.613 250.758V250.294C383.613 248.541 383.986 247.203 384.731 246.279C385.481 245.351 386.594 244.876 388.072 244.854H388.288ZM386.699 249.143C386.285 249.143 385.904 249.267 385.555 249.516C385.206 249.764 384.964 250.076 384.829 250.45V250.895C384.829 251.68 385.006 252.312 385.359 252.791C385.712 253.271 386.152 253.51 386.679 253.51C387.224 253.51 387.651 253.31 387.961 252.909C388.275 252.508 388.432 251.983 388.432 251.333C388.432 250.679 388.273 250.152 387.954 249.751C387.64 249.346 387.222 249.143 386.699 249.143Z" fill="white"/>
<path id="Vector_47" d="M189.11 107.32V123.82C189.11 125.477 190.453 126.82 192.11 126.82H213.61C215.267 126.82 216.61 125.477 216.61 123.82V107.32C216.61 105.663 215.267 104.32 213.61 104.32H192.11C190.453 104.32 189.11 105.663 189.11 107.32Z" stroke="#B6B6B6" stroke-miterlimit="10"/>
<path id="55" d="M195.04 104.61V126.54C195.04 128.197 196.383 129.54 198.04 129.54H207.68C209.337 129.54 210.68 128.197 210.68 126.54V104.61C210.68 102.953 209.337 101.61 207.68 101.61H198.04C196.383 101.61 195.04 102.953 195.04 104.61Z" fill="#308410"/>
<path id="4_2" d="M206.464 116.28H207.807V117.284H206.464V119.53H205.228V117.284H200.822V116.559L205.155 109.854H206.464V116.28ZM202.218 116.28H205.228V111.535L205.082 111.801L202.218 116.28Z" fill="white"/>
<path id="Vector_48" d="M234.11 107.32V123.82C234.11 125.477 235.453 126.82 237.11 126.82H258.61C260.267 126.82 261.61 125.477 261.61 123.82V107.32C261.61 105.663 260.267 104.32 258.61 104.32H237.11C235.453 104.32 234.11 105.663 234.11 107.32Z" stroke="#B6B6B6" stroke-miterlimit="10"/>
<path id="52" d="M240.04 104.61V126.54C240.04 128.197 241.383 129.54 243.04 129.54H252.68C254.337 129.54 255.68 128.197 255.68 126.54V104.61C255.68 102.953 254.337 101.61 252.68 101.61H243.04C241.383 101.61 240.04 102.953 240.04 104.61Z" fill="#308410"/>
<path id="4_3" d="M251.464 116.28H252.807V117.284H251.464V119.53H250.228V117.284H245.822V116.559L250.155 109.854H251.464V116.28ZM247.218 116.28H250.228V111.535L250.082 111.801L247.218 116.28Z" fill="white"/>
<path id="Vector_49" d="M189.1 144.56V161.06C189.1 162.717 190.443 164.06 192.1 164.06H213.6C215.257 164.06 216.6 162.717 216.6 161.06V144.56C216.6 142.903 215.257 141.56 213.6 141.56H192.1C190.443 141.56 189.1 142.903 189.1 144.56Z" stroke="#B6B6B6" stroke-miterlimit="10"/>
<path id="54" d="M195.03 141.85V163.78C195.03 165.437 196.373 166.78 198.03 166.78H207.67C209.327 166.78 210.67 165.437 210.67 163.78V141.85C210.67 140.193 209.327 138.85 207.67 138.85H198.03C196.373 138.85 195.03 140.193 195.03 141.85Z" fill="#308410"/>
<path id="4_4" d="M206.464 153.52H207.807V154.524H206.464V156.77H205.228V154.524H200.822V153.799L205.155 147.094H206.464V153.52ZM202.218 153.52H205.228V148.775L205.082 149.041L202.218 153.52Z" fill="white"/>
<path id="Vector_50" d="M234.1 144.56V161.06C234.1 162.717 235.443 164.06 237.1 164.06H258.6C260.257 164.06 261.6 162.717 261.6 161.06V144.56C261.6 142.903 260.257 141.56 258.6 141.56H237.1C235.443 141.56 234.1 142.903 234.1 144.56Z" stroke="#B6B6B6" stroke-miterlimit="10"/>
<path id="51" d="M240.03 141.85V163.78C240.03 165.437 241.373 166.78 243.03 166.78H252.67C254.327 166.78 255.67 165.437 255.67 163.78V141.85C255.67 140.193 254.327 138.85 252.67 138.85H243.03C241.373 138.85 240.03 140.193 240.03 141.85Z" fill="#308410"/>
<path id="4_5" d="M251.464 153.52H252.807V154.524H251.464V156.77H250.228V154.524H245.822V153.799L250.155 147.094H251.464V153.52ZM247.218 153.52H250.228V148.775L250.082 149.041L247.218 153.52Z" fill="white"/>
<path id="Vector_51" d="M189.11 182.59V199.09C189.11 200.747 190.453 202.09 192.11 202.09H213.61C215.267 202.09 216.61 200.747 216.61 199.09V182.59C216.61 180.933 215.267 179.59 213.61 179.59H192.11C190.453 179.59 189.11 180.933 189.11 182.59Z" stroke="#B6B6B6" stroke-miterlimit="10"/>
<path id="53" d="M195.04 179.88V201.81C195.04 203.467 196.383 204.81 198.04 204.81H207.68C209.337 204.81 210.68 203.467 210.68 201.81V179.88C210.68 178.223 209.337 176.88 207.68 176.88H198.04C196.383 176.88 195.04 178.223 195.04 179.88Z" fill="#308410"/>
<path id="4_6" d="M206.464 191.55H207.807V192.554H206.464V194.8H205.228V192.554H200.822V191.83L205.155 185.124H206.464V191.55ZM202.218 191.55H205.228V186.806L205.082 187.071L202.218 191.55Z" fill="white"/>
<path id="Vector_52" d="M234.11 182.59V199.09C234.11 200.747 235.453 202.09 237.11 202.09H258.61C260.267 202.09 261.61 200.747 261.61 199.09V182.59C261.61 180.933 260.267 179.59 258.61 179.59H237.11C235.453 179.59 234.11 180.933 234.11 182.59Z" stroke="#B6B6B6" stroke-miterlimit="10"/>
<path id="50" d="M240.04 179.88V201.81C240.04 203.467 241.383 204.81 243.04 204.81H252.68C254.337 204.81 255.68 203.467 255.68 201.81V179.88C255.68 178.223 254.337 176.88 252.68 176.88H243.04C241.383 176.88 240.04 178.223 240.04 179.88Z" fill="#FF2400"/>
<path id="4_7" d="M251.464 191.55H252.807V192.554H251.464V194.8H250.228V192.554H245.822V191.83L250.155 185.124H251.464V191.55ZM247.218 191.55H250.228V186.806L250.082 187.071L247.218 191.55Z" fill="white"/>
<path id="Vector_53" d="M478.01 242.37V258.87C478.01 260.527 479.353 261.87 481.01 261.87H502.51C504.167 261.87 505.51 260.527 505.51 258.87V242.37C505.51 240.713 504.167 239.37 502.51 239.37H481.01C479.353 239.37 478.01 240.713 478.01 242.37Z" stroke="#B6B6B6" stroke-miterlimit="10"/>
<path id="24" d="M483.94 239.65V261.58C483.94 263.237 485.283 264.58 486.94 264.58H496.58C498.237 264.58 499.58 263.237 499.58 261.58V239.65C499.58 237.993 498.237 236.65 496.58 236.65H486.94C485.283 236.65 483.94 237.993 483.94 239.65Z" fill="#308410"/>
<path id="4_8" d="M495.374 251.32H496.717V252.324H495.374V254.57H494.138V252.324H489.732V251.6L494.065 244.894H495.374V251.32ZM491.128 251.32H494.138V246.576L493.992 246.841L491.128 251.32Z" fill="white"/>
<path id="Vector_54" d="M523.98 242.36V258.86C523.98 260.517 525.323 261.86 526.98 261.86H548.48C550.137 261.86 551.48 260.517 551.48 258.86V242.36C551.48 240.703 550.137 239.36 548.48 239.36H526.98C525.323 239.36 523.98 240.703 523.98 242.36Z" stroke="#B6B6B6" stroke-miterlimit="10"/>
<path id="23" d="M529.91 239.65V261.58C529.91 263.237 531.253 264.58 532.91 264.58H542.55C544.207 264.58 545.55 263.237 545.55 261.58V239.65C545.55 237.993 544.207 236.65 542.55 236.65H532.91C531.253 236.65 529.91 237.993 529.91 239.65Z" fill="#308410"/>
<path id="4_9" d="M541.344 251.32H542.687V252.324H541.344V254.57H540.108V252.324H535.702V251.6L540.035 244.894H541.344V251.32ZM537.098 251.32H540.108V246.576L539.962 246.841L537.098 251.32Z" fill="white"/>
<path id="Vector_55" d="M569.95 242.36V258.86C569.95 260.517 571.293 261.86 572.95 261.86H594.45C596.107 261.86 597.45 260.517 597.45 258.86V242.36C597.45 240.703 596.107 239.36 594.45 239.36H572.95C571.293 239.36 569.95 240.703 569.95 242.36Z" stroke="#B6B6B6" stroke-miterlimit="10"/>
<path id="22" d="M575.88 239.65V261.58C575.88 263.237 577.223 264.58 578.88 264.58H588.52C590.177 264.58 591.52 263.237 591.52 261.58V239.65C591.52 237.993 590.177 236.65 588.52 236.65H578.88C577.223 236.65 575.88 237.993 575.88 239.65Z" fill="#308410"/>
<path id="4_10" d="M587.314 251.32H588.656V252.324H587.314V254.57H586.078V252.324H581.672V251.6L586.005 244.894H587.314V251.32ZM583.068 251.32H586.078V246.576L585.932 246.841L583.068 251.32Z" fill="white"/>
<path id="Vector_56" d="M657.67 200.36V216.86C657.67 218.517 659.013 219.86 660.67 219.86H682.17C683.827 219.86 685.17 218.517 685.17 216.86V200.36C685.17 198.703 683.827 197.36 682.17 197.36H660.67C659.013 197.36 657.67 198.703 657.67 200.36Z" stroke="#B6B6B6" stroke-miterlimit="10"/>
<path id="31" d="M663.6 197.65V219.58C663.6 221.237 664.943 222.58 666.6 222.58H676.24C677.897 222.58 679.24 221.237 679.24 219.58V197.65C679.24 195.993 677.897 194.65 676.24 194.65H666.6C664.943 194.65 663.6 195.993 663.6 197.65Z" fill="#308410"/>
<path id="4_11" d="M675.025 209.32H676.367V210.324H675.025V212.57H673.788V210.324H669.382V209.6L673.715 202.894H675.025V209.32ZM670.778 209.32H673.788V204.576L673.642 204.841L670.778 209.32Z" fill="white"/>
<path id="Vector_57" d="M712.67 200.36V216.86C712.67 218.517 714.013 219.86 715.67 219.86H737.17C738.827 219.86 740.17 218.517 740.17 216.86V200.36C740.17 198.703 738.827 197.36 737.17 197.36H715.67C714.013 197.36 712.67 198.703 712.67 200.36Z" stroke="#B6B6B6" stroke-miterlimit="10"/>
<path id="30" d="M718.6 197.65V219.58C718.6 221.237 719.943 222.58 721.6 222.58H731.24C732.897 222.58 734.24 221.237 734.24 219.58V197.65C734.24 195.993 732.897 194.65 731.24 194.65H721.6C719.943 194.65 718.6 195.993 718.6 197.65Z" fill="#308410"/>
<path id="4_12" d="M730.025 209.32H731.367V210.324H730.025V212.57H728.788V210.324H724.382V209.6L728.715 202.894H730.025V209.32ZM725.778 209.32H728.788V204.576L728.642 204.841L725.778 209.32Z" fill="white"/>
<path id="Vector_58" d="M657.67 244.36V260.86C657.67 262.517 659.013 263.86 660.67 263.86H682.17C683.827 263.86 685.17 262.517 685.17 260.86V244.36C685.17 242.703 683.827 241.36 682.17 241.36H660.67C659.013 241.36 657.67 242.703 657.67 244.36Z" stroke="#B6B6B6" stroke-miterlimit="10"/>
<path id="21" d="M663.6 241.65V263.58C663.6 265.237 664.943 266.58 666.6 266.58H676.24C677.897 266.58 679.24 265.237 679.24 263.58V241.65C679.24 239.993 677.897 238.65 676.24 238.65H666.6C664.943 238.65 663.6 239.993 663.6 241.65Z" fill="#308410"/>
<path id="4_13" d="M675.025 253.32H676.367V254.324H675.025V256.57H673.788V254.324H669.382V253.6L673.715 246.894H675.025V253.32ZM670.778 253.32H673.788V248.576L673.642 248.841L670.778 253.32Z" fill="white"/>
<path id="Vector_59" d="M712.67 244.36V260.86C712.67 262.517 714.013 263.86 715.67 263.86H737.17C738.827 263.86 740.17 262.517 740.17 260.86V244.36C740.17 242.703 738.827 241.36 737.17 241.36H715.67C714.013 241.36 712.67 242.703 712.67 244.36Z" stroke="#B6B6B6" stroke-miterlimit="10"/>
<path id="20" d="M718.6 241.65V263.58C718.6 265.237 719.943 266.58 721.6 266.58H731.24C732.897 266.58 734.24 265.237 734.24 263.58V241.65C734.24 239.993 732.897 238.65 731.24 238.65H721.6C719.943 238.65 718.6 239.993 718.6 241.65Z" fill="#308410"/>
<path id="4_14" d="M730.025 253.32H731.367V254.324H730.025V256.57H728.788V254.324H724.382V253.6L728.715 246.894H730.025V253.32ZM725.778 253.32H728.788V248.576L728.642 248.841L725.778 253.32Z" fill="white"/>
<path id="Vector_60" d="M346.28 154.38V100.14C346.28 98.483 344.937 97.1399 343.28 97.1399H316.77C315.113 97.1399 313.77 98.483 313.77 100.14V154.38C313.77 156.037 315.113 157.38 316.77 157.38H343.28C344.937 157.38 346.28 156.037 346.28 154.38Z" stroke="#B6B6B6" stroke-miterlimit="10"/>
<path id="45" d="M337.93 149.35V106.29C337.93 104.633 336.587 103.29 334.93 103.29H316.28C314.623 103.29 313.28 104.633 313.28 106.29V149.35C313.28 151.007 314.623 152.35 316.28 152.35H334.93C336.587 152.35 337.93 151.007 337.93 149.35Z" fill="#308410"/>
<path id="10_2" d="M325.066 131.92H323.85V123.858L321.411 124.754V123.656L324.876 122.355H325.066V131.92ZM334.579 127.86C334.579 129.276 334.337 130.329 333.853 131.018C333.369 131.706 332.613 132.051 331.585 132.051C330.569 132.051 329.817 131.715 329.329 131.044C328.841 130.368 328.588 129.361 328.57 128.023V126.408C328.57 125.009 328.812 123.97 329.296 123.29C329.78 122.61 330.538 122.27 331.571 122.27C332.596 122.27 333.35 122.599 333.834 123.257C334.317 123.911 334.566 124.922 334.579 126.291V127.86ZM333.369 126.206C333.369 125.181 333.226 124.436 332.938 123.97C332.65 123.499 332.195 123.263 331.571 123.263C330.953 123.263 330.501 123.497 330.218 123.963C329.935 124.429 329.789 125.146 329.78 126.114V128.049C329.78 129.078 329.928 129.839 330.225 130.331C330.525 130.819 330.979 131.063 331.585 131.063C332.182 131.063 332.624 130.832 332.912 130.37C333.204 129.908 333.356 129.18 333.369 128.187V126.206Z" fill="white"/>
<path id="Vector_61" d="M346.27 240.73V186.49C346.27 184.833 344.927 183.49 343.27 183.49H316.76C315.103 183.49 313.76 184.833 313.76 186.49V240.73C313.76 242.387 315.103 243.73 316.76 243.73H343.27C344.927 243.73 346.27 242.387 346.27 240.73Z" stroke="#B6B6B6" stroke-miterlimit="10"/>
<path id="44" d="M337.93 235.7V192.64C337.93 190.983 336.587 189.64 334.93 189.64H316.28C314.623 189.64 313.28 190.983 313.28 192.64V235.7C313.28 237.357 314.623 238.7 316.28 238.7H334.93C336.587 238.7 337.93 237.357 337.93 235.7Z" fill="#FF2400"/>
<path id="10_3" d="M325.066 218.27H323.85V210.209L321.411 211.104V210.006L324.876 208.705H325.066V218.27ZM334.579 214.21C334.579 215.626 334.337 216.679 333.853 217.368C333.369 218.056 332.613 218.401 331.585 218.401C330.569 218.401 329.817 218.065 329.329 217.394C328.841 216.718 328.588 215.711 328.57 214.373V212.758C328.57 211.359 328.812 210.32 329.296 209.64C329.78 208.96 330.538 208.62 331.571 208.62C332.596 208.62 333.35 208.949 333.834 209.607C334.317 210.261 334.566 211.272 334.579 212.641V214.21ZM333.369 212.556C333.369 211.531 333.226 210.786 332.938 210.32C332.65 209.849 332.195 209.614 331.571 209.614C330.953 209.614 330.501 209.847 330.218 210.313C329.935 210.78 329.789 211.497 329.78 212.464V214.399C329.78 215.428 329.928 216.189 330.225 216.681C330.525 217.169 330.979 217.414 331.585 217.414C332.182 217.414 332.624 217.183 332.912 216.72C333.204 216.258 333.356 215.531 333.369 214.537V212.556Z" fill="white"/>
</g>
</g>
</g>
<defs>
<clipPath id="clip0">
<rect width="1051.96" height="440.43" fill="white"/>
</clipPath>
</defs>
</svg>
