<?xml version="1.0" encoding="utf-8"?>
<!-- Generator: Adobe Illustrator 25.0.1, SVG Export Plug-In . SVG Version: 6.00 Build 0)  -->
<svg version="1.1" id="Слой_1" xmlns="http://www.w3.org/2000/svg" xmlns:xlink="http://www.w3.org/1999/xlink" x="0px" y="0px"
	 viewBox="0 0 1031.9 542.8" style="enable-background:new 0 0 1031.9 542.8;" xml:space="preserve">
<style type="text/css">
	.st0{fill:none;}
	.st1{fill:none;stroke:#1D1D1B;stroke-width:0.72;}
	.st2{fill:none;stroke:#111111;stroke-width:6;stroke-miterlimit:10;}
	.st3{fill:none;stroke:#111111;stroke-width:3;stroke-miterlimit:10;}
	.st4{fill:none;stroke:#B6B6B6;stroke-miterlimit:10;}
	.st5{fill:#0C0C0C;}
	.st6{font-family:'BebasNeueBold';}
	.st7{font-size:14px;}
	.st8{fill:#308410;}
	.st9{fill:#FFFFFF;}
	.st10{font-size:15px;}
	.st11{font-size:13.39px;}
	.st12{font-size:13.61px;}
	.st13{opacity:0.11;fill:url(#SVGID_1_);}
	.st14{font-size:22.51px;}
	.st15{fill:#FF2400;}
	.st16{fill:#7F7F7F;}
	.st17{font-size:47.3295px;}
</style>
<pattern  y="493.2" width="72" height="72" patternUnits="userSpaceOnUse" id="_x31_0_lpi_10_x25_" viewBox="72.2 -72 72 72" style="overflow:visible;">
	<g>
		<rect x="72.2" y="-72" class="st0" width="72" height="72"/>
		<g>
			<line class="st1" x1="144" y1="-3.6" x2="216.5" y2="-3.6"/>
			<line class="st1" x1="144" y1="-18" x2="216.5" y2="-18"/>
			<line class="st1" x1="144" y1="-32.4" x2="216.5" y2="-32.4"/>
			<line class="st1" x1="144" y1="-46.8" x2="216.5" y2="-46.8"/>
			<line class="st1" x1="144" y1="-61.2" x2="216.5" y2="-61.2"/>
			<line class="st1" x1="144" y1="-10.8" x2="216.5" y2="-10.8"/>
			<line class="st1" x1="144" y1="-25.2" x2="216.5" y2="-25.2"/>
			<line class="st1" x1="144" y1="-39.6" x2="216.5" y2="-39.6"/>
			<line class="st1" x1="144" y1="-54" x2="216.5" y2="-54"/>
			<line class="st1" x1="144" y1="-68.4" x2="216.5" y2="-68.4"/>
		</g>
		<g>
			<line class="st1" x1="72" y1="-3.6" x2="144.5" y2="-3.6"/>
			<line class="st1" x1="72" y1="-18" x2="144.5" y2="-18"/>
			<line class="st1" x1="72" y1="-32.4" x2="144.5" y2="-32.4"/>
			<line class="st1" x1="72" y1="-46.8" x2="144.5" y2="-46.8"/>
			<line class="st1" x1="72" y1="-61.2" x2="144.5" y2="-61.2"/>
			<line class="st1" x1="72" y1="-10.8" x2="144.5" y2="-10.8"/>
			<line class="st1" x1="72" y1="-25.2" x2="144.5" y2="-25.2"/>
			<line class="st1" x1="72" y1="-39.6" x2="144.5" y2="-39.6"/>
			<line class="st1" x1="72" y1="-54" x2="144.5" y2="-54"/>
			<line class="st1" x1="72" y1="-68.4" x2="144.5" y2="-68.4"/>
		</g>
		<g>
			<line class="st1" x1="0" y1="-3.6" x2="72.5" y2="-3.6"/>
			<line class="st1" x1="0" y1="-18" x2="72.5" y2="-18"/>
			<line class="st1" x1="0" y1="-32.4" x2="72.5" y2="-32.4"/>
			<line class="st1" x1="0" y1="-46.8" x2="72.5" y2="-46.8"/>
			<line class="st1" x1="0" y1="-61.2" x2="72.5" y2="-61.2"/>
			<line class="st1" x1="0" y1="-10.8" x2="72.5" y2="-10.8"/>
			<line class="st1" x1="0" y1="-25.2" x2="72.5" y2="-25.2"/>
			<line class="st1" x1="0" y1="-39.6" x2="72.5" y2="-39.6"/>
			<line class="st1" x1="0" y1="-54" x2="72.5" y2="-54"/>
			<line class="st1" x1="0" y1="-68.4" x2="72.5" y2="-68.4"/>
		</g>
	</g>
</pattern>
<g>
	<g id="Слой_2_1_">
		<g id="Слой_1-2">
			<polyline class="st2" points="183.7,102.3 183.7,202.2 430.6,202.2 430.6,295.3 493.5,295.3 493.5,335.3 1031.9,335.3 			"/>
			<polyline class="st2" points="3,102.3 3,344.3 72.8,344.3 179.3,344.3 			"/>
			<polyline class="st2" points="1031.9,542.8 80.7,542.8 15.2,492.5 69.3,464.3 69.3,341.8 			"/>
			<line class="st3" x1="289.3" y1="202.2" x2="289.3" y2="298.6"/>
			<line class="st3" x1="430.6" y1="295.3" x2="314.1" y2="295.3"/>
			<polyline class="st3" points="532.3,384.2 532.3,347 302.4,347 245.2,347 245.2,368 			"/>
			<line class="st3" x1="303.2" y1="368.9" x2="303.2" y2="347"/>
			<line class="st3" x1="135.2" y1="542.8" x2="135.2" y2="489.3"/>
			<line class="st3" x1="835.1" y1="344.3" x2="835.1" y2="379.8"/>
			<line class="st3" x1="988.3" y1="335.3" x2="988.3" y2="379.8"/>
			<line class="st3" x1="988.3" y1="408.6" x2="988.3" y2="496.8"/>
			<rect x="18.1" y="121.9" class="st4" width="11" height="136.8"/>
			<rect x="32" y="156.4" class="st4" width="9.3" height="9.3"/>
			<rect x="32" y="171.9" class="st4" width="9.3" height="9.3"/>
			<rect x="32" y="187.4" class="st4" width="9.3" height="9.3"/>
			<rect x="32" y="202.9" class="st4" width="9.3" height="9.3"/>
			<rect x="32" y="218.4" class="st4" width="9.3" height="9.3"/>
			<rect x="32" y="233.9" class="st4" width="9.3" height="9.3"/>
			<rect x="32" y="249.4" class="st4" width="9.3" height="9.3"/>
			<polyline class="st4" points="188.7,221.9 130.1,221.9 130.1,121.9 117.9,121.9 117.9,233.9 188.7,233.9 			"/>
			<polygon class="st4" points="623.8,392.7 611.3,392.7 611.3,442.6 824.8,442.6 824.8,392.7 765.2,392.7 765.2,370.1 750.6,370.1 
				750.6,407.9 810.3,407.9 810.3,427.1 624.7,427.1 			"/>
			<rect x="616.1" y="446.6" class="st4" width="9.6" height="9.6"/>
			<rect x="629.8" y="446.6" class="st4" width="9.6" height="9.6"/>
			<rect x="643.4" y="446.6" class="st4" width="9.6" height="9.6"/>
			<rect x="657.1" y="446.6" class="st4" width="9.6" height="9.6"/>
			<rect x="670.8" y="446.6" class="st4" width="9.6" height="9.6"/>
			<rect x="684.4" y="446.6" class="st4" width="9.6" height="9.6"/>
			<rect x="698.1" y="446.6" class="st4" width="9.6" height="9.6"/>
			<rect x="731.5" y="446.6" class="st4" width="9.6" height="9.6"/>
			<rect x="745.1" y="446.6" class="st4" width="9.6" height="9.6"/>
			<rect x="758.8" y="446.6" class="st4" width="9.6" height="9.6"/>
			<rect x="772.5" y="446.6" class="st4" width="9.6" height="9.6"/>
			<line class="st3" x1="188.7" y1="202.2" x2="188.7" y2="241.7"/>
			<rect x="786.1" y="446.6" class="st4" width="9.6" height="9.6"/>
			<text transform="matrix(1 0 0 1 696.21 411.7637)" class="st5 st6 st7">бар</text>
			<text transform="matrix(1 0 0 1 990.0197 524.5536)" class="st5 st6 st7">вход</text>
			<path class="st4" d="M140.4,245.9v30.2c0,1.7-1.3,3-3,3h-34c-1.7,0-3-1.3-3-3v-30.2c0-1.7,1.3-3,3-3h34
				C139,242.9,140.4,244.3,140.4,245.9z"/>
			<path class="st8" d="M131.8,241.5v39c0,1.7-1.3,3-3,3H112c-1.7,0-3-1.3-3-3v-39c0-1.7,1.3-3,3-3h16.7
				C130.4,238.5,131.8,239.9,131.8,241.5z"/>
			<text transform="matrix(1 0 0 1 117.4105 266.0739)" class="st9 st6 st10">6</text>
			<path class="st4" d="M381.7,212.5v26.4c0,1.7-1.3,3-3,3H349c-1.7,0-3-1.3-3-3v-26.4c0-1.7,1.3-3,3-3h29.7
				C380.3,209.5,381.7,210.8,381.7,212.5z"/>
			<path class="st8" d="M374,208.6v34.2c0,1.7-1.3,3-3,3h-14.3c-1.7,0-3-1.3-3-3v-34.2c0-1.7,1.3-3,3-3H371
				C372.6,205.6,374,206.9,374,208.6z"/>
			<text transform="matrix(1 0 0 1 361.1802 230.1739)" class="st9 st6 st11">6</text>
			<path class="st4" d="M381.7,258.7v26.4c0,1.7-1.3,3-3,3H349c-1.7,0-3-1.3-3-3v-26.4c0-1.7,1.3-3,3-3h29.7
				C380.4,255.7,381.7,257.1,381.7,258.7z"/>
			<path class="st8" d="M374,254.8V289c0,1.7-1.3,3-3,3h-14.3c-1.7,0-3-1.3-3-3v-34.2c0-1.7,1.3-3,3-3H371
				C372.7,251.8,374,253.2,374,254.8z"/>
			<text transform="matrix(1 0 0 1 361.1802 276.4139)" class="st9 st6 st11">6</text>
			<path class="st4" d="M337.6,258.7v26.4c0,1.7-1.3,3-3,3h-29.7c-1.7,0-3-1.3-3-3v-26.4c0-1.7,1.3-3,3-3h29.7
				C336.3,255.7,337.6,257.1,337.6,258.7z"/>
			<path class="st8" d="M329.9,254.8V289c0,1.7-1.3,3-3,3h-14.3c-1.7,0-3-1.3-3-3v-34.2c0-1.7,1.3-3,3-3h14.3
				C328.6,251.8,329.9,253.2,329.9,254.8z"/>
			<text transform="matrix(1 0 0 1 317.1103 276.4139)" class="st9 st6 st11">6</text>
			<path class="st4" d="M218,496.7v26.4c0,1.7-1.3,3-3,3h-29.7c-1.7,0-3-1.3-3-3v-26.4c0-1.7,1.3-3,3-3H215
				C216.6,493.7,218,495.1,218,496.7z"/>
			<path class="st8" d="M210.3,492.8V527c0,1.7-1.3,3-3,3H193c-1.7,0-3-1.3-3-3v-34.2c0-1.7,1.3-3,3-3h14.3
				C208.9,489.8,210.3,491.2,210.3,492.8z"/>
			<text transform="matrix(1 0 0 1 197.4704 514.3936)" class="st9 st6 st11">6</text>
			<path class="st4" d="M260.5,496.7v26.4c0,1.7-1.3,3-3,3h-29.7c-1.7,0-3-1.3-3-3v-26.4c0-1.7,1.3-3,3-3h29.7
				C259.2,493.7,260.5,495.1,260.5,496.7z"/>
			<path class="st8" d="M252.8,492.8V527c0,1.7-1.3,3-3,3h-14.3c-1.7,0-3-1.3-3-3v-34.2c0-1.7,1.3-3,3-3h14.3
				C251.5,489.8,252.8,491.2,252.8,492.8z"/>
			<text transform="matrix(1 0 0 1 240.0204 514.3936)" class="st9 st6 st11">6</text>
			<path class="st4" d="M303.1,496.7v26.4c0,1.7-1.3,3-3,3h-29.7c-1.7,0-3-1.3-3-3v-26.4c0-1.7,1.3-3,3-3h29.7
				C301.7,493.7,303.1,495.1,303.1,496.7z"/>
			<path class="st8" d="M295.4,492.8V527c0,1.7-1.3,3-3,3h-14.3c-1.7,0-3-1.3-3-3v-34.2c0-1.7,1.3-3,3-3h14.3
				C294,489.8,295.4,491.2,295.4,492.8z"/>
			<text transform="matrix(1 0 0 1 282.5803 514.3936)" class="st9 st6 st11">6</text>
			<path class="st4" d="M368.9,496.7v26.4c0,1.7-1.3,3-3,3h-29.7c-1.7,0-3-1.3-3-3v-26.4c0-1.7,1.3-3,3-3h29.7
				C367.6,493.7,368.9,495.1,368.9,496.7z"/>
			<path class="st8" d="M361.2,492.8V527c0,1.7-1.3,3-3,3h-14.3c-1.7,0-3-1.3-3-3v-34.2c0-1.7,1.3-3,3-3h14.3
				C359.9,489.8,361.2,491.2,361.2,492.8z"/>
			<text transform="matrix(1 0 0 1 348.4103 514.3936)" class="st9 st6 st11">6</text>
			<path class="st4" d="M409.7,496.7v26.4c0,1.7-1.3,3-3,3H377c-1.7,0-3-1.3-3-3v-26.4c0-1.7,1.3-3,3-3h29.7
				C408.3,493.7,409.7,495.1,409.7,496.7z"/>
			<path class="st8" d="M402,492.8V527c0,1.7-1.3,3-3,3h-14.3c-1.7,0-3-1.3-3-3v-34.2c0-1.7,1.3-3,3-3H399
				C400.6,489.8,402,491.2,402,492.8z"/>
			<text transform="matrix(1 0 0 1 389.1702 514.3936)" class="st9 st6 st11">6</text>
			<path class="st4" d="M450.4,496.7v26.4c0,1.7-1.3,3-3,3h-29.7c-1.7,0-3-1.3-3-3v-26.4c0-1.7,1.3-3,3-3h29.7
				C449.1,493.7,450.4,495.1,450.4,496.7z"/>
			<path class="st8" d="M442.7,492.8V527c0,1.7-1.3,3-3,3h-14.3c-1.7,0-3-1.3-3-3v-34.2c0-1.7,1.3-3,3-3h14.3
				C441.4,489.8,442.7,491.2,442.7,492.8z"/>
			<text transform="matrix(1 0 0 1 429.9402 514.3936)" class="st9 st6 st11">6</text>
			<path class="st4" d="M491.2,496.7v26.4c0,1.7-1.3,3-3,3h-29.7c-1.7,0-3-1.3-3-3v-26.4c0-1.7,1.3-3,3-3h29.7
				C489.9,493.7,491.2,495.1,491.2,496.7z"/>
			<path class="st8" d="M483.5,492.8V527c0,1.7-1.3,3-3,3h-14.3c-1.7,0-3-1.3-3-3v-34.2c0-1.7,1.3-3,3-3h14.3
				C482.2,489.8,483.5,491.2,483.5,492.8z"/>
			<text transform="matrix(1 0 0 1 470.7002 514.3936)" class="st9 st6 st11">6</text>
			<path class="st4" d="M532,496.7v26.4c0,1.7-1.3,3-3,3h-29.7c-1.7,0-3-1.3-3-3v-26.4c0-1.7,1.3-3,3-3H529
				C530.6,493.7,532,495.1,532,496.7z"/>
			<path class="st8" d="M524.3,492.8V527c0,1.7-1.3,3-3,3H507c-1.7,0-3-1.3-3-3v-34.2c0-1.7,1.3-3,3-3h14.3
				C522.9,489.8,524.3,491.2,524.3,492.8z"/>
			<text transform="matrix(1 0 0 1 511.4701 514.3936)" class="st9 st6 st11">6</text>
			<path class="st4" d="M572.7,496.7v26.4c0,1.7-1.3,3-3,3H540c-1.7,0-3-1.3-3-3v-26.4c0-1.7,1.3-3,3-3h29.7
				C571.4,493.7,572.7,495.1,572.7,496.7z"/>
			<path class="st8" d="M565,492.8V527c0,1.7-1.3,3-3,3h-14.3c-1.7,0-3-1.3-3-3v-34.2c0-1.7,1.3-3,3-3H562
				C563.7,489.8,565,491.2,565,492.8z"/>
			<text transform="matrix(1 0 0 1 552.2401 514.3936)" class="st9 st6 st11">6</text>
			<path class="st4" d="M613.5,496.7v26.4c0,1.7-1.3,3-3,3h-29.7c-1.7,0-3-1.3-3-3v-26.4c0-1.7,1.3-3,3-3h29.7
				C612.2,493.7,613.5,495.1,613.5,496.7z"/>
			<path class="st8" d="M605.8,492.8V527c0,1.7-1.3,3-3,3h-14.3c-1.7,0-3-1.3-3-3v-34.2c0-1.7,1.3-3,3-3h14.3
				C604.5,489.8,605.8,491.2,605.8,492.8z"/>
			<text transform="matrix(1 0 0 1 593.0001 514.3936)" class="st9 st6 st11">6</text>
			<path class="st4" d="M654.3,496.7v26.4c0,1.7-1.3,3-3,3h-29.7c-1.7,0-3-1.3-3-3v-26.4c0-1.7,1.3-3,3-3h29.7
				C652.9,493.7,654.3,495.1,654.3,496.7z"/>
			<path class="st8" d="M646.6,492.8V527c0,1.7-1.3,3-3,3h-14.3c-1.7,0-3-1.3-3-3v-34.2c0-1.7,1.3-3,3-3h14.3
				C645.2,489.8,646.6,491.2,646.6,492.8z"/>
			<text transform="matrix(1 0 0 1 633.77 514.3936)" class="st9 st6 st11">6</text>
			<path class="st4" d="M695,496.7v26.4c0,1.7-1.3,3-3,3h-29.7c-1.7,0-3-1.3-3-3v-26.4c0-1.7,1.3-3,3-3H692
				C693.7,493.7,695,495.1,695,496.7z"/>
			<path class="st8" d="M687.3,492.8V527c0,1.7-1.3,3-3,3H670c-1.7,0-3-1.3-3-3v-34.2c0-1.7,1.3-3,3-3h14.3
				C686,489.8,687.3,491.2,687.3,492.8z"/>
			<text transform="matrix(1 0 0 1 674.53 514.3936)" class="st9 st6 st11">6</text>
			<path class="st4" d="M735.8,496.7v26.4c0,1.7-1.3,3-3,3h-29.7c-1.7,0-3-1.3-3-3v-26.4c0-1.7,1.3-3,3-3h29.7
				C734.5,493.7,735.8,495.1,735.8,496.7z"/>
			<path class="st8" d="M728.1,492.8V527c0,1.7-1.3,3-3,3h-14.3c-1.7,0-3-1.3-3-3v-34.2c0-1.7,1.3-3,3-3h14.3
				C726.8,489.8,728.1,491.2,728.1,492.8z"/>
			<text transform="matrix(1 0 0 1 715.2999 514.3936)" class="st9 st6 st11">6</text>
			<path class="st4" d="M776.6,496.7v26.4c0,1.7-1.3,3-3,3h-29.7c-1.7,0-3-1.3-3-3v-26.4c0-1.7,1.3-3,3-3h29.7
				C775.2,493.7,776.6,495.1,776.6,496.7z"/>
			<path class="st8" d="M768.9,492.8V527c0,1.7-1.3,3-3,3h-14.3c-1.7,0-3-1.3-3-3v-34.2c0-1.7,1.3-3,3-3h14.3
				C767.5,489.8,768.9,491.2,768.9,492.8z"/>
			<text transform="matrix(1 0 0 1 756.0599 514.3936)" class="st9 st6 st11">6</text>
			<path class="st4" d="M817.3,496.7v26.4c0,1.7-1.3,3-3,3h-29.7c-1.7,0-3-1.3-3-3v-26.4c0-1.7,1.3-3,3-3h29.7
				C816,493.7,817.3,495.1,817.3,496.7z"/>
			<path class="st8" d="M809.6,492.8V527c0,1.7-1.3,3-3,3h-14.3c-1.7,0-3-1.3-3-3v-34.2c0-1.7,1.3-3,3-3h14.3
				C808.3,489.8,809.6,491.2,809.6,492.8z"/>
			<text transform="matrix(1 0 0 1 796.8299 514.3936)" class="st9 st6 st11">6</text>
			<path class="st4" d="M858.1,496.7v26.4c0,1.7-1.3,3-3,3h-29.7c-1.7,0-3-1.3-3-3v-26.4c0-1.7,1.3-3,3-3h29.7
				C856.8,493.7,858.1,495.1,858.1,496.7z"/>
			<path class="st8" d="M850.4,492.8V527c0,1.7-1.3,3-3,3h-14.3c-1.7,0-3-1.3-3-3v-34.2c0-1.7,1.3-3,3-3h14.3
				C849.1,489.8,850.4,491.2,850.4,492.8z"/>
			<text transform="matrix(1 0 0 1 837.5998 514.3936)" class="st9 st6 st11">6</text>
			<path class="st4" d="M898.9,496.7v26.4c0,1.7-1.3,3-3,3h-29.7c-1.7,0-3-1.3-3-3v-26.4c0-1.7,1.3-3,3-3h29.7
				C897.5,493.7,898.9,495.1,898.9,496.7z"/>
			<path class="st8" d="M891.2,492.8V527c0,1.7-1.3,3-3,3h-14.3c-1.7,0-3-1.3-3-3v-34.2c0-1.7,1.3-3,3-3h14.3
				C889.8,489.8,891.2,491.2,891.2,492.8z"/>
			<text transform="matrix(1 0 0 1 878.3597 514.3936)" class="st9 st6 st11">6</text>
			<path class="st4" d="M289,391.3h-26.4c-1.7,0-3-1.3-3-3v-29.7c0-1.7,1.3-3,3-3H289c1.7,0,3,1.3,3,3v29.7
				C292,390,290.7,391.3,289,391.3z"/>
			<path class="st8" d="M292.9,383.6h-34.2c-1.7,0-3-1.3-3-3v-14.3c0-1.7,1.3-3,3-3h34.2c1.7,0,3,1.3,3,3v14.3
				C295.9,382.3,294.6,383.6,292.9,383.6z"/>
			<text transform="matrix(1 0 0 1 273.1803 377.9438)" class="st9 st6 st11">6</text>
			<path class="st4" d="M366.4,391.3H340c-1.7,0-3-1.3-3-3v-29.7c0-1.7,1.3-3,3-3h26.4c1.7,0,3,1.3,3,3v29.7
				C369.4,390,368.1,391.3,366.4,391.3z"/>
			<path class="st8" d="M370.3,383.6h-34.2c-1.7,0-3-1.3-3-3v-14.3c0-1.7,1.3-3,3-3h34.2c1.7,0,3,1.3,3,3v14.3
				C373.3,382.3,372,383.6,370.3,383.6z"/>
			<text transform="matrix(1 0 0 1 350.5703 377.9438)" class="st9 st6 st11">6</text>
			<path class="st4" d="M439.7,391.3h-26.4c-1.7,0-3-1.3-3-3v-29.7c0-1.7,1.3-3,3-3h26.4c1.7,0,3,1.3,3,3v29.7
				C442.7,390,441.3,391.3,439.7,391.3z"/>
			<path class="st8" d="M443.6,383.6h-34.2c-1.7,0-3-1.3-3-3v-14.3c0-1.7,1.3-3,3-3h34.2c1.7,0,3,1.3,3,3v14.3
				C446.6,382.3,445.2,383.6,443.6,383.6z"/>
			<text transform="matrix(1 0 0 1 423.8402 377.9438)" class="st9 st6 st11">6</text>
			<path class="st4" d="M515.3,391.3h-26.4c-1.7,0-3-1.3-3-3v-29.7c0-1.7,1.3-3,3-3h26.4c1.7,0,3,1.3,3,3v29.7
				C518.3,390,517,391.3,515.3,391.3z"/>
			<path class="st8" d="M519.2,383.6H485c-1.7,0-3-1.3-3-3v-14.3c0-1.7,1.3-3,3-3h34.2c1.7,0,3,1.3,3,3v14.3
				C522.2,382.3,520.9,383.6,519.2,383.6z"/>
			<text transform="matrix(1 0 0 1 499.4801 377.9438)" class="st9 st6 st11">6</text>
			<path class="st4" d="M585.4,391.3H559c-1.7,0-3-1.3-3-3v-29.7c0-1.7,1.3-3,3-3h26.4c1.7,0,3,1.3,3,3v29.7
				C588.4,390,587.1,391.3,585.4,391.3z"/>
			<path class="st8" d="M589.3,383.6h-34.2c-1.7,0-3-1.3-3-3v-14.3c0-1.7,1.3-3,3-3h34.2c1.7,0,3,1.3,3,3v14.3
				C592.3,382.3,591,383.6,589.3,383.6z"/>
			<text transform="matrix(1 0 0 1 569.5801 377.9438)" class="st9 st6 st11">6</text>
			<path class="st4" d="M881.9,380.9h-26.4c-1.7,0-3-1.3-3-3v-29.7c0-1.7,1.3-3,3-3h26.4c1.7,0,3,1.3,3,3v29.7
				C884.9,379.6,883.6,380.9,881.9,380.9z"/>
			<path class="st8" d="M885.8,373.2h-34.2c-1.7,0-3-1.3-3-3v-14.3c0-1.7,1.3-3,3-3h34.2c1.7,0,3,1.3,3,3v14.3
				C888.8,371.9,887.5,373.2,885.8,373.2z"/>
			<text transform="matrix(1 0 0 1 866.0898 367.5437)" class="st9 st6 st11">6</text>
			<path class="st4" d="M938.9,380.9h-26.4c-1.7,0-3-1.3-3-3v-29.7c0-1.7,1.3-3,3-3h26.4c1.7,0,3,1.3,3,3v29.7
				C941.9,379.6,940.6,380.9,938.9,380.9z"/>
			<path class="st8" d="M942.8,373.2h-34.2c-1.7,0-3-1.3-3-3v-14.3c0-1.7,1.3-3,3-3h34.2c1.7,0,3,1.3,3,3v14.3
				C945.8,371.9,944.5,373.2,942.8,373.2z"/>
			<text transform="matrix(1 0 0 1 923.0898 367.5437)" class="st9 st6 st11">6</text>
			<path class="st4" d="M188.7,245.9v30.2c0,1.7-1.3,3-3,3h-34c-1.7,0-3-1.3-3-3v-30.2c0-1.7,1.3-3,3-3h34
				C187.3,242.9,188.7,244.3,188.7,245.9z"/>
			<path class="st8" d="M180.1,241.5v39c0,1.7-1.3,3-3,3h-16.7c-1.7,0-3-1.3-3-3v-39c0-1.7,1.3-3,3-3h16.7
				C178.7,238.5,180.1,239.9,180.1,241.5z"/>
			<text transform="matrix(1 0 0 1 165.7004 266.0739)" class="st9 st6 st10">6</text>
			<path class="st4" d="M89.6,275.8v49.8c0,1.7-1.3,3-3,3h-34c-1.7,0-3-1.3-3-3v-49.8c0-1.7,1.3-3,3-3h34
				C88.3,272.8,89.6,274.1,89.6,275.8z"/>
			<path class="st8" d="M81,269.1v63.3c0,1.7-1.3,3-3,3H61.3c-1.7,0-3-1.3-3-3v-63.3c0-1.7,1.3-3,3-3H78
				C79.7,266.1,81,267.4,81,269.1z"/>
			<text transform="matrix(1 0 0 1 66.6505 303.9638)" class="st9 st6 st10">9</text>
			<path class="st4" d="M426.5,222.5v49.8c0,1.7-1.3,3-3,3h-34c-1.7,0-3-1.3-3-3v-49.8c0-1.7,1.3-3,3-3h34
				C425.1,219.5,426.5,220.8,426.5,222.5z"/>
			<path class="st8" d="M417.9,215.8V279c0,1.7-1.3,3-3,3h-16.7c-1.7,0-3-1.3-3-3v-63.3c0-1.7,1.3-3,3-3h16.7
				C416.5,212.8,417.9,214.1,417.9,215.8z"/>
			<text transform="matrix(1 0 0 1 403.5202 250.6439)" class="st9 st6 st10">9</text>
			<path class="st4" d="M309.4,213.4h16.5c1.7,0,3,1.3,3,3v21.5c0,1.7-1.3,3-3,3h-16.5c-1.7,0-3-1.3-3-3v-21.5
				C306.4,214.8,307.7,213.4,309.4,213.4z"/>
			<path class="st8" d="M306.7,219.4h21.9c1.7,0,3,1.3,3,3v9.6c0,1.7-1.3,3-3,3h-21.9c-1.7,0-3-1.3-3-3v-9.6
				C303.7,220.7,305,219.4,306.7,219.4z"/>
			<text transform="matrix(1 0 0 1 315.2303 231.7439)" class="st9 st6 st12">4</text>
			<path class="st4" d="M292.3,424.4v-16.5c0-1.7,1.3-3,3-3h21.5c1.7,0,3,1.3,3,3v16.5c0,1.7-1.3,3-3,3h-21.5
				C293.7,427.4,292.3,426.1,292.3,424.4z"/>
			<path class="st8" d="M298.3,427.1v-21.9c0-1.7,1.3-3,3-3h9.6c1.7,0,3,1.3,3,3v21.9c0,1.7-1.3,3-3,3h-9.6
				C299.6,430.1,298.3,428.8,298.3,427.1z"/>
			<text transform="matrix(1 0 0 1 303.7103 420.7337)" class="st9 st6 st12">4</text>
			<path class="st4" d="M333.8,424.4v-16.5c0-1.7,1.3-3,3-3h21.5c1.7,0,3,1.3,3,3v16.5c0,1.7-1.3,3-3,3h-21.5
				C335.1,427.4,333.8,426.1,333.8,424.4z"/>
			<path class="st8" d="M339.7,427.1v-21.9c0-1.7,1.3-3,3-3h9.6c1.7,0,3,1.3,3,3v21.9c0,1.7-1.3,3-3,3h-9.6
				C341.1,430.1,339.7,428.8,339.7,427.1z"/>
			<text transform="matrix(1 0 0 1 345.1603 420.7337)" class="st9 st6 st12">4</text>
			<path class="st4" d="M375.3,424.4v-16.5c0-1.7,1.3-3,3-3h21.5c1.7,0,3,1.3,3,3v16.5c0,1.7-1.3,3-3,3h-21.5
				C376.6,427.4,375.3,426.1,375.3,424.4z"/>
			<path class="st8" d="M381.2,427.1v-21.9c0-1.7,1.3-3,3-3h9.6c1.7,0,3,1.3,3,3v21.9c0,1.7-1.3,3-3,3h-9.6
				C382.5,430.1,381.2,428.8,381.2,427.1z"/>
			<text transform="matrix(1 0 0 1 386.6202 420.7337)" class="st9 st6 st12">4</text>
			<path class="st4" d="M416.7,424.4v-16.5c0-1.7,1.3-3,3-3h21.5c1.7,0,3,1.3,3,3v16.5c0,1.7-1.3,3-3,3h-21.5
				C418,427.4,416.7,426.1,416.7,424.4z"/>
			<path class="st8" d="M422.6,427.1v-21.9c0-1.7,1.3-3,3-3h9.6c1.7,0,3,1.3,3,3v21.9c0,1.7-1.3,3-3,3h-9.6
				C424,430.1,422.6,428.8,422.6,427.1z"/>
			<text transform="matrix(1 0 0 1 428.0702 420.7337)" class="st9 st6 st12">4</text>
			<path class="st4" d="M458.2,424.4v-16.5c0-1.7,1.3-3,3-3h21.5c1.7,0,3,1.3,3,3v16.5c0,1.7-1.3,3-3,3h-21.5
				C459.5,427.4,458.2,426.1,458.2,424.4z"/>
			<path class="st8" d="M464.1,427.1v-21.9c0-1.7,1.3-3,3-3h9.6c1.7,0,3,1.3,3,3v21.9c0,1.7-1.3,3-3,3h-9.6
				C465.4,430.1,464.1,428.8,464.1,427.1z"/>
			<text transform="matrix(1 0 0 1 469.5302 420.7337)" class="st9 st6 st12">4</text>
			<path class="st4" d="M499.6,424.4v-16.5c0-1.7,1.3-3,3-3h21.5c1.7,0,3,1.3,3,3v16.5c0,1.7-1.3,3-3,3h-21.5
				C501,427.4,499.6,426.1,499.6,424.4z"/>
			<path class="st8" d="M505.5,427.1v-21.9c0-1.7,1.3-3,3-3h9.6c1.7,0,3,1.3,3,3v21.9c0,1.7-1.3,3-3,3h-9.6
				C506.9,430.1,505.5,428.8,505.5,427.1z"/>
			<text transform="matrix(1 0 0 1 510.9801 420.7337)" class="st9 st6 st12">4</text>
			<path class="st4" d="M541.1,424.4v-16.5c0-1.7,1.3-3,3-3h21.5c1.7,0,3,1.3,3,3v16.5c0,1.7-1.3,3-3,3h-21.5
				C542.4,427.4,541.1,426.1,541.1,424.4z"/>
			<path class="st8" d="M547,427.1v-21.9c0-1.7,1.3-3,3-3h9.6c1.7,0,3,1.3,3,3v21.9c0,1.7-1.3,3-3,3H550
				C548.3,430.1,547,428.8,547,427.1z"/>
			<text transform="matrix(1 0 0 1 552.4401 420.7337)" class="st9 st6 st12">4</text>
			<path class="st4" d="M858.1,417.4v-16.5c0-1.7,1.3-3,3-3h21.5c1.7,0,3,1.3,3,3v16.5c0,1.7-1.3,3-3,3h-21.5
				C859.5,420.4,858.1,419.1,858.1,417.4z"/>
			<path class="st8" d="M864.1,420.1v-21.9c0-1.7,1.3-3,3-3h9.6c1.7,0,3,1.3,3,3v21.9c0,1.7-1.3,3-3,3h-9.6
				C865.4,423.1,864.1,421.8,864.1,420.1z"/>
			<text transform="matrix(1 0 0 1 869.5098 413.7037)" class="st9 st6 st12">4</text>
			<path class="st4" d="M912.1,417.4v-16.5c0-1.7,1.3-3,3-3h21.5c1.7,0,3,1.3,3,3v16.5c0,1.7-1.3,3-3,3h-21.5
				C913.5,420.4,912.1,419.1,912.1,417.4z"/>
			<path class="st8" d="M918.1,420.1v-21.9c0-1.7,1.3-3,3-3h9.6c1.7,0,3,1.3,3,3v21.9c0,1.7-1.3,3-3,3h-9.6
				C919.4,423.1,918.1,421.8,918.1,420.1z"/>
			<text transform="matrix(1 0 0 1 923.5098 413.7037)" class="st9 st6 st12">4</text>
			<path class="st4" d="M858.1,452.4v-16.5c0-1.7,1.3-3,3-3h21.5c1.7,0,3,1.3,3,3v16.5c0,1.7-1.3,3-3,3h-21.5
				C859.5,455.4,858.1,454.1,858.1,452.4z"/>
			<path class="st8" d="M864.1,455.1v-21.9c0-1.7,1.3-3,3-3h9.6c1.7,0,3,1.3,3,3v21.9c0,1.7-1.3,3-3,3h-9.6
				C865.4,458.1,864.1,456.8,864.1,455.1z"/>
			<text transform="matrix(1 0 0 1 869.5098 448.7037)" class="st9 st6 st12">4</text>
			<path class="st4" d="M912.1,452.4v-16.5c0-1.7,1.3-3,3-3h21.5c1.7,0,3,1.3,3,3v16.5c0,1.7-1.3,3-3,3h-21.5
				C913.5,455.4,912.1,454.1,912.1,452.4z"/>
			<path class="st8" d="M918.1,455.1v-21.9c0-1.7,1.3-3,3-3h9.6c1.7,0,3,1.3,3,3v21.9c0,1.7-1.3,3-3,3h-9.6
				C919.4,458.1,918.1,456.8,918.1,455.1z"/>
			<text transform="matrix(1 0 0 1 923.5098 448.7037)" class="st9 st6 st12">4</text>
			<path class="st4" d="M292.3,457.3v-16.5c0-1.7,1.3-3,3-3h21.5c1.7,0,3,1.3,3,3v16.5c0,1.7-1.3,3-3,3h-21.5
				C293.7,460.3,292.3,458.9,292.3,457.3z"/>
			<path class="st8" d="M298.3,460v-21.9c0-1.7,1.3-3,3-3h9.6c1.7,0,3,1.3,3,3V460c0,1.7-1.3,3-3,3h-9.6
				C299.6,463,298.3,461.6,298.3,460z"/>
			<text transform="matrix(1 0 0 1 303.7103 453.5836)" class="st9 st6 st12">4</text>
			<path class="st4" d="M333.8,457.3v-16.5c0-1.7,1.3-3,3-3h21.5c1.7,0,3,1.3,3,3v16.5c0,1.7-1.3,3-3,3h-21.5
				C335.1,460.3,333.8,458.9,333.8,457.3z"/>
			<path class="st8" d="M339.7,460v-21.9c0-1.7,1.3-3,3-3h9.6c1.7,0,3,1.3,3,3V460c0,1.7-1.3,3-3,3h-9.6
				C341.1,463,339.7,461.6,339.7,460z"/>
			<text transform="matrix(1 0 0 1 345.1603 453.5836)" class="st9 st6 st12">4</text>
			<path class="st4" d="M375.3,457.3v-16.5c0-1.7,1.3-3,3-3h21.5c1.7,0,3,1.3,3,3v16.5c0,1.7-1.3,3-3,3h-21.5
				C376.6,460.3,375.3,458.9,375.3,457.3z"/>
			<path class="st8" d="M381.2,460V438c0-1.7,1.3-3,3-3h9.6c1.7,0,3,1.3,3,3V460c0,1.7-1.3,3-3,3h-9.6
				C382.5,463,381.2,461.6,381.2,460z"/>
			<text transform="matrix(1 0 0 1 386.6202 453.5836)" class="st9 st6 st12">4</text>
			<path class="st4" d="M416.7,457.3v-16.5c0-1.7,1.3-3,3-3h21.5c1.7,0,3,1.3,3,3v16.5c0,1.7-1.3,3-3,3h-21.5
				C418,460.3,416.7,458.9,416.7,457.3z"/>
			<path class="st8" d="M422.6,460v-21.9c0-1.7,1.3-3,3-3h9.6c1.7,0,3,1.3,3,3V460c0,1.7-1.3,3-3,3h-9.6
				C424,463,422.6,461.6,422.6,460z"/>
			<text transform="matrix(1 0 0 1 428.0702 453.5836)" class="st9 st6 st12">4</text>
			<path class="st4" d="M458.2,457.3v-16.5c0-1.7,1.3-3,3-3h21.5c1.7,0,3,1.3,3,3v16.5c0,1.7-1.3,3-3,3h-21.5
				C459.5,460.3,458.2,458.9,458.2,457.3z"/>
			<path class="st8" d="M464.1,460V438c0-1.7,1.3-3,3-3h9.6c1.7,0,3,1.3,3,3V460c0,1.7-1.3,3-3,3h-9.6
				C465.4,463,464.1,461.6,464.1,460z"/>
			<text transform="matrix(1 0 0 1 469.5302 453.5836)" class="st9 st6 st12">4</text>
			<path class="st4" d="M499.6,457.3v-16.5c0-1.7,1.3-3,3-3h21.5c1.7,0,3,1.3,3,3v16.5c0,1.7-1.3,3-3,3h-21.5
				C501,460.3,499.6,458.9,499.6,457.3z"/>
			<path class="st8" d="M505.5,460v-21.9c0-1.7,1.3-3,3-3h9.6c1.7,0,3,1.3,3,3V460c0,1.7-1.3,3-3,3h-9.6
				C506.9,463,505.5,461.6,505.5,460z"/>
			<text transform="matrix(1 0 0 1 510.9801 453.5836)" class="st9 st6 st12">4</text>
			<path class="st4" d="M541.1,457.3v-16.5c0-1.7,1.3-3,3-3h21.5c1.7,0,3,1.3,3,3v16.5c0,1.7-1.3,3-3,3h-21.5
				C542.4,460.3,541.1,458.9,541.1,457.3z"/>
			<path class="st8" d="M547,460V438c0-1.7,1.3-3,3-3h9.6c1.7,0,3,1.3,3,3V460c0,1.7-1.3,3-3,3H550C548.3,463,547,461.6,547,460z"/>
			<text transform="matrix(1 0 0 1 552.4401 453.5836)" class="st9 st6 st12">4</text>
		</g>
	</g>
	<g id="Слой_2_2_">
		<g id="Слой_1-2_1_">
			<pattern  id="SVGID_1_" xlink:href="#_x31_0_lpi_10_x25_" patternTransform="matrix(1 0 0 1 5.002368e-04 52.6422)">
			</pattern>
			<path class="st13" d="M1032.6,270.9H556.3v-90.8H620V106h412.6C1032.6,270.9,1032.6,270.9,1032.6,270.9z"/>
			<polyline class="st2" points="1032.6,270.9 556.3,270.9 556.3,180.2 620,180.2 620,106 1032.6,106 			"/>
			<line class="st2" x1="981.2" y1="0" x2="981.2" y2="106"/>
			<polygon class="st4" points="822.5,111.2 822.5,161 998.3,161 998.3,149.2 834.5,149.2 834.5,111.2 			"/>
			<text transform="matrix(1 0 0 1 890.6725 138.5567)" class="st5 st6 st14">бар</text>
			<rect x="963.8" y="234.6" class="st4" width="9.3" height="9.3"/>
			<rect x="977.5" y="234.6" class="st4" width="9.3" height="9.3"/>
			<rect x="991.1" y="234.6" class="st4" width="9.3" height="9.3"/>
			<rect x="1004.8" y="234.6" class="st4" width="9.3" height="9.3"/>
			<path class="st4" d="M717.2,118.6v26.4c0,1.7-1.3,3-3,3h-29.7c-1.7,0-3-1.3-3-3v-26.4c0-1.7,1.3-3,3-3h29.7
				C715.8,115.6,717.2,116.9,717.2,118.6z"/>
			<path class="st8" d="M709.5,114.6v34.2c0,1.7-1.3,3-3,3h-14.3c-1.7,0-3-1.3-3-3v-34.2c0-1.7,1.3-3,3-3h14.3
				C708.1,111.6,709.5,113,709.5,114.6z"/>
			<text transform="matrix(1 0 0 1 696.6553 136.2306)" class="st9 st6 st11">6</text>
			<path class="st4" d="M759.2,118.6v26.4c0,1.7-1.3,3-3,3h-29.7c-1.7,0-3-1.3-3-3v-26.4c0-1.7,1.3-3,3-3h29.7
				C757.9,115.6,759.2,116.9,759.2,118.6z"/>
			<path class="st15" d="M751.5,114.6v34.2c0,1.7-1.3,3-3,3h-14.3c-1.7,0-3-1.3-3-3v-34.2c0-1.7,1.3-3,3-3h14.3
				C750.2,111.6,751.5,113,751.5,114.6z"/>
			<text transform="matrix(1 0 0 1 738.7354 136.2305)" class="st9 st6 st11">6</text>
			<path class="st4" d="M804.8,118.6v26.4c0,1.7-1.3,3-3,3h-29.7c-1.7,0-3-1.3-3-3v-26.4c0-1.7,1.3-3,3-3h29.7
				C803.5,115.6,804.8,116.9,804.8,118.6z"/>
			<path class="st8" d="M797.1,114.6v34.2c0,1.7-1.3,3-3,3h-14.3c-1.7,0-3-1.3-3-3v-34.2c0-1.7,1.3-3,3-3h14.3
				C795.8,111.6,797.1,113,797.1,114.6z"/>
			<text transform="matrix(1 0 0 1 784.336 136.23)" class="st9 st6 st11">6</text>
			<path class="st4" d="M707.6,259.1h-16.5c-1.7,0-3-1.3-3-3v-21.5c0-1.7,1.3-3,3-3h16.5c1.7,0,3,1.3,3,3v21.5
				C710.6,257.8,709.2,259.1,707.6,259.1z"/>
			<path class="st16" d="M710.3,253.2h-21.9c-1.7,0-3-1.3-3-3v-9.6c0-1.7,1.3-3,3-3h21.9c1.7,0,3,1.3,3,3v9.6
				C713.3,251.9,711.9,253.2,710.3,253.2z"/>
			<text transform="matrix(1 0 0 1 696.6087 249.6504)" class="st9 st6 st12">4</text>
			<path class="st4" d="M749.6,259.1h-16.5c-1.7,0-3-1.3-3-3v-21.5c0-1.7,1.3-3,3-3h16.5c1.7,0,3,1.3,3,3v21.5
				C752.6,257.8,751.3,259.1,749.6,259.1z"/>
			<path class="st8" d="M752.3,253.2h-21.9c-1.7,0-3-1.3-3-3v-9.6c0-1.7,1.3-3,3-3h21.9c1.7,0,3,1.3,3,3v9.6
				C755.3,251.9,754,253.2,752.3,253.2z"/>
			<text transform="matrix(1 0 0 1 738.6888 249.6503)" class="st9 st6 st12">4</text>
			<path class="st4" d="M795.2,259.1h-16.5c-1.7,0-3-1.3-3-3v-21.5c0-1.7,1.3-3,3-3h16.5c1.7,0,3,1.3,3,3v21.5
				C798.2,257.8,796.9,259.1,795.2,259.1z"/>
			<path class="st8" d="M798,253.2H776c-1.7,0-3-1.3-3-3v-9.6c0-1.7,1.3-3,3-3H798c1.7,0,3,1.3,3,3v9.6
				C801,251.9,799.6,253.2,798,253.2z"/>
			<text transform="matrix(1 0 0 1 784.2883 249.6507)" class="st9 st6 st12">4</text>
		</g>
	</g>
</g>
<g>
	<text transform="matrix(1 0 0 1 255.7505 165.6944)" class="st5 st6 st17">1 этаж</text>
</g>
<g>
	<text transform="matrix(1 0 0 1 752.5897 73.4399)" class="st5 st6 st17">2 этаж</text>
</g>
</svg>
