<svg width="1032" height="543" viewBox="0 0 1032 543" fill="none" xmlns="http://www.w3.org/2000/svg">
<g id="&#208;&#155;&#208;&#181;&#208;&#189;&#208;&#184;&#208;&#189;&#208;&#176; 6 1" clip-path="url(#clip0)">
<g id="Group">
<g id="&#208;&#161;&#208;&#187;&#208;&#190;&#208;&#185;_2_1_">
<g id="&#208;&#161;&#208;&#187;&#208;&#190;&#208;&#185;_1-2">
<path id="Vector" d="M183.7 102.3V202.2H430.6V295.3H493.5V335.3H1031.9" stroke="#111111" stroke-width="6" stroke-miterlimit="10"/>
<path id="Vector_2" d="M3 102.3V344.3H72.8H179.3" stroke="#111111" stroke-width="6" stroke-miterlimit="10"/>
<path id="Vector_3" d="M1031.9 542.8H80.7002L15.2002 492.5L69.3002 464.3V341.8" stroke="#111111" stroke-width="6" stroke-miterlimit="10"/>
<path id="Vector_4" d="M289.3 202.2V298.6" stroke="#111111" stroke-width="3" stroke-miterlimit="10"/>
<path id="Vector_5" d="M430.6 295.3H314.1" stroke="#111111" stroke-width="3" stroke-miterlimit="10"/>
<path id="Vector_6" d="M532.3 384.2V347H302.4H245.2V368" stroke="#111111" stroke-width="3" stroke-miterlimit="10"/>
<path id="Vector_7" d="M303.2 368.9V347" stroke="#111111" stroke-width="3" stroke-miterlimit="10"/>
<path id="Vector_8" d="M135.2 542.8V489.3" stroke="#111111" stroke-width="3" stroke-miterlimit="10"/>
<path id="Vector_9" d="M835.1 344.3V379.8" stroke="#111111" stroke-width="3" stroke-miterlimit="10"/>
<path id="Vector_10" d="M988.3 335.3V379.8" stroke="#111111" stroke-width="3" stroke-miterlimit="10"/>
<path id="Vector_11" d="M988.3 408.6V496.8" stroke="#111111" stroke-width="3" stroke-miterlimit="10"/>
<path id="Vector_12" d="M29.1001 121.9H18.1001V258.7H29.1001V121.9Z" stroke="#B6B6B6" stroke-miterlimit="10"/>
<path id="Vector_13" d="M41.3 156.4H32V165.7H41.3V156.4Z" stroke="#B6B6B6" stroke-miterlimit="10"/>
<path id="Vector_14" d="M41.3 171.9H32V181.2H41.3V171.9Z" stroke="#B6B6B6" stroke-miterlimit="10"/>
<path id="Vector_15" d="M41.3 187.4H32V196.7H41.3V187.4Z" stroke="#B6B6B6" stroke-miterlimit="10"/>
<path id="Vector_16" d="M41.3 202.9H32V212.2H41.3V202.9Z" stroke="#B6B6B6" stroke-miterlimit="10"/>
<path id="Vector_17" d="M41.3 218.4H32V227.7H41.3V218.4Z" stroke="#B6B6B6" stroke-miterlimit="10"/>
<path id="Vector_18" d="M41.3 233.9H32V243.2H41.3V233.9Z" stroke="#B6B6B6" stroke-miterlimit="10"/>
<path id="Vector_19" d="M41.3 249.4H32V258.7H41.3V249.4Z" stroke="#B6B6B6" stroke-miterlimit="10"/>
<path id="Vector_20" d="M188.7 221.9H130.1V121.9H117.9V233.9H188.7" stroke="#B6B6B6" stroke-miterlimit="10"/>
<path id="Vector_21" d="M623.8 392.7H611.3V442.6H824.8V392.7H765.2V370.1H750.6V407.9H810.3V427.1H624.7L623.8 392.7Z" stroke="#B6B6B6" stroke-miterlimit="10"/>
<path id="Vector_22" d="M625.7 446.6H616.1V456.2H625.7V446.6Z" stroke="#B6B6B6" stroke-miterlimit="10"/>
<path id="Vector_23" d="M639.4 446.6H629.8V456.2H639.4V446.6Z" stroke="#B6B6B6" stroke-miterlimit="10"/>
<path id="Vector_24" d="M653 446.6H643.4V456.2H653V446.6Z" stroke="#B6B6B6" stroke-miterlimit="10"/>
<path id="Vector_25" d="M666.7 446.6H657.1V456.2H666.7V446.6Z" stroke="#B6B6B6" stroke-miterlimit="10"/>
<path id="Vector_26" d="M680.4 446.6H670.8V456.2H680.4V446.6Z" stroke="#B6B6B6" stroke-miterlimit="10"/>
<path id="Vector_27" d="M694 446.6H684.4V456.2H694V446.6Z" stroke="#B6B6B6" stroke-miterlimit="10"/>
<path id="Vector_28" d="M707.7 446.6H698.1V456.2H707.7V446.6Z" stroke="#B6B6B6" stroke-miterlimit="10"/>
<path id="Vector_29" d="M741.1 446.6H731.5V456.2H741.1V446.6Z" stroke="#B6B6B6" stroke-miterlimit="10"/>
<path id="Vector_30" d="M754.7 446.6H745.1V456.2H754.7V446.6Z" stroke="#B6B6B6" stroke-miterlimit="10"/>
<path id="Vector_31" d="M768.4 446.6H758.8V456.2H768.4V446.6Z" stroke="#B6B6B6" stroke-miterlimit="10"/>
<path id="Vector_32" d="M782.1 446.6H772.5V456.2H782.1V446.6Z" stroke="#B6B6B6" stroke-miterlimit="10"/>
<path id="Vector_33" d="M188.7 202.2V241.7" stroke="#111111" stroke-width="3" stroke-miterlimit="10"/>
<path id="Vector_34" d="M795.7 446.6H786.1V456.2H795.7V446.6Z" stroke="#B6B6B6" stroke-miterlimit="10"/>
<path id="&#208;&#177;&#208;&#176;&#209;&#128;" d="M700.414 403.791C701.344 403.791 702.087 404.103 702.643 404.728C703.203 405.347 703.483 406.165 703.483 407.182V407.298C703.483 407.995 703.349 408.619 703.08 409.171C702.811 409.718 702.424 410.144 701.918 410.449C701.417 410.75 700.838 410.9 700.182 410.9C699.188 410.9 698.388 410.57 697.782 409.909C697.176 409.244 696.873 408.353 696.873 407.236V406.621C696.873 405.067 697.16 403.832 697.734 402.916C698.313 402 699.165 401.442 700.291 401.241C700.929 401.127 701.36 400.988 701.583 400.824C701.806 400.66 701.918 400.435 701.918 400.147H702.957C702.957 400.717 702.827 401.161 702.567 401.48C702.312 401.799 701.902 402.025 701.337 402.157L700.394 402.369C699.642 402.547 699.076 402.848 698.698 403.271C698.325 403.691 698.081 404.251 697.967 404.953C698.637 404.178 699.452 403.791 700.414 403.791ZM700.168 404.83C699.548 404.83 699.056 405.04 698.691 405.459C698.327 405.874 698.145 406.45 698.145 407.188V407.298C698.145 408.091 698.327 408.72 698.691 409.185C699.061 409.645 699.557 409.875 700.182 409.875C700.811 409.875 701.307 409.643 701.672 409.178C702.036 408.713 702.219 408.034 702.219 407.141C702.219 406.443 702.034 405.885 701.665 405.466C701.3 405.042 700.801 404.83 700.168 404.83ZM709.472 410.764C709.399 410.618 709.34 410.358 709.294 409.984C708.706 410.595 708.004 410.9 707.188 410.9C706.459 410.9 705.86 410.695 705.391 410.285C704.926 409.87 704.693 409.346 704.693 408.713C704.693 407.943 704.985 407.346 705.568 406.922C706.156 406.493 706.981 406.279 708.043 406.279H709.273V405.698C709.273 405.256 709.141 404.905 708.877 404.646C708.613 404.381 708.223 404.249 707.708 404.249C707.257 404.249 706.879 404.363 706.573 404.591C706.268 404.819 706.115 405.094 706.115 405.418H704.844C704.844 405.049 704.974 404.693 705.233 404.352C705.498 404.005 705.853 403.732 706.3 403.531C706.751 403.331 707.245 403.23 707.783 403.23C708.635 403.23 709.303 403.445 709.786 403.873C710.269 404.297 710.52 404.882 710.538 405.63V409.034C710.538 409.713 710.625 410.253 710.798 410.654V410.764H709.472ZM707.373 409.8C707.77 409.8 708.146 409.697 708.501 409.492C708.856 409.287 709.114 409.021 709.273 408.692V407.175H708.282C706.733 407.175 705.958 407.628 705.958 408.535C705.958 408.932 706.09 409.242 706.354 409.465C706.619 409.688 706.958 409.8 707.373 409.8ZM718.769 407.147C718.769 408.273 718.511 409.18 717.996 409.868C717.481 410.556 716.784 410.9 715.904 410.9C715.007 410.9 714.3 410.616 713.785 410.046V413.607H712.521V403.367H713.676L713.737 404.188C714.252 403.549 714.968 403.23 715.884 403.23C716.772 403.23 717.474 403.565 717.989 404.235C718.509 404.905 718.769 405.837 718.769 407.031V407.147ZM717.504 407.004C717.504 406.17 717.326 405.511 716.971 405.028C716.615 404.545 716.128 404.304 715.508 404.304C714.742 404.304 714.168 404.643 713.785 405.322V408.856C714.163 409.531 714.742 409.868 715.521 409.868C716.128 409.868 716.608 409.629 716.964 409.15C717.324 408.667 717.504 407.952 717.504 407.004Z" fill="#0C0C0C"/>
<path id="&#208;&#178;&#209;&#133;&#208;&#190;&#208;&#180;" d="M991.093 523.554V516.157H993.978C994.962 516.157 995.716 516.33 996.24 516.677C996.769 517.019 997.033 517.522 997.033 518.188C997.033 518.529 996.931 518.839 996.726 519.117C996.521 519.391 996.217 519.6 995.816 519.746C996.263 519.851 996.621 520.056 996.89 520.361C997.163 520.667 997.3 521.031 997.3 521.455C997.3 522.134 997.049 522.654 996.548 523.014C996.051 523.374 995.347 523.554 994.436 523.554H991.093ZM992.357 520.307V522.535H994.449C994.978 522.535 995.372 522.437 995.632 522.241C995.896 522.045 996.028 521.77 996.028 521.414C996.028 520.676 995.486 520.307 994.401 520.307H992.357ZM992.357 519.295H993.991C995.176 519.295 995.769 518.949 995.769 518.256C995.769 517.563 995.208 517.205 994.087 517.183H992.357V519.295ZM1001.46 518.857L1003.1 516.157H1004.57L1002.15 519.814L1004.65 523.554H1003.19L1001.48 520.785L999.768 523.554H998.298L1000.79 519.814L998.373 516.157H999.836L1001.46 518.857ZM1005.45 519.787C1005.45 519.062 1005.59 518.411 1005.87 517.832C1006.16 517.253 1006.56 516.807 1007.06 516.492C1007.57 516.178 1008.15 516.021 1008.8 516.021C1009.81 516.021 1010.63 516.369 1011.25 517.066C1011.87 517.764 1012.18 518.691 1012.18 519.849V519.938C1012.18 520.658 1012.04 521.305 1011.76 521.879C1011.49 522.449 1011.1 522.893 1010.58 523.212C1010.07 523.531 1009.48 523.69 1008.82 523.69C1007.82 523.69 1007 523.342 1006.38 522.645C1005.76 521.947 1005.45 521.024 1005.45 519.876V519.787ZM1006.72 519.938C1006.72 520.758 1006.91 521.416 1007.29 521.913C1007.67 522.41 1008.18 522.658 1008.82 522.658C1009.46 522.658 1009.97 522.408 1010.35 521.906C1010.73 521.4 1010.92 520.694 1010.92 519.787C1010.92 518.976 1010.72 518.32 1010.34 517.818C1009.95 517.312 1009.44 517.06 1008.8 517.06C1008.18 517.06 1007.68 517.308 1007.29 517.805C1006.91 518.301 1006.72 519.012 1006.72 519.938ZM1013.21 522.521L1013.65 521.981C1014.14 521.343 1014.42 520.386 1014.49 519.11L1014.61 516.157H1019.37V522.521H1020.32V525.728H1019.06V523.554H1013.9V525.728H1012.63L1012.64 522.521H1013.21ZM1014.71 522.521H1018.11V517.326H1015.83L1015.76 519.09C1015.68 520.562 1015.33 521.706 1014.71 522.521Z" fill="#0C0C0C"/>
<path id="Vector_35" d="M140.4 245.9V276.1C140.4 277.8 139.1 279.1 137.4 279.1H103.4C101.7 279.1 100.4 277.8 100.4 276.1V245.9C100.4 244.2 101.7 242.9 103.4 242.9H137.4C139 242.9 140.4 244.3 140.4 245.9Z" stroke="#B6B6B6" stroke-miterlimit="10"/>
<path id="61" d="M131.8 241.5V280.5C131.8 282.2 130.5 283.5 128.8 283.5H112C110.3 283.5 109 282.2 109 280.5V241.5C109 239.8 110.3 238.5 112 238.5H128.7C130.4 238.5 131.8 239.9 131.8 241.5Z" fill="#308410"/>
<path id="6" d="M123.614 254.403V255.552H123.365C122.311 255.572 121.471 255.885 120.846 256.49C120.221 257.095 119.859 257.948 119.762 259.046C120.323 258.402 121.09 258.079 122.062 258.079C122.989 258.079 123.729 258.406 124.281 259.061C124.837 259.715 125.116 260.56 125.116 261.595C125.116 262.694 124.815 263.573 124.215 264.232C123.619 264.891 122.818 265.22 121.812 265.22C120.792 265.22 119.964 264.83 119.33 264.049C118.695 263.262 118.377 262.252 118.377 261.016V260.496C118.377 258.533 118.795 257.034 119.63 255.999C120.47 254.959 121.717 254.427 123.373 254.403H123.614ZM121.834 259.207C121.371 259.207 120.943 259.346 120.553 259.625C120.162 259.903 119.891 260.252 119.74 260.672V261.17C119.74 262.049 119.938 262.757 120.333 263.294C120.729 263.831 121.222 264.1 121.812 264.1C122.423 264.1 122.901 263.875 123.248 263.426C123.6 262.977 123.775 262.388 123.775 261.661C123.775 260.928 123.597 260.338 123.241 259.888C122.889 259.434 122.42 259.207 121.834 259.207Z" fill="white"/>
<path id="Vector_36" d="M381.7 212.5V238.9C381.7 240.6 380.4 241.9 378.7 241.9H349C347.3 241.9 346 240.6 346 238.9V212.5C346 210.8 347.3 209.5 349 209.5H378.7C380.3 209.5 381.7 210.8 381.7 212.5Z" stroke="#B6B6B6" stroke-miterlimit="10"/>
<path id="64" d="M374 208.6V242.8C374 244.5 372.7 245.8 371 245.8H356.7C355 245.8 353.7 244.5 353.7 242.8V208.6C353.7 206.9 355 205.6 356.7 205.6H371C372.6 205.6 374 206.9 374 208.6Z" fill="#308410"/>
<path id="6_2" d="M366.718 220.258V221.284H366.496C365.554 221.302 364.804 221.581 364.247 222.121C363.689 222.662 363.366 223.422 363.279 224.403C363.78 223.828 364.464 223.54 365.332 223.54C366.16 223.54 366.82 223.832 367.313 224.416C367.81 225 368.058 225.754 368.058 226.678C368.058 227.659 367.79 228.444 367.254 229.032C366.722 229.62 366.007 229.915 365.11 229.915C364.199 229.915 363.46 229.566 362.893 228.869C362.327 228.167 362.043 227.265 362.043 226.162V225.698C362.043 223.945 362.416 222.607 363.161 221.683C363.911 220.755 365.025 220.28 366.502 220.258H366.718ZM365.129 224.547C364.715 224.547 364.334 224.671 363.985 224.92C363.636 225.168 363.394 225.48 363.259 225.855V226.299C363.259 227.084 363.436 227.716 363.789 228.195C364.142 228.675 364.582 228.914 365.11 228.914C365.654 228.914 366.082 228.714 366.391 228.313C366.705 227.912 366.862 227.387 366.862 226.737C366.862 226.083 366.703 225.556 366.384 225.155C366.071 224.75 365.652 224.547 365.129 224.547Z" fill="white"/>
<path id="Vector_37" d="M381.7 258.7V285.1C381.7 286.8 380.4 288.1 378.7 288.1H349C347.3 288.1 346 286.8 346 285.1V258.7C346 257 347.3 255.7 349 255.7H378.7C380.4 255.7 381.7 257.1 381.7 258.7Z" stroke="#B6B6B6" stroke-miterlimit="10"/>
<path id="66" d="M374 254.8V289C374 290.7 372.7 292 371 292H356.7C355 292 353.7 290.7 353.7 289V254.8C353.7 253.1 355 251.8 356.7 251.8H371C372.7 251.8 374 253.2 374 254.8Z" fill="#308410"/>
<path id="6_3" d="M366.718 266.498V267.524H366.496C365.554 267.542 364.804 267.821 364.247 268.361C363.689 268.902 363.366 269.662 363.279 270.643C363.78 270.068 364.464 269.78 365.332 269.78C366.16 269.78 366.82 270.072 367.313 270.656C367.81 271.24 368.058 271.994 368.058 272.918C368.058 273.899 367.79 274.684 367.254 275.272C366.722 275.86 366.007 276.155 365.11 276.155C364.199 276.155 363.46 275.806 362.893 275.109C362.327 274.407 362.043 273.505 362.043 272.402V271.938C362.043 270.185 362.416 268.847 363.161 267.923C363.911 266.995 365.025 266.52 366.502 266.498H366.718ZM365.129 270.787C364.715 270.787 364.334 270.911 363.985 271.16C363.636 271.408 363.394 271.72 363.259 272.095V272.539C363.259 273.324 363.436 273.956 363.789 274.435C364.142 274.915 364.582 275.154 365.11 275.154C365.654 275.154 366.082 274.954 366.391 274.553C366.705 274.152 366.862 273.627 366.862 272.977C366.862 272.323 366.703 271.796 366.384 271.395C366.071 270.99 365.652 270.787 365.129 270.787Z" fill="white"/>
<path id="Vector_38" d="M337.6 258.7V285.1C337.6 286.8 336.3 288.1 334.6 288.1H304.9C303.2 288.1 301.9 286.8 301.9 285.1V258.7C301.9 257 303.2 255.7 304.9 255.7H334.6C336.3 255.7 337.6 257.1 337.6 258.7Z" stroke="#B6B6B6" stroke-miterlimit="10"/>
<path id="67" d="M329.9 254.8V289C329.9 290.7 328.6 292 326.9 292H312.6C310.9 292 309.6 290.7 309.6 289V254.8C309.6 253.1 310.9 251.8 312.6 251.8H326.9C328.6 251.8 329.9 253.2 329.9 254.8Z" fill="#308410"/>
<path id="6_4" d="M322.648 266.498V267.524H322.426C321.484 267.542 320.735 267.821 320.177 268.361C319.619 268.902 319.296 269.662 319.209 270.643C319.71 270.068 320.395 269.78 321.262 269.78C322.09 269.78 322.751 270.072 323.243 270.656C323.74 271.24 323.988 271.994 323.988 272.918C323.988 273.899 323.72 274.684 323.184 275.272C322.652 275.86 321.938 276.155 321.04 276.155C320.129 276.155 319.39 275.806 318.823 275.109C318.257 274.407 317.973 273.505 317.973 272.402V271.938C317.973 270.185 318.346 268.847 319.091 267.923C319.841 266.995 320.955 266.52 322.432 266.498H322.648ZM321.059 270.787C320.645 270.787 320.264 270.911 319.915 271.16C319.566 271.408 319.325 271.72 319.189 272.095V272.539C319.189 273.324 319.366 273.956 319.719 274.435C320.072 274.915 320.512 275.154 321.04 275.154C321.585 275.154 322.012 274.954 322.321 274.553C322.635 274.152 322.792 273.627 322.792 272.977C322.792 272.323 322.633 271.796 322.315 271.395C322.001 270.99 321.582 270.787 321.059 270.787Z" fill="white"/>
<path id="Vector_39" d="M218 496.7V523.1C218 524.8 216.7 526.1 215 526.1H185.3C183.6 526.1 182.3 524.8 182.3 523.1V496.7C182.3 495 183.6 493.7 185.3 493.7H215C216.6 493.7 218 495.1 218 496.7Z" stroke="#B6B6B6" stroke-miterlimit="10"/>
<path id="23" d="M210.3 492.8V527C210.3 528.7 209 530 207.3 530H193C191.3 530 190 528.7 190 527V492.8C190 491.1 191.3 489.8 193 489.8H207.3C208.9 489.8 210.3 491.2 210.3 492.8Z" fill="#308410"/>
<path id="6_5" d="M203.008 504.478V505.504H202.786C201.844 505.522 201.094 505.801 200.537 506.341C199.979 506.882 199.656 507.642 199.569 508.623C200.07 508.047 200.755 507.76 201.622 507.76C202.45 507.76 203.11 508.052 203.603 508.636C204.1 509.22 204.348 509.974 204.348 510.898C204.348 511.879 204.08 512.663 203.544 513.252C203.012 513.84 202.298 514.134 201.4 514.134C200.489 514.134 199.75 513.786 199.183 513.088C198.617 512.387 198.333 511.484 198.333 510.382V509.917C198.333 508.165 198.706 506.827 199.451 505.903C200.201 504.975 201.315 504.499 202.792 504.478H203.008ZM201.419 508.767C201.005 508.767 200.624 508.891 200.275 509.139C199.926 509.388 199.684 509.699 199.549 510.074V510.519C199.549 511.303 199.726 511.935 200.079 512.415C200.432 512.894 200.872 513.134 201.4 513.134C201.944 513.134 202.372 512.934 202.681 512.533C202.995 512.132 203.152 511.606 203.152 510.957C203.152 510.303 202.993 509.776 202.675 509.375C202.361 508.969 201.942 508.767 201.419 508.767Z" fill="white"/>
<path id="Vector_40" d="M260.5 496.7V523.1C260.5 524.8 259.2 526.1 257.5 526.1H227.8C226.1 526.1 224.8 524.8 224.8 523.1V496.7C224.8 495 226.1 493.7 227.8 493.7H257.5C259.2 493.7 260.5 495.1 260.5 496.7Z" stroke="#B6B6B6" stroke-miterlimit="10"/>
<path id="22" d="M252.8 492.8V527C252.8 528.7 251.5 530 249.8 530H235.5C233.8 530 232.5 528.7 232.5 527V492.8C232.5 491.1 233.8 489.8 235.5 489.8H249.8C251.5 489.8 252.8 491.2 252.8 492.8Z" fill="#308410"/>
<path id="6_6" d="M245.558 504.478V505.504H245.336C244.394 505.522 243.645 505.801 243.087 506.341C242.529 506.882 242.206 507.642 242.119 508.623C242.62 508.047 243.305 507.76 244.172 507.76C245 507.76 245.661 508.052 246.153 508.636C246.65 509.22 246.899 509.974 246.899 510.898C246.899 511.879 246.631 512.663 246.094 513.252C245.563 513.84 244.848 514.134 243.95 514.134C243.039 514.134 242.3 513.786 241.733 513.088C241.167 512.387 240.884 511.484 240.884 510.382V509.917C240.884 508.165 241.256 506.827 242.002 505.903C242.751 504.975 243.865 504.499 245.343 504.478H245.558ZM243.97 508.767C243.555 508.767 243.174 508.891 242.825 509.139C242.477 509.388 242.235 509.699 242.1 510.074V510.519C242.1 511.303 242.276 511.935 242.629 512.415C242.982 512.894 243.422 513.134 243.95 513.134C244.495 513.134 244.922 512.934 245.231 512.533C245.545 512.132 245.702 511.606 245.702 510.957C245.702 510.303 245.543 509.776 245.225 509.375C244.911 508.969 244.493 508.767 243.97 508.767Z" fill="white"/>
<path id="Vector_41" d="M303.1 496.7V523.1C303.1 524.8 301.8 526.1 300.1 526.1H270.4C268.7 526.1 267.4 524.8 267.4 523.1V496.7C267.4 495 268.7 493.7 270.4 493.7H300.1C301.7 493.7 303.1 495.1 303.1 496.7Z" stroke="#B6B6B6" stroke-miterlimit="10"/>
<path id="21" d="M295.4 492.8V527C295.4 528.7 294.1 530 292.4 530H278.1C276.4 530 275.1 528.7 275.1 527V492.8C275.1 491.1 276.4 489.8 278.1 489.8H292.4C294 489.8 295.4 491.2 295.4 492.8Z" fill="#308410"/>
<path id="6_7" d="M288.118 504.478V505.504H287.896C286.954 505.522 286.204 505.801 285.646 506.341C285.089 506.882 284.766 507.642 284.679 508.623C285.18 508.047 285.864 507.76 286.732 507.76C287.56 507.76 288.22 508.052 288.713 508.636C289.21 509.22 289.458 509.974 289.458 510.898C289.458 511.879 289.19 512.663 288.654 513.252C288.122 513.84 287.407 514.134 286.509 514.134C285.598 514.134 284.86 513.786 284.293 513.088C283.726 512.387 283.443 511.484 283.443 510.382V509.917C283.443 508.165 283.816 506.827 284.561 505.903C285.311 504.975 286.424 504.499 287.902 504.478H288.118ZM286.529 508.767C286.115 508.767 285.734 508.891 285.385 509.139C285.036 509.388 284.794 509.699 284.659 510.074V510.519C284.659 511.303 284.836 511.935 285.189 512.415C285.542 512.894 285.982 513.134 286.509 513.134C287.054 513.134 287.481 512.934 287.791 512.533C288.105 512.132 288.262 511.606 288.262 510.957C288.262 510.303 288.103 509.776 287.784 509.375C287.471 508.969 287.052 508.767 286.529 508.767Z" fill="white"/>
<path id="Vector_42" d="M368.9 496.7V523.1C368.9 524.8 367.6 526.1 365.9 526.1H336.2C334.5 526.1 333.2 524.8 333.2 523.1V496.7C333.2 495 334.5 493.7 336.2 493.7H365.9C367.6 493.7 368.9 495.1 368.9 496.7Z" stroke="#B6B6B6" stroke-miterlimit="10"/>
<path id="20" d="M361.2 492.8V527C361.2 528.7 359.9 530 358.2 530H343.9C342.2 530 340.9 528.7 340.9 527V492.8C340.9 491.1 342.2 489.8 343.9 489.8H358.2C359.9 489.8 361.2 491.2 361.2 492.8Z" fill="#308410"/>
<path id="6_8" d="M353.948 504.478V505.504H353.726C352.784 505.522 352.034 505.801 351.477 506.341C350.919 506.882 350.596 507.642 350.509 508.623C351.01 508.047 351.694 507.76 352.562 507.76C353.39 507.76 354.05 508.052 354.543 508.636C355.04 509.22 355.288 509.974 355.288 510.898C355.288 511.879 355.02 512.663 354.484 513.252C353.952 513.84 353.237 514.134 352.34 514.134C351.429 514.134 350.69 513.786 350.123 513.088C349.557 512.387 349.273 511.484 349.273 510.382V509.917C349.273 508.165 349.646 506.827 350.391 505.903C351.141 504.975 352.255 504.499 353.732 504.478H353.948ZM352.359 508.767C351.945 508.767 351.564 508.891 351.215 509.139C350.866 509.388 350.624 509.699 350.489 510.074V510.519C350.489 511.303 350.666 511.935 351.019 512.415C351.372 512.894 351.812 513.134 352.34 513.134C352.884 513.134 353.312 512.934 353.621 512.533C353.935 512.132 354.092 511.606 354.092 510.957C354.092 510.303 353.933 509.776 353.614 509.375C353.301 508.969 352.882 508.767 352.359 508.767Z" fill="white"/>
<path id="Vector_43" d="M409.7 496.7V523.1C409.7 524.8 408.4 526.1 406.7 526.1H377C375.3 526.1 374 524.8 374 523.1V496.7C374 495 375.3 493.7 377 493.7H406.7C408.3 493.7 409.7 495.1 409.7 496.7Z" stroke="#B6B6B6" stroke-miterlimit="10"/>
<path id="19" d="M402 492.8V527C402 528.7 400.7 530 399 530H384.7C383 530 381.7 528.7 381.7 527V492.8C381.7 491.1 383 489.8 384.7 489.8H399C400.6 489.8 402 491.2 402 492.8Z" fill="#308410"/>
<path id="6_9" d="M394.708 504.478V505.504H394.486C393.544 505.522 392.795 505.801 392.237 506.341C391.679 506.882 391.356 507.642 391.269 508.623C391.77 508.047 392.455 507.76 393.322 507.76C394.15 507.76 394.811 508.052 395.303 508.636C395.8 509.22 396.048 509.974 396.048 510.898C396.048 511.879 395.78 512.663 395.244 513.252C394.713 513.84 393.998 514.134 393.1 514.134C392.189 514.134 391.45 513.786 390.883 513.088C390.317 512.387 390.033 511.484 390.033 510.382V509.917C390.033 508.165 390.406 506.827 391.151 505.903C391.901 504.975 393.015 504.499 394.492 504.478H394.708ZM393.119 508.767C392.705 508.767 392.324 508.891 391.975 509.139C391.627 509.388 391.385 509.699 391.25 510.074V510.519C391.25 511.303 391.426 511.935 391.779 512.415C392.132 512.894 392.572 513.134 393.1 513.134C393.645 513.134 394.072 512.934 394.381 512.533C394.695 512.132 394.852 511.606 394.852 510.957C394.852 510.303 394.693 509.776 394.375 509.375C394.061 508.969 393.642 508.767 393.119 508.767Z" fill="white"/>
<path id="Vector_44" d="M450.4 496.7V523.1C450.4 524.8 449.1 526.1 447.4 526.1H417.7C416 526.1 414.7 524.8 414.7 523.1V496.7C414.7 495 416 493.7 417.7 493.7H447.4C449.1 493.7 450.4 495.1 450.4 496.7Z" stroke="#B6B6B6" stroke-miterlimit="10"/>
<path id="18" d="M442.7 492.8V527C442.7 528.7 441.4 530 439.7 530H425.4C423.7 530 422.4 528.7 422.4 527V492.8C422.4 491.1 423.7 489.8 425.4 489.8H439.7C441.4 489.8 442.7 491.2 442.7 492.8Z" fill="#308410"/>
<path id="6_10" d="M435.478 504.478V505.504H435.256C434.314 505.522 433.565 505.801 433.007 506.341C432.449 506.882 432.126 507.642 432.039 508.623C432.54 508.047 433.225 507.76 434.092 507.76C434.92 507.76 435.581 508.052 436.073 508.636C436.57 509.22 436.818 509.974 436.818 510.898C436.818 511.879 436.55 512.663 436.014 513.252C435.483 513.84 434.768 514.134 433.87 514.134C432.959 514.134 432.22 513.786 431.653 513.088C431.087 512.387 430.803 511.484 430.803 510.382V509.917C430.803 508.165 431.176 506.827 431.921 505.903C432.671 504.975 433.785 504.499 435.262 504.478H435.478ZM433.889 508.767C433.475 508.767 433.094 508.891 432.745 509.139C432.397 509.388 432.155 509.699 432.02 510.074V510.519C432.02 511.303 432.196 511.935 432.549 512.415C432.902 512.894 433.342 513.134 433.87 513.134C434.415 513.134 434.842 512.934 435.151 512.533C435.465 512.132 435.622 511.606 435.622 510.957C435.622 510.303 435.463 509.776 435.145 509.375C434.831 508.969 434.412 508.767 433.889 508.767Z" fill="white"/>
<path id="Vector_45" d="M491.2 496.7V523.1C491.2 524.8 489.9 526.1 488.2 526.1H458.5C456.8 526.1 455.5 524.8 455.5 523.1V496.7C455.5 495 456.8 493.7 458.5 493.7H488.2C489.9 493.7 491.2 495.1 491.2 496.7Z" stroke="#B6B6B6" stroke-miterlimit="10"/>
<path id="17" d="M483.5 492.8V527C483.5 528.7 482.2 530 480.5 530H466.2C464.5 530 463.2 528.7 463.2 527V492.8C463.2 491.1 464.5 489.8 466.2 489.8H480.5C482.2 489.8 483.5 491.2 483.5 492.8Z" fill="#308410"/>
<path id="6_11" d="M476.238 504.478V505.504H476.016C475.074 505.522 474.324 505.801 473.767 506.341C473.209 506.882 472.886 507.642 472.799 508.623C473.3 508.047 473.984 507.76 474.852 507.76C475.68 507.76 476.34 508.052 476.833 508.636C477.33 509.22 477.578 509.974 477.578 510.898C477.578 511.879 477.31 512.663 476.774 513.252C476.242 513.84 475.527 514.134 474.63 514.134C473.719 514.134 472.98 513.786 472.413 513.088C471.847 512.387 471.563 511.484 471.563 510.382V509.917C471.563 508.165 471.936 506.827 472.681 505.903C473.431 504.975 474.545 504.499 476.022 504.478H476.238ZM474.649 508.767C474.235 508.767 473.854 508.891 473.505 509.139C473.156 509.388 472.914 509.699 472.779 510.074V510.519C472.779 511.303 472.956 511.935 473.309 512.415C473.662 512.894 474.102 513.134 474.63 513.134C475.174 513.134 475.602 512.934 475.911 512.533C476.225 512.132 476.382 511.606 476.382 510.957C476.382 510.303 476.223 509.776 475.905 509.375C475.591 508.969 475.172 508.767 474.649 508.767Z" fill="white"/>
<path id="Vector_46" d="M532 496.7V523.1C532 524.8 530.7 526.1 529 526.1H499.3C497.6 526.1 496.3 524.8 496.3 523.1V496.7C496.3 495 497.6 493.7 499.3 493.7H529C530.6 493.7 532 495.1 532 496.7Z" stroke="#B6B6B6" stroke-miterlimit="10"/>
<path id="16" d="M524.3 492.8V527C524.3 528.7 523 530 521.3 530H507C505.3 530 504 528.7 504 527V492.8C504 491.1 505.3 489.8 507 489.8H521.3C522.9 489.8 524.3 491.2 524.3 492.8Z" fill="#308410"/>
<path id="6_12" d="M517.008 504.478V505.504H516.786C515.844 505.522 515.094 505.801 514.537 506.341C513.979 506.882 513.656 507.642 513.569 508.623C514.07 508.047 514.755 507.76 515.622 507.76C516.45 507.76 517.11 508.052 517.603 508.636C518.1 509.22 518.348 509.974 518.348 510.898C518.348 511.879 518.08 512.663 517.544 513.252C517.012 513.84 516.298 514.134 515.4 514.134C514.489 514.134 513.75 513.786 513.183 513.088C512.617 512.387 512.333 511.484 512.333 510.382V509.917C512.333 508.165 512.706 506.827 513.451 505.903C514.201 504.975 515.315 504.499 516.792 504.478H517.008ZM515.419 508.767C515.005 508.767 514.624 508.891 514.275 509.139C513.926 509.388 513.684 509.699 513.549 510.074V510.519C513.549 511.303 513.726 511.935 514.079 512.415C514.432 512.894 514.872 513.134 515.4 513.134C515.944 513.134 516.372 512.934 516.681 512.533C516.995 512.132 517.152 511.606 517.152 510.957C517.152 510.303 516.993 509.776 516.675 509.375C516.361 508.969 515.942 508.767 515.419 508.767Z" fill="white"/>
<path id="Vector_47" d="M572.7 496.7V523.1C572.7 524.8 571.4 526.1 569.7 526.1H540C538.3 526.1 537 524.8 537 523.1V496.7C537 495 538.3 493.7 540 493.7H569.7C571.4 493.7 572.7 495.1 572.7 496.7Z" stroke="#B6B6B6" stroke-miterlimit="10"/>
<path id="15" d="M565 492.8V527C565 528.7 563.7 530 562 530H547.7C546 530 544.7 528.7 544.7 527V492.8C544.7 491.1 546 489.8 547.7 489.8H562C563.7 489.8 565 491.2 565 492.8Z" fill="#308410"/>
<path id="6_13" d="M557.778 504.478V505.504H557.556C556.614 505.522 555.865 505.801 555.307 506.341C554.749 506.882 554.426 507.642 554.339 508.623C554.84 508.047 555.525 507.76 556.392 507.76C557.22 507.76 557.88 508.052 558.373 508.636C558.87 509.22 559.118 509.974 559.118 510.898C559.118 511.879 558.85 512.663 558.314 513.252C557.782 513.84 557.068 514.134 556.17 514.134C555.259 514.134 554.52 513.786 553.953 513.088C553.387 512.387 553.103 511.484 553.103 510.382V509.917C553.103 508.165 553.476 506.827 554.221 505.903C554.971 504.975 556.085 504.499 557.562 504.478H557.778ZM556.189 508.767C555.775 508.767 555.394 508.891 555.045 509.139C554.696 509.388 554.454 509.699 554.319 510.074V510.519C554.319 511.303 554.496 511.935 554.849 512.415C555.202 512.894 555.642 513.134 556.17 513.134C556.714 513.134 557.142 512.934 557.451 512.533C557.765 512.132 557.922 511.606 557.922 510.957C557.922 510.303 557.763 509.776 557.445 509.375C557.131 508.969 556.712 508.767 556.189 508.767Z" fill="white"/>
<path id="Vector_48" d="M613.5 496.7V523.1C613.5 524.8 612.2 526.1 610.5 526.1H580.8C579.1 526.1 577.8 524.8 577.8 523.1V496.7C577.8 495 579.1 493.7 580.8 493.7H610.5C612.2 493.7 613.5 495.1 613.5 496.7Z" stroke="#B6B6B6" stroke-miterlimit="10"/>
<path id="14" d="M605.8 492.8V527C605.8 528.7 604.5 530 602.8 530H588.5C586.8 530 585.5 528.7 585.5 527V492.8C585.5 491.1 586.8 489.8 588.5 489.8H602.8C604.5 489.8 605.8 491.2 605.8 492.8Z" fill="#308410"/>
<path id="6_14" d="M598.538 504.478V505.504H598.315C597.374 505.522 596.624 505.801 596.066 506.341C595.508 506.882 595.186 507.642 595.099 508.623C595.6 508.047 596.284 507.76 597.152 507.76C597.98 507.76 598.64 508.052 599.133 508.636C599.63 509.22 599.878 509.974 599.878 510.898C599.878 511.879 599.61 512.663 599.074 513.252C598.542 513.84 597.827 514.134 596.929 514.134C596.018 514.134 595.28 513.786 594.713 513.088C594.146 512.387 593.863 511.484 593.863 510.382V509.917C593.863 508.165 594.236 506.827 594.981 505.903C595.731 504.975 596.844 504.499 598.322 504.478H598.538ZM596.949 508.767C596.535 508.767 596.154 508.891 595.805 509.139C595.456 509.388 595.214 509.699 595.079 510.074V510.519C595.079 511.303 595.256 511.935 595.609 512.415C595.962 512.894 596.402 513.134 596.929 513.134C597.474 513.134 597.901 512.934 598.211 512.533C598.525 512.132 598.682 511.606 598.682 510.957C598.682 510.303 598.523 509.776 598.204 509.375C597.89 508.969 597.472 508.767 596.949 508.767Z" fill="white"/>
<path id="Vector_49" d="M654.3 496.7V523.1C654.3 524.8 653 526.1 651.3 526.1H621.6C619.9 526.1 618.6 524.8 618.6 523.1V496.7C618.6 495 619.9 493.7 621.6 493.7H651.3C652.9 493.7 654.3 495.1 654.3 496.7Z" stroke="#B6B6B6" stroke-miterlimit="10"/>
<path id="13" d="M646.6 492.8V527C646.6 528.7 645.3 530 643.6 530H629.3C627.6 530 626.3 528.7 626.3 527V492.8C626.3 491.1 627.6 489.8 629.3 489.8H643.6C645.2 489.8 646.6 491.2 646.6 492.8Z" fill="#308410"/>
<path id="6_15" d="M639.308 504.478V505.504H639.085C638.144 505.522 637.394 505.801 636.836 506.341C636.278 506.882 635.956 507.642 635.869 508.623C636.37 508.047 637.054 507.76 637.922 507.76C638.75 507.76 639.41 508.052 639.903 508.636C640.4 509.22 640.648 509.974 640.648 510.898C640.648 511.879 640.38 512.663 639.844 513.252C639.312 513.84 638.597 514.134 637.699 514.134C636.788 514.134 636.05 513.786 635.483 513.088C634.916 512.387 634.633 511.484 634.633 510.382V509.917C634.633 508.165 635.006 506.827 635.751 505.903C636.501 504.975 637.614 504.499 639.092 504.478H639.308ZM637.719 508.767C637.305 508.767 636.924 508.891 636.575 509.139C636.226 509.388 635.984 509.699 635.849 510.074V510.519C635.849 511.303 636.026 511.935 636.379 512.415C636.732 512.894 637.172 513.134 637.699 513.134C638.244 513.134 638.671 512.934 638.981 512.533C639.295 512.132 639.452 511.606 639.452 510.957C639.452 510.303 639.293 509.776 638.974 509.375C638.661 508.969 638.242 508.767 637.719 508.767Z" fill="white"/>
<path id="Vector_50" d="M695 496.7V523.1C695 524.8 693.7 526.1 692 526.1H662.3C660.6 526.1 659.3 524.8 659.3 523.1V496.7C659.3 495 660.6 493.7 662.3 493.7H692C693.7 493.7 695 495.1 695 496.7Z" stroke="#B6B6B6" stroke-miterlimit="10"/>
<path id="12" d="M687.3 492.8V527C687.3 528.7 686 530 684.3 530H670C668.3 530 667 528.7 667 527V492.8C667 491.1 668.3 489.8 670 489.8H684.3C686 489.8 687.3 491.2 687.3 492.8Z" fill="#308410"/>
<path id="6_16" d="M680.068 504.478V505.504H679.846C678.904 505.522 678.155 505.801 677.597 506.341C677.039 506.882 676.716 507.642 676.629 508.623C677.13 508.047 677.815 507.76 678.682 507.76C679.51 507.76 680.17 508.052 680.663 508.636C681.16 509.22 681.408 509.974 681.408 510.898C681.408 511.879 681.14 512.663 680.604 513.252C680.072 513.84 679.358 514.134 678.46 514.134C677.549 514.134 676.81 513.786 676.243 513.088C675.677 512.387 675.393 511.484 675.393 510.382V509.917C675.393 508.165 675.766 506.827 676.511 505.903C677.261 504.975 678.375 504.499 679.852 504.478H680.068ZM678.479 508.767C678.065 508.767 677.684 508.891 677.335 509.139C676.986 509.388 676.745 509.699 676.609 510.074V510.519C676.609 511.303 676.786 511.935 677.139 512.415C677.492 512.894 677.932 513.134 678.46 513.134C679.005 513.134 679.432 512.934 679.741 512.533C680.055 512.132 680.212 511.606 680.212 510.957C680.212 510.303 680.053 509.776 679.735 509.375C679.421 508.969 679.002 508.767 678.479 508.767Z" fill="white"/>
<path id="Vector_51" d="M735.8 496.7V523.1C735.8 524.8 734.5 526.1 732.8 526.1H703.1C701.4 526.1 700.1 524.8 700.1 523.1V496.7C700.1 495 701.4 493.7 703.1 493.7H732.8C734.5 493.7 735.8 495.1 735.8 496.7Z" stroke="#B6B6B6" stroke-miterlimit="10"/>
<path id="11" d="M728.1 492.8V527C728.1 528.7 726.8 530 725.1 530H710.8C709.1 530 707.8 528.7 707.8 527V492.8C707.8 491.1 709.1 489.8 710.8 489.8H725.1C726.8 489.8 728.1 491.2 728.1 492.8Z" fill="#308410"/>
<path id="6_17" d="M720.838 504.478V505.504H720.615C719.674 505.522 718.924 505.801 718.366 506.341C717.808 506.882 717.486 507.642 717.399 508.623C717.9 508.047 718.584 507.76 719.451 507.76C720.28 507.76 720.94 508.052 721.433 508.636C721.929 509.22 722.178 509.974 722.178 510.898C722.178 511.879 721.91 512.663 721.374 513.252C720.842 513.84 720.127 514.134 719.229 514.134C718.318 514.134 717.579 513.786 717.013 513.088C716.446 512.387 716.163 511.484 716.163 510.382V509.917C716.163 508.165 716.536 506.827 717.281 505.903C718.031 504.975 719.144 504.499 720.622 504.478H720.838ZM719.249 508.767C718.835 508.767 718.453 508.891 718.105 509.139C717.756 509.388 717.514 509.699 717.379 510.074V510.519C717.379 511.303 717.555 511.935 717.909 512.415C718.262 512.894 718.702 513.134 719.229 513.134C719.774 513.134 720.201 512.934 720.511 512.533C720.824 512.132 720.981 511.606 720.981 510.957C720.981 510.303 720.822 509.776 720.504 509.375C720.19 508.969 719.772 508.767 719.249 508.767Z" fill="white"/>
<path id="Vector_52" d="M776.6 496.7V523.1C776.6 524.8 775.3 526.1 773.6 526.1H743.9C742.2 526.1 740.9 524.8 740.9 523.1V496.7C740.9 495 742.2 493.7 743.9 493.7H773.6C775.2 493.7 776.6 495.1 776.6 496.7Z" stroke="#B6B6B6" stroke-miterlimit="10"/>
<path id="10" d="M768.9 492.8V527C768.9 528.7 767.6 530 765.9 530H751.6C749.9 530 748.6 528.7 748.6 527V492.8C748.6 491.1 749.9 489.8 751.6 489.8H765.9C767.5 489.8 768.9 491.2 768.9 492.8Z" fill="#308410"/>
<path id="6_18" d="M761.598 504.478V505.504H761.376C760.434 505.522 759.684 505.801 759.126 506.341C758.569 506.882 758.246 507.642 758.159 508.623C758.66 508.047 759.344 507.76 760.212 507.76C761.04 507.76 761.7 508.052 762.193 508.636C762.69 509.22 762.938 509.974 762.938 510.898C762.938 511.879 762.67 512.663 762.134 513.252C761.602 513.84 760.887 514.134 759.989 514.134C759.078 514.134 758.34 513.786 757.773 513.088C757.206 512.387 756.923 511.484 756.923 510.382V509.917C756.923 508.165 757.296 506.827 758.041 505.903C758.791 504.975 759.904 504.499 761.382 504.478H761.598ZM760.009 508.767C759.595 508.767 759.214 508.891 758.865 509.139C758.516 509.388 758.274 509.699 758.139 510.074V510.519C758.139 511.303 758.316 511.935 758.669 512.415C759.022 512.894 759.462 513.134 759.989 513.134C760.534 513.134 760.961 512.934 761.271 512.533C761.585 512.132 761.742 511.606 761.742 510.957C761.742 510.303 761.583 509.776 761.264 509.375C760.951 508.969 760.532 508.767 760.009 508.767Z" fill="white"/>
<path id="Vector_53" d="M817.3 496.7V523.1C817.3 524.8 816 526.1 814.3 526.1H784.6C782.9 526.1 781.6 524.8 781.6 523.1V496.7C781.6 495 782.9 493.7 784.6 493.7H814.3C816 493.7 817.3 495.1 817.3 496.7Z" stroke="#B6B6B6" stroke-miterlimit="10"/>
<path id="9" d="M809.6 492.8V527C809.6 528.7 808.3 530 806.6 530H792.3C790.6 530 789.3 528.7 789.3 527V492.8C789.3 491.1 790.6 489.8 792.3 489.8H806.6C808.3 489.8 809.6 491.2 809.6 492.8Z" fill="#308410"/>
<path id="6_19" d="M802.368 504.478V505.504H802.146C801.204 505.522 800.454 505.801 799.896 506.341C799.339 506.882 799.016 507.642 798.929 508.623C799.43 508.047 800.114 507.76 800.982 507.76C801.81 507.76 802.47 508.052 802.963 508.636C803.46 509.22 803.708 509.974 803.708 510.898C803.708 511.879 803.44 512.663 802.904 513.252C802.372 513.84 801.657 514.134 800.759 514.134C799.848 514.134 799.11 513.786 798.543 513.088C797.976 512.387 797.693 511.484 797.693 510.382V509.917C797.693 508.165 798.066 506.827 798.811 505.903C799.561 504.975 800.674 504.499 802.152 504.478H802.368ZM800.779 508.767C800.365 508.767 799.984 508.891 799.635 509.139C799.286 509.388 799.044 509.699 798.909 510.074V510.519C798.909 511.303 799.086 511.935 799.439 512.415C799.792 512.894 800.232 513.134 800.759 513.134C801.304 513.134 801.731 512.934 802.041 512.533C802.355 512.132 802.512 511.606 802.512 510.957C802.512 510.303 802.353 509.776 802.034 509.375C801.721 508.969 801.302 508.767 800.779 508.767Z" fill="white"/>
<path id="Vector_54" d="M858.1 496.7V523.1C858.1 524.8 856.8 526.1 855.1 526.1H825.4C823.7 526.1 822.4 524.8 822.4 523.1V496.7C822.4 495 823.7 493.7 825.4 493.7H855.1C856.8 493.7 858.1 495.1 858.1 496.7Z" stroke="#B6B6B6" stroke-miterlimit="10"/>
<path id="8" d="M850.4 492.8V527C850.4 528.7 849.1 530 847.4 530H833.1C831.4 530 830.1 528.7 830.1 527V492.8C830.1 491.1 831.4 489.8 833.1 489.8H847.4C849.1 489.8 850.4 491.2 850.4 492.8Z" fill="#308410"/>
<path id="6_20" d="M843.137 504.478V505.504H842.915C841.974 505.522 841.224 505.801 840.666 506.341C840.108 506.882 839.786 507.642 839.698 508.623C840.2 508.047 840.884 507.76 841.751 507.76C842.579 507.76 843.24 508.052 843.732 508.636C844.229 509.22 844.478 509.974 844.478 510.898C844.478 511.879 844.21 512.663 843.673 513.252C843.142 513.84 842.427 514.134 841.529 514.134C840.618 514.134 839.879 513.786 839.313 513.088C838.746 512.387 838.463 511.484 838.463 510.382V509.917C838.463 508.165 838.835 506.827 839.581 505.903C840.33 504.975 841.444 504.499 842.922 504.478H843.137ZM841.549 508.767C841.135 508.767 840.753 508.891 840.404 509.139C840.056 509.388 839.814 509.699 839.679 510.074V510.519C839.679 511.303 839.855 511.935 840.208 512.415C840.561 512.894 841.002 513.134 841.529 513.134C842.074 513.134 842.501 512.934 842.81 512.533C843.124 512.132 843.281 511.606 843.281 510.957C843.281 510.303 843.122 509.776 842.804 509.375C842.49 508.969 842.072 508.767 841.549 508.767Z" fill="white"/>
<path id="Vector_55" d="M898.9 496.7V523.1C898.9 524.8 897.6 526.1 895.9 526.1H866.2C864.5 526.1 863.2 524.8 863.2 523.1V496.7C863.2 495 864.5 493.7 866.2 493.7H895.9C897.5 493.7 898.9 495.1 898.9 496.7Z" stroke="#B6B6B6" stroke-miterlimit="10"/>
<path id="7" d="M891.2 492.8V527C891.2 528.7 889.9 530 888.2 530H873.9C872.2 530 870.9 528.7 870.9 527V492.8C870.9 491.1 872.2 489.8 873.9 489.8H888.2C889.8 489.8 891.2 491.2 891.2 492.8Z" fill="#308410"/>
<path id="6_21" d="M883.898 504.478V505.504H883.675C882.734 505.522 881.984 505.801 881.426 506.341C880.868 506.882 880.546 507.642 880.459 508.623C880.96 508.047 881.644 507.76 882.512 507.76C883.34 507.76 884 508.052 884.493 508.636C884.989 509.22 885.238 509.974 885.238 510.898C885.238 511.879 884.97 512.663 884.434 513.252C883.902 513.84 883.187 514.134 882.289 514.134C881.378 514.134 880.639 513.786 880.073 513.088C879.506 512.387 879.223 511.484 879.223 510.382V509.917C879.223 508.165 879.596 506.827 880.341 505.903C881.091 504.975 882.204 504.499 883.682 504.478H883.898ZM882.309 508.767C881.895 508.767 881.513 508.891 881.165 509.139C880.816 509.388 880.574 509.699 880.439 510.074V510.519C880.439 511.303 880.616 511.935 880.969 512.415C881.322 512.894 881.762 513.134 882.289 513.134C882.834 513.134 883.261 512.934 883.571 512.533C883.885 512.132 884.041 511.606 884.041 510.957C884.041 510.303 883.882 509.776 883.564 509.375C883.25 508.969 882.832 508.767 882.309 508.767Z" fill="white"/>
<path id="Vector_56" d="M289 391.3H262.6C260.9 391.3 259.6 390 259.6 388.3V358.6C259.6 356.9 260.9 355.6 262.6 355.6H289C290.7 355.6 292 356.9 292 358.6V388.3C292 390 290.7 391.3 289 391.3Z" stroke="#B6B6B6" stroke-miterlimit="10"/>
<path id="42" d="M292.9 383.6H258.7C257 383.6 255.7 382.3 255.7 380.6V366.3C255.7 364.6 257 363.3 258.7 363.3H292.9C294.6 363.3 295.9 364.6 295.9 366.3V380.6C295.9 382.3 294.6 383.6 292.9 383.6Z" fill="#308410"/>
<path id="6_22" d="M278.718 368.028V369.054H278.496C277.554 369.072 276.804 369.351 276.247 369.891C275.689 370.432 275.366 371.192 275.279 372.173C275.78 371.598 276.464 371.31 277.332 371.31C278.16 371.31 278.82 371.602 279.313 372.186C279.81 372.77 280.058 373.524 280.058 374.448C280.058 375.429 279.79 376.213 279.254 376.802C278.722 377.39 278.007 377.684 277.11 377.684C276.199 377.684 275.46 377.336 274.893 376.638C274.327 375.937 274.043 375.034 274.043 373.932V373.467C274.043 371.715 274.416 370.377 275.161 369.453C275.911 368.525 277.025 368.05 278.502 368.028H278.718ZM277.129 372.317C276.715 372.317 276.334 372.441 275.985 372.689C275.636 372.938 275.394 373.249 275.259 373.624V374.069C275.259 374.853 275.436 375.485 275.789 375.965C276.142 376.444 276.582 376.684 277.11 376.684C277.654 376.684 278.082 376.484 278.391 376.083C278.705 375.682 278.862 375.156 278.862 374.507C278.862 373.853 278.703 373.326 278.384 372.925C278.071 372.519 277.652 372.317 277.129 372.317Z" fill="white"/>
<path id="Vector_57" d="M366.4 391.3H340C338.3 391.3 337 390 337 388.3V358.6C337 356.9 338.3 355.6 340 355.6H366.4C368.1 355.6 369.4 356.9 369.4 358.6V388.3C369.4 390 368.1 391.3 366.4 391.3Z" stroke="#B6B6B6" stroke-miterlimit="10"/>
<path id="41" d="M370.3 383.6H336.1C334.4 383.6 333.1 382.3 333.1 380.6V366.3C333.1 364.6 334.4 363.3 336.1 363.3H370.3C372 363.3 373.3 364.6 373.3 366.3V380.6C373.3 382.3 372 383.6 370.3 383.6Z" fill="#308410"/>
<path id="6_23" d="M356.108 368.028V369.054H355.886C354.944 369.072 354.195 369.351 353.637 369.891C353.079 370.432 352.756 371.192 352.669 372.173C353.17 371.598 353.855 371.31 354.722 371.31C355.55 371.31 356.211 371.602 356.703 372.186C357.2 372.77 357.448 373.524 357.448 374.448C357.448 375.429 357.18 376.213 356.644 376.802C356.112 377.39 355.398 377.684 354.5 377.684C353.589 377.684 352.85 377.336 352.283 376.638C351.717 375.937 351.433 375.034 351.433 373.932V373.467C351.433 371.715 351.806 370.377 352.551 369.453C353.301 368.525 354.415 368.05 355.892 368.028H356.108ZM354.519 372.317C354.105 372.317 353.724 372.441 353.375 372.689C353.026 372.938 352.785 373.249 352.649 373.624V374.069C352.649 374.853 352.826 375.485 353.179 375.965C353.532 376.444 353.972 376.684 354.5 376.684C355.045 376.684 355.472 376.484 355.781 376.083C356.095 375.682 356.252 375.156 356.252 374.507C356.252 373.853 356.093 373.326 355.775 372.925C355.461 372.519 355.042 372.317 354.519 372.317Z" fill="white"/>
<path id="Vector_58" d="M439.7 391.3H413.3C411.6 391.3 410.3 390 410.3 388.3V358.6C410.3 356.9 411.6 355.6 413.3 355.6H439.7C441.4 355.6 442.7 356.9 442.7 358.6V388.3C442.7 390 441.3 391.3 439.7 391.3Z" stroke="#B6B6B6" stroke-miterlimit="10"/>
<path id="40" d="M443.6 383.6H409.4C407.7 383.6 406.4 382.3 406.4 380.6V366.3C406.4 364.6 407.7 363.3 409.4 363.3H443.6C445.3 363.3 446.6 364.6 446.6 366.3V380.6C446.6 382.3 445.2 383.6 443.6 383.6Z" fill="#308410"/>
<path id="6_24" d="M429.378 368.028V369.054H429.156C428.214 369.072 427.465 369.351 426.907 369.891C426.349 370.432 426.026 371.192 425.939 372.173C426.44 371.598 427.125 371.31 427.992 371.31C428.82 371.31 429.481 371.602 429.973 372.186C430.47 372.77 430.718 373.524 430.718 374.448C430.718 375.429 430.45 376.213 429.914 376.802C429.382 377.39 428.668 377.684 427.77 377.684C426.859 377.684 426.12 377.336 425.553 376.638C424.987 375.937 424.703 375.034 424.703 373.932V373.467C424.703 371.715 425.076 370.377 425.821 369.453C426.571 368.525 427.685 368.05 429.162 368.028H429.378ZM427.789 372.317C427.375 372.317 426.994 372.441 426.645 372.689C426.296 372.938 426.055 373.249 425.919 373.624V374.069C425.919 374.853 426.096 375.485 426.449 375.965C426.802 376.444 427.242 376.684 427.77 376.684C428.315 376.684 428.742 376.484 429.051 376.083C429.365 375.682 429.522 375.156 429.522 374.507C429.522 373.853 429.363 373.326 429.045 372.925C428.731 372.519 428.312 372.317 427.789 372.317Z" fill="white"/>
<path id="Vector_59" d="M515.3 391.3H488.9C487.2 391.3 485.9 390 485.9 388.3V358.6C485.9 356.9 487.2 355.6 488.9 355.6H515.3C517 355.6 518.3 356.9 518.3 358.6V388.3C518.3 390 517 391.3 515.3 391.3Z" stroke="#B6B6B6" stroke-miterlimit="10"/>
<path id="39" d="M519.2 383.6H485C483.3 383.6 482 382.3 482 380.6V366.3C482 364.6 483.3 363.3 485 363.3H519.2C520.9 363.3 522.2 364.6 522.2 366.3V380.6C522.2 382.3 520.9 383.6 519.2 383.6Z" fill="#308410"/>
<path id="6_25" d="M505.018 368.028V369.054H504.795C503.854 369.072 503.104 369.351 502.546 369.891C501.988 370.432 501.666 371.192 501.579 372.173C502.08 371.598 502.764 371.31 503.632 371.31C504.46 371.31 505.12 371.602 505.613 372.186C506.11 372.77 506.358 373.524 506.358 374.448C506.358 375.429 506.09 376.213 505.554 376.802C505.022 377.39 504.307 377.684 503.409 377.684C502.498 377.684 501.76 377.336 501.193 376.638C500.626 375.937 500.343 375.034 500.343 373.932V373.467C500.343 371.715 500.716 370.377 501.461 369.453C502.211 368.525 503.324 368.05 504.802 368.028H505.018ZM503.429 372.317C503.015 372.317 502.634 372.441 502.285 372.689C501.936 372.938 501.694 373.249 501.559 373.624V374.069C501.559 374.853 501.736 375.485 502.089 375.965C502.442 376.444 502.882 376.684 503.409 376.684C503.954 376.684 504.381 376.484 504.691 376.083C505.005 375.682 505.162 375.156 505.162 374.507C505.162 373.853 505.002 373.326 504.684 372.925C504.37 372.519 503.952 372.317 503.429 372.317Z" fill="white"/>
<path id="Vector_60" d="M585.4 391.3H559C557.3 391.3 556 390 556 388.3V358.6C556 356.9 557.3 355.6 559 355.6H585.4C587.1 355.6 588.4 356.9 588.4 358.6V388.3C588.4 390 587.1 391.3 585.4 391.3Z" stroke="#B6B6B6" stroke-miterlimit="10"/>
<path id="38" d="M589.3 383.6H555.1C553.4 383.6 552.1 382.3 552.1 380.6V366.3C552.1 364.6 553.4 363.3 555.1 363.3H589.3C591 363.3 592.3 364.6 592.3 366.3V380.6C592.3 382.3 591 383.6 589.3 383.6Z" fill="#308410"/>
<path id="6_26" d="M575.118 368.028V369.054H574.896C573.954 369.072 573.204 369.351 572.646 369.891C572.089 370.432 571.766 371.192 571.679 372.173C572.18 371.598 572.864 371.31 573.732 371.31C574.56 371.31 575.22 371.602 575.713 372.186C576.21 372.77 576.458 373.524 576.458 374.448C576.458 375.429 576.19 376.213 575.654 376.802C575.122 377.39 574.407 377.684 573.509 377.684C572.598 377.684 571.86 377.336 571.293 376.638C570.726 375.937 570.443 375.034 570.443 373.932V373.467C570.443 371.715 570.816 370.377 571.561 369.453C572.311 368.525 573.424 368.05 574.902 368.028H575.118ZM573.529 372.317C573.115 372.317 572.734 372.441 572.385 372.689C572.036 372.938 571.794 373.249 571.659 373.624V374.069C571.659 374.853 571.836 375.485 572.189 375.965C572.542 376.444 572.982 376.684 573.509 376.684C574.054 376.684 574.481 376.484 574.791 376.083C575.105 375.682 575.262 375.156 575.262 374.507C575.262 373.853 575.103 373.326 574.784 372.925C574.471 372.519 574.052 372.317 573.529 372.317Z" fill="white"/>
<path id="Vector_61" d="M881.9 380.9H855.5C853.8 380.9 852.5 379.6 852.5 377.9V348.2C852.5 346.5 853.8 345.2 855.5 345.2H881.9C883.6 345.2 884.9 346.5 884.9 348.2V377.9C884.9 379.6 883.6 380.9 881.9 380.9Z" stroke="#B6B6B6" stroke-miterlimit="10"/>
<path id="1" d="M885.8 373.2H851.6C849.9 373.2 848.6 371.9 848.6 370.2V355.9C848.6 354.2 849.9 352.9 851.6 352.9H885.8C887.5 352.9 888.8 354.2 888.8 355.9V370.2C888.8 371.9 887.5 373.2 885.8 373.2Z" fill="#308410"/>
<path id="6_27" d="M871.628 357.628V358.654H871.405C870.464 358.672 869.714 358.951 869.156 359.491C868.598 360.032 868.276 360.792 868.189 361.773C868.69 361.198 869.374 360.91 870.242 360.91C871.07 360.91 871.73 361.202 872.223 361.786C872.719 362.37 872.968 363.124 872.968 364.048C872.968 365.029 872.7 365.814 872.164 366.402C871.632 366.99 870.917 367.285 870.019 367.285C869.108 367.285 868.369 366.936 867.803 366.238C867.236 365.537 866.953 364.634 866.953 363.532V363.068C866.953 361.315 867.326 359.977 868.071 359.053C868.821 358.125 869.934 357.65 871.412 357.628H871.628ZM870.039 361.917C869.625 361.917 869.243 362.041 868.895 362.289C868.546 362.538 868.304 362.85 868.169 363.224V363.669C868.169 364.454 868.345 365.086 868.699 365.565C869.052 366.045 869.492 366.284 870.019 366.284C870.564 366.284 870.991 366.084 871.301 365.683C871.615 365.282 871.771 364.757 871.771 364.107C871.771 363.453 871.612 362.926 871.294 362.525C870.98 362.119 870.562 361.917 870.039 361.917Z" fill="white"/>
<path id="Vector_62" d="M938.9 380.9H912.5C910.8 380.9 909.5 379.6 909.5 377.9V348.2C909.5 346.5 910.8 345.2 912.5 345.2H938.9C940.6 345.2 941.9 346.5 941.9 348.2V377.9C941.9 379.6 940.6 380.9 938.9 380.9Z" stroke="#B6B6B6" stroke-miterlimit="10"/>
<path id="2" d="M942.8 373.2H908.6C906.9 373.2 905.6 371.9 905.6 370.2V355.9C905.6 354.2 906.9 352.9 908.6 352.9H942.8C944.5 352.9 945.8 354.2 945.8 355.9V370.2C945.8 371.9 944.5 373.2 942.8 373.2Z" fill="#308410"/>
<path id="6_28" d="M928.628 357.628V358.654H928.405C927.464 358.672 926.714 358.951 926.156 359.491C925.598 360.032 925.276 360.792 925.189 361.773C925.69 361.198 926.374 360.91 927.242 360.91C928.07 360.91 928.73 361.202 929.223 361.786C929.719 362.37 929.968 363.124 929.968 364.048C929.968 365.029 929.7 365.814 929.164 366.402C928.632 366.99 927.917 367.285 927.019 367.285C926.108 367.285 925.369 366.936 924.803 366.238C924.236 365.537 923.953 364.634 923.953 363.532V363.068C923.953 361.315 924.326 359.977 925.071 359.053C925.821 358.125 926.934 357.65 928.412 357.628H928.628ZM927.039 361.917C926.625 361.917 926.243 362.041 925.895 362.289C925.546 362.538 925.304 362.85 925.169 363.224V363.669C925.169 364.454 925.345 365.086 925.699 365.565C926.052 366.045 926.492 366.284 927.019 366.284C927.564 366.284 927.991 366.084 928.301 365.683C928.615 365.282 928.771 364.757 928.771 364.107C928.771 363.453 928.612 362.926 928.294 362.525C927.98 362.119 927.562 361.917 927.039 361.917Z" fill="white"/>
<path id="Vector_63" d="M188.7 245.9V276.1C188.7 277.8 187.4 279.1 185.7 279.1H151.7C150 279.1 148.7 277.8 148.7 276.1V245.9C148.7 244.2 150 242.9 151.7 242.9H185.7C187.3 242.9 188.7 244.3 188.7 245.9Z" stroke="#B6B6B6" stroke-miterlimit="10"/>
<path id="60" d="M180.1 241.5V280.5C180.1 282.2 178.8 283.5 177.1 283.5H160.4C158.7 283.5 157.4 282.2 157.4 280.5V241.5C157.4 239.8 158.7 238.5 160.4 238.5H177.1C178.7 238.5 180.1 239.9 180.1 241.5Z" fill="#308410"/>
<path id="6_29" d="M171.904 254.403V255.552H171.655C170.6 255.572 169.76 255.885 169.135 256.49C168.51 257.095 168.149 257.948 168.051 259.046C168.613 258.402 169.379 258.079 170.351 258.079C171.279 258.079 172.019 258.406 172.57 259.061C173.127 259.715 173.405 260.56 173.405 261.595C173.405 262.694 173.105 263.573 172.504 264.232C171.909 264.891 171.108 265.22 170.102 265.22C169.082 265.22 168.254 264.83 167.619 264.049C166.984 263.262 166.667 262.252 166.667 261.016V260.496C166.667 258.533 167.084 257.034 167.919 255.999C168.759 254.959 170.007 254.427 171.662 254.403H171.904ZM170.124 259.207C169.66 259.207 169.233 259.346 168.842 259.625C168.452 259.903 168.181 260.252 168.029 260.672V261.17C168.029 262.049 168.227 262.757 168.623 263.294C169.018 263.831 169.511 264.1 170.102 264.1C170.712 264.1 171.191 263.875 171.538 263.426C171.889 262.977 172.065 262.388 172.065 261.661C172.065 260.928 171.887 260.338 171.53 259.888C171.179 259.434 170.71 259.207 170.124 259.207Z" fill="white"/>
<path id="Vector_64" d="M89.6001 275.8V325.6C89.6001 327.3 88.3001 328.6 86.6001 328.6H52.6001C50.9001 328.6 49.6001 327.3 49.6001 325.6V275.8C49.6001 274.1 50.9001 272.8 52.6001 272.8H86.6001C88.3001 272.8 89.6001 274.1 89.6001 275.8Z" stroke="#B6B6B6" stroke-miterlimit="10"/>
<path id="62" d="M80.9998 269.1V332.4C80.9998 334.1 79.6998 335.4 77.9998 335.4H61.2998C59.5998 335.4 58.2998 334.1 58.2998 332.4V269.1C58.2998 267.4 59.5998 266.1 61.2998 266.1H77.9998C79.6998 266.1 80.9998 267.4 80.9998 269.1Z" fill="#308410"/>
<path id="9_2" d="M72.7295 298.276C72.4463 298.613 72.1069 298.884 71.7114 299.089C71.3208 299.294 70.8911 299.397 70.4224 299.397C69.8071 299.397 69.27 299.246 68.811 298.943C68.3569 298.64 68.0054 298.215 67.7563 297.668C67.5073 297.117 67.3828 296.509 67.3828 295.845C67.3828 295.132 67.5171 294.49 67.7856 293.918C68.0591 293.347 68.4448 292.91 68.9429 292.607C69.4409 292.305 70.022 292.153 70.686 292.153C71.7407 292.153 72.5708 292.549 73.1763 293.34C73.7866 294.126 74.0918 295.2 74.0918 296.562V296.958C74.0918 299.033 73.6816 300.549 72.8613 301.506C72.041 302.458 70.8032 302.947 69.1479 302.971H68.8843V301.829H69.1699C70.2881 301.809 71.1475 301.519 71.748 300.957C72.3486 300.391 72.6758 299.497 72.7295 298.276ZM70.6421 298.276C71.0962 298.276 71.5137 298.137 71.8945 297.859C72.2803 297.581 72.561 297.236 72.7368 296.826V296.284C72.7368 295.396 72.5439 294.673 72.1582 294.116C71.7725 293.56 71.2842 293.281 70.6934 293.281C70.0977 293.281 69.6191 293.511 69.2578 293.97C68.8965 294.424 68.7158 295.024 68.7158 295.771C68.7158 296.499 68.8892 297.1 69.2358 297.573C69.5874 298.042 70.0562 298.276 70.6421 298.276Z" fill="white"/>
<path id="Vector_65" d="M426.5 222.5V272.3C426.5 274 425.2 275.3 423.5 275.3H389.5C387.8 275.3 386.5 274 386.5 272.3V222.5C386.5 220.8 387.8 219.5 389.5 219.5H423.5C425.1 219.5 426.5 220.8 426.5 222.5Z" stroke="#B6B6B6" stroke-miterlimit="10"/>
<path id="65" d="M417.9 215.8V279C417.9 280.7 416.6 282 414.9 282H398.2C396.5 282 395.2 280.7 395.2 279V215.7C395.2 214 396.5 212.7 398.2 212.7H414.9C416.5 212.8 417.9 214.1 417.9 215.8Z" fill="#308410"/>
<path id="9_3" d="M409.599 244.957C409.316 245.293 408.977 245.564 408.581 245.77C408.19 245.975 407.761 246.077 407.292 246.077C406.677 246.077 406.14 245.926 405.681 245.623C405.227 245.32 404.875 244.896 404.626 244.349C404.377 243.797 404.252 243.189 404.252 242.525C404.252 241.812 404.387 241.17 404.655 240.599C404.929 240.027 405.314 239.59 405.812 239.288C406.311 238.985 406.892 238.833 407.556 238.833C408.61 238.833 409.44 239.229 410.046 240.02C410.656 240.806 410.961 241.88 410.961 243.243V243.638C410.961 245.713 410.551 247.229 409.731 248.187C408.911 249.139 407.673 249.627 406.018 249.651H405.754V248.509H406.04C407.158 248.489 408.017 248.199 408.618 247.637C409.218 247.071 409.545 246.177 409.599 244.957ZM407.512 244.957C407.966 244.957 408.383 244.817 408.764 244.539C409.15 244.261 409.431 243.917 409.606 243.506V242.964C409.606 242.076 409.414 241.353 409.028 240.796C408.642 240.24 408.154 239.961 407.563 239.961C406.967 239.961 406.489 240.191 406.127 240.65C405.766 241.104 405.585 241.705 405.585 242.452C405.585 243.179 405.759 243.78 406.105 244.253C406.457 244.722 406.926 244.957 407.512 244.957Z" fill="white"/>
<path id="Vector_66" d="M309.4 213.4H325.9C327.6 213.4 328.9 214.7 328.9 216.4V237.9C328.9 239.6 327.6 240.9 325.9 240.9H309.4C307.7 240.9 306.4 239.6 306.4 237.9V216.4C306.4 214.8 307.7 213.4 309.4 213.4Z" stroke="#B6B6B6" stroke-miterlimit="10"/>
<path id="63" d="M306.7 219.4H328.6C330.3 219.4 331.6 220.7 331.6 222.4V232C331.6 233.7 330.3 235 328.6 235H306.7C305 235 303.7 233.7 303.7 232V222.4C303.7 220.7 305 219.4 306.7 219.4Z" fill="#308410"/>
<path id="4" d="M321.225 227.884H322.567V228.888H321.225V231.134H319.989V228.888H315.583V228.163L319.916 221.458H321.225V227.884ZM316.978 227.884H319.989V223.139L319.842 223.405L316.978 227.884Z" fill="white"/>
<path id="Vector_67" d="M292.3 424.4V407.9C292.3 406.2 293.6 404.9 295.3 404.9H316.8C318.5 404.9 319.8 406.2 319.8 407.9V424.4C319.8 426.1 318.5 427.4 316.8 427.4H295.3C293.7 427.4 292.3 426.1 292.3 424.4Z" stroke="#B6B6B6" stroke-miterlimit="10"/>
<path id="25" d="M298.3 427.1V405.2C298.3 403.5 299.6 402.2 301.3 402.2H310.9C312.6 402.2 313.9 403.5 313.9 405.2V427.1C313.9 428.8 312.6 430.1 310.9 430.1H301.3C299.6 430.1 298.3 428.8 298.3 427.1Z" fill="#308410"/>
<path id="4_2" d="M309.705 416.874H311.047V417.878H309.705V420.124H308.469V417.878H304.063V417.153L308.396 410.448H309.705V416.874ZM305.458 416.874H308.469V412.129L308.322 412.395L305.458 416.874Z" fill="white"/>
<path id="Vector_68" d="M333.8 424.4V407.9C333.8 406.2 335.1 404.9 336.8 404.9H358.3C360 404.9 361.3 406.2 361.3 407.9V424.4C361.3 426.1 360 427.4 358.3 427.4H336.8C335.1 427.4 333.8 426.1 333.8 424.4Z" stroke="#B6B6B6" stroke-miterlimit="10"/>
<path id="27" d="M339.7 427.1V405.2C339.7 403.5 341 402.2 342.7 402.2H352.3C354 402.2 355.3 403.5 355.3 405.2V427.1C355.3 428.8 354 430.1 352.3 430.1H342.7C341.1 430.1 339.7 428.8 339.7 427.1Z" fill="#308410"/>
<path id="4_3" d="M351.154 416.874H352.497V417.878H351.154V420.124H349.918V417.878H345.512V417.153L349.845 410.448H351.154V416.874ZM346.908 416.874H349.918V412.129L349.772 412.395L346.908 416.874Z" fill="white"/>
<path id="Vector_69" d="M375.3 424.4V407.9C375.3 406.2 376.6 404.9 378.3 404.9H399.8C401.5 404.9 402.8 406.2 402.8 407.9V424.4C402.8 426.1 401.5 427.4 399.8 427.4H378.3C376.6 427.4 375.3 426.1 375.3 424.4Z" stroke="#B6B6B6" stroke-miterlimit="10"/>
<path id="29" d="M381.2 427.1V405.2C381.2 403.5 382.5 402.2 384.2 402.2H393.8C395.5 402.2 396.8 403.5 396.8 405.2V427.1C396.8 428.8 395.5 430.1 393.8 430.1H384.2C382.5 430.1 381.2 428.8 381.2 427.1Z" fill="#308410"/>
<path id="4_4" d="M392.614 416.874H393.957V417.878H392.614V420.124H391.378V417.878H386.972V417.153L391.305 410.448H392.614V416.874ZM388.368 416.874H391.378V412.129L391.232 412.395L388.368 416.874Z" fill="white"/>
<path id="Vector_70" d="M416.7 424.4V407.9C416.7 406.2 418 404.9 419.7 404.9H441.2C442.9 404.9 444.2 406.2 444.2 407.9V424.4C444.2 426.1 442.9 427.4 441.2 427.4H419.7C418 427.4 416.7 426.1 416.7 424.4Z" stroke="#B6B6B6" stroke-miterlimit="10"/>
<path id="31" d="M422.6 427.1V405.2C422.6 403.5 423.9 402.2 425.6 402.2H435.2C436.9 402.2 438.2 403.5 438.2 405.2V427.1C438.2 428.8 436.9 430.1 435.2 430.1H425.6C424 430.1 422.6 428.8 422.6 427.1Z" fill="#308410"/>
<path id="4_5" d="M434.065 416.874H435.407V417.878H434.065V420.124H432.828V417.878H428.423V417.153L432.755 410.448H434.065V416.874ZM429.818 416.874H432.828V412.129L432.682 412.395L429.818 416.874Z" fill="white"/>
<path id="Vector_71" d="M458.2 424.4V407.9C458.2 406.2 459.5 404.9 461.2 404.9H482.7C484.4 404.9 485.7 406.2 485.7 407.9V424.4C485.7 426.1 484.4 427.4 482.7 427.4H461.2C459.5 427.4 458.2 426.1 458.2 424.4Z" stroke="#B6B6B6" stroke-miterlimit="10"/>
<path id="33" d="M464.1 427.1V405.2C464.1 403.5 465.4 402.2 467.1 402.2H476.7C478.4 402.2 479.7 403.5 479.7 405.2V427.1C479.7 428.8 478.4 430.1 476.7 430.1H467.1C465.4 430.1 464.1 428.8 464.1 427.1Z" fill="#308410"/>
<path id="4_6" d="M475.525 416.874H476.867V417.878H475.525V420.124H474.288V417.878H469.882V417.153L474.215 410.448H475.525V416.874ZM471.278 416.874H474.288V412.129L474.142 412.395L471.278 416.874Z" fill="white"/>
<path id="Vector_72" d="M499.6 424.4V407.9C499.6 406.2 500.9 404.9 502.6 404.9H524.1C525.8 404.9 527.1 406.2 527.1 407.9V424.4C527.1 426.1 525.8 427.4 524.1 427.4H502.6C501 427.4 499.6 426.1 499.6 424.4Z" stroke="#B6B6B6" stroke-miterlimit="10"/>
<path id="35" d="M505.5 427.1V405.2C505.5 403.5 506.8 402.2 508.5 402.2H518.1C519.8 402.2 521.1 403.5 521.1 405.2V427.1C521.1 428.8 519.8 430.1 518.1 430.1H508.5C506.9 430.1 505.5 428.8 505.5 427.1Z" fill="#308410"/>
<path id="4_7" d="M516.974 416.874H518.317V417.878H516.974V420.124H515.738V417.878H511.332V417.153L515.665 410.448H516.974V416.874ZM512.728 416.874H515.738V412.129L515.592 412.395L512.728 416.874Z" fill="white"/>
<path id="Vector_73" d="M541.1 424.4V407.9C541.1 406.2 542.4 404.9 544.1 404.9H565.6C567.3 404.9 568.6 406.2 568.6 407.9V424.4C568.6 426.1 567.3 427.4 565.6 427.4H544.1C542.4 427.4 541.1 426.1 541.1 424.4Z" stroke="#B6B6B6" stroke-miterlimit="10"/>
<path id="37" d="M547 427.1V405.2C547 403.5 548.3 402.2 550 402.2H559.6C561.3 402.2 562.6 403.5 562.6 405.2V427.1C562.6 428.8 561.3 430.1 559.6 430.1H550C548.3 430.1 547 428.8 547 427.1Z" fill="#308410"/>
<path id="4_8" d="M558.434 416.874H559.777V417.878H558.434V420.124H557.198V417.878H552.792V417.153L557.125 410.448H558.434V416.874ZM554.188 416.874H557.198V412.129L557.052 412.395L554.188 416.874Z" fill="white"/>
<path id="Vector_74" d="M858.1 417.4V400.9C858.1 399.2 859.4 397.9 861.1 397.9H882.6C884.3 397.9 885.6 399.2 885.6 400.9V417.4C885.6 419.1 884.3 420.4 882.6 420.4H861.1C859.5 420.4 858.1 419.1 858.1 417.4Z" stroke="#B6B6B6" stroke-miterlimit="10"/>
<path id="3" d="M864.1 420.1V398.2C864.1 396.5 865.4 395.2 867.1 395.2H876.7C878.4 395.2 879.7 396.5 879.7 398.2V420.1C879.7 421.8 878.4 423.1 876.7 423.1H867.1C865.4 423.1 864.1 421.8 864.1 420.1Z" fill="#308410"/>
<path id="4_9" d="M875.504 409.844H876.846V410.848H875.504V413.094H874.268V410.848H869.862V410.123L874.195 403.418H875.504V409.844ZM871.258 409.844H874.268V405.099L874.122 405.365L871.258 409.844Z" fill="white"/>
<path id="Vector_75" d="M912.1 417.4V400.9C912.1 399.2 913.4 397.9 915.1 397.9H936.6C938.3 397.9 939.6 399.2 939.6 400.9V417.4C939.6 419.1 938.3 420.4 936.6 420.4H915.1C913.5 420.4 912.1 419.1 912.1 417.4Z" stroke="#B6B6B6" stroke-miterlimit="10"/>
<path id="5" d="M918.1 420.1V398.2C918.1 396.5 919.4 395.2 921.1 395.2H930.7C932.4 395.2 933.7 396.5 933.7 398.2V420.1C933.7 421.8 932.4 423.1 930.7 423.1H921.1C919.4 423.1 918.1 421.8 918.1 420.1Z" fill="#308410"/>
<path id="4_10" d="M929.504 409.844H930.846V410.848H929.504V413.094H928.268V410.848H923.862V410.123L928.195 403.418H929.504V409.844ZM925.258 409.844H928.268V405.099L928.122 405.365L925.258 409.844Z" fill="white"/>
<path id="Vector_76" d="M858.1 452.4V435.9C858.1 434.2 859.4 432.9 861.1 432.9H882.6C884.3 432.9 885.6 434.2 885.6 435.9V452.4C885.6 454.1 884.3 455.4 882.6 455.4H861.1C859.5 455.4 858.1 454.1 858.1 452.4Z" stroke="#B6B6B6" stroke-miterlimit="10"/>
<path id="4_11" d="M864.1 455.1V433.2C864.1 431.5 865.4 430.2 867.1 430.2H876.7C878.4 430.2 879.7 431.5 879.7 433.2V455.1C879.7 456.8 878.4 458.1 876.7 458.1H867.1C865.4 458.1 864.1 456.8 864.1 455.1Z" fill="#308410"/>
<path id="4_12" d="M875.504 444.844H876.846V445.848H875.504V448.094H874.268V445.848H869.862V445.123L874.195 438.418H875.504V444.844ZM871.258 444.844H874.268V440.099L874.122 440.365L871.258 444.844Z" fill="white"/>
<path id="Vector_77" d="M912.1 452.4V435.9C912.1 434.2 913.4 432.9 915.1 432.9H936.6C938.3 432.9 939.6 434.2 939.6 435.9V452.4C939.6 454.1 938.3 455.4 936.6 455.4H915.1C913.5 455.4 912.1 454.1 912.1 452.4Z" stroke="#B6B6B6" stroke-miterlimit="10"/>
<path id="6_30" d="M918.1 455.1V433.2C918.1 431.5 919.4 430.2 921.1 430.2H930.7C932.4 430.2 933.7 431.5 933.7 433.2V455.1C933.7 456.8 932.4 458.1 930.7 458.1H921.1C919.4 458.1 918.1 456.8 918.1 455.1Z" fill="#308410"/>
<path id="4_13" d="M929.504 444.844H930.846V445.848H929.504V448.094H928.268V445.848H923.862V445.123L928.195 438.418H929.504V444.844ZM925.258 444.844H928.268V440.099L928.122 440.365L925.258 444.844Z" fill="white"/>
<path id="Vector_78" d="M292.3 457.3V440.8C292.3 439.1 293.6 437.8 295.3 437.8H316.8C318.5 437.8 319.8 439.1 319.8 440.8V457.3C319.8 459 318.5 460.3 316.8 460.3H295.3C293.7 460.3 292.3 458.9 292.3 457.3Z" stroke="#B6B6B6" stroke-miterlimit="10"/>
<path id="24" d="M298.3 460V438.1C298.3 436.4 299.6 435.1 301.3 435.1H310.9C312.6 435.1 313.9 436.4 313.9 438.1V460C313.9 461.7 312.6 463 310.9 463H301.3C299.6 463 298.3 461.6 298.3 460Z" fill="#308410"/>
<path id="4_14" d="M309.705 449.724H311.047V450.727H309.705V452.974H308.469V450.727H304.063V450.003L308.396 443.298H309.705V449.724ZM305.458 449.724H308.469V444.979L308.322 445.245L305.458 449.724Z" fill="white"/>
<path id="Vector_79" d="M333.8 457.3V440.8C333.8 439.1 335.1 437.8 336.8 437.8H358.3C360 437.8 361.3 439.1 361.3 440.8V457.3C361.3 459 360 460.3 358.3 460.3H336.8C335.1 460.3 333.8 458.9 333.8 457.3Z" stroke="#B6B6B6" stroke-miterlimit="10"/>
<path id="26" d="M339.7 460V438.1C339.7 436.4 341 435.1 342.7 435.1H352.3C354 435.1 355.3 436.4 355.3 438.1V460C355.3 461.7 354 463 352.3 463H342.7C341.1 463 339.7 461.6 339.7 460Z" fill="#308410"/>
<path id="4_15" d="M351.154 449.724H352.497V450.727H351.154V452.974H349.918V450.727H345.512V450.003L349.845 443.298H351.154V449.724ZM346.908 449.724H349.918V444.979L349.772 445.245L346.908 449.724Z" fill="white"/>
<path id="Vector_80" d="M375.3 457.3V440.8C375.3 439.1 376.6 437.8 378.3 437.8H399.8C401.5 437.8 402.8 439.1 402.8 440.8V457.3C402.8 459 401.5 460.3 399.8 460.3H378.3C376.6 460.3 375.3 458.9 375.3 457.3Z" stroke="#B6B6B6" stroke-miterlimit="10"/>
<path id="28" d="M381.2 460V438C381.2 436.3 382.5 435 384.2 435H393.8C395.5 435 396.8 436.3 396.8 438V460C396.8 461.7 395.5 463 393.8 463H384.2C382.5 463 381.2 461.6 381.2 460Z" fill="#308410"/>
<path id="4_16" d="M392.614 449.724H393.957V450.727H392.614V452.974H391.378V450.727H386.972V450.003L391.305 443.298H392.614V449.724ZM388.368 449.724H391.378V444.979L391.232 445.245L388.368 449.724Z" fill="white"/>
<path id="Vector_81" d="M416.7 457.3V440.8C416.7 439.1 418 437.8 419.7 437.8H441.2C442.9 437.8 444.2 439.1 444.2 440.8V457.3C444.2 459 442.9 460.3 441.2 460.3H419.7C418 460.3 416.7 458.9 416.7 457.3Z" stroke="#B6B6B6" stroke-miterlimit="10"/>
<path id="30" d="M422.6 460V438.1C422.6 436.4 423.9 435.1 425.6 435.1H435.2C436.9 435.1 438.2 436.4 438.2 438.1V460C438.2 461.7 436.9 463 435.2 463H425.6C424 463 422.6 461.6 422.6 460Z" fill="#308410"/>
<path id="4_17" d="M434.065 449.724H435.407V450.727H434.065V452.974H432.828V450.727H428.423V450.003L432.755 443.298H434.065V449.724ZM429.818 449.724H432.828V444.979L432.682 445.245L429.818 449.724Z" fill="white"/>
<path id="Vector_82" d="M458.2 457.3V440.8C458.2 439.1 459.5 437.8 461.2 437.8H482.7C484.4 437.8 485.7 439.1 485.7 440.8V457.3C485.7 459 484.4 460.3 482.7 460.3H461.2C459.5 460.3 458.2 458.9 458.2 457.3Z" stroke="#B6B6B6" stroke-miterlimit="10"/>
<path id="32" d="M464.1 460V438C464.1 436.3 465.4 435 467.1 435H476.7C478.4 435 479.7 436.3 479.7 438V460C479.7 461.7 478.4 463 476.7 463H467.1C465.4 463 464.1 461.6 464.1 460Z" fill="#308410"/>
<path id="4_18" d="M475.525 449.724H476.867V450.727H475.525V452.974H474.288V450.727H469.882V450.003L474.215 443.298H475.525V449.724ZM471.278 449.724H474.288V444.979L474.142 445.245L471.278 449.724Z" fill="white"/>
<path id="Vector_83" d="M499.6 457.3V440.8C499.6 439.1 500.9 437.8 502.6 437.8H524.1C525.8 437.8 527.1 439.1 527.1 440.8V457.3C527.1 459 525.8 460.3 524.1 460.3H502.6C501 460.3 499.6 458.9 499.6 457.3Z" stroke="#B6B6B6" stroke-miterlimit="10"/>
<path id="34" d="M505.5 460V438.1C505.5 436.4 506.8 435.1 508.5 435.1H518.1C519.8 435.1 521.1 436.4 521.1 438.1V460C521.1 461.7 519.8 463 518.1 463H508.5C506.9 463 505.5 461.6 505.5 460Z" fill="#308410"/>
<path id="4_19" d="M516.974 449.724H518.317V450.727H516.974V452.974H515.738V450.727H511.332V450.003L515.665 443.298H516.974V449.724ZM512.728 449.724H515.738V444.979L515.592 445.245L512.728 449.724Z" fill="white"/>
<path id="Vector_84" d="M541.1 457.3V440.8C541.1 439.1 542.4 437.8 544.1 437.8H565.6C567.3 437.8 568.6 439.1 568.6 440.8V457.3C568.6 459 567.3 460.3 565.6 460.3H544.1C542.4 460.3 541.1 458.9 541.1 457.3Z" stroke="#B6B6B6" stroke-miterlimit="10"/>
<path id="36" d="M547 460V438C547 436.3 548.3 435 550 435H559.6C561.3 435 562.6 436.3 562.6 438V460C562.6 461.7 561.3 463 559.6 463H550C548.3 463 547 461.6 547 460Z" fill="#308410"/>
<path id="4_20" d="M558.434 449.724H559.777V450.727H558.434V452.974H557.198V450.727H552.792V450.003L557.125 443.298H558.434V449.724ZM554.188 449.724H557.198V444.979L557.052 445.245L554.188 449.724Z" fill="white"/>
</g>
<g id="&#208;&#161;&#208;&#187;&#208;&#190;&#208;&#185;_1-2_1_">
<path id="Vector_85" d="M1032.6 270.9H556.3V180.2H620V106H1032.6" stroke="#111111" stroke-width="6" stroke-miterlimit="10"/>
<path id="Vector_86" d="M981.2 0V106" stroke="#111111" stroke-width="6" stroke-miterlimit="10"/>
<path id="Vector_87" d="M822.5 111.2V161H998.3V149.2H834.5V111.2H822.5Z" stroke="#B6B6B6" stroke-miterlimit="10"/>
<path id="&#208;&#177;&#208;&#176;&#209;&#128;_2" d="M897.432 125.836C898.927 125.836 900.121 126.338 901.015 127.341C901.916 128.338 902.367 129.653 902.367 131.287V131.474C902.367 132.595 902.151 133.599 901.719 134.486C901.286 135.365 900.663 136.05 899.85 136.541C899.044 137.025 898.113 137.266 897.058 137.266C895.461 137.266 894.175 136.735 893.2 135.673C892.226 134.603 891.739 133.17 891.739 131.375V130.386C891.739 127.887 892.2 125.902 893.123 124.429C894.054 122.956 895.424 122.058 897.234 121.736C898.26 121.553 898.952 121.329 899.311 121.065C899.671 120.802 899.85 120.439 899.85 119.977H901.521C901.521 120.893 901.312 121.608 900.894 122.121C900.484 122.633 899.824 122.996 898.916 123.209L897.399 123.549C896.19 123.835 895.281 124.319 894.673 125C894.072 125.674 893.68 126.576 893.497 127.704C894.574 126.458 895.886 125.836 897.432 125.836ZM897.036 127.506C896.04 127.506 895.248 127.843 894.662 128.517C894.076 129.184 893.783 130.111 893.783 131.298V131.474C893.783 132.749 894.076 133.76 894.662 134.508C895.256 135.248 896.054 135.618 897.058 135.618C898.069 135.618 898.868 135.244 899.454 134.497C900.041 133.749 900.334 132.657 900.334 131.221C900.334 130.1 900.037 129.203 899.443 128.528C898.857 127.847 898.055 127.506 897.036 127.506ZM911.995 137.047C911.878 136.812 911.783 136.394 911.71 135.794C910.764 136.776 909.636 137.266 908.324 137.266C907.152 137.266 906.188 136.937 905.434 136.277C904.686 135.61 904.312 134.768 904.312 133.749C904.312 132.511 904.781 131.551 905.719 130.87C906.665 130.181 907.991 129.836 909.698 129.836H911.677V128.902C911.677 128.191 911.464 127.627 911.039 127.209C910.614 126.785 909.988 126.572 909.16 126.572C908.434 126.572 907.826 126.755 907.335 127.122C906.844 127.488 906.599 127.931 906.599 128.452H904.554C904.554 127.858 904.763 127.286 905.181 126.737C905.606 126.18 906.177 125.74 906.895 125.418C907.621 125.096 908.416 124.934 909.28 124.934C910.651 124.934 911.724 125.279 912.501 125.967C913.278 126.649 913.681 127.591 913.71 128.792V134.266C913.71 135.358 913.849 136.226 914.128 136.871V137.047H911.995ZM908.621 135.497C909.259 135.497 909.863 135.332 910.435 135.002C911.006 134.673 911.42 134.244 911.677 133.716V131.276H910.083C907.592 131.276 906.346 132.005 906.346 133.463C906.346 134.101 906.558 134.599 906.983 134.958C907.408 135.317 907.954 135.497 908.621 135.497ZM926.943 131.232C926.943 133.042 926.529 134.5 925.701 135.607C924.873 136.713 923.752 137.266 922.338 137.266C920.895 137.266 919.759 136.808 918.931 135.893V141.619H916.897V125.154H918.755L918.854 126.473C919.682 125.447 920.832 124.934 922.305 124.934C923.734 124.934 924.862 125.473 925.69 126.55C926.526 127.627 926.943 129.126 926.943 131.045V131.232ZM924.91 131.001C924.91 129.661 924.624 128.602 924.053 127.825C923.481 127.048 922.697 126.66 921.701 126.66C920.47 126.66 919.546 127.206 918.931 128.298V133.98C919.539 135.065 920.47 135.607 921.723 135.607C922.697 135.607 923.47 135.222 924.042 134.453C924.621 133.676 924.91 132.526 924.91 131.001Z" fill="#0C0C0C"/>
<path id="Vector_88" d="M973.1 234.6H963.8V243.9H973.1V234.6Z" stroke="#B6B6B6" stroke-miterlimit="10"/>
<path id="Vector_89" d="M986.8 234.6H977.5V243.9H986.8V234.6Z" stroke="#B6B6B6" stroke-miterlimit="10"/>
<path id="Vector_90" d="M1000.4 234.6H991.1V243.9H1000.4V234.6Z" stroke="#B6B6B6" stroke-miterlimit="10"/>
<path id="Vector_91" d="M1014.1 234.6H1004.8V243.9H1014.1V234.6Z" stroke="#B6B6B6" stroke-miterlimit="10"/>
<path id="Vector_92" d="M717.2 118.6V145C717.2 146.7 715.9 148 714.2 148H684.5C682.8 148 681.5 146.7 681.5 145V118.6C681.5 116.9 682.8 115.6 684.5 115.6H714.2C715.8 115.6 717.2 116.9 717.2 118.6Z" stroke="#B6B6B6" stroke-miterlimit="10"/>
<path id="75" d="M709.5 114.6V148.8C709.5 150.5 708.2 151.8 706.5 151.8H692.2C690.5 151.8 689.2 150.5 689.2 148.8V114.6C689.2 112.9 690.5 111.6 692.2 111.6H706.5C708.1 111.6 709.5 113 709.5 114.6Z" fill="#308410"/>
<path id="6_31" d="M702.193 126.315V127.341H701.971C701.029 127.358 700.28 127.637 699.722 128.178C699.164 128.718 698.841 129.479 698.754 130.46C699.255 129.884 699.94 129.597 700.807 129.597C701.635 129.597 702.295 129.889 702.788 130.473C703.285 131.057 703.533 131.811 703.533 132.735C703.533 133.716 703.265 134.5 702.729 135.089C702.197 135.677 701.483 135.971 700.585 135.971C699.674 135.971 698.935 135.623 698.368 134.925C697.802 134.223 697.518 133.321 697.518 132.218V131.754C697.518 130.002 697.891 128.664 698.636 127.74C699.386 126.811 700.5 126.336 701.977 126.315H702.193ZM700.604 130.604C700.19 130.604 699.809 130.728 699.46 130.976C699.111 131.225 698.87 131.536 698.734 131.911V132.356C698.734 133.14 698.911 133.772 699.264 134.252C699.617 134.731 700.057 134.971 700.585 134.971C701.13 134.971 701.557 134.771 701.866 134.37C702.18 133.969 702.337 133.443 702.337 132.794C702.337 132.14 702.178 131.613 701.86 131.212C701.546 130.806 701.127 130.604 700.604 130.604Z" fill="white"/>
<path id="Vector_93" d="M759.2 118.6V145C759.2 146.7 757.9 148 756.2 148H726.5C724.8 148 723.5 146.7 723.5 145V118.6C723.5 116.9 724.8 115.6 726.5 115.6H756.2C757.9 115.6 759.2 116.9 759.2 118.6Z" stroke="#B6B6B6" stroke-miterlimit="10"/>
<path id="74" d="M751.5 114.6V148.8C751.5 150.5 750.2 151.8 748.5 151.8H734.2C732.5 151.8 731.2 150.5 731.2 148.8V114.6C731.2 112.9 732.5 111.6 734.2 111.6H748.5C750.2 111.6 751.5 113 751.5 114.6Z" fill="#FF2400"/>
<path id="6_32" d="M744.273 126.315V127.341H744.051C743.109 127.358 742.36 127.637 741.802 128.178C741.244 128.718 740.921 129.479 740.834 130.46C741.335 129.884 742.02 129.597 742.887 129.597C743.715 129.597 744.376 129.889 744.868 130.473C745.365 131.057 745.613 131.811 745.613 132.735C745.613 133.716 745.345 134.5 744.809 135.089C744.277 135.677 743.563 135.971 742.665 135.971C741.754 135.971 741.015 135.623 740.448 134.925C739.882 134.223 739.598 133.321 739.598 132.218V131.754C739.598 130.002 739.971 128.664 740.716 127.74C741.466 126.811 742.58 126.336 744.057 126.315H744.273ZM742.684 130.604C742.27 130.604 741.889 130.728 741.54 130.976C741.191 131.225 740.95 131.536 740.814 131.911V132.356C740.814 133.14 740.991 133.772 741.344 134.252C741.697 134.731 742.137 134.971 742.665 134.971C743.21 134.971 743.637 134.771 743.946 134.37C744.26 133.969 744.417 133.443 744.417 132.794C744.417 132.14 744.258 131.613 743.94 131.212C743.626 130.806 743.207 130.604 742.684 130.604Z" fill="white"/>
<path id="Vector_94" d="M804.8 118.6V145C804.8 146.7 803.5 148 801.8 148H772.1C770.4 148 769.1 146.7 769.1 145V118.6C769.1 116.9 770.4 115.6 772.1 115.6H801.8C803.5 115.6 804.8 116.9 804.8 118.6Z" stroke="#B6B6B6" stroke-miterlimit="10"/>
<path id="73" d="M797.1 114.6V148.8C797.1 150.5 795.8 151.8 794.1 151.8H779.8C778.1 151.8 776.8 150.5 776.8 148.8V114.6C776.8 112.9 778.1 111.6 779.8 111.6H794.1C795.8 111.6 797.1 113 797.1 114.6Z" fill="#308410"/>
<path id="6_33" d="M789.874 126.314V127.341H789.651C788.71 127.358 787.96 127.637 787.402 128.177C786.844 128.718 786.522 129.479 786.435 130.459C786.936 129.884 787.62 129.596 788.488 129.596C789.316 129.596 789.976 129.888 790.469 130.472C790.966 131.056 791.214 131.81 791.214 132.734C791.214 133.715 790.946 134.5 790.41 135.088C789.878 135.677 789.163 135.971 788.265 135.971C787.354 135.971 786.616 135.622 786.049 134.925C785.482 134.223 785.199 133.321 785.199 132.218V131.754C785.199 130.002 785.572 128.663 786.317 127.739C787.067 126.811 788.18 126.336 789.658 126.314H789.874ZM788.285 130.603C787.871 130.603 787.489 130.727 787.141 130.976C786.792 131.224 786.55 131.536 786.415 131.911V132.355C786.415 133.14 786.592 133.772 786.945 134.251C787.298 134.731 787.738 134.971 788.265 134.971C788.81 134.971 789.237 134.77 789.547 134.369C789.861 133.968 790.018 133.443 790.018 132.793C790.018 132.14 789.858 131.612 789.54 131.211C789.226 130.806 788.808 130.603 788.285 130.603Z" fill="white"/>
<path id="Vector_95" d="M707.6 259.1H691.1C689.4 259.1 688.1 257.8 688.1 256.1V234.6C688.1 232.9 689.4 231.6 691.1 231.6H707.6C709.3 231.6 710.6 232.9 710.6 234.6V256.1C710.6 257.8 709.2 259.1 707.6 259.1Z" stroke="#B6B6B6" stroke-miterlimit="10"/>
<path id="72" d="M710.3 253.2H688.4C686.7 253.2 685.4 251.9 685.4 250.2V240.6C685.4 238.9 686.7 237.6 688.4 237.6H710.3C712 237.6 713.3 238.9 713.3 240.6V250.2C713.3 251.9 711.9 253.2 710.3 253.2Z" fill="#7F7F7F"/>
<path id="4_21" d="M702.603 245.791H703.945V246.794H702.603V249.041H701.367V246.794H696.961V246.07L701.293 239.365H702.603V245.791ZM698.356 245.791H701.367V241.046L701.22 241.312L698.356 245.791Z" fill="white"/>
<path id="Vector_96" d="M749.6 259.1H733.1C731.4 259.1 730.1 257.8 730.1 256.1V234.6C730.1 232.9 731.4 231.6 733.1 231.6H749.6C751.3 231.6 752.6 232.9 752.6 234.6V256.1C752.6 257.8 751.3 259.1 749.6 259.1Z" stroke="#B6B6B6" stroke-miterlimit="10"/>
<path id="71" d="M752.3 253.2H730.4C728.7 253.2 727.4 251.9 727.4 250.2V240.6C727.4 238.9 728.7 237.6 730.4 237.6H752.3C754 237.6 755.3 238.9 755.3 240.6V250.2C755.3 251.9 754 253.2 752.3 253.2Z" fill="#308410"/>
<path id="4_22" d="M744.683 245.791H746.025V246.794H744.683V249.04H743.447V246.794H739.041V246.07L743.374 239.364H744.683V245.791ZM740.436 245.791H743.447V241.046L743.3 241.312L740.436 245.791Z" fill="white"/>
<path id="Vector_97" d="M795.2 259.1H778.7C777 259.1 775.7 257.8 775.7 256.1V234.6C775.7 232.9 777 231.6 778.7 231.6H795.2C796.9 231.6 798.2 232.9 798.2 234.6V256.1C798.2 257.8 796.9 259.1 795.2 259.1Z" stroke="#B6B6B6" stroke-miterlimit="10"/>
<path id="70" d="M798 253.2H776C774.3 253.2 773 251.9 773 250.2V240.6C773 238.9 774.3 237.6 776 237.6H798C799.7 237.6 801 238.9 801 240.6V250.2C801 251.9 799.6 253.2 798 253.2Z" fill="#308410"/>
<path id="4_23" d="M790.282 245.791H791.625V246.795H790.282V249.041H789.046V246.795H784.64V246.07L788.973 239.365H790.282V245.791ZM786.036 245.791H789.046V241.046L788.9 241.312L786.036 245.791Z" fill="white"/>
</g>
</g>
</g>
<g id="Group_2">
<path id="1 &#209;&#141;&#209;&#130;&#208;&#176;&#208;&#182;" d="M272.598 162.365H268.299V133.87L259.679 137.036V133.154L271.928 128.555H272.598V162.365ZM306.084 140.41C304.559 140.41 303.234 140.896 302.109 141.866C301 142.837 300.445 143.985 300.445 145.31H296.378C296.378 143.877 296.833 142.506 297.742 141.196C298.651 139.887 299.86 138.847 301.37 138.076C302.88 137.291 304.451 136.898 306.084 136.898C309.335 136.898 311.962 138.076 313.965 140.433C315.983 142.775 316.992 145.841 316.992 149.631V150.348C316.992 152.69 316.53 154.831 315.606 156.772C314.697 158.698 313.41 160.193 311.746 161.256C310.098 162.303 308.21 162.827 306.084 162.827C303.311 162.827 301 161.964 299.151 160.239C297.302 158.513 296.378 156.364 296.378 153.791H300.445C300.445 155.363 300.992 156.688 302.086 157.766C303.18 158.829 304.513 159.361 306.084 159.361C307.918 159.361 309.428 158.652 310.614 157.235C311.8 155.817 312.486 153.868 312.671 151.388H303.288V147.875H312.624C312.409 145.626 311.723 143.823 310.568 142.467C309.412 141.096 307.918 140.41 306.084 140.41ZM339.502 140.826H331.113V162.365H326.837V140.826H318.61V137.36H339.502V140.826ZM358.729 162.365C358.483 161.872 358.282 160.994 358.128 159.73C356.141 161.795 353.768 162.827 351.01 162.827C348.545 162.827 346.519 162.134 344.932 160.747C343.361 159.345 342.575 157.573 342.575 155.432C342.575 152.828 343.561 150.81 345.533 149.377C347.521 147.929 350.309 147.205 353.899 147.205H358.059V145.24C358.059 143.746 357.612 142.56 356.719 141.681C355.825 140.788 354.508 140.341 352.767 140.341C351.241 140.341 349.963 140.726 348.93 141.497C347.898 142.267 347.382 143.199 347.382 144.293H343.084C343.084 143.045 343.523 141.843 344.401 140.688C345.294 139.517 346.496 138.592 348.006 137.914C349.531 137.237 351.203 136.898 353.021 136.898C355.902 136.898 358.159 137.622 359.792 139.07C361.425 140.503 362.273 142.483 362.334 145.009V156.518C362.334 158.814 362.627 160.639 363.212 161.995V162.365H358.729ZM351.634 159.106C352.975 159.106 354.246 158.76 355.447 158.067C356.649 157.373 357.52 156.472 358.059 155.363V150.232H354.708C349.47 150.232 346.851 151.765 346.851 154.831C346.851 156.171 347.297 157.219 348.191 157.974C349.085 158.729 350.232 159.106 351.634 159.106ZM388.98 151.503H385.976V162.365H381.701V151.503H378.696L371.694 162.365H366.286L375.23 149.423L367.141 137.36H372.318L378.766 147.713H381.701V137.36H385.976V147.713H388.888L395.382 137.36H400.558L392.447 149.446L401.39 162.365H395.983L388.98 151.503Z" fill="#0C0C0C"/>
</g>
<g id="Group_3">
<path id="2 &#209;&#141;&#209;&#130;&#208;&#176;&#208;&#182;" d="M777.433 70.1104H755.386V67.0367L767.034 54.095C768.759 52.1384 769.946 50.5515 770.593 49.3344C771.255 48.1018 771.586 46.8308 771.586 45.5212C771.586 43.7648 771.055 42.3243 769.992 41.1996C768.929 40.0749 767.511 39.5126 765.739 39.5126C763.613 39.5126 761.957 40.1211 760.771 41.3383C759.6 42.54 759.014 44.2193 759.014 46.3763H754.739C754.739 43.2795 755.733 40.7759 757.72 38.8655C759.723 36.9551 762.396 35.9998 765.739 35.9998C768.867 35.9998 771.34 36.8241 773.158 38.4726C774.976 40.1057 775.885 42.2858 775.885 45.0128C775.885 48.3252 773.774 52.2693 769.553 56.8452L760.54 66.6207H777.433V70.1104ZM802.924 48.1558C801.398 48.1558 800.073 48.6411 798.949 49.6117C797.839 50.5823 797.285 51.7301 797.285 53.0551H793.217C793.217 51.6223 793.672 50.2511 794.581 48.9415C795.49 47.6319 796.699 46.592 798.209 45.8216C799.719 45.0359 801.291 44.643 802.924 44.643C806.174 44.643 808.801 45.8216 810.804 48.1789C812.822 50.5207 813.832 53.5866 813.832 57.3767V58.0931C813.832 60.4349 813.369 62.5765 812.445 64.5177C811.536 66.4435 810.25 67.938 808.586 69.0011C806.937 70.0487 805.05 70.5726 802.924 70.5726C800.15 70.5726 797.839 69.7098 795.991 67.9842C794.142 66.2587 793.217 64.1094 793.217 61.5365H797.285C797.285 63.108 797.832 64.433 798.926 65.5114C800.019 66.5745 801.352 67.106 802.924 67.106C804.757 67.106 806.267 66.3973 807.453 64.9799C808.64 63.5625 809.325 61.6135 809.51 59.1331H800.127V55.6203H809.464C809.248 53.3709 808.563 51.5683 807.407 50.2125C806.252 48.8414 804.757 48.1558 802.924 48.1558ZM836.341 48.5717H827.952V70.1104H823.677V48.5717H815.449V45.1052H836.341V48.5717ZM855.568 70.1104C855.322 69.6173 855.122 68.7392 854.968 67.4758C852.98 69.5403 850.608 70.5726 847.85 70.5726C845.385 70.5726 843.359 69.8793 841.772 68.4926C840.2 67.0906 839.415 65.3189 839.415 63.1773C839.415 60.5736 840.401 58.5553 842.373 57.1225C844.36 55.6742 847.149 54.9501 850.738 54.9501H854.898V52.9858C854.898 51.4913 854.451 50.305 853.558 49.4268C852.664 48.5332 851.347 48.0864 849.606 48.0864C848.081 48.0864 846.802 48.4716 845.77 49.2419C844.738 50.0123 844.221 50.9444 844.221 52.0382H839.923C839.923 50.7903 840.362 49.5886 841.24 48.4331C842.134 47.2622 843.336 46.3378 844.845 45.6599C846.371 44.982 848.042 44.643 849.86 44.643C852.741 44.643 854.998 45.3671 856.632 46.8154C858.265 48.2482 859.112 50.228 859.174 52.7547V64.2635C859.174 66.5591 859.466 68.3848 860.052 69.7406V70.1104H855.568ZM848.474 66.8518C849.814 66.8518 851.085 66.5052 852.287 65.8119C853.489 65.1186 854.359 64.2173 854.898 63.108V57.9775H851.547C846.309 57.9775 843.69 59.5105 843.69 62.5765C843.69 63.9168 844.137 64.9645 845.03 65.7194C845.924 66.4744 847.072 66.8518 848.474 66.8518ZM885.82 59.2486H882.815V70.1104H878.54V59.2486H875.536L868.533 70.1104H863.125L872.069 57.1687L863.981 45.1052H869.157L875.605 55.4585H878.54V45.1052H882.815V55.4585H885.727L892.221 45.1052H897.398L889.286 57.1918L898.23 70.1104H892.822L885.82 59.2486Z" fill="#0C0C0C"/>
</g>
</g>
<defs>
<clipPath id="clip0">
<rect width="1031.9" height="542.8" fill="white"/>
</clipPath>
</defs>
</svg>
