<svg xmlns="http://www.w3.org/2000/svg" viewBox="0 0 390.49 479.31"><defs><style>.cls-1,.cls-2{fill:none;stroke-miterlimit:10;}.cls-1{stroke:#111;stroke-width:6px;}.cls-2{stroke:#b6b6b6;}.cls-3{font-size:22.51px;fill:#0c0c0c;}.cls-3,.cls-5,.cls-8{font-family:BebasNeueBold, Bebas Neue;}.cls-4{fill:#308410;}.cls-5{font-size:13.39px;}.cls-5,.cls-8{fill:#fff;}.cls-6{fill:#ff2400;}.cls-7{fill:#7f7f7f;}.cls-8{font-size:13.61px;}</style></defs><g id="Слой_2" data-name="Слой 2"><g id="Слой_1-2" data-name="Слой 1"><polyline class="cls-1" points="3 479.31 3 3 93.76 3 93.76 66.71 167.94 66.71 167.94 479.31"/><line class="cls-1" x1="390.49" y1="427.9" x2="167.95" y2="427.9"/><polygon class="cls-2" points="162.71 269.18 112.96 269.18 112.96 445.04 124.75 445.04 124.75 281.2 162.71 281.2 162.71 269.18"/><text class="cls-3" transform="translate(129.42 358.43)">бар</text><rect class="cls-2" x="30.05" y="410.52" width="9.31" height="9.31"/><rect class="cls-2" x="30.05" y="424.18" width="9.31" height="9.31"/><rect class="cls-2" x="30.05" y="437.85" width="9.31" height="9.31"/><rect class="cls-2" x="30.05" y="451.52" width="9.31" height="9.31"/><rect class="cls-2" x="126" y="128.16" width="32.36" height="35.71" rx="3" transform="translate(284.36 292.04) rotate(-180)"/><rect class="cls-4" x="122.09" y="135.86" width="40.17" height="20.31" rx="3" transform="translate(284.36 292.04) rotate(-180)"/><text class="cls-5" transform="translate(139.53 150.51)">6</text><rect class="cls-2" x="126" y="170.24" width="32.36" height="35.71" rx="3" transform="translate(284.36 376.19) rotate(-180)"/><rect class="cls-6" x="122.09" y="177.94" width="40.17" height="20.31" rx="3" transform="translate(284.36 376.19) rotate(-180)"/><text class="cls-5" transform="translate(139.53 192.59)">6</text><rect class="cls-2" x="126" y="215.84" width="32.36" height="35.71" rx="3" transform="translate(284.36 467.4) rotate(-180)"/><rect class="cls-4" x="122.09" y="223.54" width="40.17" height="20.31" rx="3" transform="translate(284.36 467.4) rotate(-180)"/><text class="cls-5" transform="translate(139.53 238.19)">6</text><rect class="cls-2" x="17.28" y="132.27" width="22.5" height="27.5" rx="3" transform="translate(-117.49 174.55) rotate(-90)"/><rect class="cls-7" x="14.56" y="138.2" width="27.93" height="15.64" rx="3" transform="translate(-117.49 174.55) rotate(-90)"/><text class="cls-8" transform="translate(26.14 150.58)">4</text><rect class="cls-2" x="17.28" y="174.35" width="22.5" height="27.5" rx="3" transform="translate(-159.57 216.62) rotate(-90)"/><rect class="cls-4" x="14.56" y="180.28" width="27.93" height="15.64" rx="3" transform="translate(-159.57 216.62) rotate(-90)"/><text class="cls-8" transform="translate(26.14 192.66)">4</text><rect class="cls-2" x="17.28" y="219.95" width="22.5" height="27.5" rx="3" transform="translate(-205.17 262.23) rotate(-90)"/><rect class="cls-4" x="14.56" y="225.88" width="27.93" height="15.64" rx="3" transform="translate(-205.17 262.23) rotate(-90)"/><text class="cls-8" transform="translate(26.14 238.26)">4</text></g></g></svg>