<svg xmlns="http://www.w3.org/2000/svg" viewBox="0 0 1031.95 443.52"><defs><style>.cls-1,.cls-2,.cls-3{fill:none;stroke-miterlimit:10;}.cls-1,.cls-2{stroke:#111;}.cls-1{stroke-width:6px;}.cls-2{stroke-width:3px;}.cls-3{stroke:#b6b6b6;}.cls-4{font-size:14px;fill:#0c0c0c;}.cls-4,.cls-6,.cls-7,.cls-8{font-family:BebasNeueBold, Bebas Neue;}.cls-5{fill:#308410;}.cls-6{font-size:15px;}.cls-6,.cls-7,.cls-8{fill:#fff;}.cls-7{font-size:13.39px;}.cls-8{font-size:13.61px;}</style></defs><g id="Слой_2" data-name="Слой 2"><g id="Слой_1-2" data-name="Слой 1"><polyline class="cls-1" points="183.66 0 183.66 99.92 430.64 99.92 430.64 193.03 493.47 193.03 493.47 233.05 1031.94 233.05"/><polyline class="cls-1" points="3 0 3 241.98 72.82 241.98 179.29 241.98"/><polyline class="cls-1" points="1031.94 440.52 80.67 440.52 15.22 390.25 69.33 361.97 69.33 239.56"/><line class="cls-2" x1="289.25" y1="99.92" x2="289.25" y2="196.36"/><line class="cls-2" x1="430.64" y1="193.03" x2="314.13" y2="193.03"/><polyline class="cls-2" points="532.31 281.88 532.31 244.72 302.35 244.72 245.18 244.72 245.18 265.74"/><line class="cls-2" x1="303.22" y1="266.61" x2="303.22" y2="244.72"/><line class="cls-2" x1="135.22" y1="440.52" x2="135.22" y2="387.05"/><line class="cls-2" x1="835.15" y1="241.98" x2="835.15" y2="277.52"/><line class="cls-2" x1="988.31" y1="233.05" x2="988.31" y2="277.52"/><line class="cls-2" x1="988.31" y1="306.32" x2="988.31" y2="394.48"/><rect class="cls-3" x="18.13" y="19.63" width="11.05" height="136.78"/><rect class="cls-3" x="31.95" y="54.1" width="9.31" height="9.31"/><rect class="cls-3" x="31.95" y="69.6" width="9.31" height="9.31"/><rect class="cls-3" x="31.95" y="85.1" width="9.31" height="9.31"/><rect class="cls-3" x="31.95" y="100.6" width="9.31" height="9.31"/><rect class="cls-3" x="31.95" y="116.1" width="9.31" height="9.31"/><rect class="cls-3" x="31.95" y="131.6" width="9.31" height="9.31"/><rect class="cls-3" x="31.95" y="147.1" width="9.31" height="9.31"/><polyline class="cls-3" points="188.67 119.66 130.13 119.66 130.13 19.63 117.91 19.63 117.91 131.6 188.67 131.6"/><polygon class="cls-3" points="623.8 290.46 611.29 290.46 611.29 340.29 824.82 340.29 824.82 290.46 765.18 290.46 765.18 267.77 750.64 267.77 750.64 305.59 810.27 305.59 810.27 324.79 624.67 324.79 623.8 290.46"/><rect class="cls-3" x="616.09" y="344.28" width="9.6" height="9.6"/><rect class="cls-3" x="629.76" y="344.28" width="9.6" height="9.6"/><rect class="cls-3" x="643.42" y="344.28" width="9.6" height="9.6"/><rect class="cls-3" x="657.09" y="344.28" width="9.6" height="9.6"/><rect class="cls-3" x="670.76" y="344.28" width="9.6" height="9.6"/><rect class="cls-3" x="684.42" y="344.28" width="9.6" height="9.6"/><rect class="cls-3" x="698.09" y="344.28" width="9.6" height="9.6"/><rect class="cls-3" x="731.46" y="344.28" width="9.6" height="9.6"/><rect class="cls-3" x="745.13" y="344.28" width="9.6" height="9.6"/><rect class="cls-3" x="758.79" y="344.28" width="9.6" height="9.6"/><rect class="cls-3" x="772.46" y="344.28" width="9.6" height="9.6"/><line class="cls-2" x1="188.67" y1="99.92" x2="188.67" y2="139.41"/><rect class="cls-3" x="786.13" y="344.28" width="9.6" height="9.6"/><text class="cls-4" transform="translate(696.21 309.48)">бар</text><text class="cls-4" transform="translate(990.02 422.27)">вход</text><rect class="cls-3" x="102.26" y="138.76" width="36.25" height="40" rx="3" transform="translate(279.14 38.38) rotate(90)"/><rect class="cls-5" x="97.88" y="147.38" width="45" height="22.75" rx="3" transform="translate(279.14 38.38) rotate(90)"/><text class="cls-6" transform="translate(117.41 163.79)">6</text><rect class="cls-3" x="347.66" y="105.54" width="32.36" height="35.71" rx="3" transform="translate(487.23 -240.44) rotate(90)"/><rect class="cls-5" x="343.75" y="113.24" width="40.17" height="20.31" rx="3" transform="translate(487.23 -240.44) rotate(90)"/><text class="cls-7" transform="translate(361.18 127.89)">6</text><rect class="cls-3" x="347.66" y="151.78" width="32.36" height="35.71" rx="3" transform="translate(533.48 -194.2) rotate(90)"/><rect class="cls-5" x="343.75" y="159.48" width="40.17" height="20.31" rx="3" transform="translate(533.48 -194.2) rotate(90)"/><text class="cls-7" transform="translate(361.18 174.13)">6</text><rect class="cls-3" x="303.58" y="151.78" width="32.36" height="35.71" rx="3" transform="translate(489.4 -150.12) rotate(90)"/><rect class="cls-5" x="299.68" y="159.48" width="40.17" height="20.31" rx="3" transform="translate(489.4 -150.12) rotate(90)"/><text class="cls-7" transform="translate(317.11 174.13)">6</text><rect class="cls-3" x="183.94" y="389.77" width="32.36" height="35.71" rx="3" transform="translate(607.74 207.5) rotate(90)"/><rect class="cls-5" x="180.03" y="397.47" width="40.17" height="20.31" rx="3" transform="translate(607.74 207.5) rotate(90)"/><text class="cls-7" transform="translate(197.47 412.11)">6</text><rect class="cls-3" x="226.49" y="389.77" width="32.36" height="35.71" rx="3" transform="translate(650.29 164.95) rotate(90)"/><rect class="cls-5" x="222.59" y="397.47" width="40.17" height="20.31" rx="3" transform="translate(650.29 164.95) rotate(90)"/><text class="cls-7" transform="translate(240.02 412.11)">6</text><rect class="cls-3" x="269.05" y="389.77" width="32.36" height="35.71" rx="3" transform="translate(692.85 122.39) rotate(90)"/><rect class="cls-5" x="265.14" y="397.47" width="40.17" height="20.31" rx="3" transform="translate(692.85 122.39) rotate(90)"/><text class="cls-7" transform="translate(282.58 412.11)">6</text><rect class="cls-3" x="334.88" y="389.77" width="32.36" height="35.71" rx="3" transform="translate(758.68 56.56) rotate(90)"/><rect class="cls-5" x="330.97" y="397.47" width="40.17" height="20.31" rx="3" transform="translate(758.68 56.56) rotate(90)"/><text class="cls-7" transform="translate(348.41 412.11)">6</text><rect class="cls-3" x="375.64" y="389.77" width="32.36" height="35.71" rx="3" transform="translate(799.45 15.8) rotate(90)"/><rect class="cls-5" x="371.74" y="397.47" width="40.17" height="20.31" rx="3" transform="translate(799.45 15.8) rotate(90)"/><text class="cls-7" transform="translate(389.17 412.11)">6</text><rect class="cls-3" x="416.41" y="389.77" width="32.36" height="35.71" rx="3" transform="translate(840.21 -24.97) rotate(90)"/><rect class="cls-5" x="412.5" y="397.47" width="40.17" height="20.31" rx="3" transform="translate(840.21 -24.97) rotate(90)"/><text class="cls-7" transform="translate(429.94 412.11)">6</text><rect class="cls-3" x="457.18" y="389.77" width="32.36" height="35.71" rx="3" transform="translate(880.98 -65.74) rotate(90)"/><rect class="cls-5" x="453.27" y="397.47" width="40.17" height="20.31" rx="3" transform="translate(880.98 -65.74) rotate(90)"/><text class="cls-7" transform="translate(470.7 412.11)">6</text><rect class="cls-3" x="497.94" y="389.77" width="32.36" height="35.71" rx="3" transform="translate(921.74 -106.5) rotate(90)"/><rect class="cls-5" x="494.04" y="397.47" width="40.17" height="20.31" rx="3" transform="translate(921.74 -106.5) rotate(90)"/><text class="cls-7" transform="translate(511.47 412.11)">6</text><rect class="cls-3" x="538.71" y="389.77" width="32.36" height="35.71" rx="3" transform="translate(962.51 -147.27) rotate(90)"/><rect class="cls-5" x="534.8" y="397.47" width="40.17" height="20.31" rx="3" transform="translate(962.51 -147.27) rotate(90)"/><text class="cls-7" transform="translate(552.24 412.11)">6</text><rect class="cls-3" x="579.47" y="389.77" width="32.36" height="35.71" rx="3" transform="translate(1003.27 -188.03) rotate(90)"/><rect class="cls-5" x="575.57" y="397.47" width="40.17" height="20.31" rx="3" transform="translate(1003.27 -188.03) rotate(90)"/><text class="cls-7" transform="translate(593 412.11)">6</text><rect class="cls-3" x="620.24" y="389.77" width="32.36" height="35.71" rx="3" transform="translate(1044.04 -228.8) rotate(90)"/><rect class="cls-5" x="616.33" y="397.47" width="40.17" height="20.31" rx="3" transform="translate(1044.04 -228.8) rotate(90)"/><text class="cls-7" transform="translate(633.77 412.11)">6</text><rect class="cls-3" x="661" y="389.77" width="32.36" height="35.71" rx="3" transform="translate(1084.81 -269.56) rotate(90)"/><rect class="cls-5" x="657.1" y="397.47" width="40.17" height="20.31" rx="3" transform="translate(1084.81 -269.56) rotate(90)"/><text class="cls-7" transform="translate(674.53 412.11)">6</text><rect class="cls-3" x="701.77" y="389.77" width="32.36" height="35.71" rx="3" transform="translate(1125.57 -310.33) rotate(90)"/><rect class="cls-5" x="697.86" y="397.47" width="40.17" height="20.31" rx="3" transform="translate(1125.57 -310.33) rotate(90)"/><text class="cls-7" transform="translate(715.3 412.11)">6</text><rect class="cls-3" x="742.54" y="389.77" width="32.36" height="35.71" rx="3" transform="translate(1166.34 -351.1) rotate(90)"/><rect class="cls-5" x="738.63" y="397.47" width="40.17" height="20.31" rx="3" transform="translate(1166.34 -351.1) rotate(90)"/><text class="cls-7" transform="translate(756.06 412.11)">6</text><rect class="cls-3" x="783.3" y="389.77" width="32.36" height="35.71" rx="3" transform="translate(1207.1 -391.86) rotate(90)"/><rect class="cls-5" x="779.4" y="397.47" width="40.17" height="20.31" rx="3" transform="translate(1207.1 -391.86) rotate(90)"/><text class="cls-7" transform="translate(796.83 412.11)">6</text><rect class="cls-3" x="824.07" y="389.77" width="32.36" height="35.71" rx="3" transform="translate(1247.87 -432.63) rotate(90)"/><rect class="cls-5" x="820.16" y="397.47" width="40.17" height="20.31" rx="3" transform="translate(1247.87 -432.63) rotate(90)"/><text class="cls-7" transform="translate(837.6 412.11)">6</text><rect class="cls-3" x="864.83" y="389.77" width="32.36" height="35.71" rx="3" transform="translate(1288.63 -473.39) rotate(90)"/><rect class="cls-5" x="860.93" y="397.47" width="40.17" height="20.31" rx="3" transform="translate(1288.63 -473.39) rotate(90)"/><text class="cls-7" transform="translate(878.36 412.11)">6</text><rect class="cls-3" x="259.66" y="253.31" width="32.36" height="35.71" rx="3" transform="translate(551.67 542.33) rotate(-180)"/><rect class="cls-5" x="255.75" y="261.01" width="40.17" height="20.31" rx="3" transform="translate(551.67 542.33) rotate(-180)"/><text class="cls-7" transform="translate(273.18 275.66)">6</text><rect class="cls-3" x="337.04" y="253.31" width="32.36" height="35.71" rx="3" transform="translate(706.44 542.33) rotate(-180)"/><rect class="cls-5" x="333.13" y="261.01" width="40.17" height="20.31" rx="3" transform="translate(706.44 542.33) rotate(-180)"/><text class="cls-7" transform="translate(350.57 275.66)">6</text><rect class="cls-3" x="410.31" y="253.31" width="32.36" height="35.71" rx="3" transform="translate(852.98 542.33) rotate(-180)"/><rect class="cls-5" x="406.4" y="261.01" width="40.17" height="20.31" rx="3" transform="translate(852.98 542.33) rotate(-180)"/><text class="cls-7" transform="translate(423.84 275.66)">6</text><rect class="cls-3" x="485.95" y="253.31" width="32.36" height="35.71" rx="3" transform="translate(1004.25 542.33) rotate(-180)"/><rect class="cls-5" x="482.04" y="261.01" width="40.17" height="20.31" rx="3" transform="translate(1004.25 542.33) rotate(-180)"/><text class="cls-7" transform="translate(499.48 275.66)">6</text><rect class="cls-3" x="556.06" y="253.31" width="32.36" height="35.71" rx="3" transform="translate(1144.47 542.33) rotate(-180)"/><rect class="cls-5" x="552.15" y="261.01" width="40.17" height="20.31" rx="3" transform="translate(1144.47 542.33) rotate(-180)"/><text class="cls-7" transform="translate(569.58 275.66)">6</text><rect class="cls-3" x="852.56" y="242.91" width="32.36" height="35.71" rx="3" transform="translate(1737.49 521.53) rotate(-180)"/><rect class="cls-5" x="848.66" y="250.61" width="40.17" height="20.31" rx="3" transform="translate(1737.49 521.53) rotate(-180)"/><text class="cls-7" transform="translate(866.09 265.26)">6</text><rect class="cls-3" x="909.56" y="242.91" width="32.36" height="35.71" rx="3" transform="translate(1851.49 521.53) rotate(-180)"/><rect class="cls-5" x="905.66" y="250.61" width="40.17" height="20.31" rx="3" transform="translate(1851.49 521.53) rotate(-180)"/><text class="cls-7" transform="translate(923.09 265.26)">6</text><rect class="cls-3" x="150.55" y="138.76" width="36.25" height="40" rx="3" transform="translate(327.43 -9.92) rotate(90)"/><rect class="cls-5" x="146.17" y="147.38" width="45" height="22.75" rx="3" transform="translate(327.43 -9.92) rotate(90)"/><text class="cls-6" transform="translate(165.7 163.79)">6</text><rect class="cls-3" x="41.72" y="178.42" width="55.79" height="40" rx="3" transform="translate(268.04 128.8) rotate(90)"/><rect class="cls-5" x="34.99" y="187.04" width="69.26" height="22.75" rx="3" transform="translate(268.04 128.8) rotate(90)"/><text class="cls-6" transform="translate(66.65 201.68)">9</text><rect class="cls-3" x="378.59" y="125.1" width="55.79" height="40" rx="3" transform="translate(551.59 -261.39) rotate(90)"/><rect class="cls-5" x="371.86" y="133.72" width="69.26" height="22.75" rx="3" transform="translate(551.59 -261.39) rotate(90)"/><text class="cls-6" transform="translate(403.52 148.36)">9</text><rect class="cls-3" x="306.37" y="111.15" width="22.5" height="27.5" rx="3"/><rect class="cls-5" x="303.65" y="117.08" width="27.93" height="15.64" rx="3"/><text class="cls-8" transform="translate(315.23 129.46)">4</text><rect class="cls-3" x="294.84" y="300.13" width="22.5" height="27.5" rx="3" transform="translate(-7.79 619.97) rotate(-90)"/><rect class="cls-5" x="292.13" y="306.06" width="27.93" height="15.64" rx="3" transform="translate(-7.79 619.97) rotate(-90)"/><text class="cls-8" transform="translate(303.71 318.45)">4</text><rect class="cls-3" x="336.3" y="300.13" width="22.5" height="27.5" rx="3" transform="translate(33.66 661.43) rotate(-90)"/><rect class="cls-5" x="333.58" y="306.06" width="27.93" height="15.64" rx="3" transform="translate(33.66 661.43) rotate(-90)"/><text class="cls-8" transform="translate(345.16 318.45)">4</text><rect class="cls-3" x="377.75" y="300.13" width="22.5" height="27.5" rx="3" transform="translate(75.12 702.88) rotate(-90)"/><rect class="cls-5" x="375.04" y="306.06" width="27.93" height="15.64" rx="3" transform="translate(75.12 702.88) rotate(-90)"/><text class="cls-8" transform="translate(386.62 318.45)">4</text><rect class="cls-3" x="419.21" y="300.13" width="22.5" height="27.5" rx="3" transform="translate(116.57 744.34) rotate(-90)"/><rect class="cls-5" x="416.49" y="306.06" width="27.93" height="15.64" rx="3" transform="translate(116.57 744.34) rotate(-90)"/><text class="cls-8" transform="translate(428.07 318.45)">4</text><rect class="cls-3" x="460.66" y="300.13" width="22.5" height="27.5" rx="3" transform="translate(158.03 785.79) rotate(-90)"/><rect class="cls-5" x="457.95" y="306.06" width="27.93" height="15.64" rx="3" transform="translate(158.03 785.79) rotate(-90)"/><text class="cls-8" transform="translate(469.53 318.45)">4</text><rect class="cls-3" x="502.12" y="300.13" width="22.5" height="27.5" rx="3" transform="translate(199.48 827.25) rotate(-90)"/><rect class="cls-5" x="499.4" y="306.06" width="27.93" height="15.64" rx="3" transform="translate(199.48 827.25) rotate(-90)"/><text class="cls-8" transform="translate(510.98 318.45)">4</text><rect class="cls-3" x="543.57" y="300.13" width="22.5" height="27.5" rx="3" transform="translate(240.94 868.7) rotate(-90)"/><rect class="cls-5" x="540.86" y="306.06" width="27.93" height="15.64" rx="3" transform="translate(240.94 868.7) rotate(-90)"/><text class="cls-8" transform="translate(552.44 318.45)">4</text><rect class="cls-3" x="860.64" y="293.11" width="22.5" height="27.5" rx="3" transform="translate(565.03 1178.75) rotate(-90)"/><rect class="cls-5" x="857.93" y="299.04" width="27.93" height="15.64" rx="3" transform="translate(565.03 1178.75) rotate(-90)"/><text class="cls-8" transform="translate(869.51 311.42)">4</text><rect class="cls-3" x="914.64" y="293.11" width="22.5" height="27.5" rx="3" transform="translate(619.03 1232.75) rotate(-90)"/><rect class="cls-5" x="911.93" y="299.04" width="27.93" height="15.64" rx="3" transform="translate(619.03 1232.75) rotate(-90)"/><text class="cls-8" transform="translate(923.51 311.42)">4</text><rect class="cls-3" x="860.64" y="328.11" width="22.5" height="27.5" rx="3" transform="translate(530.03 1213.75) rotate(-90)"/><rect class="cls-5" x="857.93" y="334.04" width="27.93" height="15.64" rx="3" transform="translate(530.03 1213.75) rotate(-90)"/><text class="cls-8" transform="translate(869.51 346.42)">4</text><rect class="cls-3" x="914.64" y="328.11" width="22.5" height="27.5" rx="3" transform="translate(584.03 1267.75) rotate(-90)"/><rect class="cls-5" x="911.93" y="334.04" width="27.93" height="15.64" rx="3" transform="translate(584.03 1267.75) rotate(-90)"/><text class="cls-8" transform="translate(923.51 346.42)">4</text><rect class="cls-3" x="294.84" y="332.98" width="22.5" height="27.5" rx="3" transform="translate(-40.64 652.83) rotate(-90)"/><rect class="cls-5" x="292.13" y="338.91" width="27.93" height="15.64" rx="3" transform="translate(-40.64 652.83) rotate(-90)"/><text class="cls-8" transform="translate(303.71 351.3)">4</text><rect class="cls-3" x="336.3" y="332.98" width="22.5" height="27.5" rx="3" transform="translate(0.81 694.28) rotate(-90)"/><rect class="cls-5" x="333.58" y="338.91" width="27.93" height="15.64" rx="3" transform="translate(0.81 694.28) rotate(-90)"/><text class="cls-8" transform="translate(345.16 351.3)">4</text><rect class="cls-3" x="377.75" y="332.98" width="22.5" height="27.5" rx="3" transform="translate(42.27 735.73) rotate(-90)"/><rect class="cls-5" x="375.04" y="338.91" width="27.93" height="15.64" rx="3" transform="translate(42.27 735.73) rotate(-90)"/><text class="cls-8" transform="translate(386.62 351.3)">4</text><rect class="cls-3" x="419.21" y="332.98" width="22.5" height="27.5" rx="3" transform="translate(83.72 777.19) rotate(-90)"/><rect class="cls-5" x="416.49" y="338.91" width="27.93" height="15.64" rx="3" transform="translate(83.72 777.19) rotate(-90)"/><text class="cls-8" transform="translate(428.07 351.3)">4</text><rect class="cls-3" x="460.66" y="332.98" width="22.5" height="27.5" rx="3" transform="translate(125.18 818.64) rotate(-90)"/><rect class="cls-5" x="457.95" y="338.91" width="27.93" height="15.64" rx="3" transform="translate(125.18 818.64) rotate(-90)"/><text class="cls-8" transform="translate(469.53 351.3)">4</text><rect class="cls-3" x="502.12" y="332.98" width="22.5" height="27.5" rx="3" transform="translate(166.63 860.1) rotate(-90)"/><rect class="cls-5" x="499.4" y="338.91" width="27.93" height="15.64" rx="3" transform="translate(166.63 860.1) rotate(-90)"/><text class="cls-8" transform="translate(510.98 351.3)">4</text><rect class="cls-3" x="543.57" y="332.98" width="22.5" height="27.5" rx="3" transform="translate(208.09 901.55) rotate(-90)"/><rect class="cls-5" x="540.86" y="338.91" width="27.93" height="15.64" rx="3" transform="translate(208.09 901.55) rotate(-90)"/><text class="cls-8" transform="translate(552.44 351.3)">4</text></g></g></svg>