<svg width="1015" height="574" viewBox="0 0 1015 574" fill="none" xmlns="http://www.w3.org/2000/svg">
<g id="Group">
<g id="Group_2">
<g id="&#208;&#161;&#208;&#187;&#208;&#190;&#208;&#185;_2_1_">
<g id="&#208;&#161;&#208;&#187;&#208;&#190;&#208;&#185;_1-2">
<path id="Vector" d="M325.3 569.929H411.7V385.629C411.7 244.829 297.6 130.629 156.7 130.629H125.2" stroke="#111111" stroke-width="6" stroke-miterlimit="10"/>
<path id="Vector_2" d="M130.9 130.729V9.62939H210.8V137.629" stroke="#111111" stroke-width="6" stroke-miterlimit="10"/>
<path id="Vector_3" d="M0 130.729H100.8" stroke="#111111" stroke-width="6" stroke-miterlimit="10"/>
<path id="Vector_4" d="M0 221.83H55V502.53H229.8V434.03H350.2V569.93" stroke="#111111" stroke-width="6" stroke-miterlimit="10"/>
<path id="Vector_5" d="M40 130.729V221.829" stroke="#111111" stroke-width="6" stroke-miterlimit="10"/>
<path id="Vector_6" d="M230.4 249.229V341.529" stroke="#111111" stroke-width="3" stroke-miterlimit="10"/>
<path id="Vector_7" d="M230.4 375.929V434.029H134.9" stroke="#111111" stroke-width="3" stroke-miterlimit="10"/>
<path id="Vector_8" d="M93.3999 502.529V479.429" stroke="#111111" stroke-width="3" stroke-miterlimit="10"/>
<path id="Vector_9" d="M77.2998 430.929H93.3998V448.829" stroke="#111111" stroke-width="3" stroke-miterlimit="10"/>
<path id="Vector_10" d="M170.6 137.629H189.4C191.1 137.629 192.4 138.929 192.4 140.629V164.929C192.4 166.629 191.1 167.929 189.4 167.929H170.6C168.9 167.929 167.6 166.629 167.6 164.929V140.629C167.6 138.929 168.9 137.629 170.6 137.629Z" stroke="#B6B6B6" stroke-miterlimit="10"/>
<path id="3" d="M167.6 144.129H192.4C194.1 144.129 195.4 145.429 195.4 147.129V158.329C195.4 160.029 194.1 161.329 192.4 161.329H167.6C165.9 161.329 164.6 160.029 164.6 158.329V147.129C164.6 145.429 165.9 144.129 167.6 144.129Z" fill="#308410"/>
<path id="4" d="M183.942 153.174H185.421V154.28H183.942V156.756H182.58V154.28H177.724V153.482L182.499 146.092H183.942V153.174ZM179.262 153.174H182.58V147.945L182.418 148.238L179.262 153.174Z" fill="white"/>
<path id="Vector_11" d="M222.6 149.929H241.4C243.1 149.929 244.4 151.229 244.4 152.929V177.229C244.4 178.929 243.1 180.229 241.4 180.229H222.6C220.9 180.229 219.6 178.929 219.6 177.229V152.929C219.6 151.229 221 149.929 222.6 149.929Z" stroke="#B6B6B6" stroke-miterlimit="10"/>
<path id="4_2" d="M219.7 156.429H244.4C246.1 156.429 247.4 157.729 247.4 159.429V170.629C247.4 172.329 246.1 173.629 244.4 173.629H219.6C217.9 173.629 216.6 172.329 216.6 170.629V159.429C216.7 157.829 218 156.429 219.7 156.429Z" fill="#308410"/>
<path id="4_3" d="M236.022 165.524H237.501V166.63H236.022V169.106H234.66V166.63H229.804V165.832L234.579 158.442H236.022V165.524ZM231.342 165.524H234.66V160.295L234.499 160.588L231.342 165.524Z" fill="white"/>
<path id="Vector_12" d="M263.6 170.929H282.4C284.1 170.929 285.4 172.229 285.4 173.929V198.229C285.4 199.929 284.1 201.229 282.4 201.229H263.6C261.9 201.229 260.6 199.929 260.6 198.229V173.929C260.6 172.229 261.9 170.929 263.6 170.929Z" stroke="#B6B6B6" stroke-miterlimit="10"/>
<path id="5" d="M260.6 177.429H285.4C287.1 177.429 288.4 178.729 288.4 180.429V191.629C288.4 193.329 287.1 194.629 285.4 194.629H260.6C258.9 194.629 257.6 193.329 257.6 191.629V180.429C257.6 178.729 258.9 177.429 260.6 177.429Z" fill="#308410"/>
<path id="4_4" d="M276.922 186.474H278.401V187.58H276.922V190.056H275.56V187.58H270.704V186.782L275.479 179.392H276.922V186.474ZM272.242 186.474H275.56V181.245L275.398 181.538L272.242 186.474Z" fill="white"/>
<path id="Vector_13" d="M307.8 214.53H326.6C328.3 214.53 329.6 215.83 329.6 217.53V241.83C329.6 243.53 328.3 244.83 326.6 244.83H307.8C306.1 244.83 304.8 243.53 304.8 241.83V217.53C304.8 215.83 306.1 214.53 307.8 214.53Z" stroke="#B6B6B6" stroke-miterlimit="10"/>
<path id="6" d="M304.8 221.03H329.6C331.3 221.03 332.6 222.33 332.6 224.03V235.23C332.6 236.93 331.3 238.23 329.6 238.23H304.8C303.1 238.23 301.8 236.93 301.8 235.23V224.03C301.8 222.33 303.1 221.03 304.8 221.03Z" fill="#FF2400"/>
<path id="4_5" d="M321.142 230.074H322.622V231.18H321.142V233.656H319.78V231.18H314.924V230.382L319.699 222.992H321.142V230.074ZM316.462 230.074H319.78V224.845L319.619 225.138L316.462 230.074Z" fill="white"/>
<path id="Vector_14" d="M374.6 339.53H393.4C395.1 339.53 396.4 340.83 396.4 342.53V366.83C396.4 368.53 395.1 369.83 393.4 369.83H374.6C372.9 369.83 371.6 368.53 371.6 366.83V342.53C371.6 340.93 372.9 339.53 374.6 339.53Z" stroke="#B6B6B6" stroke-miterlimit="10"/>
<path id="9" d="M371.6 346.129H396.4C398.1 346.129 399.4 347.429 399.4 349.129V360.329C399.4 362.029 398.1 363.329 396.4 363.329H371.6C369.9 363.329 368.6 362.029 368.6 360.329V349.129C368.6 347.429 369.9 346.129 371.6 346.129Z" fill="#308410"/>
<path id="4_6" d="M387.942 355.164H389.422V356.27H387.942V358.746H386.58V356.27H381.724V355.472L386.5 348.082H387.942V355.164ZM383.262 355.164H386.58V349.935L386.419 350.228L383.262 355.164Z" fill="white"/>
<path id="Vector_15" d="M374.6 378.33H393.4C395.1 378.33 396.4 379.63 396.4 381.33V405.63C396.4 407.33 395.1 408.63 393.4 408.63H374.6C372.9 408.63 371.6 407.33 371.6 405.63V381.33C371.6 379.63 372.9 378.33 374.6 378.33Z" stroke="#B6B6B6" stroke-miterlimit="10"/>
<path id="10" d="M371.6 384.83H396.4C398.1 384.83 399.4 386.13 399.4 387.83V399.03C399.4 400.73 398.1 402.03 396.4 402.03H371.6C369.9 402.03 368.6 400.73 368.6 399.03V387.83C368.6 386.13 369.9 384.83 371.6 384.83Z" fill="#308410"/>
<path id="4_7" d="M387.942 393.885H389.422V394.99H387.942V397.466H386.58V394.99H381.724V394.192L386.5 386.802H387.942V393.885ZM383.262 393.885H386.58V388.655L386.419 388.948L383.262 393.885Z" fill="white"/>
<path id="Vector_16" d="M374.6 417.03H393.4C395.1 417.03 396.4 418.33 396.4 420.03V444.33C396.4 446.03 395.1 447.33 393.4 447.33H374.6C372.9 447.33 371.6 446.03 371.6 444.33V420.03C371.6 418.33 372.9 417.03 374.6 417.03Z" stroke="#B6B6B6" stroke-miterlimit="10"/>
<path id="11" d="M371.6 423.53H396.4C398.1 423.53 399.4 424.83 399.4 426.53V437.73C399.4 439.43 398.1 440.73 396.4 440.73H371.6C369.9 440.73 368.6 439.43 368.6 437.73V426.53C368.6 424.93 369.9 423.53 371.6 423.53Z" fill="#308410"/>
<path id="4_8" d="M387.942 432.604H389.422V433.71H387.942V436.186H386.58V433.71H381.724V432.912L386.5 425.522H387.942V432.604ZM383.262 432.604H386.58V427.375L386.419 427.668L383.262 432.604Z" fill="white"/>
<path id="Vector_17" d="M374.6 455.729H393.4C395.1 455.729 396.4 457.029 396.4 458.729V483.029C396.4 484.729 395.1 486.029 393.4 486.029H374.6C372.9 486.029 371.6 484.729 371.6 483.029V458.729C371.6 457.029 372.9 455.729 374.6 455.729Z" stroke="#B6B6B6" stroke-miterlimit="10"/>
<path id="12" d="M371.6 462.229H396.4C398.1 462.229 399.4 463.529 399.4 465.229V476.429C399.4 478.129 398.1 479.429 396.4 479.429H371.6C369.9 479.429 368.6 478.129 368.6 476.429V465.229C368.6 463.629 369.9 462.229 371.6 462.229Z" fill="#308410"/>
<path id="4_9" d="M387.942 471.325H389.422V472.431H387.942V474.906H386.58V472.431H381.724V471.632L386.5 464.242H387.942V471.325ZM383.262 471.325H386.58V466.095L386.419 466.388L383.262 471.325Z" fill="white"/>
<path id="Vector_18" d="M374.6 494.429H393.4C395.1 494.429 396.4 495.729 396.4 497.429V521.729C396.4 523.429 395.1 524.729 393.4 524.729H374.6C372.9 524.729 371.6 523.429 371.6 521.729V497.429C371.6 495.829 372.9 494.429 374.6 494.429Z" stroke="#B6B6B6" stroke-miterlimit="10"/>
<path id="13" d="M371.6 501.03H396.4C398.1 501.03 399.4 502.33 399.4 504.03V515.23C399.4 516.93 398.1 518.23 396.4 518.23H371.6C369.9 518.23 368.6 516.93 368.6 515.23V504.03C368.6 502.33 369.9 501.03 371.6 501.03Z" fill="#308410"/>
<path id="4_10" d="M387.942 510.045H389.422V511.151H387.942V513.626H386.58V511.151H381.724V510.352L386.5 502.962H387.942V510.045ZM383.262 510.045H386.58V504.815L386.419 505.108L383.262 510.045Z" fill="white"/>
<path id="Vector_19" d="M374.6 533.13H393.4C395.1 533.13 396.4 534.43 396.4 536.13V560.43C396.4 562.13 395.1 563.43 393.4 563.43H374.6C372.9 563.43 371.6 562.13 371.6 560.43V536.13C371.6 534.53 372.9 533.13 374.6 533.13Z" stroke="#B6B6B6" stroke-miterlimit="10"/>
<path id="14" d="M371.6 539.729H396.4C398.1 539.729 399.4 541.029 399.4 542.729V553.93C399.4 555.63 398.1 556.93 396.4 556.93H371.6C369.9 556.93 368.6 555.63 368.6 553.93V542.729C368.6 541.029 369.9 539.729 371.6 539.729Z" fill="#308410"/>
<path id="4_11" d="M387.942 548.765H389.422V549.871H387.942V552.346H386.58V549.871H381.724V549.072L386.5 541.682H387.942V548.765ZM383.262 548.765H386.58V543.535L386.419 543.828L383.262 548.765Z" fill="white"/>
<path id="Vector_20" d="M341.5 249.129H360.3C362 249.129 363.3 250.429 363.3 252.129V276.429C363.3 278.129 362 279.429 360.3 279.429H341.5C339.8 279.429 338.5 278.129 338.5 276.429V252.129C338.5 250.429 339.9 249.129 341.5 249.129Z" stroke="#B6B6B6" stroke-miterlimit="10"/>
<path id="7" d="M338.5 255.629H363.3C365 255.629 366.3 256.929 366.3 258.629V269.829C366.3 271.529 365 272.829 363.3 272.829H338.5C336.8 272.829 335.5 271.529 335.5 269.829V258.629C335.5 256.929 336.9 255.629 338.5 255.629Z" fill="#FF2400"/>
<path id="2" d="M356.159 268.276H349.172V267.302L352.863 263.2C353.41 262.58 353.786 262.077 353.991 261.691C354.201 261.301 354.306 260.898 354.306 260.483C354.306 259.926 354.138 259.469 353.801 259.113C353.464 258.757 353.015 258.578 352.453 258.578C351.779 258.578 351.254 258.771 350.878 259.157C350.507 259.538 350.322 260.07 350.322 260.754H348.967C348.967 259.772 349.282 258.979 349.912 258.373C350.546 257.768 351.394 257.465 352.453 257.465C353.444 257.465 354.228 257.726 354.804 258.249C355.38 258.766 355.668 259.457 355.668 260.322C355.668 261.371 355 262.621 353.662 264.072L350.805 267.17H356.159V268.276Z" fill="white"/>
<path id="Vector_21" d="M367.1 297.929H385.9C387.6 297.929 388.9 299.229 388.9 300.929V325.229C388.9 326.929 387.6 328.229 385.9 328.229H367.1C365.4 328.229 364.1 326.929 364.1 325.229V300.929C364.1 299.329 365.5 297.929 367.1 297.929Z" stroke="#B6B6B6" stroke-miterlimit="10"/>
<path id="8" d="M364.1 304.53H388.9C390.6 304.53 391.9 305.83 391.9 307.53V318.73C391.9 320.43 390.6 321.73 388.9 321.73H364.1C362.4 321.73 361.1 320.43 361.1 318.73V307.53C361.1 305.83 362.5 304.53 364.1 304.53Z" fill="#308410"/>
<path id="2_2" d="M381.759 317.146H374.772V316.172L378.463 312.07C379.01 311.45 379.386 310.947 379.591 310.561C379.801 310.171 379.906 309.768 379.906 309.353C379.906 308.796 379.738 308.34 379.401 307.983C379.064 307.627 378.615 307.448 378.053 307.448C377.379 307.448 376.854 307.641 376.479 308.027C376.107 308.408 375.922 308.94 375.922 309.624H374.567C374.567 308.642 374.882 307.849 375.512 307.243C376.146 306.638 376.994 306.335 378.053 306.335C379.044 306.335 379.828 306.596 380.404 307.119C380.98 307.636 381.269 308.327 381.269 309.192C381.269 310.241 380.6 311.491 379.262 312.942L376.405 316.04H381.759V317.146Z" fill="white"/>
<path id="Vector_22" d="M114.7 200.83H133.5C135.2 200.83 136.5 202.13 136.5 203.83V228.13C136.5 229.83 135.2 231.13 133.5 231.13H114.7C113 231.13 111.7 229.83 111.7 228.13V203.83C111.7 202.23 113.1 200.83 114.7 200.83Z" stroke="#B6B6B6" stroke-miterlimit="10"/>
<path id="20" d="M111.7 207.429H136.5C138.2 207.429 139.5 208.729 139.5 210.429V221.629C139.5 223.329 138.2 224.629 136.5 224.629H111.7C110 224.629 108.7 223.329 108.7 221.629V210.429C108.7 208.729 110.1 207.429 111.7 207.429Z" fill="#308410"/>
<path id="4_12" d="M128.092 216.444H129.571V217.55H128.092V220.026H126.729V217.55H121.874V216.752L126.649 209.362H128.092V216.444ZM123.412 216.444H126.729V211.215L126.568 211.508L123.412 216.444Z" fill="white"/>
<path id="Vector_23" d="M114.7 248.53H133.5C135.2 248.53 136.5 249.83 136.5 251.53V275.83C136.5 277.53 135.2 278.83 133.5 278.83H114.7C113 278.83 111.7 277.53 111.7 275.83V251.53C111.7 249.93 113.1 248.53 114.7 248.53Z" stroke="#B6B6B6" stroke-miterlimit="10"/>
<path id="22" d="M111.7 255.129H136.5C138.2 255.129 139.5 256.429 139.5 258.129V269.329C139.5 271.029 138.2 272.329 136.5 272.329H111.7C110 272.329 108.7 271.029 108.7 269.329V258.129C108.7 256.429 110.1 255.129 111.7 255.129Z" fill="#308410"/>
<path id="4_13" d="M128.092 264.164H129.571V265.27H128.092V267.746H126.729V265.27H121.874V264.472L126.649 257.082H128.092V264.164ZM123.412 264.164H126.729V258.935L126.568 259.228L123.412 264.164Z" fill="white"/>
<path id="Vector_24" d="M114.7 296.33H133.5C135.2 296.33 136.5 297.63 136.5 299.33V323.63C136.5 325.33 135.2 326.63 133.5 326.63H114.7C113 326.63 111.7 325.33 111.7 323.63V299.33C111.7 297.63 113.1 296.33 114.7 296.33Z" stroke="#B6B6B6" stroke-miterlimit="10"/>
<path id="25" d="M111.7 302.83H136.5C138.2 302.83 139.5 304.13 139.5 305.83V317.03C139.5 318.73 138.2 320.03 136.5 320.03H111.7C110 320.03 108.7 318.73 108.7 317.03V305.83C108.7 304.13 110.1 302.83 111.7 302.83Z" fill="#FF2400"/>
<path id="4_14" d="M128.092 311.874H129.571V312.98H128.092V315.456H126.729V312.98H121.874V312.182L126.649 304.792H128.092V311.874ZM123.412 311.874H126.729V306.645L126.568 306.938L123.412 311.874Z" fill="white"/>
<path id="Vector_25" d="M200.2 200.83H219C220.7 200.83 222 202.13 222 203.83V228.13C222 229.83 220.7 231.13 219 231.13H200.2C198.5 231.13 197.2 229.83 197.2 228.13V203.83C197.2 202.23 198.6 200.83 200.2 200.83Z" stroke="#B6B6B6" stroke-miterlimit="10"/>
<path id="21" d="M197.3 207.429H222.1C223.8 207.429 225.1 208.729 225.1 210.429V221.629C225.1 223.329 223.8 224.629 222.1 224.629H197.3C195.6 224.629 194.3 223.329 194.3 221.629V210.429C194.3 208.729 195.6 207.429 197.3 207.429Z" fill="#308410"/>
<path id="2_3" d="M214.889 220.026H207.902V219.052L211.593 214.95C212.14 214.33 212.516 213.827 212.721 213.441C212.931 213.051 213.036 212.648 213.036 212.233C213.036 211.676 212.868 211.219 212.531 210.863C212.194 210.507 211.745 210.328 211.183 210.328C210.509 210.328 209.984 210.521 209.608 210.907C209.237 211.288 209.052 211.82 209.052 212.504H207.697C207.697 211.522 208.012 210.729 208.642 210.123C209.276 209.518 210.124 209.215 211.183 209.215C212.174 209.215 212.958 209.476 213.534 209.999C214.11 210.516 214.398 211.207 214.398 212.072C214.398 213.121 213.729 214.371 212.392 215.822L209.535 218.92H214.889V220.026Z" fill="white"/>
<path id="Vector_26" d="M144.4 367.129H163.2C164.9 367.129 166.2 368.429 166.2 370.129V394.429C166.2 396.129 164.9 397.429 163.2 397.429H144.4C142.7 397.429 141.4 396.129 141.4 394.429V370.129C141.4 368.429 142.7 367.129 144.4 367.129Z" stroke="#B6B6B6" stroke-miterlimit="10"/>
<path id="18" d="M141.4 373.629H166.2C167.9 373.629 169.2 374.929 169.2 376.629V387.829C169.2 389.529 167.9 390.829 166.2 390.829H141.4C139.7 390.829 138.4 389.529 138.4 387.829V376.629C138.4 375.029 139.7 373.629 141.4 373.629Z" fill="#308410"/>
<path id="2_4" d="M159.029 386.286H152.042V385.312L155.733 381.21C156.28 380.59 156.656 380.087 156.861 379.702C157.071 379.311 157.176 378.908 157.176 378.493C157.176 377.937 157.007 377.48 156.67 377.124C156.333 376.767 155.884 376.589 155.323 376.589C154.649 376.589 154.124 376.782 153.748 377.167C153.377 377.548 153.191 378.081 153.191 378.764H151.836C151.836 377.783 152.151 376.989 152.781 376.384C153.416 375.778 154.263 375.476 155.323 375.476C156.314 375.476 157.098 375.737 157.674 376.259C158.25 376.777 158.538 377.468 158.538 378.332C158.538 379.382 157.869 380.632 156.531 382.082L153.675 385.18H159.029V386.286Z" fill="white"/>
<path id="Vector_27" d="M181.5 367.129H200.3C202 367.129 203.3 368.429 203.3 370.129V394.429C203.3 396.129 202 397.429 200.3 397.429H181.5C179.8 397.429 178.5 396.129 178.5 394.429V370.129C178.5 368.429 179.8 367.129 181.5 367.129Z" stroke="#B6B6B6" stroke-miterlimit="10"/>
<path id="17" d="M178.5 373.629H203.3C205 373.629 206.3 374.929 206.3 376.629V387.829C206.3 389.529 205 390.829 203.3 390.829H178.5C176.8 390.829 175.5 389.529 175.5 387.829V376.629C175.5 375.029 176.8 373.629 178.5 373.629Z" fill="#308410"/>
<path id="2_5" d="M196.109 386.286H189.122V385.312L192.813 381.21C193.36 380.59 193.736 380.087 193.941 379.702C194.151 379.311 194.256 378.908 194.256 378.493C194.256 377.937 194.087 377.48 193.75 377.124C193.414 376.767 192.964 376.589 192.403 376.589C191.729 376.589 191.204 376.782 190.828 377.167C190.457 377.548 190.271 378.081 190.271 378.764H188.917C188.917 377.783 189.231 376.989 189.861 376.384C190.496 375.778 191.343 375.476 192.403 375.476C193.394 375.476 194.178 375.737 194.754 376.259C195.33 376.777 195.618 377.468 195.618 378.332C195.618 379.382 194.949 380.632 193.611 382.082L190.755 385.18H196.109V386.286Z" fill="white"/>
<path id="Vector_28" d="M286.2 327.83H305C306.7 327.83 308 329.13 308 330.83V355.13C308 356.83 306.7 358.13 305 358.13H286.2C284.5 358.13 283.2 356.83 283.2 355.13V330.83C283.2 329.23 284.5 327.83 286.2 327.83Z" stroke="#B6B6B6" stroke-miterlimit="10"/>
<path id="16" d="M283.2 334.429H308C309.7 334.429 311 335.729 311 337.429V348.629C311 350.329 309.7 351.629 308 351.629H283.2C281.5 351.629 280.2 350.329 280.2 348.629V337.429C280.2 335.729 281.6 334.429 283.2 334.429Z" fill="#308410"/>
<path id="2_6" d="M300.839 347.026H293.852V346.052L297.543 341.95C298.09 341.33 298.466 340.827 298.671 340.441C298.881 340.051 298.986 339.648 298.986 339.233C298.986 338.676 298.817 338.22 298.48 337.863C298.144 337.507 297.694 337.329 297.133 337.329C296.459 337.329 295.934 337.521 295.558 337.907C295.187 338.288 295.001 338.82 295.001 339.504H293.646C293.646 338.522 293.961 337.729 294.591 337.124C295.226 336.518 296.073 336.215 297.133 336.215C298.124 336.215 298.908 336.477 299.484 336.999C300.06 337.517 300.348 338.208 300.348 339.072C300.348 340.122 299.679 341.372 298.341 342.822L295.485 345.92H300.839V347.026Z" fill="white"/>
<path id="Vector_29" d="M321.1 328.33H339.9C341.6 328.33 342.9 329.63 342.9 331.33V355.63C342.9 357.33 341.6 358.63 339.9 358.63H321.1C319.4 358.63 318.1 357.33 318.1 355.63V331.33C318.1 329.63 319.5 328.33 321.1 328.33Z" stroke="#B6B6B6" stroke-miterlimit="10"/>
<path id="15" d="M318.1 334.83H342.9C344.6 334.83 345.9 336.13 345.9 337.83V349.03C345.9 350.73 344.6 352.03 342.9 352.03H318.1C316.4 352.03 315.1 350.73 315.1 349.03V337.83C315.1 336.23 316.5 334.83 318.1 334.83Z" fill="#308410"/>
<path id="2_7" d="M335.739 347.476H328.752V346.502L332.443 342.4C332.99 341.78 333.366 341.277 333.571 340.891C333.781 340.501 333.886 340.098 333.886 339.683C333.886 339.126 333.718 338.67 333.381 338.313C333.044 337.957 332.595 337.779 332.033 337.779C331.359 337.779 330.834 337.971 330.458 338.357C330.087 338.738 329.902 339.27 329.902 339.954H328.547C328.547 338.972 328.862 338.179 329.492 337.573C330.126 336.968 330.974 336.665 332.033 336.665C333.024 336.665 333.808 336.927 334.384 337.449C334.96 337.967 335.249 338.657 335.249 339.522C335.249 340.572 334.58 341.822 333.242 343.272L330.385 346.37H335.739V347.476Z" fill="white"/>
<path id="Vector_30" d="M200.2 248.53H219C220.7 248.53 222 249.83 222 251.53V275.83C222 277.53 220.7 278.83 219 278.83H200.2C198.5 278.83 197.2 277.53 197.2 275.83V251.53C197.2 249.93 198.6 248.53 200.2 248.53Z" stroke="#B6B6B6" stroke-miterlimit="10"/>
<path id="24" d="M197.3 255.129H222.1C223.8 255.129 225.1 256.429 225.1 258.129V269.329C225.1 271.029 223.8 272.329 222.1 272.329H197.3C195.6 272.329 194.3 271.029 194.3 269.329V258.129C194.3 256.429 195.6 255.129 197.3 255.129Z" fill="#308410"/>
<path id="4_15" d="M213.622 264.164H215.102V265.27H213.622V267.746H212.26V265.27H207.404V264.472L212.179 257.082H213.622V264.164ZM208.942 264.164H212.26V258.935L212.099 259.228L208.942 264.164Z" fill="white"/>
<path id="Vector_31" d="M200.2 296.33H219C220.7 296.33 222 297.63 222 299.33V323.63C222 325.33 220.7 326.63 219 326.63H200.2C198.5 326.63 197.2 325.33 197.2 323.63V299.33C197.2 297.63 198.6 296.33 200.2 296.33Z" stroke="#B6B6B6" stroke-miterlimit="10"/>
<path id="27" d="M197.3 302.83H222.1C223.8 302.83 225.1 304.13 225.1 305.83V317.03C225.1 318.73 223.8 320.03 222.1 320.03H197.3C195.6 320.03 194.3 318.73 194.3 317.03V305.83C194.3 304.13 195.6 302.83 197.3 302.83Z" fill="#FF2400"/>
<path id="4_16" d="M213.622 311.874H215.102V312.98H213.622V315.456H212.26V312.98H207.404V312.182L212.179 304.792H213.622V311.874ZM208.942 311.874H212.26V306.645L212.099 306.938L208.942 311.874Z" fill="white"/>
<path id="Vector_32" d="M159.8 248.53H178.6C180.3 248.53 181.6 249.83 181.6 251.53V275.83C181.6 277.53 180.3 278.83 178.6 278.83H159.8C158.1 278.83 156.8 277.53 156.8 275.83V251.53C156.8 249.93 158.1 248.53 159.8 248.53Z" stroke="#B6B6B6" stroke-miterlimit="10"/>
<path id="23" d="M156.8 255.129H181.6C183.3 255.129 184.6 256.429 184.6 258.129V269.329C184.6 271.029 183.3 272.329 181.6 272.329H156.8C155.1 272.329 153.8 271.029 153.8 269.329V258.129C153.8 256.429 155.1 255.129 156.8 255.129Z" fill="#308410"/>
<path id="4_17" d="M173.142 264.164H174.621V265.27H173.142V267.746H171.779V265.27H166.923V264.472L171.699 257.082H173.142V264.164ZM168.461 264.164H171.779V258.935L171.618 259.228L168.461 264.164Z" fill="white"/>
<path id="Vector_33" d="M159.8 296.33H178.6C180.3 296.33 181.6 297.63 181.6 299.33V323.63C181.6 325.33 180.3 326.63 178.6 326.63H159.8C158.1 326.63 156.8 325.33 156.8 323.63V299.33C156.8 297.63 158.1 296.33 159.8 296.33Z" stroke="#B6B6B6" stroke-miterlimit="10"/>
<path id="26" d="M156.8 302.83H181.6C183.3 302.83 184.6 304.13 184.6 305.83V317.03C184.6 318.73 183.3 320.03 181.6 320.03H156.8C155.1 320.03 153.8 318.73 153.8 317.03V305.83C153.8 304.13 155.1 302.83 156.8 302.83Z" fill="#308410"/>
<path id="4_18" d="M173.142 311.874H174.621V312.98H173.142V315.456H171.779V312.98H166.923V312.182L171.699 304.792H173.142V311.874ZM168.461 311.874H171.779V306.645L171.618 306.938L168.461 311.874Z" fill="white"/>
<path id="&#208;&#187;&#208;&#181;&#208;&#178;&#208;&#176;&#209;&#143; &#208;&#178;&#208;&#181;&#209;&#128;&#208;&#176;&#208;&#189;&#208;&#180;&#208;&#176;" d="M168.424 97.478H176.349V98.8403H169.544V101.536L172.511 101.697C173.873 101.785 174.847 102.014 175.433 102.385C176.019 102.751 176.324 103.335 176.349 104.136V104.678H175.155L175.125 104.29C175.077 103.85 174.823 103.535 174.364 103.345C173.905 103.154 173.055 103.032 171.815 102.979L168.424 102.832V97.478ZM176.495 92.0142C176.495 93.0884 176.144 93.9624 175.44 94.6362C174.732 95.3101 173.788 95.647 172.606 95.647H172.357C171.571 95.647 170.87 95.498 170.255 95.2002C169.635 94.8975 169.151 94.4775 168.805 93.9404C168.453 93.3984 168.277 92.8125 168.277 92.1826C168.277 91.1523 168.617 90.3516 169.295 89.7803C169.974 89.209 170.946 88.9233 172.21 88.9233H172.774V94.292C173.556 94.2725 174.188 94.0454 174.671 93.6108C175.15 93.1714 175.389 92.6147 175.389 91.9409C175.389 91.4624 175.292 91.0571 175.096 90.7251C174.901 90.3931 174.642 90.1025 174.32 89.8535L174.964 89.0259C175.985 89.6899 176.495 90.686 176.495 92.0142ZM169.391 92.1826C169.391 92.7295 169.591 93.1885 169.991 93.5596C170.387 93.9307 170.943 94.1602 171.661 94.248V90.2783H171.559C170.87 90.3174 170.338 90.5029 169.962 90.835C169.581 91.167 169.391 91.6162 169.391 92.1826ZM176.349 87.2241H168.424V84.1333C168.424 83.0786 168.609 82.2705 168.98 81.709C169.347 81.1426 169.886 80.8594 170.599 80.8594C170.965 80.8594 171.297 80.9692 171.595 81.189C171.888 81.4087 172.113 81.7334 172.269 82.1631C172.381 81.6846 172.601 81.3013 172.928 81.0132C173.255 80.7202 173.646 80.5737 174.1 80.5737C174.828 80.5737 175.384 80.8423 175.77 81.3794C176.156 81.9116 176.349 82.666 176.349 83.6426V87.2241ZM172.87 85.8691H175.257V83.6279C175.257 83.0615 175.152 82.6392 174.942 82.3608C174.732 82.0776 174.437 81.936 174.056 81.936C173.265 81.936 172.87 82.5171 172.87 83.6792V85.8691ZM171.786 85.8691V84.1187C171.786 82.8491 171.415 82.2144 170.672 82.2144C169.93 82.2144 169.547 82.8149 169.522 84.0161V85.8691H171.786ZM176.349 73.8867C176.192 73.9648 175.914 74.0283 175.514 74.0771C176.168 74.707 176.495 75.459 176.495 76.333C176.495 77.1143 176.275 77.7563 175.836 78.2593C175.392 78.7573 174.83 79.0063 174.151 79.0063C173.326 79.0063 172.687 78.6938 172.232 78.0688C171.773 77.439 171.544 76.5552 171.544 75.4175V74.0991H170.921C170.448 74.0991 170.072 74.2407 169.793 74.5239C169.51 74.8071 169.369 75.2246 169.369 75.7764C169.369 76.2598 169.491 76.665 169.735 76.9922C169.979 77.3193 170.274 77.4829 170.621 77.4829V78.8452C170.226 78.8452 169.845 78.7061 169.479 78.4277C169.107 78.1445 168.814 77.7637 168.6 77.2852C168.385 76.8018 168.277 76.272 168.277 75.6958C168.277 74.7827 168.507 74.0674 168.966 73.5498C169.42 73.0322 170.047 72.7637 170.848 72.7441H174.496C175.223 72.7441 175.802 72.6514 176.231 72.4658H176.349V73.8867ZM175.316 76.1353C175.316 75.7104 175.206 75.3076 174.986 74.9268C174.767 74.5459 174.481 74.27 174.129 74.0991H172.503V75.1611C172.503 76.8213 172.989 77.6514 173.961 77.6514C174.386 77.6514 174.718 77.5098 174.957 77.2266C175.196 76.9434 175.316 76.5796 175.316 76.1353ZM168.424 64.563H176.349V65.9253H173.265V67.9688L176.349 69.8364V71.3013L173.06 69.3091C172.875 69.8169 172.589 70.2075 172.203 70.481C171.812 70.7495 171.358 70.8838 170.841 70.8838C170.118 70.8838 169.537 70.6128 169.098 70.0708C168.653 69.5288 168.429 68.8037 168.424 67.8955V64.563ZM170.855 69.5215C171.241 69.5215 171.554 69.3896 171.793 69.126C172.027 68.8623 172.147 68.5132 172.152 68.0786V65.9253H169.522V67.8735C169.522 68.3765 169.647 68.7769 169.896 69.0747C170.14 69.3726 170.46 69.5215 170.855 69.5215ZM176.349 58.5425H168.424V55.4517C168.424 54.397 168.609 53.5889 168.98 53.0273C169.347 52.4609 169.886 52.1777 170.599 52.1777C170.965 52.1777 171.297 52.2876 171.595 52.5073C171.888 52.7271 172.113 53.0518 172.269 53.4814C172.381 53.0029 172.601 52.6196 172.928 52.3315C173.255 52.0386 173.646 51.8921 174.1 51.8921C174.828 51.8921 175.384 52.1606 175.77 52.6978C176.156 53.23 176.349 53.9844 176.349 54.9609V58.5425ZM172.87 57.1875H175.257V54.9463C175.257 54.3799 175.152 53.9575 174.942 53.6792C174.732 53.396 174.437 53.2544 174.056 53.2544C173.265 53.2544 172.87 53.8354 172.87 54.9976V57.1875ZM171.786 57.1875V55.437C171.786 54.1675 171.415 53.5327 170.672 53.5327C169.93 53.5327 169.547 54.1333 169.522 55.3345V57.1875H171.786ZM176.495 46.8091C176.495 47.8833 176.144 48.7573 175.44 49.4312C174.732 50.105 173.788 50.4419 172.606 50.4419H172.357C171.571 50.4419 170.87 50.293 170.255 49.9951C169.635 49.6924 169.151 49.2725 168.805 48.7354C168.453 48.1934 168.277 47.6074 168.277 46.9775C168.277 45.9473 168.617 45.1465 169.295 44.5752C169.974 44.0039 170.946 43.7183 172.21 43.7183H172.774V49.0869C173.556 49.0674 174.188 48.8403 174.671 48.4058C175.15 47.9663 175.389 47.4097 175.389 46.7358C175.389 46.2573 175.292 45.8521 175.096 45.52C174.901 45.188 174.642 44.8975 174.32 44.6484L174.964 43.8208C175.985 44.4849 176.495 45.481 176.495 46.8091ZM169.391 46.9775C169.391 47.5244 169.591 47.9834 169.991 48.3545C170.387 48.7256 170.943 48.9551 171.661 49.043V45.0732H171.559C170.87 45.1123 170.338 45.2979 169.962 45.6299C169.581 45.9619 169.391 46.4111 169.391 46.9775ZM172.474 35.4492C173.68 35.4492 174.652 35.7251 175.389 36.2769C176.126 36.8286 176.495 37.5757 176.495 38.5181C176.495 39.48 176.19 40.2368 175.58 40.7886H179.396V42.1436H168.424V40.9058L169.303 40.8398C168.619 40.2881 168.277 39.5215 168.277 38.54C168.277 37.5879 168.636 36.8359 169.354 36.2842C170.072 35.7275 171.07 35.4492 172.35 35.4492H172.474ZM172.32 36.8042C171.427 36.8042 170.721 36.9946 170.204 37.3755C169.686 37.7563 169.427 38.2788 169.427 38.9429C169.427 39.7632 169.791 40.3784 170.519 40.7886H174.305C175.028 40.3833 175.389 39.7632 175.389 38.9282C175.389 38.2788 175.133 37.7637 174.62 37.3828C174.103 36.9971 173.336 36.8042 172.32 36.8042ZM176.349 28.8281C176.192 28.9062 175.914 28.9697 175.514 29.0186C176.168 29.6484 176.495 30.4004 176.495 31.2744C176.495 32.0557 176.275 32.6978 175.836 33.2007C175.392 33.6987 174.83 33.9478 174.151 33.9478C173.326 33.9478 172.687 33.6353 172.232 33.0103C171.773 32.3804 171.544 31.4966 171.544 30.3589V29.0405H170.921C170.448 29.0405 170.072 29.1821 169.793 29.4653C169.51 29.7485 169.369 30.166 169.369 30.7178C169.369 31.2012 169.491 31.6064 169.735 31.9336C169.979 32.2607 170.274 32.4243 170.621 32.4243V33.7866C170.226 33.7866 169.845 33.6475 169.479 33.3691C169.107 33.0859 168.814 32.7051 168.6 32.2266C168.385 31.7432 168.277 31.2134 168.277 30.6372C168.277 29.7241 168.507 29.0088 168.966 28.4912C169.42 27.9736 170.047 27.7051 170.848 27.6855H174.496C175.223 27.6855 175.802 27.5928 176.231 27.4072H176.349V28.8281ZM175.316 31.0767C175.316 30.6519 175.206 30.249 174.986 29.8682C174.767 29.4873 174.481 29.2114 174.129 29.0405H172.503V30.1025C172.503 31.7627 172.989 32.5928 173.961 32.5928C174.386 32.5928 174.718 32.4512 174.957 32.168C175.196 31.8848 175.316 31.521 175.316 31.0767ZM176.349 19.0869V20.4419H172.965V24.082H176.349V25.4443H168.424V24.082H171.859V20.4419H168.424V19.0869H176.349ZM175.243 16.9702L174.664 16.5015C173.98 15.9741 172.955 15.6738 171.588 15.6006L168.424 15.4761V10.3711H175.243V9.35303H178.678V10.708H176.349V16.2378H178.678V17.5928L175.243 17.5854V16.9702ZM175.243 15.3662V11.7261H169.676V14.165L171.566 14.2456C173.143 14.3286 174.369 14.7021 175.243 15.3662ZM176.349 2.95898C176.192 3.03711 175.914 3.10059 175.514 3.14941C176.168 3.7793 176.495 4.53125 176.495 5.40527C176.495 6.18652 176.275 6.82861 175.836 7.33154C175.392 7.82959 174.83 8.07861 174.151 8.07861C173.326 8.07861 172.687 7.76611 172.232 7.14111C171.773 6.51123 171.544 5.62744 171.544 4.48975V3.17139H170.921C170.448 3.17139 170.072 3.31299 169.793 3.59619C169.51 3.87939 169.369 4.29688 169.369 4.84863C169.369 5.33203 169.491 5.7373 169.735 6.06445C169.979 6.3916 170.274 6.55518 170.621 6.55518V7.91748C170.226 7.91748 169.845 7.77832 169.479 7.5C169.107 7.2168 168.814 6.83594 168.6 6.35742C168.385 5.87402 168.277 5.34424 168.277 4.76807C168.277 3.85498 168.507 3.13965 168.966 2.62207C169.42 2.10449 170.047 1.83594 170.848 1.81641H174.496C175.223 1.81641 175.802 1.72363 176.231 1.53809H176.349V2.95898ZM175.316 5.20752C175.316 4.78271 175.206 4.37988 174.986 3.99902C174.767 3.61816 174.481 3.34229 174.129 3.17139H172.503V4.2334C172.503 5.89355 172.989 6.72363 173.961 6.72363C174.386 6.72363 174.718 6.58203 174.957 6.29883C175.196 6.01562 175.316 5.65186 175.316 5.20752Z" fill="#0C0C0C"/>
<path id="&#208;&#178;&#209;&#133;&#208;&#190;&#208;&#180;" d="M103.736 123.625V116.937H106.344C107.234 116.937 107.917 117.094 108.39 117.407C108.868 117.716 109.107 118.171 109.107 118.773C109.107 119.082 109.015 119.362 108.829 119.614C108.644 119.861 108.37 120.05 108.007 120.182C108.411 120.277 108.735 120.463 108.978 120.739C109.225 121.015 109.349 121.344 109.349 121.728C109.349 122.342 109.122 122.812 108.669 123.137C108.219 123.463 107.583 123.625 106.758 123.625H103.736ZM104.879 120.689V122.704H106.771C107.249 122.704 107.605 122.616 107.84 122.439C108.079 122.261 108.199 122.012 108.199 121.691C108.199 121.023 107.708 120.689 106.728 120.689H104.879ZM104.879 119.774H106.357C107.428 119.774 107.964 119.461 107.964 118.835C107.964 118.208 107.457 117.885 106.443 117.864H104.879V119.774ZM113.107 119.379L114.591 116.937H115.926L113.738 120.244L115.994 123.625H114.671L113.126 121.122L111.58 123.625H110.251L112.507 120.244L110.319 116.937H111.642L113.107 119.379ZM116.717 120.219C116.717 119.564 116.845 118.975 117.1 118.451C117.36 117.928 117.719 117.524 118.176 117.24C118.638 116.955 119.163 116.813 119.752 116.813C120.663 116.813 121.399 117.129 121.959 117.759C122.524 118.39 122.806 119.228 122.806 120.275V120.355C122.806 121.007 122.68 121.592 122.429 122.111C122.182 122.626 121.825 123.028 121.36 123.316C120.898 123.605 120.366 123.749 119.765 123.749C118.858 123.749 118.122 123.434 117.558 122.803C116.997 122.173 116.717 121.338 116.717 120.3V120.219ZM117.867 120.355C117.867 121.097 118.038 121.693 118.38 122.142C118.726 122.591 119.188 122.816 119.765 122.816C120.346 122.816 120.807 122.589 121.149 122.136C121.491 121.678 121.662 121.04 121.662 120.219C121.662 119.486 121.487 118.892 121.137 118.439C120.791 117.982 120.329 117.753 119.752 117.753C119.188 117.753 118.732 117.978 118.386 118.427C118.04 118.876 117.867 119.519 117.867 120.355ZM123.739 122.692L124.135 122.204C124.58 121.627 124.834 120.761 124.895 119.607L125 116.937H129.309V122.692H130.168V125.591H129.025V123.625H124.358V125.591H123.214L123.22 122.692H123.739ZM125.093 122.692H128.165V117.994H126.107L126.039 119.589C125.969 120.92 125.654 121.954 125.093 122.692Z" fill="#0C0C0C"/>
<path id="&#208;&#177;&#208;&#176;&#209;&#128;" d="M151.064 465.315C152.915 465.315 154.394 465.937 155.501 467.18C156.617 468.414 157.175 470.042 157.175 472.065V472.297C157.175 473.685 156.907 474.928 156.372 476.025C155.836 477.114 155.065 477.962 154.058 478.57C153.06 479.169 151.908 479.468 150.602 479.468C148.624 479.468 147.032 478.81 145.825 477.495C144.619 476.17 144.015 474.397 144.015 472.174V470.949C144.015 467.856 144.587 465.397 145.73 463.574C146.882 461.75 148.579 460.639 150.82 460.24C152.09 460.013 152.947 459.736 153.392 459.409C153.836 459.083 154.058 458.634 154.058 458.062H156.127C156.127 459.196 155.868 460.081 155.351 460.716C154.843 461.351 154.027 461.8 152.902 462.063L151.024 462.485C149.527 462.839 148.402 463.438 147.649 464.281C146.905 465.116 146.419 466.232 146.193 467.629C147.526 466.087 149.15 465.315 151.064 465.315ZM150.575 467.384C149.341 467.384 148.361 467.801 147.635 468.636C146.909 469.462 146.546 470.609 146.546 472.079V472.297C146.546 473.875 146.909 475.127 147.635 476.053C148.37 476.969 149.359 477.427 150.602 477.427C151.854 477.427 152.843 476.964 153.568 476.039C154.294 475.114 154.657 473.762 154.657 471.984C154.657 470.596 154.29 469.484 153.555 468.65C152.829 467.806 151.836 467.384 150.575 467.384ZM169.096 479.196C168.95 478.906 168.833 478.389 168.742 477.645C167.571 478.86 166.174 479.468 164.55 479.468C163.099 479.468 161.906 479.06 160.971 478.243C160.046 477.418 159.583 476.375 159.583 475.114C159.583 473.58 160.164 472.392 161.325 471.548C162.496 470.695 164.138 470.269 166.251 470.269H168.701V469.112C168.701 468.232 168.438 467.534 167.912 467.017C167.385 466.49 166.61 466.227 165.585 466.227C164.686 466.227 163.933 466.454 163.326 466.908C162.718 467.361 162.414 467.91 162.414 468.554H159.883C159.883 467.819 160.141 467.112 160.658 466.431C161.185 465.742 161.892 465.198 162.781 464.798C163.679 464.399 164.664 464.2 165.734 464.2C167.431 464.2 168.76 464.626 169.722 465.479C170.683 466.322 171.182 467.488 171.219 468.976V475.753C171.219 477.105 171.391 478.18 171.736 478.978V479.196H169.096ZM164.918 477.277C165.707 477.277 166.456 477.073 167.163 476.665C167.871 476.257 168.383 475.726 168.701 475.073V472.052H166.728C163.643 472.052 162.101 472.954 162.101 474.76C162.101 475.549 162.364 476.166 162.89 476.61C163.416 477.055 164.092 477.277 164.918 477.277ZM187.603 471.997C187.603 474.238 187.09 476.043 186.065 477.413C185.04 478.783 183.652 479.468 181.901 479.468C180.114 479.468 178.708 478.901 177.683 477.767V484.857H175.165V464.472H177.465L177.587 466.105C178.612 464.835 180.037 464.2 181.86 464.2C183.629 464.2 185.027 464.866 186.052 466.2C187.086 467.534 187.603 469.389 187.603 471.766V471.997ZM185.085 471.711C185.085 470.051 184.732 468.74 184.024 467.779C183.316 466.817 182.346 466.336 181.112 466.336C179.588 466.336 178.445 467.012 177.683 468.364V475.399C178.436 476.742 179.588 477.413 181.139 477.413C182.346 477.413 183.303 476.937 184.01 475.984C184.727 475.023 185.085 473.598 185.085 471.711Z" fill="#0C0C0C"/>
<path id="Vector_34" d="M87.7002 142.629V172.929C87.7002 174.629 86.4002 175.929 84.7002 175.929H50.7002C49.0002 175.929 47.7002 174.629 47.7002 172.929V142.629C47.7002 140.929 49.0002 139.629 50.7002 139.629H84.7002C86.3002 139.629 87.7002 141.029 87.7002 142.629Z" stroke="#B6B6B6" stroke-miterlimit="10"/>
<path id="1" d="M78.9998 138.33V177.33C78.9998 179.03 77.6998 180.33 75.9998 180.33H59.2998C57.5998 180.33 56.2998 179.03 56.2998 177.33V138.33C56.2998 136.63 57.5998 135.33 59.2998 135.33H76.0998C77.6998 135.33 78.9998 136.63 78.9998 138.33Z" fill="#308410"/>
<path id="6_2" d="M70.8887 151.114V152.264H70.6396C69.585 152.284 68.7451 152.596 68.1201 153.202C67.4951 153.807 67.1338 154.659 67.0361 155.758C67.5977 155.113 68.3643 154.791 69.3359 154.791C70.2637 154.791 71.0034 155.118 71.5552 155.772C72.1118 156.427 72.3901 157.271 72.3901 158.307C72.3901 159.405 72.0898 160.284 71.4893 160.943C70.8936 161.603 70.0928 161.932 69.0869 161.932C68.0664 161.932 67.2388 161.542 66.604 160.76C65.9692 159.974 65.6519 158.963 65.6519 157.728V157.208C65.6519 155.245 66.0693 153.746 66.9043 152.711C67.7441 151.671 68.9917 151.139 70.647 151.114H70.8887ZM69.1089 155.919C68.645 155.919 68.2178 156.058 67.8271 156.336C67.4365 156.615 67.1655 156.964 67.0142 157.384V157.882C67.0142 158.761 67.2119 159.469 67.6074 160.006C68.0029 160.543 68.4961 160.812 69.0869 160.812C69.6973 160.812 70.1758 160.587 70.5225 160.138C70.874 159.688 71.0498 159.1 71.0498 158.373C71.0498 157.64 70.8716 157.049 70.5151 156.6C70.1636 156.146 69.6948 155.919 69.1089 155.919Z" fill="white"/>
<path id="Vector_35" d="M144.1 142.629V172.929C144.1 174.629 142.8 175.929 141.1 175.929H107.1C105.4 175.929 104.1 174.629 104.1 172.929V142.629C104.1 140.929 105.4 139.629 107.1 139.629H141.1C142.8 139.629 144.1 141.029 144.1 142.629Z" stroke="#B6B6B6" stroke-miterlimit="10"/>
<path id="2_8" d="M135.5 138.33V177.33C135.5 179.03 134.2 180.33 132.5 180.33H115.7C114 180.33 112.7 179.03 112.7 177.33V138.33C112.7 136.63 114 135.33 115.7 135.33H132.5C134.2 135.33 135.5 136.63 135.5 138.33Z" fill="#308410"/>
<path id="6_3" d="M127.349 151.114V152.264H127.1C126.045 152.284 125.205 152.596 124.58 153.202C123.955 153.807 123.594 154.659 123.496 155.758C124.058 155.113 124.824 154.791 125.796 154.791C126.724 154.791 127.463 155.118 128.015 155.772C128.572 156.427 128.85 157.271 128.85 158.307C128.85 159.405 128.55 160.284 127.949 160.943C127.354 161.603 126.553 161.932 125.547 161.932C124.526 161.932 123.699 161.542 123.064 160.76C122.429 159.974 122.112 158.963 122.112 157.728V157.208C122.112 155.245 122.529 153.746 123.364 152.711C124.204 151.671 125.452 151.139 127.107 151.114H127.349ZM125.569 155.919C125.105 155.919 124.678 156.058 124.287 156.336C123.896 156.615 123.625 156.964 123.474 157.384V157.882C123.474 158.761 123.672 159.469 124.067 160.006C124.463 160.543 124.956 160.812 125.547 160.812C126.157 160.812 126.636 160.587 126.982 160.138C127.334 159.688 127.51 159.1 127.51 158.373C127.51 157.64 127.332 157.049 126.975 156.6C126.624 156.146 126.155 155.919 125.569 155.919Z" fill="white"/>
<path id="Vector_36" d="M281.7 388.729V419.029C281.7 420.729 280.4 422.029 278.7 422.029H244.7C243 422.029 241.7 420.729 241.7 419.029V388.729C241.7 387.029 243 385.729 244.7 385.729H278.7C280.4 385.729 281.7 387.129 281.7 388.729Z" stroke="#B6B6B6" stroke-miterlimit="10"/>
<path id="28" d="M273.1 384.429V423.429C273.1 425.129 271.8 426.429 270.1 426.429H253.4C251.7 426.429 250.4 425.129 250.4 423.429V384.429C250.4 382.729 251.7 381.429 253.4 381.429H270.2C271.8 381.429 273.1 382.729 273.1 384.429Z" fill="#7F7F7F"/>
<path id="6_4" d="M264.959 397.235V398.385H264.71C263.655 398.404 262.815 398.717 262.19 399.322C261.565 399.928 261.204 400.78 261.106 401.878C261.668 401.234 262.435 400.912 263.406 400.912C264.334 400.912 265.074 401.239 265.625 401.893C266.182 402.547 266.46 403.392 266.46 404.427C266.46 405.526 266.16 406.405 265.56 407.064C264.964 407.723 264.163 408.053 263.157 408.053C262.137 408.053 261.309 407.662 260.674 406.881C260.04 406.095 259.722 405.084 259.722 403.849V403.329C259.722 401.366 260.14 399.867 260.975 398.832C261.814 397.792 263.062 397.259 264.717 397.235H264.959ZM263.179 402.04C262.715 402.04 262.288 402.179 261.897 402.457C261.507 402.735 261.236 403.084 261.084 403.504V404.002C261.084 404.881 261.282 405.589 261.678 406.126C262.073 406.664 262.566 406.932 263.157 406.932C263.768 406.932 264.246 406.708 264.593 406.258C264.944 405.809 265.12 405.221 265.12 404.493C265.12 403.761 264.942 403.17 264.585 402.721C264.234 402.267 263.765 402.04 263.179 402.04Z" fill="white"/>
<path id="Vector_37" d="M338.2 388.729V419.029C338.2 420.729 336.9 422.029 335.2 422.029H301.2C299.5 422.029 298.2 420.729 298.2 419.029V388.729C298.2 387.029 299.5 385.729 301.2 385.729H335.2C336.9 385.729 338.2 387.129 338.2 388.729Z" stroke="#B6B6B6" stroke-miterlimit="10"/>
<path id="29" d="M329.6 384.429V423.429C329.6 425.129 328.3 426.429 326.6 426.429H309.8C308.1 426.429 306.8 425.129 306.8 423.429V384.429C306.8 382.729 308.1 381.429 309.8 381.429H326.6C328.2 381.429 329.6 382.729 329.6 384.429Z" fill="#FF2400"/>
<path id="6_5" d="M321.419 397.235V398.385H321.17C320.116 398.404 319.276 398.717 318.651 399.322C318.026 399.928 317.665 400.78 317.567 401.878C318.128 401.234 318.895 400.912 319.867 400.912C320.794 400.912 321.534 401.239 322.086 401.893C322.643 402.547 322.921 403.392 322.921 404.427C322.921 405.526 322.621 406.405 322.02 407.064C321.424 407.723 320.624 408.053 319.618 408.053C318.597 408.053 317.77 407.662 317.135 406.881C316.5 406.095 316.183 405.084 316.183 403.849V403.329C316.183 401.366 316.6 399.867 317.435 398.832C318.275 397.792 319.522 397.259 321.178 397.235H321.419ZM319.64 402.04C319.176 402.04 318.749 402.179 318.358 402.457C317.967 402.735 317.696 403.084 317.545 403.504V404.002C317.545 404.881 317.743 405.589 318.138 406.126C318.534 406.664 319.027 406.932 319.618 406.932C320.228 406.932 320.707 406.708 321.053 406.258C321.405 405.809 321.581 405.221 321.581 404.493C321.581 403.761 321.402 403.17 321.046 402.721C320.694 402.267 320.226 402.04 319.64 402.04Z" fill="white"/>
</g>
</g>
<g id="&#208;&#161;&#208;&#187;&#208;&#190;&#208;&#185;_2_2_">
<g id="&#208;&#161;&#208;&#187;&#208;&#190;&#208;&#185;_1-2_1_">
<path id="Vector_38" d="M603 81.9296V184.23H618.8V373.23H659.8V425.03H459.6V571.43H1012V365.53C1012 208.83 885 81.8296 728.3 81.8296H479.9" stroke="#111111" stroke-width="6" stroke-miterlimit="10"/>
<path id="Vector_39" d="M941.9 299.63H960.7C962.4 299.63 963.7 300.93 963.7 302.63V326.93C963.7 328.63 962.4 329.93 960.7 329.93H941.9C940.2 329.93 938.9 328.63 938.9 326.93V302.63C938.9 301.03 940.3 299.63 941.9 299.63Z" stroke="#B6B6B6" stroke-miterlimit="10"/>
<path id="34" d="M938.9 306.229H963.7C965.4 306.229 966.7 307.529 966.7 309.229V320.429C966.7 322.129 965.4 323.429 963.7 323.429H938.9C937.2 323.429 935.9 322.129 935.9 320.429V309.229C935.9 307.529 937.3 306.229 938.9 306.229Z" fill="#308410"/>
<path id="4_19" d="M955.288 315.249H956.768V316.355H955.288V318.831H953.926V316.355H949.07V315.557L953.845 308.167H955.288V315.249ZM950.608 315.249H953.926V310.02L953.765 310.313L950.608 315.249Z" fill="white"/>
<path id="Vector_40" d="M961.1 365.93H979.9C981.6 365.93 982.9 367.23 982.9 368.93V393.23C982.9 394.93 981.6 396.23 979.9 396.23H961.1C959.4 396.23 958.1 394.93 958.1 393.23V368.93C958.1 367.33 959.5 365.93 961.1 365.93Z" stroke="#B6B6B6" stroke-miterlimit="10"/>
<path id="35" d="M958.1 372.53H982.9C984.6 372.53 985.9 373.83 985.9 375.53V386.73C985.9 388.43 984.6 389.73 982.9 389.73H958.1C956.4 389.73 955.1 388.43 955.1 386.73V375.53C955.1 373.83 956.5 372.53 958.1 372.53Z" fill="#308410"/>
<path id="4_20" d="M974.488 381.57H975.967V382.676H974.488V385.151H973.125V382.676H968.27V381.877L973.045 374.487H974.488V381.57ZM969.808 381.57H973.125V376.34L972.964 376.633L969.808 381.57Z" fill="white"/>
<path id="Vector_41" d="M961.1 452.13H979.9C981.6 452.13 982.9 453.43 982.9 455.13V479.43C982.9 481.13 981.6 482.43 979.9 482.43H961.1C959.4 482.43 958.1 481.13 958.1 479.43V455.13C958.1 453.53 959.5 452.13 961.1 452.13Z" stroke="#B6B6B6" stroke-miterlimit="10"/>
<path id="36" d="M958.1 458.729H982.9C984.6 458.729 985.9 460.029 985.9 461.729V472.929C985.9 474.629 984.6 475.929 982.9 475.929H958.1C956.4 475.929 955.1 474.629 955.1 472.929V461.729C955.1 460.029 956.5 458.729 958.1 458.729Z" fill="#308410"/>
<path id="4_21" d="M974.488 467.75H975.967V468.855H974.488V471.331H973.125V468.855H968.27V468.057L973.045 460.667H974.488V467.75ZM969.808 467.75H973.125V462.52L972.964 462.813L969.808 467.75Z" fill="white"/>
<path id="Vector_42" d="M958.5 512.63H977.3C979 512.63 980.3 513.93 980.3 515.63V539.93C980.3 541.63 979 542.93 977.3 542.93H958.5C956.8 542.93 955.5 541.63 955.5 539.93V515.63C955.5 514.03 956.8 512.63 958.5 512.63Z" stroke="#B6B6B6" stroke-miterlimit="10"/>
<path id="37" d="M955.5 519.229H980.3C982 519.229 983.3 520.529 983.3 522.229V533.43C983.3 535.13 982 536.43 980.3 536.43H955.5C953.8 536.43 952.5 535.13 952.5 533.43V522.229C952.5 520.529 953.8 519.229 955.5 519.229Z" fill="#308410"/>
<path id="4_22" d="M971.868 528.27H973.348V529.376H971.868V531.851H970.506V529.376H965.65V528.577L970.425 521.187H971.868V528.27ZM967.188 528.27H970.506V523.04L970.345 523.333L967.188 528.27Z" fill="white"/>
<path id="Vector_43" d="M897.4 476.93H916.2C917.9 476.93 919.2 478.23 919.2 479.93V504.23C919.2 505.93 917.9 507.23 916.2 507.23H897.4C895.7 507.23 894.4 505.93 894.4 504.23V479.93C894.4 478.23 895.8 476.93 897.4 476.93Z" stroke="#B6B6B6" stroke-miterlimit="10"/>
<path id="45" d="M894.4 483.43H919.2C920.9 483.43 922.2 484.73 922.2 486.43V497.63C922.2 499.33 920.9 500.63 919.2 500.63H894.4C892.7 500.63 891.4 499.33 891.4 497.63V486.43C891.4 484.73 892.8 483.43 894.4 483.43Z" fill="#308410"/>
<path id="4_23" d="M910.778 492.49H912.257V493.596H910.778V496.071H909.416V493.596H904.56V492.797L909.335 485.407H910.778V492.49ZM906.098 492.49H909.416V487.26L909.254 487.553L906.098 492.49Z" fill="white"/>
<path id="Vector_44" d="M897.4 414.53H916.2C917.9 414.53 919.2 415.83 919.2 417.53V441.83C919.2 443.53 917.9 444.83 916.2 444.83H897.4C895.7 444.83 894.4 443.53 894.4 441.83V417.53C894.4 415.83 895.8 414.53 897.4 414.53Z" stroke="#B6B6B6" stroke-miterlimit="10"/>
<path id="44" d="M894.4 421.03H919.2C920.9 421.03 922.2 422.33 922.2 424.03V435.23C922.2 436.93 920.9 438.23 919.2 438.23H894.4C892.7 438.23 891.4 436.93 891.4 435.23V424.03C891.4 422.33 892.8 421.03 894.4 421.03Z" fill="#308410"/>
<path id="4_24" d="M910.778 430.09H912.257V431.196H910.778V433.671H909.416V431.196H904.56V430.397L909.335 423.007H910.778V430.09ZM906.098 430.09H909.416V424.86L909.254 425.153L906.098 430.09Z" fill="white"/>
<path id="Vector_45" d="M800.4 106.63V125.43C800.4 127.13 799.1 128.43 797.4 128.43H773.1C771.4 128.43 770.1 127.13 770.1 125.43V106.63C770.1 104.93 771.4 103.63 773.1 103.63H797.4C799 103.63 800.4 105.03 800.4 106.63Z" stroke="#B6B6B6" stroke-miterlimit="10"/>
<path id="31" d="M793.8 103.729V128.529C793.8 130.229 792.5 131.529 790.8 131.529H779.6C777.9 131.529 776.6 130.229 776.6 128.529V103.729C776.6 102.029 777.9 100.729 779.6 100.729H790.8C792.5 100.729 793.8 102.029 793.8 103.729Z" fill="#308410"/>
<path id="4_25" d="M789.167 116.519H790.647V117.625H789.167V120.101H787.805V117.625H782.949V116.827L787.725 109.437H789.167V116.519ZM784.487 116.519H787.805V111.29L787.644 111.583L784.487 116.519Z" fill="white"/>
<path id="Vector_46" d="M886.1 154.13V172.93C886.1 174.63 884.8 175.93 883.1 175.93H858.8C857.1 175.93 855.8 174.63 855.8 172.93V154.13C855.8 152.43 857.1 151.13 858.8 151.13H883.1C884.8 151.13 886.1 152.43 886.1 154.13Z" stroke="#B6B6B6" stroke-miterlimit="10"/>
<path id="32" d="M879.6 151.13V175.93C879.6 177.63 878.3 178.93 876.6 178.93H865.4C863.7 178.93 862.4 177.63 862.4 175.93V151.13C862.4 149.43 863.7 148.13 865.4 148.13H876.6C878.2 148.13 879.6 149.43 879.6 151.13Z" fill="#308410"/>
<path id="4_26" d="M874.908 163.939H876.387V165.045H874.908V167.521H873.545V165.045H868.689V164.247L873.465 156.857H874.908V163.939ZM870.228 163.939H873.545V158.71L873.384 159.003L870.228 163.939Z" fill="white"/>
<path id="Vector_47" d="M951 219.83V238.63C951 240.33 949.7 241.63 948 241.63H923.7C922 241.63 920.7 240.33 920.7 238.63V219.83C920.7 218.13 922 216.83 923.7 216.83H948C949.6 216.83 951 218.23 951 219.83Z" stroke="#B6B6B6" stroke-miterlimit="10"/>
<path id="33" d="M944.4 216.83V241.63C944.4 243.33 943.1 244.63 941.4 244.63H930.2C928.5 244.63 927.2 243.33 927.2 241.63V216.83C927.2 215.13 928.5 213.83 930.2 213.83H941.4C943.1 213.83 944.4 215.23 944.4 216.83Z" fill="#308410"/>
<path id="4_27" d="M939.788 229.679H941.268V230.785H939.788V233.261H938.426V230.785H933.57V229.987L938.345 222.597H939.788V229.679ZM935.108 229.679H938.426V224.45L938.265 224.743L935.108 229.679Z" fill="white"/>
<path id="Vector_48" d="M821.5 246.33V265.13C821.5 266.83 820.2 268.13 818.5 268.13H794.2C792.5 268.13 791.2 266.83 791.2 265.13V246.33C791.2 244.63 792.5 243.33 794.2 243.33H818.5C820.2 243.33 821.5 244.63 821.5 246.33Z" stroke="#B6B6B6" stroke-miterlimit="10"/>
<path id="42" d="M815 243.33V268.13C815 269.83 813.7 271.13 812 271.13H800.8C799.1 271.13 797.8 269.83 797.8 268.13V243.33C797.8 241.63 799.1 240.33 800.8 240.33H812C813.6 240.33 815 241.63 815 243.33Z" fill="#308410"/>
<path id="4_28" d="M810.328 256.159H811.807V257.265H810.328V259.741H808.965V257.265H804.109V256.467L808.885 249.077H810.328V256.159ZM805.647 256.159H808.965V250.93L808.804 251.223L805.647 256.159Z" fill="white"/>
<path id="Vector_49" d="M880.6 296.93V315.73C880.6 317.43 879.3 318.73 877.6 318.73H853.3C851.6 318.73 850.3 317.43 850.3 315.73V296.93C850.3 295.23 851.6 293.93 853.3 293.93H877.6C879.2 293.93 880.6 295.23 880.6 296.93Z" stroke="#B6B6B6" stroke-miterlimit="10"/>
<path id="43" d="M874 293.93V318.73C874 320.43 872.7 321.73 871 321.73H859.8C858.1 321.73 856.8 320.43 856.8 318.73V293.93C856.8 292.23 858.1 290.93 859.8 290.93H871C872.7 290.93 874 292.23 874 293.93Z" fill="#308410"/>
<path id="4_29" d="M869.357 306.769H870.837V307.875H869.357V310.351H867.995V307.875H863.139V307.077L867.915 299.687H869.357V306.769ZM864.677 306.769H867.995V301.54L867.834 301.833L864.677 306.769Z" fill="white"/>
<path id="Vector_50" d="M727.9 181.83H746.7C748.4 181.83 749.7 183.13 749.7 184.83V209.13C749.7 210.83 748.4 212.13 746.7 212.13H727.9C726.2 212.13 724.9 210.83 724.9 209.13V184.83C724.9 183.13 726.2 181.83 727.9 181.83Z" stroke="#B6B6B6" stroke-miterlimit="10"/>
<path id="41" d="M724.9 188.33H749.7C751.4 188.33 752.7 189.63 752.7 191.33V202.63C752.7 204.33 751.4 205.63 749.7 205.63H724.9C723.2 205.63 721.9 204.33 721.9 202.63V191.43C721.9 189.73 723.2 188.33 724.9 188.33Z" fill="#308410"/>
<path id="2_9" d="M742.495 200.981H735.507V200.007L739.199 195.905C739.746 195.285 740.122 194.782 740.327 194.396C740.537 194.006 740.642 193.603 740.642 193.188C740.642 192.631 740.473 192.175 740.136 191.818C739.799 191.462 739.35 191.283 738.789 191.283C738.115 191.283 737.59 191.476 737.214 191.862C736.843 192.243 736.657 192.775 736.657 193.459H735.302C735.302 192.477 735.617 191.684 736.247 191.078C736.882 190.473 737.729 190.17 738.789 190.17C739.78 190.17 740.563 190.431 741.14 190.954C741.716 191.471 742.004 192.162 742.004 193.027C742.004 194.076 741.335 195.326 739.997 196.777L737.141 199.875H742.495V200.981Z" fill="white"/>
<path id="Vector_51" d="M651.4 181.83H670.2C671.9 181.83 673.2 183.13 673.2 184.83V209.13C673.2 210.83 671.9 212.13 670.2 212.13H651.4C649.7 212.13 648.4 210.83 648.4 209.13V184.83C648.4 183.13 649.8 181.83 651.4 181.83Z" stroke="#B6B6B6" stroke-miterlimit="10"/>
<path id="40" d="M648.4 188.33H673.2C674.9 188.33 676.2 189.63 676.2 191.33V202.63C676.2 204.33 674.9 205.63 673.2 205.63H648.4C646.7 205.63 645.4 204.33 645.4 202.63V191.43C645.4 189.73 646.8 188.33 648.4 188.33Z" fill="#308410"/>
<path id="2_10" d="M666.064 200.981H659.077V200.007L662.769 195.905C663.315 195.285 663.691 194.782 663.896 194.396C664.106 194.006 664.211 193.603 664.211 193.188C664.211 192.631 664.043 192.175 663.706 191.818C663.369 191.462 662.92 191.283 662.358 191.283C661.685 191.283 661.16 191.476 660.784 191.862C660.413 192.243 660.227 192.775 660.227 193.459H658.872C658.872 192.477 659.187 191.684 659.817 191.078C660.452 190.473 661.299 190.17 662.358 190.17C663.35 190.17 664.133 190.431 664.709 190.954C665.286 191.471 665.574 192.162 665.574 193.027C665.574 194.076 664.905 195.326 663.567 196.777L660.71 199.875H666.064V200.981Z" fill="white"/>
<path id="Vector_52" d="M886.2 521.93V552.23C886.2 553.93 884.9 555.23 883.2 555.23H849.2C847.5 555.23 846.2 553.93 846.2 552.23V521.93C846.2 520.23 847.5 518.93 849.2 518.93H883.2C884.8 518.93 886.2 520.23 886.2 521.93Z" stroke="#B6B6B6" stroke-miterlimit="10"/>
<path id="46" d="M877.5 517.53V556.53C877.5 558.23 876.2 559.53 874.5 559.53H857.7C856 559.53 854.7 558.23 854.7 556.53V517.53C854.7 515.83 856 514.53 857.7 514.53H874.5C876.2 514.53 877.5 515.83 877.5 517.53Z" fill="#7F7F7F"/>
<path id="6_6" d="M869.395 530.38V531.53H869.146C868.091 531.549 867.251 531.862 866.626 532.467C866.001 533.073 865.64 533.925 865.542 535.023C866.104 534.379 866.871 534.057 867.842 534.057C868.77 534.057 869.51 534.384 870.062 535.038C870.618 535.692 870.896 536.537 870.896 537.572C870.896 538.671 870.596 539.55 869.996 540.209C869.4 540.868 868.599 541.198 867.593 541.198C866.573 541.198 865.745 540.807 865.11 540.026C864.476 539.24 864.158 538.229 864.158 536.994V536.474C864.158 534.511 864.576 533.012 865.411 531.977C866.25 530.937 867.498 530.404 869.153 530.38H869.395ZM867.615 535.185C867.151 535.185 866.724 535.324 866.333 535.602C865.943 535.88 865.672 536.229 865.521 536.649V537.147C865.521 538.026 865.718 538.734 866.114 539.271C866.509 539.809 867.002 540.077 867.593 540.077C868.204 540.077 868.682 539.853 869.029 539.403C869.38 538.954 869.556 538.366 869.556 537.638C869.556 536.906 869.378 536.315 869.021 535.866C868.67 535.412 868.201 535.185 867.615 535.185Z" fill="white"/>
<path id="Vector_53" d="M841.4 521.93V552.23C841.4 553.93 840.1 555.23 838.4 555.23H804.4C802.7 555.23 801.4 553.93 801.4 552.23V521.93C801.4 520.23 802.7 518.93 804.4 518.93H838.4C840.1 518.93 841.4 520.23 841.4 521.93Z" stroke="#B6B6B6" stroke-miterlimit="10"/>
<path id="47" d="M832.8 517.53V556.53C832.8 558.23 831.5 559.53 829.8 559.53H813C811.3 559.53 810 558.23 810 556.53V517.53C810 515.83 811.3 514.53 813 514.53H829.8C831.5 514.53 832.8 515.83 832.8 517.53Z" fill="#FF2400"/>
<path id="6_7" d="M824.645 530.38V531.53H824.396C823.341 531.549 822.501 531.862 821.876 532.467C821.251 533.073 820.89 533.925 820.792 535.023C821.354 534.379 822.121 534.057 823.092 534.057C824.02 534.057 824.76 534.384 825.312 535.038C825.868 535.692 826.146 536.537 826.146 537.572C826.146 538.671 825.846 539.55 825.246 540.209C824.65 540.868 823.849 541.198 822.843 541.198C821.823 541.198 820.995 540.807 820.36 540.026C819.726 539.24 819.408 538.229 819.408 536.994V536.474C819.408 534.511 819.826 533.012 820.661 531.977C821.5 530.937 822.748 530.404 824.403 530.38H824.645ZM822.865 535.185C822.401 535.185 821.974 535.324 821.583 535.602C821.193 535.88 820.922 536.229 820.771 536.649V537.147C820.771 538.026 820.968 538.734 821.364 539.271C821.759 539.809 822.252 540.077 822.843 540.077C823.454 540.077 823.932 539.853 824.279 539.403C824.63 538.954 824.806 538.366 824.806 537.638C824.806 536.906 824.628 536.315 824.271 535.866C823.92 535.412 823.451 535.185 822.865 535.185Z" fill="white"/>
<path id="Vector_54" d="M796.7 521.93V552.23C796.7 553.93 795.4 555.23 793.7 555.23H759.7C758 555.23 756.7 553.93 756.7 552.23V521.93C756.7 520.23 758 518.93 759.7 518.93H793.7C795.3 518.93 796.7 520.23 796.7 521.93Z" stroke="#B6B6B6" stroke-miterlimit="10"/>
<path id="48" d="M788 517.53V556.53C788 558.23 786.7 559.53 785 559.53H768.2C766.5 559.53 765.2 558.23 765.2 556.53V517.53C765.2 515.83 766.5 514.53 768.2 514.53H785C786.7 514.53 788 515.83 788 517.53Z" fill="#308410"/>
<path id="6_8" d="M779.895 530.38V531.53H779.646C778.591 531.549 777.751 531.862 777.126 532.467C776.501 533.073 776.14 533.925 776.042 535.023C776.604 534.379 777.37 534.057 778.342 534.057C779.27 534.057 780.009 534.384 780.561 535.038C781.118 535.692 781.396 536.537 781.396 537.572C781.396 538.671 781.096 539.55 780.495 540.209C779.899 540.868 779.099 541.198 778.093 541.198C777.072 541.198 776.245 540.807 775.61 540.026C774.975 539.24 774.658 538.229 774.658 536.994V536.474C774.658 534.511 775.075 533.012 775.91 531.977C776.75 530.937 777.998 530.404 779.653 530.38H779.895ZM778.115 535.185C777.651 535.185 777.224 535.324 776.833 535.602C776.442 535.88 776.171 536.229 776.02 536.649V537.147C776.02 538.026 776.218 538.734 776.613 539.271C777.009 539.809 777.502 540.077 778.093 540.077C778.703 540.077 779.182 539.853 779.528 539.403C779.88 538.954 780.056 538.366 780.056 537.638C780.056 536.906 779.877 536.315 779.521 535.866C779.169 535.412 778.701 535.185 778.115 535.185Z" fill="white"/>
<path id="Vector_55" d="M751.9 521.93V552.23C751.9 553.93 750.6 555.23 748.9 555.23H714.9C713.2 555.23 711.9 553.93 711.9 552.23V521.93C711.9 520.23 713.2 518.93 714.9 518.93H748.9C750.6 518.93 751.9 520.23 751.9 521.93Z" stroke="#B6B6B6" stroke-miterlimit="10"/>
<path id="49" d="M743.3 517.53V556.53C743.3 558.23 742 559.53 740.3 559.53H723.5C721.8 559.53 720.5 558.23 720.5 556.53V517.53C720.5 515.83 721.8 514.53 723.5 514.53H740.3C742 514.53 743.3 515.83 743.3 517.53Z" fill="#308410"/>
<path id="6_9" d="M735.145 530.38V531.53H734.896C733.841 531.549 733.001 531.862 732.376 532.467C731.751 533.073 731.39 533.925 731.292 535.023C731.854 534.379 732.62 534.057 733.592 534.057C734.52 534.057 735.259 534.384 735.811 535.038C736.368 535.692 736.646 536.537 736.646 537.572C736.646 538.671 736.346 539.55 735.745 540.209C735.149 540.868 734.349 541.198 733.343 541.198C732.322 541.198 731.495 540.807 730.86 540.026C730.225 539.24 729.908 538.229 729.908 536.994V536.474C729.908 534.511 730.325 533.012 731.16 531.977C732 530.937 733.248 530.404 734.903 530.38H735.145ZM733.365 535.185C732.901 535.185 732.474 535.324 732.083 535.602C731.692 535.88 731.421 536.229 731.27 536.649V537.147C731.27 538.026 731.468 538.734 731.863 539.271C732.259 539.809 732.752 540.077 733.343 540.077C733.953 540.077 734.432 539.853 734.778 539.403C735.13 538.954 735.306 538.366 735.306 537.638C735.306 536.906 735.127 536.315 734.771 535.866C734.419 535.412 733.951 535.185 733.365 535.185Z" fill="white"/>
<path id="Vector_56" d="M707.2 521.93V552.23C707.2 553.93 705.9 555.23 704.2 555.23H670.2C668.5 555.23 667.2 553.93 667.2 552.23V521.93C667.2 520.23 668.5 518.93 670.2 518.93H704.2C705.8 518.93 707.2 520.23 707.2 521.93Z" stroke="#B6B6B6" stroke-miterlimit="10"/>
<path id="50" d="M698.5 517.53V556.53C698.5 558.23 697.2 559.53 695.5 559.53H678.7C677 559.53 675.7 558.23 675.7 556.53V517.53C675.7 515.83 677 514.53 678.7 514.53H695.5C697.2 514.53 698.5 515.83 698.5 517.53Z" fill="#308410"/>
<path id="6_10" d="M690.385 530.38V531.53H690.136C689.081 531.549 688.241 531.862 687.616 532.467C686.991 533.073 686.63 533.925 686.532 535.023C687.094 534.379 687.86 534.057 688.832 534.057C689.76 534.057 690.5 534.384 691.051 535.038C691.608 535.692 691.886 536.537 691.886 537.572C691.886 538.671 691.586 539.55 690.985 540.209C690.39 540.868 689.589 541.198 688.583 541.198C687.562 541.198 686.735 540.807 686.1 540.026C685.465 539.24 685.148 538.229 685.148 536.994V536.474C685.148 534.511 685.565 533.012 686.4 531.977C687.24 530.937 688.488 530.404 690.143 530.38H690.385ZM688.605 535.185C688.141 535.185 687.714 535.324 687.323 535.602C686.933 535.88 686.662 536.229 686.51 536.649V537.147C686.51 538.026 686.708 538.734 687.104 539.271C687.499 539.809 687.992 540.077 688.583 540.077C689.193 540.077 689.672 539.853 690.019 539.403C690.37 538.954 690.546 538.366 690.546 537.638C690.546 536.906 690.368 536.315 690.011 535.866C689.66 535.412 689.191 535.185 688.605 535.185Z" fill="white"/>
<path id="Vector_57" d="M657.2 568.63V547.53" stroke="#111111" stroke-width="6" stroke-miterlimit="10"/>
<path id="Vector_58" d="M603 184.13H566.3V211.63H459.6V424.83" stroke="#111111" stroke-width="6" stroke-miterlimit="10"/>
</g>
</g>
</g>
</g>
</svg>
