<svg xmlns="http://www.w3.org/2000/svg" viewBox="0 0 558.44 495.43"><defs><style>.cls-1,.cls-2{fill:none;stroke-miterlimit:10;}.cls-1{stroke:#111;stroke-width:6px;}.cls-2{stroke:#b6b6b6;}.cls-3{fill:#308410;}.cls-4{font-size:15px;fill:#fff;font-family:BebasNeueBold, Bebas Neue;}.cls-5{fill:#7f7f7f;}.cls-6{fill:#ff2400;}</style></defs><g id="Слой_2" data-name="Слой 2"><g id="Слой_1-2" data-name="Слой 1"><path class="cls-1" d="M146.35,3V105.25h15.8v189h41V346H3V492.43H555.44V286.65C555.44,130,428.44,3,271.79,3H23.29"/><rect class="cls-2" x="482.29" y="220.77" width="24.8" height="30.32" rx="3"/><rect class="cls-3" x="479.29" y="227.3" width="30.79" height="17.24" rx="3"/><text class="cls-4" transform="translate(492.06 240.96)">4</text><rect class="cls-2" x="501.49" y="287.09" width="24.8" height="30.32" rx="3"/><rect class="cls-3" x="498.49" y="293.63" width="30.79" height="17.24" rx="3"/><text class="cls-4" transform="translate(511.26 307.28)">4</text><rect class="cls-2" x="501.49" y="373.27" width="24.8" height="30.32" rx="3"/><rect class="cls-3" x="498.49" y="379.81" width="30.79" height="17.24" rx="3"/><text class="cls-4" transform="translate(511.26 393.46)">4</text><rect class="cls-2" x="498.87" y="433.79" width="24.8" height="30.32" rx="3"/><rect class="cls-3" x="495.87" y="440.33" width="30.79" height="17.24" rx="3"/><text class="cls-4" transform="translate(508.64 453.98)">4</text><rect class="cls-2" x="437.78" y="398.01" width="24.8" height="30.32" rx="3"/><rect class="cls-3" x="434.78" y="404.54" width="30.79" height="17.24" rx="3"/><text class="cls-4" transform="translate(447.55 418.2)">4</text><rect class="cls-2" x="437.78" y="335.61" width="24.8" height="30.32" rx="3"/><rect class="cls-3" x="434.78" y="342.15" width="30.79" height="17.24" rx="3"/><text class="cls-4" transform="translate(447.55 355.8)">4</text><rect class="cls-2" x="316.16" y="22.04" width="24.8" height="30.32" rx="3" transform="translate(365.76 -291.37) rotate(90)"/><rect class="cls-3" x="313.17" y="28.58" width="30.79" height="17.24" rx="3" transform="translate(365.76 -291.37) rotate(90)"/><text class="cls-4" transform="translate(325.94 42.23)">4</text><rect class="cls-2" x="401.91" y="69.46" width="24.8" height="30.32" rx="3" transform="translate(498.93 -329.7) rotate(90)"/><rect class="cls-3" x="398.92" y="75.99" width="30.79" height="17.24" rx="3" transform="translate(498.93 -329.7) rotate(90)"/><text class="cls-4" transform="translate(411.68 89.65)">4</text><rect class="cls-2" x="466.78" y="135.2" width="24.8" height="30.32" rx="3" transform="translate(629.54 -328.82) rotate(90)"/><rect class="cls-3" x="463.79" y="141.74" width="30.79" height="17.24" rx="3" transform="translate(629.54 -328.82) rotate(90)"/><text class="cls-4" transform="translate(476.56 155.39)">4</text><rect class="cls-2" x="337.33" y="161.67" width="24.8" height="30.32" rx="3" transform="translate(526.56 -172.9) rotate(90)"/><rect class="cls-3" x="334.34" y="168.21" width="30.79" height="17.24" rx="3" transform="translate(526.56 -172.9) rotate(90)"/><text class="cls-4" transform="translate(347.1 181.87)">4</text><rect class="cls-2" x="396.36" y="212.29" width="24.8" height="30.32" rx="3" transform="translate(636.21 -181.31) rotate(90)"/><rect class="cls-3" x="393.36" y="218.83" width="30.79" height="17.24" rx="3" transform="translate(636.21 -181.31) rotate(90)"/><text class="cls-4" transform="translate(406.13 232.48)">4</text><rect class="cls-2" x="268.22" y="102.92" width="24.8" height="30.32" rx="3"/><rect class="cls-3" x="265.23" y="109.46" width="30.79" height="17.24" rx="3"/><text class="cls-4" transform="translate(278 123.11)">2</text><rect class="cls-2" x="191.8" y="102.92" width="24.8" height="30.32" rx="3"/><rect class="cls-3" x="188.8" y="109.46" width="30.79" height="17.24" rx="3"/><text class="cls-4" transform="translate(201.57 123.11)">2</text><rect class="cls-2" x="391.41" y="438.14" width="36.25" height="40" rx="3" transform="translate(867.68 48.6) rotate(90)"/><rect class="cls-5" x="387.04" y="446.77" width="45" height="22.75" rx="3" transform="translate(867.68 48.6) rotate(90)"/><text class="cls-4" transform="translate(406.57 463.18)">6</text><rect class="cls-2" x="346.66" y="438.14" width="36.25" height="40" rx="3" transform="translate(822.93 93.35) rotate(90)"/><rect class="cls-6" x="342.29" y="446.77" width="45" height="22.75" rx="3" transform="translate(822.93 93.35) rotate(90)"/><text class="cls-4" transform="translate(361.82 463.18)">6</text><rect class="cls-2" x="301.91" y="438.14" width="36.25" height="40" rx="3" transform="translate(778.18 138.11) rotate(90)"/><rect class="cls-3" x="297.54" y="446.77" width="45" height="22.75" rx="3" transform="translate(778.18 138.11) rotate(90)"/><text class="cls-4" transform="translate(317.07 463.18)">6</text><rect class="cls-2" x="257.16" y="438.14" width="36.25" height="40" rx="3" transform="translate(733.43 182.86) rotate(90)"/><rect class="cls-3" x="252.79" y="446.77" width="45" height="22.75" rx="3" transform="translate(733.43 182.86) rotate(90)"/><text class="cls-4" transform="translate(272.32 463.18)">6</text><rect class="cls-2" x="212.41" y="438.14" width="36.25" height="40" rx="3" transform="translate(688.68 227.61) rotate(90)"/><rect class="cls-3" x="208.03" y="446.77" width="45" height="22.75" rx="3" transform="translate(688.68 227.61) rotate(90)"/><text class="cls-4" transform="translate(227.56 463.18)">6</text><line class="cls-1" x1="200.57" y1="489.79" x2="200.57" y2="468.66"/><polyline class="cls-1" points="146.34 105.25 109.69 105.25 109.69 132.76 3 132.76 3 345.96"/></g></g></svg>