<svg xmlns="http://www.w3.org/2000/svg" viewBox="0 0 414.71 566.29"><defs><style>.cls-1,.cls-2,.cls-3{fill:none;stroke-miterlimit:10;}.cls-1,.cls-2{stroke:#111;}.cls-1{stroke-width:6px;}.cls-2{stroke-width:3px;}.cls-3{stroke:#b6b6b6;}.cls-4{fill:#308410;}.cls-5,.cls-7{font-size:15px;}.cls-5{fill:#fff;}.cls-5,.cls-7,.cls-8,.cls-9{font-family:BebasNeueBold, Bebas Neue;}.cls-6{fill:#ff2400;}.cls-7,.cls-8,.cls-9{fill:#0c0c0c;}.cls-8{font-size:12.66px;}.cls-9{font-size:27.87px;}.cls-10{fill:#7f7f7f;}</style></defs><g id="Слой_2" data-name="Слой 2"><g id="Слой_1-2" data-name="Слой 1"><path class="cls-1" d="M325.31,563.29h86.4V379c0-140.81-114.14-254.95-254.95-254.95H125.29"/><polyline class="cls-1" points="130.91 124.09 130.91 3 210.76 3 210.76 130.95"/><line class="cls-1" y1="124.09" x2="100.8" y2="124.09"/><polyline class="cls-1" points="0 215.24 54.98 215.24 54.98 495.87 229.75 495.87 229.75 427.37 350.18 427.37 350.18 563.29"/><line class="cls-1" x1="39.93" y1="124.09" x2="39.93" y2="215.24"/><line class="cls-2" x1="230.4" y1="242.56" x2="230.4" y2="334.85"/><polyline class="cls-2" points="230.4 369.33 230.4 427.37 134.84 427.37"/><line class="cls-2" x1="93.38" y1="495.87" x2="93.38" y2="472.75"/><polyline class="cls-2" points="77.24 424.31 93.38 424.31 93.38 442.2"/><rect class="cls-3" x="167.55" y="130.95" width="24.8" height="30.32" rx="3"/><rect class="cls-4" x="164.56" y="137.49" width="30.79" height="17.24" rx="3"/><text class="cls-5" transform="translate(177.32 151.14)">4</text><rect class="cls-3" x="219.62" y="143.3" width="24.8" height="30.32" rx="3"/><rect class="cls-4" x="216.63" y="149.84" width="30.79" height="17.24" rx="3"/><text class="cls-5" transform="translate(229.4 163.49)">4</text><rect class="cls-3" x="260.53" y="164.25" width="24.8" height="30.32" rx="3"/><rect class="cls-4" x="257.53" y="170.79" width="30.79" height="17.24" rx="3"/><text class="cls-5" transform="translate(270.3 184.44)">4</text><rect class="cls-3" x="304.75" y="207.85" width="24.8" height="30.32" rx="3"/><rect class="cls-6" x="301.75" y="214.39" width="30.79" height="17.24" rx="3"/><text class="cls-5" transform="translate(314.52 228.04)">4</text><rect class="cls-3" x="371.54" y="332.94" width="24.8" height="30.32" rx="3"/><rect class="cls-4" x="368.55" y="339.48" width="30.79" height="17.24" rx="3"/><text class="cls-5" transform="translate(381.32 353.13)">4</text><rect class="cls-3" x="371.54" y="371.66" width="24.8" height="30.32" rx="3"/><rect class="cls-4" x="368.55" y="378.2" width="30.79" height="17.24" rx="3"/><text class="cls-5" transform="translate(381.32 391.85)">4</text><rect class="cls-3" x="371.54" y="410.38" width="24.8" height="30.32" rx="3"/><rect class="cls-4" x="368.55" y="416.92" width="30.79" height="17.24" rx="3"/><text class="cls-5" transform="translate(381.32 430.57)">4</text><rect class="cls-3" x="371.54" y="449.1" width="24.8" height="30.32" rx="3"/><rect class="cls-4" x="368.55" y="455.64" width="30.79" height="17.24" rx="3"/><text class="cls-5" transform="translate(381.32 469.29)">4</text><rect class="cls-3" x="371.54" y="487.82" width="24.8" height="30.32" rx="3"/><rect class="cls-4" x="368.55" y="494.36" width="30.79" height="17.24" rx="3"/><text class="cls-5" transform="translate(381.32 508.01)">4</text><rect class="cls-3" x="371.54" y="526.54" width="24.8" height="30.32" rx="3"/><rect class="cls-4" x="368.55" y="533.08" width="30.79" height="17.24" rx="3"/><text class="cls-5" transform="translate(381.32 546.73)">4</text><rect class="cls-3" x="338.49" y="242.47" width="24.8" height="30.32" rx="3"/><rect class="cls-6" x="335.5" y="249" width="30.79" height="17.24" rx="3"/><text class="cls-5" transform="translate(348.27 262.66)">2</text><rect class="cls-3" x="364.09" y="291.34" width="24.8" height="30.32" rx="3"/><rect class="cls-4" x="361.1" y="297.88" width="30.79" height="17.24" rx="3"/><text class="cls-5" transform="translate(373.87 311.53)">2</text><rect class="cls-3" x="111.7" y="194.22" width="24.8" height="30.32" rx="3"/><rect class="cls-4" x="108.7" y="200.76" width="30.79" height="17.24" rx="3"/><text class="cls-5" transform="translate(121.47 214.41)">4</text><rect class="cls-3" x="111.7" y="241.94" width="24.8" height="30.32" rx="3"/><rect class="cls-4" x="108.7" y="248.47" width="30.79" height="17.24" rx="3"/><text class="cls-5" transform="translate(121.47 262.13)">4</text><rect class="cls-3" x="111.7" y="289.65" width="24.8" height="30.32" rx="3"/><rect class="cls-6" x="108.7" y="296.19" width="30.79" height="17.24" rx="3"/><text class="cls-5" transform="translate(121.47 309.84)">4</text><rect class="cls-3" x="197.22" y="194.22" width="24.8" height="30.32" rx="3"/><rect class="cls-4" x="194.23" y="200.76" width="30.79" height="17.24" rx="3"/><text class="cls-5" transform="translate(207 214.41)">2</text><rect class="cls-3" x="141.37" y="360.48" width="24.8" height="30.32" rx="3"/><rect class="cls-4" x="138.37" y="367.02" width="30.79" height="17.24" rx="3"/><text class="cls-5" transform="translate(151.14 380.67)">2</text><rect class="cls-3" x="178.44" y="360.48" width="24.8" height="30.32" rx="3"/><rect class="cls-4" x="175.45" y="367.02" width="30.79" height="17.24" rx="3"/><text class="cls-5" transform="translate(188.22 380.67)">2</text><rect class="cls-3" x="283.17" y="321.22" width="24.8" height="30.32" rx="3"/><rect class="cls-4" x="280.18" y="327.76" width="30.79" height="17.24" rx="3"/><text class="cls-5" transform="translate(292.95 341.41)">2</text><rect class="cls-3" x="318.08" y="321.67" width="24.8" height="30.32" rx="3"/><rect class="cls-4" x="315.09" y="328.21" width="30.79" height="17.24" rx="3"/><text class="cls-5" transform="translate(327.85 341.86)">2</text><rect class="cls-3" x="197.22" y="241.94" width="24.8" height="30.32" rx="3"/><rect class="cls-4" x="194.23" y="248.47" width="30.79" height="17.24" rx="3"/><text class="cls-5" transform="translate(207 262.13)">4</text><rect class="cls-3" x="197.22" y="289.65" width="24.8" height="30.32" rx="3"/><rect class="cls-6" x="194.23" y="296.19" width="30.79" height="17.24" rx="3"/><text class="cls-5" transform="translate(207 309.84)">4</text><rect class="cls-3" x="156.75" y="241.94" width="24.8" height="30.32" rx="3"/><rect class="cls-4" x="153.76" y="248.47" width="30.79" height="17.24" rx="3"/><text class="cls-5" transform="translate(166.52 262.13)">4</text><rect class="cls-3" x="156.75" y="289.65" width="24.8" height="30.32" rx="3"/><rect class="cls-4" x="153.76" y="296.19" width="30.79" height="17.24" rx="3"/><text class="cls-5" transform="translate(166.52 309.84)">4</text><text class="cls-7" transform="translate(177.32 98.37) rotate(-90)">левая веранда</text><text class="cls-8" transform="translate(102.75 117.67)">вход</text><text class="cls-9" transform="translate(142.68 474.45)">бар</text><rect class="cls-3" x="49.51" y="131.14" width="36.25" height="40" rx="3" transform="translate(218.78 83.51) rotate(90)"/><rect class="cls-4" x="45.14" y="139.77" width="45" height="22.75" rx="3" transform="translate(218.78 83.51) rotate(90)"/><text class="cls-5" transform="translate(64.67 156.17)">6</text><rect class="cls-3" x="105.97" y="131.14" width="36.25" height="40" rx="3" transform="translate(275.24 27.05) rotate(90)"/><rect class="cls-4" x="101.6" y="139.77" width="45" height="22.75" rx="3" transform="translate(275.24 27.05) rotate(90)"/><text class="cls-5" transform="translate(121.13 156.17)">6</text><rect class="cls-3" x="243.58" y="377.25" width="36.25" height="40" rx="3" transform="translate(658.96 135.54) rotate(90)"/><rect class="cls-10" x="239.21" y="385.88" width="45" height="22.75" rx="3" transform="translate(658.96 135.54) rotate(90)"/><text class="cls-5" transform="translate(258.74 402.29)">6</text><rect class="cls-3" x="300.04" y="377.25" width="36.25" height="40" rx="3" transform="translate(715.42 79.08) rotate(90)"/><rect class="cls-6" x="295.67" y="385.88" width="45" height="22.75" rx="3" transform="translate(715.42 79.08) rotate(90)"/><text class="cls-5" transform="translate(315.2 402.29)">6</text></g></g></svg>