<svg xmlns="http://www.w3.org/2000/svg" viewBox="0 0 623.33 432"><defs><style>.cls-1,.cls-2{fill:none;stroke-miterlimit:10;}.cls-1{stroke:#111;stroke-width:6px;}.cls-2{stroke:#b6b6b6;}.cls-3{fill:#308410;}.cls-4{font-size:15px;fill:#fff;font-family:BebasNeueBold, Bebas Neue;}.cls-5{fill:#ff2400;}.cls-6{fill:#7f7f7f;}</style></defs><g id="Слой_2" data-name="Слой 2"><g id="Слой_1-2" data-name="Слой 1"><polyline class="cls-1" points="221 429 449.67 429 449.67 247 575.67 247 620.33 202.33 620.33 156.33 573 156.33 573 117 447.67 117 447.67 35.13"/><polyline class="cls-1" points="180.33 428.33 40.33 428.33 3 391 3 3 135 3 135 117 277 117 276.85 35.13"/><polyline class="cls-1" points="198.33 391 198.33 253 276.33 253 276.33 347.67"/><line class="cls-1" x1="277" y1="384.33" x2="277" y2="429.67"/><rect class="cls-2" x="13.66" y="10.1" width="36.25" height="40" rx="3"/><rect class="cls-3" x="9.29" y="18.72" width="45" height="22.75" rx="3"/><text class="cls-4" transform="translate(28.82 35.13)">6</text><rect class="cls-2" x="13.66" y="62.98" width="36.25" height="40" rx="3"/><rect class="cls-5" x="9.29" y="71.61" width="45" height="22.75" rx="3"/><text class="cls-4" transform="translate(28.82 88.01)">6</text><rect class="cls-2" x="13.66" y="182.12" width="36.25" height="40" rx="3"/><rect class="cls-3" x="9.29" y="190.75" width="45" height="22.75" rx="3"/><text class="cls-4" transform="translate(28.82 207.15)">6</text><rect class="cls-2" x="13.66" y="229.24" width="36.25" height="40" rx="3"/><rect class="cls-3" x="9.29" y="237.86" width="45" height="22.75" rx="3"/><text class="cls-4" transform="translate(28.82 254.27)">6</text><rect class="cls-2" x="13.66" y="114.04" width="36.25" height="53.7" rx="3"/><rect class="cls-3" x="16.93" y="129.79" width="45" height="22.75" rx="3" transform="translate(-101.73 180.6) rotate(-90)"/><text class="cls-4" transform="translate(36.67 146.31)">8</text><rect class="cls-2" x="67.41" y="381.18" width="36.25" height="40" rx="3" transform="translate(486.71 315.65) rotate(90)"/><rect class="cls-3" x="63.03" y="389.81" width="45" height="22.75" rx="3" transform="translate(486.71 315.65) rotate(90)"/><text class="cls-4" transform="translate(82.56 406.21)">6</text><rect class="cls-2" x="116.84" y="381.18" width="36.25" height="40" rx="3" transform="translate(536.15 266.21) rotate(90)"/><rect class="cls-3" x="112.47" y="389.81" width="45" height="22.75" rx="3" transform="translate(536.15 266.21) rotate(90)"/><text class="cls-4" transform="translate(132 406.21)">6</text><rect class="cls-2" x="286.41" y="378.78" width="36.25" height="40" rx="3" transform="translate(703.31 94.25) rotate(90)"/><rect class="cls-3" x="282.03" y="387.41" width="45" height="22.75" rx="3" transform="translate(703.31 94.25) rotate(90)"/><text class="cls-4" transform="translate(301.56 403.81)">6</text><rect class="cls-2" x="286.41" y="253.64" width="36.25" height="40" rx="3" transform="translate(578.17 -30.89) rotate(90)"/><rect class="cls-5" x="282.03" y="262.27" width="45" height="22.75" rx="3" transform="translate(578.17 -30.89) rotate(90)"/><text class="cls-4" transform="translate(297.56 278.67)">10</text><rect class="cls-2" x="397.41" y="378.78" width="36.25" height="40" rx="3" transform="translate(814.31 -16.75) rotate(90)"/><rect class="cls-3" x="393.03" y="387.41" width="45" height="22.75" rx="3" transform="translate(814.31 -16.75) rotate(90)"/><text class="cls-4" transform="translate(412.56 403.81)">6</text><rect class="cls-2" x="397.41" y="321.02" width="36.25" height="40" rx="3" transform="translate(756.56 -74.51) rotate(90)"/><rect class="cls-3" x="393.03" y="329.65" width="45" height="22.75" rx="3" transform="translate(756.56 -74.51) rotate(90)"/><text class="cls-4" transform="translate(412.56 346.06)">6</text><rect class="cls-2" x="341.7" y="378.78" width="36.25" height="40" rx="3" transform="translate(758.61 38.96) rotate(90)"/><rect class="cls-3" x="337.33" y="387.41" width="45" height="22.75" rx="3" transform="translate(758.61 38.96) rotate(90)"/><text class="cls-4" transform="translate(356.86 403.81)">6</text><rect class="cls-2" x="195.96" y="203.36" width="36.25" height="40" rx="3" transform="translate(437.44 9.28) rotate(90)"/><rect class="cls-3" x="191.58" y="211.99" width="45" height="22.75" rx="3" transform="translate(437.44 9.28) rotate(90)"/><text class="cls-4" transform="translate(211.11 228.4)">6</text><rect class="cls-2" x="244.83" y="203.36" width="36.25" height="40" rx="3" transform="translate(486.32 -39.59) rotate(90)"/><rect class="cls-3" x="240.45" y="211.99" width="45" height="22.75" rx="3" transform="translate(486.32 -39.59) rotate(90)"/><text class="cls-4" transform="translate(259.98 228.4)">6</text><rect class="cls-2" x="397.41" y="262.78" width="36.25" height="40" rx="3" transform="translate(698.31 -132.75) rotate(90)"/><rect class="cls-6" x="393.03" y="271.41" width="45" height="22.75" rx="3" transform="translate(698.31 -132.75) rotate(90)"/><text class="cls-4" transform="translate(412.56 287.81)">6</text><rect class="cls-2" x="76.29" y="192.12" width="24.8" height="30.32" rx="3"/><rect class="cls-3" x="73.29" y="198.66" width="30.79" height="17.24" rx="3"/><text class="cls-4" transform="translate(86.06 212.31)">4</text><rect class="cls-2" x="101.65" y="18.18" width="24.8" height="30.32" rx="3" transform="translate(147.39 -80.71) rotate(90)"/><rect class="cls-3" x="98.66" y="24.72" width="30.79" height="17.24" rx="3" transform="translate(147.39 -80.71) rotate(90)"/><text class="cls-4" transform="translate(111.42 38.37)">4</text><rect class="cls-2" x="101.65" y="62.4" width="24.8" height="30.32" rx="3" transform="translate(191.61 -36.49) rotate(90)"/><rect class="cls-3" x="98.66" y="68.94" width="30.79" height="17.24" rx="3" transform="translate(191.61 -36.49) rotate(90)"/><text class="cls-4" transform="translate(111.42 82.59)">4</text><rect class="cls-2" x="131.03" y="122.33" width="24.8" height="30.32" rx="3" transform="translate(280.92 -5.95) rotate(90)"/><rect class="cls-5" x="128.04" y="128.87" width="30.79" height="17.24" rx="3" transform="translate(280.92 -5.95) rotate(90)"/><text class="cls-4" transform="translate(140.8 142.52)">4</text><rect class="cls-2" x="172.63" y="122.33" width="24.8" height="30.32" rx="3" transform="translate(322.52 -47.55) rotate(90)"/><rect class="cls-3" x="169.64" y="128.87" width="30.79" height="17.24" rx="3" transform="translate(322.52 -47.55) rotate(90)"/><text class="cls-4" transform="translate(182.4 142.52)">4</text><rect class="cls-2" x="214.23" y="122.33" width="24.8" height="30.32" rx="3" transform="translate(364.12 -89.15) rotate(90)"/><rect class="cls-3" x="211.24" y="128.87" width="30.79" height="17.24" rx="3" transform="translate(364.12 -89.15) rotate(90)"/><text class="cls-4" transform="translate(224 142.52)">4</text><rect class="cls-2" x="255.83" y="122.33" width="24.8" height="30.32" rx="3" transform="translate(405.72 -130.75) rotate(90)"/><rect class="cls-3" x="252.84" y="128.87" width="30.79" height="17.24" rx="3" transform="translate(405.72 -130.75) rotate(90)"/><text class="cls-4" transform="translate(265.6 142.52)">4</text><rect class="cls-2" x="404.65" y="201.41" width="24.8" height="30.32" rx="3" transform="translate(633.62 -200.48) rotate(90)"/><rect class="cls-3" x="401.66" y="207.95" width="30.79" height="17.24" rx="3" transform="translate(633.62 -200.48) rotate(90)"/><text class="cls-4" transform="translate(414.42 221.61)">4</text><rect class="cls-2" x="446.25" y="201.41" width="24.8" height="30.32" rx="3" transform="translate(675.22 -242.08) rotate(90)"/><rect class="cls-3" x="443.26" y="207.95" width="30.79" height="17.24" rx="3" transform="translate(675.22 -242.08) rotate(90)"/><text class="cls-4" transform="translate(456.02 221.61)">4</text><rect class="cls-2" x="487.85" y="201.41" width="24.8" height="30.32" rx="3" transform="translate(716.82 -283.68) rotate(90)"/><rect class="cls-3" x="484.86" y="207.95" width="30.79" height="17.24" rx="3" transform="translate(716.82 -283.68) rotate(90)"/><text class="cls-4" transform="translate(497.62 221.61)">4</text><rect class="cls-2" x="529.45" y="201.41" width="24.8" height="30.32" rx="3" transform="translate(758.42 -325.28) rotate(90)"/><rect class="cls-3" x="526.46" y="207.95" width="30.79" height="17.24" rx="3" transform="translate(758.42 -325.28) rotate(90)"/><text class="cls-4" transform="translate(539.22 221.61)">4</text><rect class="cls-2" x="76.29" y="232.91" width="24.8" height="30.32" rx="3"/><rect class="cls-3" x="73.29" y="239.44" width="30.79" height="17.24" rx="3"/><text class="cls-4" transform="translate(86.06 253.1)">4</text><rect class="cls-2" x="76.29" y="273.64" width="24.8" height="30.32" rx="3"/><rect class="cls-3" x="73.29" y="280.18" width="30.79" height="17.24" rx="3"/><text class="cls-4" transform="translate(86.06 293.83)">4</text><rect class="cls-2" x="76.29" y="316.26" width="24.8" height="30.32" rx="3"/><rect class="cls-3" x="73.29" y="322.8" width="30.79" height="17.24" rx="3"/><text class="cls-4" transform="translate(86.06 336.45)">4</text><rect class="cls-2" x="117.96" y="232.91" width="24.8" height="30.32" rx="3"/><rect class="cls-3" x="114.97" y="239.44" width="30.79" height="17.24" rx="3"/><text class="cls-4" transform="translate(127.73 253.1)">4</text><rect class="cls-2" x="295.11" y="140.43" width="24.8" height="30.32" rx="3"/><rect class="cls-3" x="292.12" y="146.97" width="30.79" height="17.24" rx="3"/><text class="cls-4" transform="translate(304.88 160.62)">4</text><rect class="cls-2" x="337.15" y="140.43" width="24.8" height="30.32" rx="3"/><rect class="cls-3" x="334.15" y="146.97" width="30.79" height="17.24" rx="3"/><text class="cls-4" transform="translate(346.92 160.62)">4</text><rect class="cls-2" x="379.18" y="140.43" width="24.8" height="30.32" rx="3"/><rect class="cls-3" x="376.19" y="146.97" width="30.79" height="17.24" rx="3"/><text class="cls-4" transform="translate(388.96 160.62)">4</text><rect class="cls-2" x="421.22" y="140.43" width="24.8" height="30.32" rx="3"/><rect class="cls-3" x="418.23" y="146.97" width="30.79" height="17.24" rx="3"/><text class="cls-4" transform="translate(430.99 160.62)">4</text><rect class="cls-2" x="166.18" y="248.06" width="24.8" height="30.32" rx="3"/><rect class="cls-3" x="163.19" y="254.6" width="30.79" height="17.24" rx="3"/><text class="cls-4" transform="translate(175.95 268.26)">4</text><rect class="cls-2" x="166.18" y="290.54" width="24.8" height="30.32" rx="3"/><rect class="cls-3" x="163.19" y="297.08" width="30.79" height="17.24" rx="3"/><text class="cls-4" transform="translate(175.95 310.74)">4</text><rect class="cls-2" x="166.18" y="324.88" width="24.8" height="30.32" rx="3"/><rect class="cls-3" x="163.19" y="331.42" width="30.79" height="17.24" rx="3"/><text class="cls-4" transform="translate(175.95 345.07)">4</text><rect class="cls-2" x="166.18" y="360" width="24.8" height="30.32" rx="3"/><rect class="cls-3" x="163.19" y="366.54" width="30.79" height="17.24" rx="3"/><text class="cls-4" transform="translate(175.95 380.19)">4</text><rect class="cls-2" x="117.96" y="273.64" width="24.8" height="30.32" rx="3"/><rect class="cls-3" x="114.97" y="280.18" width="30.79" height="17.24" rx="3"/><text class="cls-4" transform="translate(127.73 293.83)">4</text><rect class="cls-2" x="117.96" y="316.26" width="24.8" height="30.32" rx="3"/><rect class="cls-3" x="114.97" y="322.8" width="30.79" height="17.24" rx="3"/><text class="cls-4" transform="translate(127.73 336.45)">4</text><rect class="cls-2" x="23.01" y="375.16" width="22.61" height="30.32" rx="3" transform="translate(-356 424.63) rotate(-90)"/><rect class="cls-3" x="20.28" y="381.69" width="28.07" height="17.24" rx="3" transform="translate(-356 424.63) rotate(-90)"/><text class="cls-4" transform="translate(31.79 394.28)">2</text><rect class="cls-2" x="13.66" y="282.85" width="36.25" height="40" rx="3"/><rect class="cls-5" x="9.29" y="291.48" width="45" height="22.75" rx="3"/><text class="cls-4" transform="translate(28.82 307.88)">6</text><rect class="cls-2" x="13.66" y="329.61" width="36.25" height="40" rx="3"/><rect class="cls-5" x="9.29" y="338.24" width="45" height="22.75" rx="3"/><text class="cls-4" transform="translate(28.82 354.65)">6</text></g></g></svg>