<svg xmlns="http://www.w3.org/2000/svg" viewBox="0 0 1051.96 440.43"><defs><style>.cls-1,.cls-2{fill:none;stroke-miterlimit:10;}.cls-1{stroke:#111;stroke-width:6px;}.cls-2{stroke:#b6b6b6;}.cls-3{font-size:22.51px;fill:#0c0c0c;}.cls-3,.cls-5,.cls-8{font-family:BebasNeueBold, Bebas Neue;}.cls-4{fill:#308410;}.cls-5{font-size:13.39px;}.cls-5,.cls-8{fill:#fff;}.cls-6{fill:#ff2400;}.cls-7{fill:#7f7f7f;}.cls-8{font-size:13.61px;}</style></defs><g id="Слой_2" data-name="Слой 2"><g id="Слой_1-2" data-name="Слой 1"><polyline class="cls-1" points="132.6 0 132.6 195.96 132.6 181.51 3 181.51 3 250.5 132.6 250.5 132.6 227.45 132.6 389.65 180.38 389.65 180.38 336.43 419.94 336.43 411.44 336.43 411.44 370.92 419.94 370.92"/><polyline class="cls-1" points="459.22 336.43 467.73 336.43 467.73 370.92 459.22 370.92"/><polyline class="cls-1" points="467.73 336.43 783.87 336.43 772.09 336.43 772.09 370.92 783.87 370.92"/><polyline class="cls-1" points="467.73 370.92 467.73 437.43 772.09 437.43 772.09 370.92"/><polyline class="cls-1" points="1048.96 3.47 1048.96 336.43 824.46 336.43 832.96 336.43 832.96 370.92 824.46 370.92"/><polyline class="cls-1" points="834.93 228.63 834.93 262.17 1048.96 262.17"/><polyline class="cls-1" points="895.14 3.47 895.14 98.36 946.53 149.75 1048.96 149.75"/><polyline class="cls-1" points="887.95 195.96 887.95 149.71 946.53 149.71"/><polyline class="cls-1" points="132.6 45.67 179.07 45.67 179.07 95.11 257.62 95.11 257.62 45.67 296.24 45.67 296.24 0"/><polyline class="cls-1" points="179.07 45.67 179.07 0 179.07 116.87"/><line class="cls-1" x1="257.62" y1="45.67" x2="257.62"/><polyline class="cls-1" points="296.24 12.73 467.73 12.73 467.73 90.31 615.65 90.31 615.65 109"/><polyline class="cls-1" points="646.42 109 646.42 90.31 859.14 90.31 859.14 153.36"/><line class="cls-1" x1="467.73" y1="228.63" x2="613.04" y2="228.63"/><line class="cls-1" x1="649.69" y1="228.63" x2="747.22" y2="228.63"/><polygon class="cls-2" points="174.34 383.69 138.85 383.69 138.85 229.5 182.49 229.5 215.07 288.37 215.07 330.45 174.06 330.45 174.34 383.69"/><polygon class="cls-2" points="660.46 134.98 660.46 128.56 642.71 128.56 642.71 151.54 850.42 151.54 850.42 134.98 660.46 134.98"/><text class="cls-3" transform="translate(727.71 123.84)">бар</text><text class="cls-3" transform="translate(559.27 396.95)">летняя веранда</text><text class="cls-3" transform="translate(903.13 310)">гардероб</text><text class="cls-3" transform="translate(783.87 364.22)">вход</text><text class="cls-3" transform="translate(198.71 246.55)">танцпол</text><text class="cls-3" transform="translate(151.15 310)">сцена</text><rect class="cls-2" x="913.66" y="163.65" width="32.36" height="35.71" rx="3" transform="translate(1111.34 -748.33) rotate(90)"/><rect class="cls-4" x="909.75" y="171.35" width="40.17" height="20.31" rx="3" transform="translate(1111.34 -748.33) rotate(90)"/><text class="cls-5" transform="translate(927.18 186)">6</text><rect class="cls-2" x="959.96" y="163.65" width="32.36" height="35.71" rx="3" transform="translate(1157.65 -794.64) rotate(90)"/><rect class="cls-4" x="956.06" y="171.35" width="40.17" height="20.31" rx="3" transform="translate(1157.65 -794.64) rotate(90)"/><text class="cls-5" transform="translate(973.49 186)">6</text><rect class="cls-2" x="1006.27" y="163.65" width="32.36" height="35.71" rx="3" transform="translate(1203.96 -840.95) rotate(90)"/><rect class="cls-4" x="1002.37" y="171.35" width="40.17" height="20.31" rx="3" transform="translate(1203.96 -840.95) rotate(90)"/><text class="cls-5" transform="translate(1019.8 186)">6</text><rect class="cls-2" x="913.66" y="217.23" width="32.36" height="35.71" rx="3" transform="translate(1164.92 -694.75) rotate(90)"/><rect class="cls-4" x="909.75" y="224.93" width="40.17" height="20.31" rx="3" transform="translate(1164.92 -694.75) rotate(90)"/><text class="cls-5" transform="translate(927.18 239.58)">3</text><rect class="cls-2" x="959.96" y="217.23" width="32.36" height="35.71" rx="3" transform="translate(1211.23 -741.06) rotate(90)"/><rect class="cls-6" x="956.06" y="224.93" width="40.17" height="20.31" rx="3" transform="translate(1211.23 -741.06) rotate(90)"/><text class="cls-5" transform="translate(973.49 239.58)">6</text><rect class="cls-2" x="1006.27" y="217.23" width="32.36" height="35.71" rx="3" transform="translate(1257.54 -787.37) rotate(90)"/><rect class="cls-4" x="1002.37" y="224.93" width="40.17" height="20.31" rx="3" transform="translate(1257.54 -787.37) rotate(90)"/><text class="cls-5" transform="translate(1019.8 239.58)">6</text><rect class="cls-2" x="867.22" y="217.23" width="32.36" height="35.71" rx="3" transform="translate(1118.49 -648.31) rotate(90)"/><rect class="cls-4" x="863.31" y="224.93" width="40.17" height="20.31" rx="3" transform="translate(1118.49 -648.31) rotate(90)"/><text class="cls-5" transform="translate(880.75 239.58)">6</text><rect class="cls-2" x="477.24" y="97.82" width="32.36" height="35.71" rx="3" transform="translate(609.09 -377.75) rotate(90)"/><rect class="cls-4" x="473.33" y="105.52" width="40.17" height="20.31" rx="3" transform="translate(609.09 -377.75) rotate(90)"/><text class="cls-5" transform="translate(490.77 120.16)">6</text><rect class="cls-2" x="233.09" y="291.33" width="32.36" height="35.71" rx="3" transform="translate(558.46 59.91) rotate(90)"/><rect class="cls-4" x="229.19" y="299.03" width="40.17" height="20.31" rx="3" transform="translate(558.46 59.91) rotate(90)"/><text class="cls-5" transform="translate(246.62 313.68)">6</text><rect class="cls-2" x="284.42" y="291.33" width="32.36" height="35.71" rx="3" transform="translate(609.78 8.58) rotate(90)"/><rect class="cls-6" x="280.51" y="299.03" width="40.17" height="20.31" rx="3" transform="translate(609.78 8.58) rotate(90)"/><text class="cls-5" transform="translate(297.95 313.68)">6</text><rect class="cls-2" x="335.75" y="291.33" width="32.36" height="35.71" rx="3" transform="translate(661.11 -42.74) rotate(90)"/><rect class="cls-4" x="331.84" y="299.03" width="40.17" height="20.31" rx="3" transform="translate(661.11 -42.74) rotate(90)"/><text class="cls-5" transform="translate(349.28 313.68)">6</text><rect class="cls-2" x="387.07" y="291.33" width="32.36" height="35.71" rx="3" transform="translate(712.44 -94.07) rotate(90)"/><rect class="cls-4" x="383.17" y="299.03" width="40.17" height="20.31" rx="3" transform="translate(712.44 -94.07) rotate(90)"/><text class="cls-5" transform="translate(400.6 313.68)">6</text><rect class="cls-2" x="523.55" y="97.82" width="32.36" height="35.71" rx="3" transform="translate(655.4 -424.06) rotate(90)"/><rect class="cls-4" x="519.64" y="105.52" width="40.17" height="20.31" rx="3" transform="translate(655.4 -424.06) rotate(90)"/><text class="cls-5" transform="translate(537.08 120.16)">6</text><rect class="cls-2" x="569.86" y="97.82" width="32.36" height="35.71" rx="3" transform="translate(701.71 -470.37) rotate(90)"/><rect class="cls-4" x="565.95" y="105.52" width="40.17" height="20.31" rx="3" transform="translate(701.71 -470.37) rotate(90)"/><text class="cls-5" transform="translate(583.38 120.16)">6</text><rect class="cls-2" x="477.24" y="182.73" width="32.36" height="35.71" rx="3" transform="translate(694.01 -292.83) rotate(90)"/><rect class="cls-6" x="473.33" y="190.43" width="40.17" height="20.31" rx="3" transform="translate(694.01 -292.83) rotate(90)"/><text class="cls-5" transform="translate(490.77 205.08)">6</text><rect class="cls-2" x="523.55" y="182.73" width="32.36" height="35.71" rx="3" transform="translate(740.31 -339.14) rotate(90)"/><rect class="cls-4" x="519.64" y="190.43" width="40.17" height="20.31" rx="3" transform="translate(740.31 -339.14) rotate(90)"/><text class="cls-5" transform="translate(537.08 205.08)">6</text><rect class="cls-2" x="569.86" y="182.73" width="32.36" height="35.71" rx="3" transform="translate(786.62 -385.45) rotate(90)"/><rect class="cls-4" x="565.95" y="190.43" width="40.17" height="20.31" rx="3" transform="translate(786.62 -385.45) rotate(90)"/><text class="cls-5" transform="translate(583.38 205.08)">6</text><rect class="cls-2" x="477.24" y="292.15" width="32.36" height="35.71" rx="3" transform="translate(803.42 -183.42) rotate(90)"/><rect class="cls-4" x="473.33" y="299.85" width="40.17" height="20.31" rx="3" transform="translate(803.42 -183.42) rotate(90)"/><text class="cls-5" transform="translate(490.77 314.49)">6</text><rect class="cls-2" x="531.37" y="292.15" width="32.36" height="35.71" rx="3" transform="translate(857.55 -237.55) rotate(90)"/><rect class="cls-4" x="527.46" y="299.85" width="40.17" height="20.31" rx="3" transform="translate(857.55 -237.55) rotate(90)"/><text class="cls-5" transform="translate(544.9 314.49)">6</text><rect class="cls-2" x="585.5" y="292.15" width="32.36" height="35.71" rx="3" transform="translate(911.68 -291.68) rotate(90)"/><rect class="cls-4" x="581.59" y="299.85" width="40.17" height="20.31" rx="3" transform="translate(911.68 -291.68) rotate(90)"/><text class="cls-5" transform="translate(599.03 314.49)">6</text><rect class="cls-2" x="639.63" y="292.15" width="32.36" height="35.71" rx="3" transform="translate(965.81 -345.81) rotate(90)"/><rect class="cls-4" x="635.72" y="299.85" width="40.17" height="20.31" rx="3" transform="translate(965.81 -345.81) rotate(90)"/><text class="cls-5" transform="translate(653.16 314.49)">6</text><rect class="cls-2" x="693.76" y="292.15" width="32.36" height="35.71" rx="3" transform="translate(1019.94 -399.94) rotate(90)"/><rect class="cls-7" x="689.86" y="299.85" width="40.17" height="20.31" rx="3" transform="translate(1019.94 -399.94) rotate(90)"/><text class="cls-5" transform="translate(707.29 314.49)">6</text><rect class="cls-2" x="747.89" y="292.15" width="32.36" height="35.71" rx="3" transform="translate(1074.07 -454.07) rotate(90)"/><rect class="cls-4" x="743.99" y="299.85" width="40.17" height="20.31" rx="3" transform="translate(1074.07 -454.07) rotate(90)"/><text class="cls-5" transform="translate(761.42 314.49)">6</text><rect class="cls-2" x="369.22" y="62.37" width="32.36" height="35.71" rx="3" transform="translate(770.8 160.44) rotate(-180)"/><rect class="cls-4" x="365.31" y="70.07" width="40.17" height="20.31" rx="3" transform="translate(770.8 160.44) rotate(-180)"/><text class="cls-5" transform="translate(382.75 84.71)">6</text><rect class="cls-2" x="369.22" y="63.37" width="32.36" height="35.71" rx="3" transform="translate(770.8 162.44) rotate(-180)"/><rect class="cls-4" x="365.31" y="71.07" width="40.17" height="20.31" rx="3" transform="translate(770.8 162.44) rotate(-180)"/><text class="cls-5" transform="translate(382.75 85.71)">6</text><rect class="cls-2" x="369.22" y="119.72" width="32.36" height="35.71" rx="3" transform="translate(770.8 275.15) rotate(-180)"/><rect class="cls-4" x="365.31" y="127.42" width="40.17" height="20.31" rx="3" transform="translate(770.8 275.15) rotate(-180)"/><text class="cls-5" transform="translate(382.75 142.07)">6</text><rect class="cls-2" x="369.22" y="176.07" width="32.36" height="35.71" rx="3" transform="translate(770.8 387.85) rotate(-180)"/><rect class="cls-4" x="365.31" y="183.77" width="40.17" height="20.31" rx="3" transform="translate(770.8 387.85) rotate(-180)"/><text class="cls-5" transform="translate(382.75 198.42)">6</text><rect class="cls-2" x="369.22" y="232.42" width="32.36" height="35.71" rx="3" transform="translate(770.8 500.56) rotate(-180)"/><rect class="cls-4" x="365.31" y="240.12" width="40.17" height="20.31" rx="3" transform="translate(770.8 500.56) rotate(-180)"/><text class="cls-5" transform="translate(382.75 254.77)">6</text><rect class="cls-2" x="191.61" y="101.83" width="22.5" height="27.5" rx="3" transform="translate(87.28 318.43) rotate(-90)"/><rect class="cls-4" x="188.89" y="107.76" width="27.93" height="15.64" rx="3" transform="translate(87.28 318.43) rotate(-90)"/><text class="cls-8" transform="translate(200.47 120.14)">4</text><rect class="cls-2" x="236.61" y="101.83" width="22.5" height="27.5" rx="3" transform="translate(132.28 363.43) rotate(-90)"/><rect class="cls-4" x="233.89" y="107.76" width="27.93" height="15.64" rx="3" transform="translate(132.28 363.43) rotate(-90)"/><text class="cls-8" transform="translate(245.47 120.14)">4</text><rect class="cls-2" x="191.61" y="139.06" width="22.5" height="27.5" rx="3" transform="translate(50.04 355.67) rotate(-90)"/><rect class="cls-4" x="188.89" y="144.99" width="27.93" height="15.64" rx="3" transform="translate(50.04 355.67) rotate(-90)"/><text class="cls-8" transform="translate(200.47 157.38)">4</text><rect class="cls-2" x="236.61" y="139.06" width="22.5" height="27.5" rx="3" transform="translate(95.04 400.67) rotate(-90)"/><rect class="cls-4" x="233.89" y="144.99" width="27.93" height="15.64" rx="3" transform="translate(95.04 400.67) rotate(-90)"/><text class="cls-8" transform="translate(245.47 157.38)">4</text><rect class="cls-2" x="191.61" y="177.1" width="22.5" height="27.5" rx="3" transform="translate(12.01 393.7) rotate(-90)"/><rect class="cls-4" x="188.89" y="183.03" width="27.93" height="15.64" rx="3" transform="translate(12.01 393.7) rotate(-90)"/><text class="cls-8" transform="translate(200.47 195.41)">4</text><rect class="cls-2" x="236.61" y="177.1" width="22.5" height="27.5" rx="3" transform="translate(57.01 438.7) rotate(-90)"/><rect class="cls-6" x="233.89" y="183.03" width="27.93" height="15.64" rx="3" transform="translate(57.01 438.7) rotate(-90)"/><text class="cls-8" transform="translate(245.47 195.41)">4</text><rect class="cls-2" x="480.51" y="236.86" width="22.5" height="27.5" rx="3" transform="translate(241.15 742.38) rotate(-90)"/><rect class="cls-4" x="477.8" y="242.79" width="27.93" height="15.64" rx="3" transform="translate(241.15 742.38) rotate(-90)"/><text class="cls-8" transform="translate(489.38 255.18)">4</text><rect class="cls-2" x="526.49" y="236.86" width="22.5" height="27.5" rx="3" transform="translate(287.12 788.35) rotate(-90)"/><rect class="cls-4" x="523.77" y="242.79" width="27.93" height="15.64" rx="3" transform="translate(287.12 788.35) rotate(-90)"/><text class="cls-8" transform="translate(535.35 255.18)">4</text><rect class="cls-2" x="572.46" y="236.86" width="22.5" height="27.5" rx="3" transform="translate(333.09 834.32) rotate(-90)"/><rect class="cls-4" x="569.74" y="242.79" width="27.93" height="15.64" rx="3" transform="translate(333.09 834.32) rotate(-90)"/><text class="cls-8" transform="translate(581.32 255.18)">4</text><rect class="cls-2" x="660.17" y="194.87" width="22.5" height="27.5" rx="3" transform="translate(462.8 880.03) rotate(-90)"/><rect class="cls-4" x="657.45" y="200.8" width="27.93" height="15.64" rx="3" transform="translate(462.8 880.03) rotate(-90)"/><text class="cls-8" transform="translate(669.03 213.18)">4</text><rect class="cls-2" x="715.17" y="194.87" width="22.5" height="27.5" rx="3" transform="translate(517.8 935.03) rotate(-90)"/><rect class="cls-4" x="712.45" y="200.8" width="27.93" height="15.64" rx="3" transform="translate(517.8 935.03) rotate(-90)"/><text class="cls-8" transform="translate(724.03 213.18)">4</text><rect class="cls-2" x="660.17" y="238.87" width="22.5" height="27.5" rx="3" transform="translate(418.8 924.03) rotate(-90)"/><rect class="cls-4" x="657.45" y="244.8" width="27.93" height="15.64" rx="3" transform="translate(418.8 924.03) rotate(-90)"/><text class="cls-8" transform="translate(669.03 257.18)">4</text><rect class="cls-2" x="715.17" y="238.87" width="22.5" height="27.5" rx="3" transform="translate(473.8 979.03) rotate(-90)"/><rect class="cls-4" x="712.45" y="244.8" width="27.93" height="15.64" rx="3" transform="translate(473.8 979.03) rotate(-90)"/><text class="cls-8" transform="translate(724.03 257.18)">4</text><rect class="cls-2" x="299.9" y="111" width="60.24" height="32.51" rx="3" transform="translate(457.28 -202.76) rotate(90)"/><rect class="cls-4" x="301.07" y="115.49" width="49.06" height="24.65" rx="3" transform="translate(453.42 -197.78) rotate(90)"/><text class="cls-5" transform="translate(320.3 132.31)">10</text><rect class="cls-2" x="299.9" y="197.36" width="60.24" height="32.51" rx="3" transform="translate(543.63 -116.41) rotate(90)"/><rect class="cls-6" x="301.07" y="201.84" width="49.06" height="24.65" rx="3" transform="translate(539.77 -111.43) rotate(90)"/><text class="cls-5" transform="translate(320.3 218.66)">10</text></g></g></svg>