<svg width="20" height="10" viewBox="0 0 20 10" fill="none" xmlns="http://www.w3.org/2000/svg">
<path d="M0.781248 4.19355H17.3265L14.5857 1.37806C14.2799 1.06387 14.2787 0.553264 14.5831 0.237578C14.8874 -0.0781481 15.3821 -0.0793172 15.688 0.234836L19.7701 4.42839C19.7704 4.42863 19.7706 4.42891 19.7708 4.42915C20.0759 4.74335 20.0769 5.25561 19.7709 5.57085C19.7706 5.57109 19.7705 5.57137 19.7702 5.57161L15.688 9.76516C15.3823 10.0793 14.8876 10.0782 14.5832 9.76242C14.2788 9.44674 14.2799 8.93613 14.5858 8.62194L17.3265 5.80645H0.781248C0.349764 5.80645 0 5.4454 0 5C0 4.5546 0.349764 4.19355 0.781248 4.19355Z" fill="#EA8F29"/>
</svg>
