<svg width="37" height="37" viewBox="0 0 37 37" fill="none" xmlns="http://www.w3.org/2000/svg">
<g clip-path="url(#clip0_2_1792)">
<path d="M27.9443 21.998C25.3726 21.998 23.2805 24.0902 23.2805 26.6619C23.2805 29.2336 25.3726 31.3258 27.9443 31.3258C30.5165 31.3258 32.6082 29.2336 32.6082 26.6619C32.6082 24.0902 30.5161 21.998 27.9443 21.998ZM27.9443 28.9939C26.6583 28.9939 25.6124 27.948 25.6124 26.6619C25.6124 25.3759 26.6583 24.33 27.9443 24.33C29.2304 24.33 30.2763 25.3759 30.2763 26.6619C30.2763 27.948 29.2304 28.9939 27.9443 28.9939Z" fill="white"/>
<path d="M12.0095 21.998C9.43777 21.998 7.34561 24.0902 7.34561 26.6619C7.34561 29.2336 9.43777 31.3258 12.0095 31.3258C14.5812 31.3258 16.6734 29.2336 16.6734 26.6619C16.6734 24.0902 14.5812 21.998 12.0095 21.998ZM12.0095 28.9939C10.7235 28.9939 9.67755 27.948 9.67755 26.6619C9.67755 25.3759 10.7235 24.33 12.0095 24.33C13.2952 24.33 14.3414 25.3759 14.3414 26.6619C14.3414 27.948 13.2955 28.9939 12.0095 28.9939Z" fill="white"/>
<path d="M31.0851 8.64843C30.8869 8.25472 30.4838 8.00635 30.0431 8.00635H23.9023V10.3383H29.324L32.499 16.6532L34.583 15.6053L31.0851 8.64843Z" fill="white"/>
<path d="M24.4464 25.5347H15.6239V27.8666H24.4464V25.5347Z" fill="white"/>
<path d="M8.51148 25.5347H4.46952C3.82549 25.5347 3.30359 26.0566 3.30359 26.7006C3.30359 27.3446 3.82556 27.8665 4.46952 27.8665H8.51156C9.15559 27.8665 9.67749 27.3446 9.67749 26.7006C9.67749 26.0566 9.15551 25.5347 8.51148 25.5347Z" fill="white"/>
<path d="M36.7552 18.4067L34.4617 15.4529C34.2414 15.1684 33.9013 15.002 33.541 15.002H25.0683V6.84025C25.0683 6.19622 24.5463 5.67432 23.9023 5.67432H4.46952C3.82549 5.67432 3.30359 6.19629 3.30359 6.84025C3.30359 7.48421 3.82556 8.00618 4.46952 8.00618H22.7363V16.1679C22.7363 16.812 23.2583 17.3339 23.9023 17.3339H32.97L34.6681 19.5212V25.5345H31.4422C30.7982 25.5345 30.2763 26.0565 30.2763 26.7004C30.2763 27.3445 30.7982 27.8664 31.4422 27.8664H35.834C36.478 27.8664 36.9999 27.3444 37 26.7004V19.1218C37 18.8629 36.9137 18.6111 36.7552 18.4067Z" fill="white"/>
<path d="M8.4338 19.627H3.07032C2.42629 19.627 1.90439 20.1489 1.90439 20.7929C1.90439 21.4369 2.42636 21.9588 3.07032 21.9588H8.43373C9.07776 21.9588 9.59967 21.4368 9.59967 20.7929C9.59974 20.1489 9.07776 19.627 8.4338 19.627Z" fill="white"/>
<path d="M11.1155 15.041H1.16593C0.521975 15.041 0 15.563 0 16.207C0 16.8511 0.521975 17.373 1.16593 17.373H11.1155C11.7596 17.373 12.2815 16.851 12.2815 16.207C12.2815 15.5631 11.7596 15.041 11.1155 15.041Z" fill="white"/>
<path d="M13.0199 10.4546H3.07032C2.42629 10.4546 1.90439 10.9766 1.90439 11.6205C1.90439 12.2646 2.42636 12.7865 3.07032 12.7865H13.0199C13.664 12.7865 14.1859 12.2645 14.1859 11.6205C14.1859 10.9766 13.664 10.4546 13.0199 10.4546Z" fill="white"/>
</g>
<defs>
<clipPath id="clip0_2_1792">
<rect width="37" height="37" fill="white"/>
</clipPath>
</defs>
</svg>
