<svg width="18" height="18" viewBox="0 0 18 18" fill="none" xmlns="http://www.w3.org/2000/svg">
<g clip-path="url(#clip0_2_1835)">
<path d="M15.8509 1.87578C15.6975 1.7224 15.4894 1.63623 15.2724 1.63623C15.2723 1.63623 15.2722 1.63623 15.2722 1.63623L14.4542 1.63651V2.4547V3.27289V14.7271V15.5453V16.3635H15.2724C15.7243 16.3635 16.0906 15.9972 16.0906 15.5453V2.45442C16.0906 2.23737 16.0044 2.02924 15.8509 1.87578Z" fill="#D67E2A"/>
<path d="M12.5261 0.191365C12.3408 0.035904 12.0963 -0.0296623 11.8581 0.0125252L2.58535 1.64985C2.19437 1.71887 1.90936 2.05858 1.90936 2.45556V15.5455C1.90936 15.9425 2.19441 16.2823 2.58538 16.3512L11.8581 17.9876C11.9055 17.9959 11.953 18 12.0002 18C12.1911 18 12.3777 17.9332 12.5262 17.8086C12.7115 17.6532 12.8184 17.4237 12.8184 17.1819V17.0123V16.3637V15.5455V14.7273V3.27347V2.45528V1.63709V0.818199C12.8184 0.57636 12.7115 0.346896 12.5261 0.191365ZM9.30622 10.1242C9.1541 10.2764 8.94296 10.3636 8.72755 10.3636C8.51212 10.3636 8.30157 10.2764 8.14881 10.1241C7.99662 9.9715 7.90936 9.76095 7.90936 9.54544C7.90936 9.33 7.99662 9.11938 8.14881 8.96677C8.30153 8.81454 8.51208 8.72725 8.72755 8.72725C8.94296 8.72725 9.1541 8.81451 9.30622 8.96677C9.45841 9.11945 9.54574 9.33 9.54574 9.54544C9.54571 9.76098 9.45838 9.97153 9.30622 10.1242Z" fill="#D67E2A"/>
</g>
<defs>
<clipPath id="clip0_2_1835">
<rect width="18" height="18" fill="white"/>
</clipPath>
</defs>
</svg>
