<?xml version="1.0" encoding="UTF-8" standalone="no"?>
<!DOCTYPE svg PUBLIC "-//W3C//DTD SVG 1.1//EN"
 "http://www.w3.org/Graphics/SVG/1.1/DTD/svg11.dtd">
<!-- Generated by graphviz version 8.0.5 (20230430.1635)
 -->
<!-- Title: packages Pages: 1 -->
<svg width="7912pt" height="260pt"
 viewBox="0.00 0.00 7912.38 260.00" xmlns="http://www.w3.org/2000/svg" xmlns:xlink="http://www.w3.org/1999/xlink">
<g id="graph0" class="graph" transform="scale(1 1) rotate(0) translate(4 256)">
<title>packages</title>
<polygon fill="white" stroke="none" points="-4,4 -4,-256 7908.38,-256 7908.38,4 -4,4"/>
<!-- restaurant -->
<g id="node1" class="node">
<title>restaurant</title>
<polygon fill="none" stroke="black" points="308.75,-36 238.75,-36 238.75,0 308.75,0 308.75,-36"/>
<text text-anchor="middle" x="273.75" y="-12.57" font-family="Times New Roman,serif" font-size="14.00">restaurant</text>
</g>
<!-- restaurant.admin -->
<g id="node2" class="node">
<title>restaurant.admin</title>
<polygon fill="none" stroke="black" points="107.5,-180 0,-180 0,-144 107.5,-144 107.5,-180"/>
<text text-anchor="middle" x="53.75" y="-156.57" font-family="Times New Roman,serif" font-size="14.00">restaurant.admin</text>
</g>
<!-- restaurant.models -->
<g id="node27" class="node">
<title>restaurant.models</title>
<polygon fill="none" stroke="black" points="334.88,-252 220.62,-252 220.62,-216 334.88,-216 334.88,-252"/>
<text text-anchor="middle" x="277.75" y="-228.57" font-family="Times New Roman,serif" font-size="14.00">restaurant.models</text>
</g>
<!-- restaurant.admin&#45;&gt;restaurant.models -->
<g id="edge1" class="edge">
<title>restaurant.admin&#45;&gt;restaurant.models</title>
<path fill="none" stroke="black" d="M107.97,-179.95C139.57,-189.82 179.62,-202.34 212.89,-212.73"/>
<polygon fill="black" stroke="black" points="222.08,-215.6 211.19,-216.91 217.31,-214.11 212.53,-212.62 212.53,-212.62 212.53,-212.62 217.31,-214.11 213.88,-208.32 222.08,-215.6 222.08,-215.6"/>
</g>
<!-- restaurant.asgi -->
<g id="node3" class="node">
<title>restaurant.asgi</title>
<polygon fill="none" stroke="black" points="534.5,-36 439,-36 439,0 534.5,0 534.5,-36"/>
<text text-anchor="middle" x="486.75" y="-12.57" font-family="Times New Roman,serif" font-size="14.00">restaurant.asgi</text>
</g>
<!-- restaurant.context_processors -->
<g id="node4" class="node">
<title>restaurant.context_processors</title>
<polygon fill="none" stroke="black" points="310.12,-180 125.38,-180 125.38,-144 310.12,-144 310.12,-180"/>
<text text-anchor="middle" x="217.75" y="-156.57" font-family="Times New Roman,serif" font-size="14.00">restaurant.context_processors</text>
</g>
<!-- restaurant.context_processors&#45;&gt;restaurant.models -->
<g id="edge2" class="edge">
<title>restaurant.context_processors&#45;&gt;restaurant.models</title>
<path fill="none" stroke="black" d="M232.58,-180.3C239.85,-188.78 248.72,-199.14 256.68,-208.42"/>
<polygon fill="black" stroke="black" points="263.09,-215.9 253.16,-211.23 259.84,-212.1 256.58,-208.3 256.58,-208.3 256.58,-208.3 259.84,-212.1 260,-205.37 263.09,-215.9 263.09,-215.9"/>
</g>
<!-- restaurant.migrations -->
<g id="node5" class="node">
<title>restaurant.migrations</title>
<polygon fill="none" stroke="black" points="684.5,-36 553,-36 553,0 684.5,0 684.5,-36"/>
<text text-anchor="middle" x="618.75" y="-12.57" font-family="Times New Roman,serif" font-size="14.00">restaurant.migrations</text>
</g>
<!-- restaurant.migrations.0001_initial -->
<g id="node6" class="node">
<title>restaurant.migrations.0001_initial</title>
<polygon fill="none" stroke="black" points="900.88,-36 702.62,-36 702.62,0 900.88,0 900.88,-36"/>
<text text-anchor="middle" x="801.75" y="-12.57" font-family="Times New Roman,serif" font-size="14.00">restaurant.migrations.0001_initial</text>
</g>
<!-- restaurant.migrations.0002_auto_20220110_2128 -->
<g id="node7" class="node">
<title>restaurant.migrations.0002_auto_20220110_2128</title>
<polygon fill="none" stroke="black" points="1208.62,-36 918.88,-36 918.88,0 1208.62,0 1208.62,-36"/>
<text text-anchor="middle" x="1063.75" y="-12.57" font-family="Times New Roman,serif" font-size="14.00">restaurant.migrations.0002_auto_20220110_2128</text>
</g>
<!-- restaurant.migrations.0003_auto_20220112_1728 -->
<g id="node8" class="node">
<title>restaurant.migrations.0003_auto_20220112_1728</title>
<polygon fill="none" stroke="black" points="1516.62,-36 1226.88,-36 1226.88,0 1516.62,0 1516.62,-36"/>
<text text-anchor="middle" x="1371.75" y="-12.57" font-family="Times New Roman,serif" font-size="14.00">restaurant.migrations.0003_auto_20220112_1728</text>
</g>
<!-- restaurant.migrations.0004_auto_20220126_2107 -->
<g id="node9" class="node">
<title>restaurant.migrations.0004_auto_20220126_2107</title>
<polygon fill="none" stroke="black" points="1824.62,-36 1534.88,-36 1534.88,0 1824.62,0 1824.62,-36"/>
<text text-anchor="middle" x="1679.75" y="-12.57" font-family="Times New Roman,serif" font-size="14.00">restaurant.migrations.0004_auto_20220126_2107</text>
</g>
<!-- restaurant.migrations.0005_profile_is_password_changed -->
<g id="node10" class="node">
<title>restaurant.migrations.0005_profile_is_password_changed</title>
<polygon fill="none" stroke="black" points="2181,-36 1842.5,-36 1842.5,0 2181,0 2181,-36"/>
<text text-anchor="middle" x="2011.75" y="-12.57" font-family="Times New Roman,serif" font-size="14.00">restaurant.migrations.0005_profile_is_password_changed</text>
</g>
<!-- restaurant.migrations.0006_auto_20220304_1327 -->
<g id="node11" class="node">
<title>restaurant.migrations.0006_auto_20220304_1327</title>
<polygon fill="none" stroke="black" points="2488.62,-36 2198.88,-36 2198.88,0 2488.62,0 2488.62,-36"/>
<text text-anchor="middle" x="2343.75" y="-12.57" font-family="Times New Roman,serif" font-size="14.00">restaurant.migrations.0006_auto_20220304_1327</text>
</g>
<!-- restaurant.migrations.0007_auto_20220305_0007 -->
<g id="node12" class="node">
<title>restaurant.migrations.0007_auto_20220305_0007</title>
<polygon fill="none" stroke="black" points="2796.62,-36 2506.88,-36 2506.88,0 2796.62,0 2796.62,-36"/>
<text text-anchor="middle" x="2651.75" y="-12.57" font-family="Times New Roman,serif" font-size="14.00">restaurant.migrations.0007_auto_20220305_0007</text>
</g>
<!-- restaurant.migrations.0008_setting_career_video -->
<g id="node13" class="node">
<title>restaurant.migrations.0008_setting_career_video</title>
<polygon fill="none" stroke="black" points="3100.38,-36 2815.12,-36 2815.12,0 3100.38,0 3100.38,-36"/>
<text text-anchor="middle" x="2957.75" y="-12.57" font-family="Times New Roman,serif" font-size="14.00">restaurant.migrations.0008_setting_career_video</text>
</g>
<!-- restaurant.migrations.0009_auto_20220318_2055 -->
<g id="node14" class="node">
<title>restaurant.migrations.0009_auto_20220318_2055</title>
<polygon fill="none" stroke="black" points="3408.62,-36 3118.88,-36 3118.88,0 3408.62,0 3408.62,-36"/>
<text text-anchor="middle" x="3263.75" y="-12.57" font-family="Times New Roman,serif" font-size="14.00">restaurant.migrations.0009_auto_20220318_2055</text>
</g>
<!-- restaurant.migrations.0010_setting_main_banner_mobile -->
<g id="node15" class="node">
<title>restaurant.migrations.0010_setting_main_banner_mobile</title>
<polygon fill="none" stroke="black" points="3756.5,-36 3427,-36 3427,0 3756.5,0 3756.5,-36"/>
<text text-anchor="middle" x="3591.75" y="-12.57" font-family="Times New Roman,serif" font-size="14.00">restaurant.migrations.0010_setting_main_banner_mobile</text>
</g>
<!-- restaurant.migrations.0011_city_city_timezone -->
<g id="node16" class="node">
<title>restaurant.migrations.0011_city_city_timezone</title>
<polygon fill="none" stroke="black" points="4049.12,-36 3774.38,-36 3774.38,0 4049.12,0 4049.12,-36"/>
<text text-anchor="middle" x="3911.75" y="-12.57" font-family="Times New Roman,serif" font-size="14.00">restaurant.migrations.0011_city_city_timezone</text>
</g>
<!-- restaurant.migrations.0012_alter_menue_image -->
<g id="node17" class="node">
<title>restaurant.migrations.0012_alter_menue_image</title>
<polygon fill="none" stroke="black" points="4343.88,-36 4067.62,-36 4067.62,0 4343.88,0 4343.88,-36"/>
<text text-anchor="middle" x="4205.75" y="-12.57" font-family="Times New Roman,serif" font-size="14.00">restaurant.migrations.0012_alter_menue_image</text>
</g>
<!-- restaurant.migrations.0013_setting_payment_and_return -->
<g id="node18" class="node">
<title>restaurant.migrations.0013_setting_payment_and_return</title>
<polygon fill="none" stroke="black" points="4689.75,-36 4361.75,-36 4361.75,0 4689.75,0 4689.75,-36"/>
<text text-anchor="middle" x="4525.75" y="-12.57" font-family="Times New Roman,serif" font-size="14.00">restaurant.migrations.0013_setting_payment_and_return</text>
</g>
<!-- restaurant.migrations.0014_auto_20220407_2314 -->
<g id="node19" class="node">
<title>restaurant.migrations.0014_auto_20220407_2314</title>
<polygon fill="none" stroke="black" points="4997.62,-36 4707.88,-36 4707.88,0 4997.62,0 4997.62,-36"/>
<text text-anchor="middle" x="4852.75" y="-12.57" font-family="Times New Roman,serif" font-size="14.00">restaurant.migrations.0014_auto_20220407_2314</text>
</g>
<!-- restaurant.migrations.0015_auto_20220408_1547 -->
<g id="node20" class="node">
<title>restaurant.migrations.0015_auto_20220408_1547</title>
<polygon fill="none" stroke="black" points="5305.62,-36 5015.88,-36 5015.88,0 5305.62,0 5305.62,-36"/>
<text text-anchor="middle" x="5160.75" y="-12.57" font-family="Times New Roman,serif" font-size="14.00">restaurant.migrations.0015_auto_20220408_1547</text>
</g>
<!-- restaurant.migrations.0016_menue_is_active -->
<g id="node21" class="node">
<title>restaurant.migrations.0016_menue_is_active</title>
<polygon fill="none" stroke="black" points="5585.75,-36 5323.75,-36 5323.75,0 5585.75,0 5585.75,-36"/>
<text text-anchor="middle" x="5454.75" y="-12.57" font-family="Times New Roman,serif" font-size="14.00">restaurant.migrations.0016_menue_is_active</text>
</g>
<!-- restaurant.migrations.0017_preorder_filepdf -->
<g id="node22" class="node">
<title>restaurant.migrations.0017_preorder_filepdf</title>
<polygon fill="none" stroke="black" points="5865.38,-36 5604.12,-36 5604.12,0 5865.38,0 5865.38,-36"/>
<text text-anchor="middle" x="5734.75" y="-12.57" font-family="Times New Roman,serif" font-size="14.00">restaurant.migrations.0017_preorder_filepdf</text>
</g>
<!-- restaurant.migrations.0018_auto_20220427_1525 -->
<g id="node23" class="node">
<title>restaurant.migrations.0018_auto_20220427_1525</title>
<polygon fill="none" stroke="black" points="6173.62,-36 5883.88,-36 5883.88,0 6173.62,0 6173.62,-36"/>
<text text-anchor="middle" x="6028.75" y="-12.57" font-family="Times New Roman,serif" font-size="14.00">restaurant.migrations.0018_auto_20220427_1525</text>
</g>
<!-- restaurant.migrations.0019_auto_20220429_1924 -->
<g id="node24" class="node">
<title>restaurant.migrations.0019_auto_20220429_1924</title>
<polygon fill="none" stroke="black" points="6481.62,-36 6191.88,-36 6191.88,0 6481.62,0 6481.62,-36"/>
<text text-anchor="middle" x="6336.75" y="-12.57" font-family="Times New Roman,serif" font-size="14.00">restaurant.migrations.0019_auto_20220429_1924</text>
</g>
<!-- restaurant.migrations.0020_auto_20220901_2046 -->
<g id="node25" class="node">
<title>restaurant.migrations.0020_auto_20220901_2046</title>
<polygon fill="none" stroke="black" points="6789.62,-36 6499.88,-36 6499.88,0 6789.62,0 6789.62,-36"/>
<text text-anchor="middle" x="6644.75" y="-12.57" font-family="Times New Roman,serif" font-size="14.00">restaurant.migrations.0020_auto_20220901_2046</text>
</g>
<!-- restaurant.migrations.0021_auto_20220901_2052 -->
<g id="node26" class="node">
<title>restaurant.migrations.0021_auto_20220901_2052</title>
<polygon fill="none" stroke="black" points="7097.62,-36 6807.88,-36 6807.88,0 7097.62,0 7097.62,-36"/>
<text text-anchor="middle" x="6952.75" y="-12.57" font-family="Times New Roman,serif" font-size="14.00">restaurant.migrations.0021_auto_20220901_2052</text>
</g>
<!-- restaurant.nocache -->
<g id="node28" class="node">
<title>restaurant.nocache</title>
<polygon fill="none" stroke="black" points="7235.88,-36 7115.62,-36 7115.62,0 7235.88,0 7235.88,-36"/>
<text text-anchor="middle" x="7175.75" y="-12.57" font-family="Times New Roman,serif" font-size="14.00">restaurant.nocache</text>
</g>
<!-- restaurant.settings -->
<g id="node29" class="node">
<title>restaurant.settings</title>
<polygon fill="none" stroke="black" points="7369.62,-36 7253.88,-36 7253.88,0 7369.62,0 7369.62,-36"/>
<text text-anchor="middle" x="7311.75" y="-12.57" font-family="Times New Roman,serif" font-size="14.00">restaurant.settings</text>
</g>
<!-- restaurant.templatetags -->
<g id="node30" class="node">
<title>restaurant.templatetags</title>
<polygon fill="none" stroke="black" points="7530.12,-36 7387.38,-36 7387.38,0 7530.12,0 7530.12,-36"/>
<text text-anchor="middle" x="7458.75" y="-12.57" font-family="Times New Roman,serif" font-size="14.00">restaurant.templatetags</text>
</g>
<!-- restaurant.templatetags.restaurant_filters -->
<g id="node31" class="node">
<title>restaurant.templatetags.restaurant_filters</title>
<polygon fill="none" stroke="black" points="7787.12,-36 7548.38,-36 7548.38,0 7787.12,0 7787.12,-36"/>
<text text-anchor="middle" x="7667.75" y="-12.57" font-family="Times New Roman,serif" font-size="14.00">restaurant.templatetags.restaurant_filters</text>
</g>
<!-- restaurant.urls -->
<g id="node32" class="node">
<title>restaurant.urls</title>
<polygon fill="none" stroke="black" points="420.75,-36 326.75,-36 326.75,0 420.75,0 420.75,-36"/>
<text text-anchor="middle" x="373.75" y="-12.57" font-family="Times New Roman,serif" font-size="14.00">restaurant.urls</text>
</g>
<!-- restaurant.views -->
<g id="node34" class="node">
<title>restaurant.views</title>
<polygon fill="none" stroke="black" points="426.38,-108 321.12,-108 321.12,-72 426.38,-72 426.38,-108"/>
<text text-anchor="middle" x="373.75" y="-84.58" font-family="Times New Roman,serif" font-size="14.00">restaurant.views</text>
</g>
<!-- restaurant.urls&#45;&gt;restaurant.views -->
<g id="edge3" class="edge">
<title>restaurant.urls&#45;&gt;restaurant.views</title>
<path fill="none" stroke="black" d="M373.75,-36.3C373.75,-44.1 373.75,-53.49 373.75,-62.17"/>
<polygon fill="black" stroke="black" points="373.75,-71.9 369.25,-61.9 373.75,-66.9 373.75,-61.9 373.75,-61.9 373.75,-61.9 373.75,-66.9 378.25,-61.9 373.75,-71.9 373.75,-71.9"/>
</g>
<!-- restaurant.util -->
<g id="node33" class="node">
<title>restaurant.util</title>
<polygon fill="none" stroke="black" points="455.88,-180 365.62,-180 365.62,-144 455.88,-144 455.88,-180"/>
<text text-anchor="middle" x="410.75" y="-156.57" font-family="Times New Roman,serif" font-size="14.00">restaurant.util</text>
</g>
<!-- restaurant.util&#45;&gt;restaurant.models -->
<g id="edge4" class="edge">
<title>restaurant.util&#45;&gt;restaurant.models</title>
<path fill="none" stroke="black" d="M377.53,-180.48C359.86,-189.78 337.97,-201.3 319.2,-211.18"/>
<polygon fill="black" stroke="black" points="310.55,-215.74 317.3,-207.1 314.97,-213.41 319.39,-211.08 319.39,-211.08 319.39,-211.08 314.97,-213.41 321.49,-215.06 310.55,-215.74 310.55,-215.74"/>
</g>
<!-- restaurant.views&#45;&gt;restaurant.models -->
<g id="edge5" class="edge">
<title>restaurant.views&#45;&gt;restaurant.models</title>
<path fill="none" stroke="black" d="M363.73,-108.4C353.08,-126.6 335.51,-155.81 318.75,-180 312.26,-189.37 304.73,-199.33 297.9,-208.06"/>
<polygon fill="black" stroke="black" points="291.89,-215.68 294.56,-205.04 294.99,-211.76 298.09,-207.83 298.09,-207.83 298.09,-207.83 294.99,-211.76 301.62,-210.62 291.89,-215.68 291.89,-215.68"/>
</g>
<!-- restaurant.views&#45;&gt;restaurant.util -->
<g id="edge6" class="edge">
<title>restaurant.views&#45;&gt;restaurant.util</title>
<path fill="none" stroke="black" d="M382.9,-108.3C387.2,-116.44 392.41,-126.31 397.17,-135.3"/>
<polygon fill="black" stroke="black" points="401.71,-143.9 393.06,-137.16 399.37,-139.48 397.04,-135.05 397.04,-135.05 397.04,-135.05 399.37,-139.48 401.01,-132.95 401.71,-143.9 401.71,-143.9"/>
</g>
<!-- restaurant.wsgi -->
<g id="node35" class="node">
<title>restaurant.wsgi</title>
<polygon fill="none" stroke="black" points="7904.38,-36 7805.12,-36 7805.12,0 7904.38,0 7904.38,-36"/>
<text text-anchor="middle" x="7854.75" y="-12.57" font-family="Times New Roman,serif" font-size="14.00">restaurant.wsgi</text>
</g>
</g>
</svg>
